<svg width="20" height="12" viewBox="0 0 20 12" fill="none" xmlns="http://www.w3.org/2000/svg">
<path fill-rule="evenodd" clip-rule="evenodd" d="M11.5266 10.9189C11.3418 11.1138 10.9809 11.1532 10.9809 11.1532H9.78547C9.78547 11.1532 7.1482 11.3087 4.825 8.93513C2.29148 6.34545 0.054295 1.2074 0.054295 1.2074C0.054295 1.2074 -0.0747671 0.870367 0.0650767 0.708101C0.222577 0.524742 0.65203 0.51318 0.65203 0.51318L3.5093 0.494977C3.5093 0.494977 3.77836 0.53818 3.97101 0.677399C4.13047 0.792633 4.21953 1.00677 4.21953 1.00677C4.21953 1.00677 4.68125 2.15326 5.29258 3.19021C6.48695 5.21529 7.04258 5.65795 7.44758 5.44091C8.03844 5.12506 7.86133 2.57857 7.86133 2.57857C7.86133 2.57857 7.87211 1.6549 7.56398 1.24295C7.32531 0.924195 6.87531 0.830992 6.67672 0.805133C6.51531 0.783961 6.77945 0.417165 7.1218 0.253024C7.63633 0.00622708 8.54414 -0.00814854 9.61719 0.00239834C10.4536 0.0109921 10.6942 0.061929 11.0209 0.139663C11.7792 0.319273 11.7555 0.894898 11.7045 2.13724C11.6891 2.5088 11.6714 2.9399 11.6714 3.43795C11.6714 3.5499 11.6681 3.6692 11.6647 3.79193C11.647 4.42834 11.6266 5.15717 12.0539 5.42849C12.273 5.5667 12.8081 5.44865 14.1473 3.21709C14.7821 2.15896 15.2575 0.915524 15.2575 0.915524C15.2575 0.915524 15.3622 0.693727 15.5236 0.598649C15.6889 0.501696 15.912 0.531461 15.912 0.531461L18.9189 0.51318C18.9189 0.51318 19.8228 0.406617 19.9685 0.808024C20.1221 1.22756 19.6311 2.20888 18.4024 3.8163C17.237 5.34146 16.6698 5.90295 16.7219 6.39959C16.7599 6.76248 17.1286 7.09068 17.8361 7.73482C19.3129 9.08084 19.7088 9.78896 19.8039 9.95912C19.8118 9.97318 19.8176 9.98357 19.8218 9.99037C20.4841 11.0686 19.0872 11.1532 19.0872 11.1532L16.4157 11.1897C16.4157 11.1897 15.8425 11.3011 15.0873 10.7922C14.6917 10.5258 14.3052 10.0908 13.937 9.67638C13.3747 9.04357 12.8553 8.45904 12.412 8.59709C11.6675 8.82951 11.69 10.4033 11.69 10.4033C11.69 10.4033 11.6959 10.7403 11.5266 10.9189Z" fill="#6E1866"/>
</svg>
