<svg width="74" height="100" viewBox="0 0 74 100" fill="none" xmlns="http://www.w3.org/2000/svg">
<path d="M29.6775 0.866409C30.2737 0.767719 30.8773 0.788492 31.479 0.779021C31.6703 0.77719 31.8675 0.785785 32.0464 0.861792C31.8046 0.925384 31.5579 0.976721 31.3314 1.08504C30.9448 1.26356 30.5212 1.34147 30.1335 1.51824C29.7651 1.68068 29.4138 1.87743 29.0463 2.03891C28.5616 2.29073 28.0418 2.46933 27.579 2.76198C26.5069 3.30549 25.5081 3.97626 24.475 4.58528C24.1314 4.84744 23.7725 5.08788 23.4049 5.31495C22.6469 5.85743 21.9129 6.43238 21.1512 6.97008C20.4971 7.52115 19.8001 8.01994 19.1603 8.58908C18.6728 8.95304 18.2567 9.39762 17.7778 9.77018C16.6019 10.8106 15.4707 11.9012 14.3787 13.0281C13.5912 13.8899 12.7029 14.6491 11.8984 15.4937C11.3262 16.0476 10.8072 16.6509 10.2779 17.2429C10.2759 17.2296 10.2721 17.2039 10.2702 17.1906C10.7129 16.6509 11.0576 16.04 11.45 15.4633C12.5953 13.8224 13.7702 12.1988 15.0633 10.6698C15.3051 10.4191 15.5223 10.1463 15.7268 9.86513C15.944 9.56293 16.2391 9.32933 16.4667 9.03661C16.9218 8.47606 17.4665 8.00004 17.9491 7.46417C18.4824 6.95305 18.9985 6.42283 19.562 5.94394C20.6932 4.96341 21.8491 4.00277 23.1345 3.22566C24.0504 2.60328 25.0558 2.12821 26.0632 1.67225C26.286 1.62465 26.4869 1.50694 26.7088 1.45465C27.6762 1.17243 28.6588 0.872219 29.6775 0.866409V0.866409ZM57.6702 11.4337C57.7912 11.4499 57.853 11.562 57.952 11.621C59.5584 12.7393 61.1494 13.8852 62.65 15.1451C62.9516 15.4157 63.262 15.6789 63.5973 15.9108C63.9258 16.1815 64.2066 16.5075 64.5436 16.7707C64.8807 17.0329 65.1664 17.3521 65.4749 17.6466C66.5394 18.6443 67.5181 19.7303 68.4483 20.8543C68.9197 21.4643 69.4177 22.0543 69.8365 22.7033C70.3498 23.5422 70.9096 24.3584 71.3143 25.2581C71.8609 26.3727 72.2807 27.5538 72.5464 28.766C72.5958 28.8753 72.5255 29.0472 72.6463 29.1186C72.8262 29.8767 72.9186 30.6521 73.0215 31.4227C73.0499 31.9899 73.0462 32.5589 73.0824 33.1261C72.4112 30.4849 71.1934 28.0164 69.8042 25.6829C69.0759 24.5237 68.3399 23.3665 67.4935 22.29C66.4117 20.7298 65.1692 19.2895 63.9353 17.8491C62.6938 16.4638 61.4054 15.1194 60.0449 13.85C59.4497 13.2656 58.9013 12.6338 58.2872 12.0685C58.0672 11.8709 57.8693 11.6513 57.6702 11.4337V11.4337ZM0.515625 41.7809C0.548963 41.9348 0.562283 42.0935 0.617475 42.2436C0.795571 42.6484 0.870781 43.0883 1.04122 43.4959C1.2726 44.3149 1.64578 45.0816 1.979 45.8618C2.79412 47.6108 3.75478 49.2888 4.82113 50.8965C5.20771 51.3953 5.49811 51.9606 5.92473 52.4299C6.90542 53.8484 8.00223 55.1834 9.11907 56.4965C10.5625 58.1839 12.1088 59.783 13.7265 61.3051C14.3111 61.8923 14.8615 62.5155 15.4746 63.0752C15.6459 63.2319 15.8003 63.4067 15.9573 63.5788C15.8325 63.5683 15.7755 63.4372 15.6736 63.3887C13.8645 62.1308 12.0792 60.83 10.4159 59.3839C9.96178 59.078 9.58756 58.6808 9.18192 58.3179C8.68774 57.9388 8.28026 57.4637 7.81943 57.0467C6.71209 55.9607 5.67142 54.8033 4.72598 53.5739C4.03561 52.7491 3.4872 51.8209 2.92261 50.9097C2.27227 49.7525 1.71907 48.5344 1.34685 47.2584C1.17067 46.7396 1.10311 46.1933 0.936502 45.6726C0.779381 44.9543 0.689892 44.2228 0.601282 43.4941C0.602239 42.9209 0.548963 42.352 0.515625 41.7809V41.7809ZM62.2014 59.0362C62.586 58.6514 62.9089 58.2096 63.3155 57.8466C63.3211 57.9806 63.1545 58.0053 63.1183 58.1212C61.593 60.4775 59.9391 62.7578 58.1016 64.8814C57.7541 65.3945 57.2789 65.8001 56.8952 66.2847C55.8841 67.3403 54.8729 68.4007 53.7494 69.3403C53.1981 69.8363 52.6011 70.2762 52.0308 70.7494C50.5359 71.8268 48.9553 72.8121 47.2206 73.4553C46.3085 73.8506 45.3287 74.0833 44.3385 74.1527C43.8072 74.2753 43.2568 74.2193 42.7161 74.2534C42.222 74.3361 41.7248 74.187 41.225 74.262C41.6963 74.1195 42.1819 74.0188 42.6256 73.7983C43.3073 73.538 43.9814 73.2586 44.6413 72.947C45.4953 72.5099 46.3703 72.1109 47.2025 71.632C48.0442 71.0781 48.9402 70.6068 49.7457 70.0007C50.356 69.6672 50.853 69.176 51.4375 68.8064C54.4015 66.6154 57.1894 64.185 59.7106 61.4951C60.5494 60.6856 61.3941 59.879 62.2014 59.0362V59.0362Z" fill="#A2198E"/>
<path d="M35.755 0.0847077C36.6367 -0.0814739 37.5403 0.028758 38.42 0.143684C39.4779 0.286228 40.5318 0.515125 41.543 0.864838C42.4276 1.10806 43.2959 1.42729 44.1129 1.84346C45.1136 2.25494 46.0505 2.8002 47.013 3.28951C47.2568 3.4576 47.5215 3.59068 47.7785 3.73696C48.3546 4.15791 48.9963 4.47619 49.5685 4.90278C50.5188 5.50909 51.3927 6.22451 52.3154 6.87062C53.6123 7.89485 54.8929 8.94184 56.1278 10.0393C56.6296 10.5095 57.1418 10.9694 57.655 11.4273C57.8541 11.6449 58.052 11.8644 58.272 12.0621C58.8861 12.6274 59.4346 13.2591 60.0297 13.8435C61.3902 15.1129 62.6785 16.4573 63.92 17.8427C65.154 19.2831 66.3966 20.7234 67.4782 22.2836C68.3247 23.36 69.0606 24.5172 69.7891 25.6765C71.1782 28.0101 72.396 30.4784 73.0671 33.1197C73.2634 34.0347 73.4881 34.9488 73.5223 35.8885C73.6318 36.6419 73.5775 37.4047 73.5927 38.164C73.5023 40.0367 73.1557 41.9047 72.5074 43.67C71.9931 45.194 71.2628 46.6335 70.5051 48.0492C70.0384 48.9242 69.4975 49.7555 68.9722 50.5955C68.6493 51.0392 68.3493 51.4983 68.0485 51.9561C67.3173 52.8511 66.7099 53.842 65.9452 54.7104C65.1016 55.7861 64.1953 56.8084 63.3002 57.8402C62.8936 58.2032 62.5709 58.645 62.1863 59.0298C61.3788 59.8724 60.5342 60.6792 59.6954 61.4886C57.1742 64.1785 54.3864 66.6089 51.4223 68.7999C50.8378 69.1695 50.3407 69.6607 49.7304 69.9942C48.925 70.6005 48.029 71.0716 47.1873 71.6257C46.3551 72.1045 45.4801 72.5035 44.6262 72.9406C43.9662 73.2523 43.2921 73.5315 42.6104 73.7919C42.1667 74.0124 41.6811 74.113 41.2098 74.2555C40.3281 74.5293 39.4151 74.6974 38.5067 74.8646C38.2868 74.9016 38.063 74.8893 37.842 74.915C36.8005 75.1125 35.7446 74.9206 34.7086 74.7952C33.7565 74.629 32.8157 74.4076 31.8998 74.0959C31.1971 73.9059 30.5402 73.579 29.8519 73.3454C29.5128 73.1458 29.1376 73.0195 28.7826 72.8522C27.7656 72.3364 26.7478 71.8175 25.7709 71.2295C25.2321 70.8352 24.6274 70.5405 24.0933 70.1416C23.5011 69.7538 22.9202 69.3509 22.3652 68.9121C21.4169 68.2545 20.5246 67.5211 19.6193 66.8056C19.1546 66.3789 18.6375 66.0132 18.1834 65.5752C17.4084 64.9386 16.7 64.2288 15.942 63.5724C15.7851 63.4004 15.6307 63.2254 15.4593 63.0688C14.8462 62.5091 14.2959 61.8859 13.7112 61.2987C12.0937 59.7765 10.5473 58.1775 9.10384 56.4901C7.98708 55.177 6.89011 53.842 5.90942 52.4236C5.48288 51.9541 5.19249 51.3888 4.80583 50.89C3.73956 49.2824 2.77889 47.6044 1.96385 45.8553C1.63063 45.0752 1.25745 44.3085 1.026 43.4895C0.855555 43.0818 0.780264 42.6419 0.602326 42.2372C0.546975 42.087 0.533815 41.9283 0.500317 41.7746C0.276599 40.7939 0.107197 39.7973 0.0547969 38.7921C-0.0394756 38.238 0.0272783 37.6757 0.00239421 37.1178C-0.0146737 36.8623 0.0652437 36.6143 0.0613356 36.3598C0.057587 35.3669 0.274686 34.392 0.468894 33.4229C0.627929 32.6389 0.910747 31.8903 1.15927 31.132C1.63534 29.7848 2.25999 28.4936 2.94263 27.2395C3.34157 26.4527 3.79954 25.6992 4.28127 24.9611C4.58418 24.4089 4.98967 23.9225 5.32106 23.3876C5.62677 22.8812 6.04844 22.4575 6.36555 21.9587C7.23578 20.749 8.19653 19.607 9.15728 18.4689C9.53229 18.0639 9.84933 17.605 10.2625 17.2364C10.7921 16.6444 11.3109 16.0411 11.8832 15.4872C12.6876 14.6426 13.576 13.8834 14.3635 13.0216C15.4556 11.8948 16.5867 10.8041 17.7625 9.76367C18.2415 9.3912 18.6576 8.94653 19.1451 8.58265C19.7849 8.01351 20.4819 7.51465 21.136 6.96374C21.8975 6.42596 22.6318 5.851 23.3896 5.30853C23.7572 5.08154 24.1161 4.84102 24.4598 4.57885C25.493 3.96976 26.4917 3.29906 27.5637 2.75555C28.0265 2.46282 28.5465 2.28439 29.0312 2.03257C29.3986 1.87092 29.7499 1.67418 30.1184 1.5119C30.5059 1.33505 30.9295 1.25713 31.3162 1.07854C31.4776 1.00133 31.6493 0.953102 31.822 0.908771H31.8358C31.9089 0.886646 31.9658 0.874232 32.0312 0.85529C32.0965 0.841521 32.1653 0.821145 32.2284 0.803953C32.2611 0.794164 32.2777 0.790344 32.3091 0.780555L32.3363 0.771243C32.4414 0.7332 32.5398 0.705024 32.652 0.667856C32.9272 0.613019 33.1953 0.516718 33.4661 0.442939C34.2268 0.305171 34.9809 0.129437 35.755 0.0847077V0.0847077ZM18.0967 23.0247C17.756 23.0996 17.4074 23.2584 17.2114 23.5596C16.9143 23.9947 16.8618 24.5401 16.8524 25.0531C16.8505 32.5278 16.8524 40.0025 16.8513 47.4771C16.8561 47.8068 16.8162 48.1536 16.958 48.4634C17.1017 48.642 17.3427 48.7075 17.5645 48.7086C18.5167 48.7152 19.4697 48.7094 20.4228 48.7113C20.6361 48.7048 20.876 48.7189 21.0579 48.5849C21.2149 48.4139 21.1893 48.1632 21.2092 47.9493C21.2131 44.6305 21.2092 41.3108 21.2113 37.992C22.089 37.955 22.9697 37.9873 23.8486 37.9758C24.895 37.992 25.9613 37.9055 26.9869 38.1611C27.6295 38.3169 28.2608 38.6267 28.675 39.1551C29.2176 39.8305 29.5063 40.6668 29.7204 41.4941C30.2526 43.6529 30.7897 45.8107 31.3181 47.9703C31.3704 48.1821 31.4532 48.3988 31.6236 48.5452C31.8875 48.7133 32.2121 48.7142 32.5149 48.7113C33.5337 48.7056 34.5535 48.7218 35.5722 48.7037C35.9273 48.6696 35.9978 48.222 35.9254 47.9398C35.3162 45.5018 34.6905 43.0676 34.0745 40.6306C33.8395 39.6671 33.5013 38.7113 32.9367 37.8875C32.5196 37.2775 31.8837 36.8709 31.2371 36.5412L31.2324 36.4291C31.4827 36.2864 31.7513 36.1773 31.9922 36.0168C33.4261 35.1084 34.4011 33.5548 34.6992 31.8961C34.9485 30.5107 34.8723 29.0571 34.4306 27.7183C33.9678 26.3357 33.0576 25.1006 31.8427 24.2846C30.5069 23.3828 28.8797 22.9714 27.2782 22.9629C24.4532 22.9629 21.6283 22.9629 18.8032 22.9629C18.5661 22.9629 18.3281 22.9714 18.0967 23.0247ZM46.4732 23.035C46.0942 23.1301 45.7124 23.3154 45.4878 23.6469C45.2182 24.0384 45.0925 24.5041 44.9422 24.9496C42.4428 32.6163 39.9434 40.2836 37.4441 47.9512C37.3318 48.2201 37.3964 48.6363 37.7325 48.697C38.8171 48.7294 39.9035 48.7027 40.9888 48.7113C41.2792 48.7086 41.6164 48.7398 41.8448 48.5204C42.0847 48.26 42.1344 47.8934 42.2467 47.5712C42.7141 46.0872 43.1512 44.5925 43.6369 43.1141C46.5931 43.1018 49.5504 43.1018 52.5068 43.1141C53.0324 44.7494 53.518 46.3978 54.0283 48.0387C54.094 48.2411 54.1778 48.4529 54.3539 48.5878C54.5426 48.7 54.77 48.7067 54.9842 48.7113C56.0631 48.7113 57.1428 48.7113 58.2215 48.7105C58.3767 48.7076 58.5568 48.7171 58.671 48.5907C58.8348 48.4178 58.7938 48.1517 58.7319 47.9456C56.1973 40.2086 53.6636 32.4708 51.1301 24.7348C50.9359 24.1857 50.7244 23.5814 50.2207 23.2404C49.5542 22.8707 48.765 22.9819 48.0347 22.9629C47.5138 22.9781 46.9845 22.9163 46.4732 23.035V23.035ZM21.2559 26.9591C22.9774 26.9486 24.6988 26.9591 26.4204 26.9544C26.9926 26.9477 27.5733 26.9839 28.1284 27.1378C29.0415 27.3942 29.827 28.0726 30.1784 28.9564C30.5592 29.9512 30.5906 31.093 30.2079 32.0917C29.9127 32.8233 29.3834 33.4904 28.6588 33.8323C27.9361 34.1839 27.1183 34.2599 26.325 34.2704C24.6351 34.2666 22.9451 34.2731 21.2549 34.2675C21.2446 31.8314 21.2416 29.3943 21.2559 26.9591V26.9591ZM47.948 27.9122C47.9853 27.915 48.0604 27.9207 48.0975 27.9235C48.6156 29.7125 49.1067 31.5093 49.621 33.2992C50.2075 35.3012 50.8081 37.2994 51.3871 39.3031C49.1543 39.306 46.9207 39.306 44.6878 39.3031C45.183 37.5274 45.7124 35.7612 46.2199 33.9891C46.8112 31.9672 47.355 29.9321 47.948 27.9122V27.9122Z" fill="#6E1866"/>
<path d="M18.0968 23.0246C18.3281 22.9713 18.5661 22.9629 18.8032 22.9629C21.6282 22.9629 24.4532 22.9629 27.2782 22.9629C28.8797 22.9713 30.5068 23.3827 31.8427 24.2845C33.0577 25.1006 33.9679 26.3358 34.4306 27.7182C34.8724 29.0569 34.9486 30.5106 34.6991 31.896C34.4011 33.5548 33.4261 35.1082 31.9922 36.0167C31.7513 36.1772 31.4827 36.2864 31.2325 36.429L31.2372 36.5411C31.8837 36.8709 32.5196 37.2775 32.9367 37.8874C33.5014 38.7112 33.8394 39.667 34.0745 40.6305C34.6905 43.0676 35.3162 45.5018 35.9254 47.9397C35.9978 48.2219 35.9273 48.6694 35.5723 48.7037C34.5534 48.7217 33.5337 48.7056 32.5149 48.7113C32.2121 48.7142 31.8874 48.7132 31.6237 48.5451C31.4533 48.3988 31.3704 48.182 31.3181 47.9703C30.7896 45.8105 30.2526 43.6528 29.7203 41.4941C29.5062 40.6666 29.2177 39.8304 28.675 39.1549C28.2608 38.6266 27.6294 38.3168 26.9868 38.161C25.9613 37.9054 24.895 37.992 23.8486 37.9758C22.9697 37.9873 22.089 37.9549 21.2113 37.992C21.2093 41.3107 21.2131 44.6305 21.2093 47.9493C21.1892 48.1631 21.2149 48.4139 21.0579 48.5848C20.876 48.7189 20.6361 48.7047 20.4228 48.7113C19.4698 48.7094 18.5167 48.715 17.5645 48.7085C17.3427 48.7075 17.1018 48.6419 16.958 48.4633C16.8162 48.1536 16.8561 47.8068 16.8513 47.477C16.8523 40.0024 16.8505 32.5278 16.8523 25.0531C16.8618 24.5401 16.9142 23.9947 17.2114 23.5595C17.4075 23.2584 17.756 23.0996 18.0968 23.0246V23.0246ZM21.2559 26.959C21.2416 29.3942 21.2446 31.8313 21.255 34.2675C22.945 34.2732 24.6351 34.2665 26.3251 34.2703C27.1182 34.2598 27.9361 34.1838 28.6588 33.8322C29.3834 33.4903 29.9127 32.8232 30.2079 32.0916C30.5907 31.093 30.5592 29.951 30.1785 28.9562C29.8271 28.0726 29.0415 27.3942 28.1284 27.1377C27.5733 26.9838 26.9926 26.9476 26.4203 26.9543C24.6989 26.959 22.9775 26.9486 21.2559 26.959ZM46.4732 23.035C46.9845 22.9162 47.5138 22.978 48.0347 22.9629C48.765 22.9818 49.5543 22.8707 50.2208 23.2402C50.7244 23.5813 50.9359 24.1856 51.1301 24.7348C53.6637 32.4708 56.1973 40.2086 58.7319 47.9455C58.7938 48.1517 58.8348 48.4177 58.671 48.5907C58.5567 48.717 58.3768 48.7075 58.2215 48.7104C57.1427 48.7113 56.0631 48.7113 54.9843 48.7113C54.77 48.7066 54.5425 48.6999 54.3539 48.5878C54.1778 48.4529 54.094 48.241 54.0284 48.0386C53.518 46.3977 53.0325 44.7493 52.5068 43.1141C49.5504 43.1017 46.5931 43.1017 43.6368 43.1141C43.1512 44.5924 42.7142 46.0871 42.2467 47.5711C42.1343 47.8932 42.0847 48.26 41.8448 48.5204C41.6164 48.7398 41.2793 48.7085 40.9889 48.7113C39.9035 48.7027 38.8171 48.7294 37.7326 48.697C37.3965 48.6363 37.3318 48.22 37.4441 47.9512C39.9435 40.2836 42.4427 32.6161 44.9421 24.9496C45.0926 24.5039 45.2182 24.0383 45.4878 23.6469C45.7124 23.3153 46.0943 23.13 46.4732 23.035V23.035ZM47.948 27.9121C47.3549 29.932 46.8112 31.9672 46.22 33.989C45.7124 35.7611 45.183 37.5274 44.6879 39.3031C46.9206 39.306 49.1544 39.306 51.3871 39.3031C50.8082 37.2993 50.2075 35.3012 49.6209 33.2992C49.1067 31.5092 48.6155 29.7126 48.0975 27.9234C48.0604 27.9206 47.9852 27.915 47.948 27.9121Z" fill="white"/>
<path fill-rule="evenodd" clip-rule="evenodd" d="M43.8346 7.06407C44.5825 7.11461 45.2897 7.39325 45.9767 7.67062C46.8018 8.00776 47.6055 8.41382 48.3493 8.90862C49.0131 9.29073 49.6479 9.73094 50.2206 10.2387C50.9429 10.7812 51.5853 11.4185 52.2605 12.0159C52.422 12.2029 52.608 12.366 52.785 12.5381C53.162 12.9993 53.6137 13.3912 53.9864 13.8559C54.6268 14.5454 55.1827 15.3071 55.7925 16.0228C56.6251 17.1228 57.4398 18.2378 58.2069 19.3839C58.5136 19.8693 58.8307 20.3485 59.1491 20.8263C59.2642 21.0439 59.378 21.2629 59.5142 21.4689C59.8916 22.0546 60.2019 22.6803 60.5599 23.2774C61.3923 24.589 62.1505 25.9461 62.8624 27.3263C63.5564 28.7494 64.2576 30.1744 64.8033 31.6624C65.2609 32.7101 65.6121 33.7999 65.9569 34.8899C66.5882 37.0676 67.0527 39.3183 67.0389 41.5943C67.0049 42.375 66.994 43.1611 66.8237 43.9279C66.7536 44.5599 66.5491 45.1652 66.4014 45.7822C65.934 47.277 65.2603 48.7143 64.3644 50.0054C63.6276 51.1295 62.7342 52.14 61.8235 53.1254C61.2619 53.7349 60.6495 54.2935 60.048 54.8623C59.6935 55.1533 59.3544 55.4614 59.0147 55.7685C58.2352 56.3387 57.5354 57.0122 56.7344 57.5538C55.8259 58.2465 54.8779 58.8828 53.937 59.5292C53.5319 59.7374 53.178 60.0268 52.7861 60.2571C51.9559 60.769 51.1031 61.244 50.2546 61.7223C47.65 63.368 44.8845 64.748 42.0269 65.8975C41.4766 66.0737 40.9714 66.3665 40.4077 66.508C39.629 66.8292 38.8054 67.0221 38.0083 67.2934C37.2348 67.506 36.4433 67.6451 35.6611 67.8193C35.0619 67.9329 34.4582 68.0171 33.8523 68.0847C33.4471 68.1699 33.0334 68.1494 32.6223 68.1657C31.852 68.2021 31.0785 68.1465 30.3089 68.0912C30.1235 68.0749 29.9452 68.018 29.7612 67.9925C28.8775 67.9337 28.0644 67.5571 27.2533 67.2385C26.5186 66.9044 25.8048 66.5281 25.1301 66.0841C24.6021 65.7831 24.1399 65.381 23.6326 65.0479C23.4005 64.8155 23.1239 64.6346 22.8721 64.4249C22.1587 63.7946 21.4452 63.1617 20.7793 62.4814C20.4268 62.0497 20 61.6847 19.6524 61.2502C19.2553 60.8125 18.8706 60.3651 18.5144 59.8938C17.8863 59.1634 17.3195 58.3834 16.7383 57.6151C16.4525 57.1728 16.1116 56.7687 15.8367 56.3193C15.3442 55.6422 14.9211 54.9198 14.4467 54.2302C14.3561 54.0583 14.2681 53.8845 14.1626 53.7219C13.7848 53.1408 13.4712 52.5217 13.1223 51.9244C12.1353 50.3546 11.222 48.7378 10.4106 47.0709C9.78439 45.7752 9.1788 44.466 8.68479 43.1137C8.4389 42.6448 8.32317 42.1269 8.11564 41.6425C7.59228 40.1194 7.16917 38.5614 6.87869 36.9766C6.77365 36.2761 6.63344 35.578 6.61884 34.8673C6.567 34.5021 6.59866 34.1307 6.54012 33.7663C6.52704 33.6332 6.54986 33.5021 6.55512 33.3708C6.5808 32.5312 6.65378 31.69 6.8231 30.8665C6.86362 30.3988 7.03605 29.9582 7.13344 29.502C7.17347 29.2919 7.29032 29.1081 7.34073 28.9017C7.54682 28.0982 7.92765 27.3557 8.28871 26.613C8.58238 26.0126 8.96872 25.4667 9.3293 24.9059C9.9979 23.9167 10.7748 23.0039 11.5908 22.1333C12.079 21.581 12.6079 21.068 13.1528 20.5723C13.514 20.1895 13.9442 19.8813 14.3247 19.5185C14.6785 19.1731 15.1086 18.9191 15.47 18.5823C16.4283 17.787 17.4454 17.0654 18.4618 16.3468C18.8502 16.0981 19.2032 15.7937 19.6148 15.5823C20.1676 15.2149 20.7141 14.836 21.2934 14.5083C22.1215 13.9943 22.9995 13.5668 23.8176 13.0354C24.9378 12.3535 26.0819 11.709 27.2515 11.1147C27.7172 10.9139 28.1472 10.6418 28.6178 10.4499C29.255 10.1239 29.9235 9.86687 30.5683 9.5587C31.2971 9.28372 32.0117 8.97301 32.7386 8.69333C33.0836 8.587 33.4244 8.46786 33.7574 8.32794C34.7209 8.05233 35.6695 7.71965 36.6505 7.50507C37.0864 7.36547 37.5442 7.3303 37.9891 7.22842C38.3202 7.17478 38.6456 7.08946 38.9777 7.0355C39.3282 6.9739 39.687 6.99968 40.0372 6.93649C40.1839 6.90792 40.3329 6.90497 40.4818 6.90529L40.493 6.90816C40.5568 6.90561 40.6054 6.90752 40.6622 6.90593C40.718 6.90856 40.7778 6.90649 40.8325 6.90585C40.8609 6.90473 40.8751 6.90513 40.9025 6.90386L40.9265 6.90203C41.0195 6.89327 41.105 6.89113 41.2035 6.8846C41.4376 6.89797 41.6745 6.8764 41.9091 6.87354C42.553 6.92177 43.1995 6.93784 43.8346 7.06407V7.06407Z" stroke="white" stroke-width="1.2" stroke-miterlimit="22.9256"/>
<g filter="url(#filter0_d)">
<path d="M36.5 88L29 81H44L36.5 88Z" fill="#A2198E"/>
</g>
<defs>
<filter id="filter0_d" x="20" y="73" width="35" height="27" filterUnits="userSpaceOnUse" color-interpolation-filters="sRGB">
<feFlood flood-opacity="0" result="BackgroundImageFix"/>
<feColorMatrix in="SourceAlpha" type="matrix" values="0 0 0 0 0 0 0 0 0 0 0 0 0 0 0 0 0 0 127 0"/>
<feOffset dx="1" dy="2"/>
<feGaussianBlur stdDeviation="5"/>
<feColorMatrix type="matrix" values="0 0 0 0 0 0 0 0 0 0 0 0 0 0 0 0 0 0 0.2 0"/>
<feBlend mode="normal" in2="BackgroundImageFix" result="effect1_dropShadow"/>
<feBlend mode="normal" in="SourceGraphic" in2="effect1_dropShadow" result="shape"/>
</filter>
</defs>
</svg>
