<svg width="200" height="200" viewBox="0 0 200 200" fill="none" xmlns="http://www.w3.org/2000/svg">
    <circle cx="100" cy="100" r="100" fill="#CC3854"/>
    <path d="M100 39C100 37.3431 101.344 35.9927 102.999 36.0703C114.605 36.6146 125.865 40.3101 135.556 46.7859C146.081 53.8184 154.284 63.8138 159.128 75.5083C163.972 87.2027 165.24 100.071 162.77 112.486C160.301 124.901 154.205 136.304 145.255 145.255C136.304 154.205 124.901 160.301 112.486 162.77C100.071 165.24 87.2027 163.972 75.5083 159.128C63.8138 154.284 53.8184 146.081 46.7859 135.556C39.7535 125.032 36 112.658 36 100H54.1066C54.1066 109.077 56.7982 117.95 61.8411 125.497C66.8839 133.044 74.0514 138.926 82.4374 142.4C90.8233 145.874 100.051 146.782 108.953 145.012C117.856 143.241 126.033 138.87 132.452 132.452C138.87 126.033 143.241 117.856 145.012 108.953C146.782 100.051 145.874 90.8233 142.4 82.4374C138.926 74.0515 133.044 66.8839 125.497 61.8411C118.783 57.3551 111.02 54.7298 102.998 54.2046C101.345 54.0964 100 52.7635 100 51.1066V39Z" fill="white"/>
    <path d="M99.5 63C99.5 61.3431 100.845 59.9881 102.497 60.1139C109.254 60.628 115.783 62.8737 121.445 66.657C127.941 70.9973 133.004 77.1663 135.993 84.384C138.983 91.6017 139.765 99.5438 138.241 107.206C136.717 114.868 132.955 121.907 127.431 127.431C121.907 132.955 114.868 136.717 107.206 138.241C99.5438 139.765 91.6017 138.983 84.384 135.993C77.1663 133.004 70.9973 127.941 66.6569 121.445C62.3166 114.949 60 107.312 60 99.5H77.6184C77.6184 103.828 78.9017 108.058 81.3061 111.657C83.7105 115.255 87.1279 118.06 91.1263 119.716C95.1246 121.372 99.5243 121.805 103.769 120.961C108.014 120.117 111.912 118.033 114.973 114.973C118.033 111.912 120.117 108.014 120.961 103.769C121.805 99.5243 121.372 95.1246 119.716 91.1263C118.06 87.1279 115.255 83.7105 111.657 81.3061C108.893 79.4597 105.757 78.2744 102.491 77.8237C100.849 77.5972 99.5 76.2752 99.5 74.6184V63Z" fill="white"/>
    <mask id="mask0" mask-type="alpha" maskUnits="userSpaceOnUse" x="0" y="0" width="200" height="200">
        <circle cx="100" cy="100" r="100" fill="#CC3854"/>
    </mask>
    <g mask="url(#mask0)">
        <path d="M60 2H77.6361V100H60V2Z" fill="white"/>
        <path d="M36 9H54V100H36V9Z" fill="white"/>
    </g>
</svg>