<svg width="828" height="495" viewBox="0 0 828 495" fill="none" xmlns="http://www.w3.org/2000/svg">
<g clip-path="url(#clip0)">
<path d="M426.428 450C650.823 450 832.732 437.957 832.732 423.102C832.732 408.246 650.823 396.204 426.428 396.204C202.033 396.204 20.125 408.246 20.125 423.102C20.125 437.957 202.033 450 426.428 450Z" fill="#F2F2F2"/>
<path d="M400.854 128.638C334.656 128.638 287.127 171.109 287.127 270.207C287.127 382.519 334.656 412.248 400.854 412.248C467.052 412.248 517.413 379.687 517.413 270.207C517.413 153.177 467.052 128.638 400.854 128.638ZM401.289 374.968C355.439 374.968 331.485 348.069 331.485 270.28C331.485 201.642 356.42 165.446 402.27 165.446C448.12 165.446 473.055 189.222 473.055 270.28C473.054 346.108 447.139 374.968 401.289 374.968Z" fill="#2F2E41"/>
<path d="M247.488 333.913H220.118V253.316C220.118 249.035 218.417 244.929 215.39 241.902C212.363 238.875 208.258 237.175 203.977 237.175H197.564C195.444 237.175 193.345 237.592 191.387 238.403C189.428 239.214 187.649 240.403 186.15 241.902C184.651 243.401 183.462 245.18 182.651 247.139C181.84 249.097 181.423 251.196 181.423 253.316V333.913H104.221C102.633 333.913 101.072 333.503 99.6887 332.722C98.3059 331.941 97.1485 330.815 96.3287 329.455C95.5089 328.095 95.0547 326.546 95.01 324.958C94.9653 323.37 95.3317 321.798 96.0736 320.394L177.783 165.744C178.802 163.816 179.419 161.702 179.598 159.528C179.777 157.355 179.514 155.168 178.824 153.099C178.134 151.031 177.033 149.123 175.585 147.492C174.138 145.861 172.376 144.54 170.404 143.608L165.58 141.331C161.835 139.562 157.553 139.301 153.62 140.601C149.688 141.902 146.406 144.664 144.453 148.317L44.7977 334.741C43.1007 337.915 42.2129 341.459 42.2129 345.059C42.2129 347.933 42.779 350.779 43.8789 353.435C44.9789 356.09 46.5911 358.503 48.6235 360.536C50.6559 362.568 53.0687 364.18 55.7242 365.28C58.3796 366.38 61.2257 366.946 64.1 366.946H181.423V417.911C181.423 420.452 181.923 422.968 182.895 425.315C183.868 427.662 185.293 429.795 187.089 431.592C188.886 433.389 191.019 434.814 193.366 435.786C195.714 436.758 198.229 437.259 200.77 437.259H200.77C203.311 437.259 205.827 436.758 208.174 435.786C210.522 434.814 212.655 433.389 214.451 431.592C216.248 429.795 217.673 427.662 218.645 425.315C219.618 422.968 220.118 420.452 220.118 417.911V366.946H247.488C251.868 366.946 256.07 365.206 259.167 362.109C262.264 359.011 264.004 354.81 264.004 350.43C264.004 346.049 262.264 341.848 259.167 338.751C256.07 335.653 251.869 333.913 247.488 333.913Z" fill="#681761"/>
<path d="M754.305 333.913H726.935V253.316C726.935 249.035 725.235 244.929 722.208 241.902C719.181 238.875 715.075 237.175 710.794 237.175H704.381C702.261 237.175 700.162 237.592 698.204 238.403C696.246 239.214 694.466 240.403 692.967 241.902C691.469 243.401 690.28 245.18 689.469 247.139C688.657 249.097 688.24 251.196 688.24 253.316V333.913H611.038C609.45 333.913 607.889 333.503 606.506 332.722C605.123 331.941 603.966 330.815 603.146 329.455C602.326 328.095 601.872 326.546 601.827 324.958C601.783 323.37 602.149 321.798 602.891 320.394L684.6 165.744C685.619 163.816 686.236 161.702 686.415 159.528C686.594 157.355 686.331 155.168 685.641 153.099C684.952 151.031 683.85 149.123 682.403 147.492C680.956 145.861 679.193 144.54 677.221 143.608L672.397 141.331C668.652 139.562 664.37 139.301 660.438 140.601C656.505 141.902 653.223 144.664 651.27 148.317L551.615 334.741C549.918 337.915 549.03 341.459 549.03 345.059C549.03 350.864 551.336 356.431 555.441 360.536C559.545 364.64 565.113 366.946 570.917 366.946H688.24V417.911C688.24 423.042 690.278 427.964 693.907 431.592C697.535 435.22 702.456 437.259 707.588 437.259C712.719 437.259 717.64 435.22 721.269 431.592C724.897 427.964 726.935 423.042 726.935 417.911V366.946H754.305C758.686 366.946 762.887 365.206 765.984 362.109C769.082 359.011 770.822 354.81 770.822 350.43C770.822 346.049 769.082 341.848 765.984 338.751C762.887 335.653 758.686 333.913 754.305 333.913Z" fill="#681761"/>
<path d="M255.038 324.475H227.668V243.878C227.668 241.758 227.25 239.659 226.439 237.701C225.628 235.742 224.439 233.963 222.94 232.464C221.441 230.965 219.662 229.776 217.704 228.965C215.745 228.154 213.646 227.737 211.527 227.737H205.113C200.833 227.737 196.727 229.437 193.7 232.464C190.673 235.491 188.972 239.597 188.972 243.878V324.475H111.771C110.183 324.475 108.621 324.065 107.239 323.284C105.856 322.503 104.698 321.377 103.878 320.017C103.059 318.657 102.604 317.108 102.56 315.52C102.515 313.933 102.881 312.36 103.623 310.956L185.333 156.306C186.351 154.378 186.969 152.264 187.148 150.091C187.327 147.917 187.063 145.73 186.374 143.661C185.684 141.593 184.582 139.685 183.135 138.054C181.688 136.423 179.925 135.102 177.953 134.17L173.13 131.893C169.385 130.124 165.103 129.863 161.17 131.163C157.238 132.464 153.955 135.226 152.003 138.879L52.3475 325.303C50.6505 328.477 49.7627 332.021 49.7627 335.621V335.621C49.7627 341.426 52.0687 346.993 56.1733 351.098C60.2779 355.202 65.845 357.508 71.6498 357.508H188.972V408.473C188.972 411.014 189.473 413.53 190.445 415.877C191.417 418.224 192.843 420.357 194.639 422.154C196.436 423.951 198.569 425.376 200.916 426.348C203.263 427.32 205.779 427.821 208.32 427.821H208.32C213.451 427.821 218.373 425.782 222.001 422.154C225.629 418.526 227.668 413.604 227.668 408.473V357.508H255.038C257.207 357.508 259.355 357.081 261.358 356.251C263.362 355.421 265.183 354.204 266.717 352.671C268.25 351.137 269.467 349.316 270.297 347.312C271.127 345.309 271.554 343.161 271.554 340.992V340.992C271.554 338.823 271.127 336.675 270.297 334.671C269.467 332.667 268.25 330.847 266.717 329.313C265.183 327.779 263.362 326.563 261.358 325.733C259.355 324.903 257.207 324.475 255.038 324.475V324.475Z" stroke="#3F3D56" stroke-miterlimit="10"/>
<path d="M768.463 324.475H741.093V243.878C741.093 239.597 739.392 235.491 736.365 232.464C733.338 229.437 729.232 227.737 724.952 227.737H718.538C716.419 227.737 714.32 228.154 712.361 228.965C710.403 229.776 708.624 230.965 707.125 232.464C705.626 233.963 704.437 235.742 703.626 237.701C702.815 239.659 702.397 241.758 702.397 243.878V324.475H625.196C623.607 324.475 622.046 324.065 620.663 323.284C619.281 322.503 618.123 321.377 617.303 320.017C616.484 318.657 616.029 317.108 615.985 315.52C615.94 313.933 616.306 312.36 617.048 310.956L698.757 156.306C699.776 154.378 700.394 152.264 700.573 150.091C700.752 147.917 700.488 145.73 699.799 143.661C699.109 141.593 698.007 139.685 696.56 138.054C695.113 136.423 693.35 135.102 691.378 134.17L686.555 131.893C682.809 130.124 678.527 129.863 674.595 131.163C670.662 132.464 667.38 135.226 665.428 138.879L565.772 325.303C564.075 328.477 563.187 332.021 563.188 335.621C563.188 341.426 565.493 346.993 569.598 351.098C573.703 355.202 579.27 357.508 585.075 357.508H702.397V408.473C702.397 413.604 704.436 418.526 708.064 422.154C711.692 425.782 716.614 427.821 721.745 427.821V427.821C726.876 427.821 731.797 425.782 735.426 422.154C739.054 418.526 741.093 413.604 741.093 408.473V357.508H768.463C770.632 357.508 772.779 357.081 774.783 356.251C776.787 355.421 778.608 354.204 780.142 352.671C781.675 351.137 782.892 349.316 783.722 347.312C784.552 345.309 784.979 343.161 784.979 340.992V340.992C784.979 336.611 783.239 332.41 780.142 329.313C777.044 326.216 772.843 324.475 768.463 324.475V324.475Z" stroke="#3F3D56" stroke-miterlimit="10"/>
<path d="M415.956 120.144C349.758 120.144 302.229 162.615 302.229 261.713C302.229 374.025 349.758 403.754 415.956 403.754C482.154 403.754 532.514 371.193 532.514 261.713C532.514 144.683 482.153 120.144 415.956 120.144ZM416.391 366.474C370.541 366.474 346.587 339.575 346.587 261.786C346.587 193.148 371.521 156.952 417.371 156.952C463.222 156.952 488.156 180.728 488.156 261.786C488.156 337.614 462.241 366.474 416.391 366.474V366.474Z" stroke="#3F3D56" stroke-miterlimit="10"/>
</g>
<path opacity="0.1" d="M516.977 494.059C546.236 494.059 569.954 489.159 569.954 483.114C569.954 477.069 546.236 472.168 516.977 472.168C487.719 472.168 464 477.069 464 483.114C464 489.159 487.719 494.059 516.977 494.059Z" fill="#6E1866"/>
<path d="M552.154 420.183C552.303 418.887 552.517 417.591 552.751 416.295C553.774 410.696 552.213 405.356 551.455 403.153C551.215 402.472 551.04 402.09 551.04 402.09C546.912 400.962 530.64 413.586 524.71 418.343C522.656 418.343 520.426 418.433 517.99 418.595C516.927 418.673 515.864 418.699 514.801 418.68C513.849 418.68 512.494 418.68 510.913 418.68C505.411 414.247 488.381 400.917 484.143 402.07C484.143 402.07 483.968 402.453 483.728 403.133C482.937 405.337 481.376 410.676 482.4 416.275C482.633 417.572 482.847 418.868 482.996 420.164C483.313 423.009 484.506 428.472 488.828 432.159C489.755 438.898 493.222 447.757 495.892 453.136C496.091 454.152 496.395 455.144 496.799 456.097C495.697 460.349 494.427 465.896 494.79 467.762C494.79 467.762 489.035 466.369 488.452 473.296C488.452 473.361 488.452 473.439 488.452 473.51C486.372 474.463 483.773 476.647 486.696 481.222C487.048 481.785 487.577 482.216 488.199 482.447C488.718 482.628 489.223 482.628 489.172 481.902L492.768 485.953C492.768 485.953 499.287 486.704 499.365 482.92L499.748 482.978C500.622 483.108 501.536 483.218 502.476 483.315L502.929 484.812C502.929 484.812 498.037 484.708 499.372 487.722C499.372 487.722 500.603 488.862 501.024 488.447C501.024 488.447 500.376 490.424 502.929 490.424C502.929 490.424 505.671 491.876 506.74 490.839C507.809 489.802 510.025 488.247 510.233 487.599C510.291 487.424 510.317 485.888 510.33 483.762H510.751C516.214 483.892 522.014 483.717 527.289 483.432H527.717C527.717 485.732 527.749 487.43 527.808 487.611C528.021 488.26 530.244 489.795 531.307 490.852C532.37 491.908 535.111 490.437 535.111 490.437C537.651 490.437 537.016 488.46 537.016 488.46C537.444 488.875 538.675 487.735 538.675 487.735C540.01 484.721 535.111 484.825 535.111 484.825L535.694 482.881L538.397 482.654L538.824 482.615C538.565 486.73 545.415 485.94 545.415 485.94L549.018 481.889C548.96 482.615 549.465 482.615 549.983 482.434C550.592 482.193 551.105 481.758 551.442 481.196C555.855 474.294 547.702 472.83 547.702 472.83C547.45 472.764 547.192 472.722 546.931 472.707C546.931 472.59 546.931 472.467 546.964 472.35C547.069 471.442 547.086 470.527 547.015 469.615C546.711 468.365 544.702 466.375 542.162 466.084C540.503 465.876 540.47 458.255 540.639 452.974C540.825 451.983 540.912 450.975 540.898 449.967C540.93 448.338 540.712 446.714 540.25 445.152C543.49 439.657 546.082 433.896 546.374 432.191C550.644 428.472 551.837 423.028 552.154 420.183Z" fill="url(#paint0_linear)"/>
<path d="M545.879 472.707C545.62 476.297 544.927 482.058 544.927 482.058C544.927 482.058 542.043 482.408 537.585 482.81L534.558 483.069C532.238 483.257 529.633 483.438 526.879 483.594C521.792 483.872 516.206 484.047 510.937 483.918C508.306 483.859 505.753 483.723 503.388 483.49C502.331 483.386 501.307 483.263 500.335 483.121C494.296 482.22 489.967 480.496 489.597 477.47C489.408 476.183 489.362 474.879 489.461 473.582C490.025 466.777 495.566 468.151 495.566 468.151C495.209 466.272 496.551 460.433 497.639 456.208C498.326 453.544 498.936 451.522 498.936 451.522L537.896 448.93H538.025C538.284 448.93 538.54 448.982 538.778 449.084C539.015 449.186 539.23 449.335 539.408 449.522C539.586 449.709 539.724 449.931 539.814 450.174C539.904 450.416 539.944 450.674 539.93 450.933C539.697 455.605 539.367 466.304 541.278 466.544C543.728 466.848 545.666 468.786 545.964 470.011C546.019 470.91 545.991 471.813 545.879 472.707Z" fill="#6E1866"/>
<path d="M512.79 421.421C512.79 421.421 498.099 439.106 491.023 434.206C490.854 434.09 490.692 433.973 490.537 433.85C485.78 430.247 484.529 424.44 484.199 421.492C484.056 420.196 483.849 418.945 483.622 417.681C482.643 412.18 484.14 406.943 484.918 404.779C485.151 404.131 485.313 403.736 485.313 403.736C490.206 402.375 512.79 421.421 512.79 421.421Z" fill="#6E1866"/>
<path d="M504.898 423.054C504.898 423.054 500.271 426.294 493.746 431.621C492.729 432.453 491.646 433.199 490.505 433.85C485.749 430.247 484.498 424.441 484.168 421.492C484.025 420.196 483.818 418.945 483.591 417.682C482.612 412.18 484.109 406.944 484.887 404.779C494.037 405.414 504.898 423.054 504.898 423.054Z" fill="#6E1866"/>
<path opacity="0.5" d="M504.898 423.054C504.898 423.054 500.271 426.294 493.746 431.621C492.729 432.453 491.646 433.199 490.505 433.85C485.749 430.247 484.498 424.441 484.168 421.492C484.025 420.196 483.818 418.945 483.591 417.682C482.612 412.18 484.109 406.944 484.887 404.779C494.037 405.414 504.898 423.054 504.898 423.054Z" fill="white"/>
<path opacity="0.1" d="M499.861 421.311C499.861 421.311 497.392 423.054 493.905 425.886C493.369 426.328 492.797 426.724 492.194 427.072C489.661 425.128 488.954 422.049 488.812 420.481C488.74 419.794 488.63 419.12 488.507 418.44C488.174 416.122 488.421 413.757 489.226 411.558C494.067 411.895 499.861 421.311 499.861 421.311Z" fill="black"/>
<path d="M522.312 421.421C522.312 421.421 537.004 439.106 544.08 434.206C544.242 434.09 544.411 433.973 544.566 433.85C549.323 430.247 550.573 424.44 550.904 421.492C551.047 420.196 551.254 418.945 551.474 417.681C552.459 412.18 550.956 406.943 550.178 404.779C549.945 404.131 549.776 403.736 549.776 403.736C544.897 402.375 522.312 421.421 522.312 421.421Z" fill="#6E1866"/>
<path d="M530.195 423.054C530.195 423.054 534.829 426.294 541.355 431.621C542.36 432.452 543.433 433.197 544.562 433.85C549.319 430.247 550.57 424.441 550.9 421.492C551.043 420.196 551.25 418.945 551.47 417.682C552.455 412.18 550.952 406.944 550.174 404.779C541.069 405.414 530.195 423.054 530.195 423.054Z" fill="#6E1866"/>
<path opacity="0.5" d="M530.195 423.054C530.195 423.054 534.829 426.294 541.355 431.621C542.36 432.452 543.433 433.197 544.562 433.85C549.319 430.247 550.57 424.441 550.9 421.492C551.043 420.196 551.25 418.945 551.47 417.682C552.455 412.18 550.952 406.944 550.174 404.779C541.069 405.414 530.195 423.054 530.195 423.054Z" fill="white"/>
<path opacity="0.1" d="M535.273 421.297C535.273 421.297 537.73 423.034 541.19 425.834C541.723 426.276 542.293 426.67 542.894 427.013C545.415 425.101 546.083 422.023 546.258 420.461C546.329 419.813 546.439 419.107 546.562 418.433C546.9 416.131 546.666 413.781 545.882 411.59C541.034 411.94 535.273 421.297 535.273 421.297Z" fill="black"/>
<path opacity="0.1" d="M537.87 448.943C536.016 451.872 534.046 454.516 532.245 456.11C526.412 461.294 501.23 459.234 499.596 458.968C499.253 458.91 498.54 457.892 497.652 456.24C498.339 453.576 498.948 451.554 498.948 451.554L537.87 448.943Z" fill="black"/>
<path d="M517.939 419.937C516.915 420.008 515.891 420.034 514.861 420.014C509.605 419.924 491.901 420.157 489.937 427.305C487.624 435.729 497.966 458.287 499.593 458.56C501.22 458.832 526.396 460.873 532.248 455.702C538.099 450.53 545.714 434.317 545.306 432.846C545.306 432.846 552.564 417.539 517.939 419.937Z" fill="#6E1866"/>
<path opacity="0.1" d="M517.379 433.597C517.379 433.597 504.419 431.601 498.34 444.355C497.122 446.834 496.586 449.593 496.788 452.348C496.989 455.103 497.921 457.755 499.487 460.031C501.509 462.876 504.477 464.995 508.605 463.271C517.781 459.493 517.379 433.597 517.379 433.597Z" fill="black"/>
<path opacity="0.1" d="M516.969 432.781C516.969 432.781 504.008 430.785 497.93 443.538C496.712 446.018 496.176 448.777 496.377 451.532C496.579 454.287 497.511 456.939 499.077 459.214C501.099 462.059 504.067 464.178 508.195 462.455C517.371 458.677 516.969 432.781 516.969 432.781Z" fill="black"/>
<path d="M516.969 433.189C516.969 433.189 504.008 431.193 497.93 443.947C496.712 446.426 496.176 449.185 496.377 451.94C496.579 454.695 497.511 457.347 499.077 459.623C501.099 462.467 504.067 464.587 508.195 462.863C517.371 459.085 516.969 433.189 516.969 433.189Z" fill="#6E1866"/>
<path opacity="0.5" d="M516.969 433.189C516.969 433.189 504.008 431.193 497.93 443.947C496.712 446.426 496.176 449.185 496.377 451.94C496.579 454.695 497.511 457.347 499.077 459.623C501.099 462.467 504.067 464.587 508.195 462.863C517.371 459.085 516.969 433.189 516.969 433.189Z" fill="white"/>
<path d="M502.994 444.342C502.994 444.342 501.225 445.975 501.906 446.383C502.586 446.791 502.994 444.342 502.994 444.342Z" fill="#3F2B3B"/>
<path d="M504.9 446.429C504.9 446.429 503.935 448.561 504.622 448.794C505.309 449.027 505.717 447.265 505.717 447.265L504.9 446.429Z" fill="#3F2B3B"/>
<path d="M500.628 449.649C500.628 449.649 499.681 452.164 500.628 452.164C501.574 452.164 500.628 449.649 500.628 449.649Z" fill="#3F2B3B"/>
<path d="M499.453 456.382C499.453 456.382 501.345 461.217 506.27 460.873" stroke="#3F2B3B" stroke-miterlimit="10"/>
<path d="M503.883 457.808C503.883 457.808 505.827 459.713 507.959 458.352" stroke="#3F2B3B" stroke-miterlimit="10"/>
<path opacity="0.1" d="M519.038 433.597C519.038 433.597 531.999 431.601 538.078 444.355C539.296 446.834 539.832 449.593 539.63 452.348C539.428 455.103 538.497 457.755 536.931 460.031C534.915 462.876 531.941 464.995 527.813 463.271C518.611 459.493 519.038 433.597 519.038 433.597Z" fill="black"/>
<path opacity="0.1" d="M519.42 432.781C519.42 432.781 532.381 430.785 538.46 443.538C539.678 446.018 540.214 448.777 540.012 451.532C539.81 454.287 538.879 456.939 537.313 459.214C535.297 462.059 532.323 464.178 528.195 462.455C519.038 458.677 519.42 432.781 519.42 432.781Z" fill="black"/>
<path d="M519.42 433.189C519.42 433.189 532.381 431.193 538.46 443.947C539.678 446.426 540.214 449.185 540.012 451.94C539.81 454.695 538.879 457.347 537.313 459.623C535.297 462.467 532.323 464.587 528.195 462.863C519.038 459.085 519.42 433.189 519.42 433.189Z" fill="#6E1866"/>
<path opacity="0.5" d="M519.42 433.189C519.42 433.189 532.381 431.193 538.46 443.947C539.678 446.426 540.214 449.185 540.012 451.94C539.81 454.695 538.879 457.347 537.313 459.623C535.297 462.467 532.323 464.587 528.195 462.863C519.038 459.085 519.42 433.189 519.42 433.189Z" fill="white"/>
<path d="M533.398 444.342C533.398 444.342 535.168 445.975 534.487 446.383C533.807 446.791 533.398 444.342 533.398 444.342Z" fill="#3F2B3B"/>
<path d="M531.492 446.429C531.492 446.429 532.458 448.561 531.771 448.794C531.084 449.027 530.676 447.265 530.676 447.265L531.492 446.429Z" fill="#3F2B3B"/>
<path d="M535.769 449.649C535.769 449.649 536.709 452.164 535.769 452.164C534.83 452.164 535.769 449.649 535.769 449.649Z" fill="#3F2B3B"/>
<path d="M536.935 456.382C536.935 456.382 535.042 461.217 530.117 460.873" stroke="#3F2B3B" stroke-miterlimit="10"/>
<path d="M532.516 457.808C532.516 457.808 530.572 459.713 528.434 458.352" stroke="#3F2B3B" stroke-miterlimit="10"/>
<path d="M512.039 470.121C512.383 470.056 518.843 467.263 525.505 470.121H512.039Z" fill="#3F2B3B"/>
<path opacity="0.1" d="M500.335 483.14C494.296 482.239 489.967 480.515 489.597 477.489C489.408 476.202 489.362 474.898 489.461 473.601C490.187 473.213 490.963 472.929 491.768 472.758C492.863 472.454 494.218 472.661 497.076 473.478C499.934 474.294 499.726 477.658 500.316 482.045C500.378 482.407 500.384 482.776 500.335 483.14Z" fill="black"/>
<path d="M491.361 473.18C491.361 473.18 483.507 474.618 487.758 481.397C488.095 481.947 488.606 482.369 489.209 482.596C489.708 482.771 490.188 482.771 490.136 482.058L493.61 486.037C493.61 486.037 500.544 486.853 499.934 482.466C499.325 478.079 499.526 474.69 496.694 473.899C493.862 473.108 492.469 472.875 491.361 473.18Z" fill="#6E1866"/>
<path d="M493.234 477.742C493.234 477.742 494.9 481.546 497.213 478.351" stroke="#3F2B3B" stroke-miterlimit="10"/>
<path d="M489.41 479.252C489.41 479.252 490.272 482.855 493.538 480.172" stroke="#3F2B3B" stroke-miterlimit="10"/>
<path opacity="0.1" d="M545.88 472.707C545.621 476.297 544.927 482.058 544.927 482.058C544.927 482.058 542.044 482.408 537.585 482.809C537.56 482.56 537.56 482.308 537.585 482.058C538.194 477.671 537.993 474.281 540.825 473.491C543.482 472.771 544.837 472.506 545.88 472.707Z" fill="black"/>
<path d="M546.59 473.18C546.59 473.18 554.451 474.618 550.2 481.397C549.861 481.946 549.351 482.367 548.748 482.596C548.249 482.771 547.763 482.771 547.815 482.058L544.348 486.037C544.348 486.037 537.407 486.853 538.023 482.466C538.639 478.079 538.431 474.69 541.263 473.899C544.095 473.108 545.501 472.875 546.59 473.18Z" fill="#6E1866"/>
<path d="M544.729 477.742C544.729 477.742 543.057 481.546 540.75 478.351" stroke="#3F2B3B" stroke-miterlimit="10"/>
<path d="M548.549 479.252C548.549 479.252 547.68 482.855 544.414 480.172" stroke="#3F2B3B" stroke-miterlimit="10"/>
<path opacity="0.1" d="M510.936 483.918C508.305 483.86 505.752 483.723 503.387 483.49L501.034 475.571C500.894 475.102 500.822 474.615 500.82 474.126C500.863 472.821 501.41 471.583 502.347 470.673C503.284 469.763 504.537 469.252 505.843 469.248C507.149 469.244 508.406 469.747 509.349 470.65C510.291 471.554 510.846 472.789 510.897 474.094C510.923 477.178 510.949 481.086 510.936 483.918Z" fill="black"/>
<path d="M500.628 475.571L503.401 484.916C503.401 484.916 498.684 484.812 499.973 487.774C499.973 487.774 501.159 488.895 501.567 488.486C501.567 488.486 500.952 490.431 503.401 490.431C503.401 490.431 506.045 491.863 507.069 490.839C508.093 489.815 510.238 488.286 510.446 487.676C510.575 487.275 510.536 479.459 510.491 474.068C510.481 472.739 509.945 471.469 509.002 470.535C508.059 469.6 506.784 469.076 505.456 469.078C504.669 469.076 503.893 469.259 503.19 469.612C502.487 469.965 501.876 470.477 501.407 471.109C500.937 471.74 500.622 472.472 500.487 473.247C500.352 474.022 500.4 474.818 500.628 475.571Z" fill="#6E1866"/>
<path d="M504.375 487.333C504.375 487.333 502.315 489.277 503.403 490.424" stroke="#3F2B3B" stroke-miterlimit="10"/>
<path d="M503.483 486.095C503.483 486.095 501.578 486.743 501.578 488.486" stroke="#3F2B3B" stroke-miterlimit="10"/>
<path opacity="0.1" d="M536.994 474.126C536.994 474.615 536.924 475.101 536.786 475.571L534.589 483.069C532.269 483.257 529.664 483.438 526.91 483.594C526.91 480.794 526.91 477.068 526.955 474.093C526.96 472.758 527.494 471.479 528.442 470.538C529.389 469.596 530.672 469.07 532.007 469.074C533.342 469.079 534.621 469.613 535.563 470.56C536.504 471.508 537.03 472.79 537.026 474.126H536.994Z" fill="black"/>
<path d="M537.185 475.571L534.411 484.916C534.411 484.916 539.135 484.812 537.846 487.774C537.846 487.774 536.66 488.895 536.252 488.486C536.252 488.486 536.861 490.431 534.411 490.431C534.411 490.431 531.767 491.863 530.743 490.839C529.719 489.815 527.581 488.286 527.373 487.676C527.244 487.275 527.283 479.459 527.328 474.068C527.338 472.739 527.874 471.469 528.817 470.535C529.76 469.6 531.035 469.076 532.363 469.078C533.149 469.077 533.925 469.261 534.627 469.614C535.329 469.967 535.939 470.48 536.408 471.111C536.877 471.742 537.191 472.474 537.326 473.249C537.461 474.023 537.412 474.819 537.185 475.571Z" fill="#6E1866"/>
<path d="M533.445 487.333C533.445 487.333 535.506 489.277 534.417 490.424" stroke="#3F2B3B" stroke-miterlimit="10"/>
<path d="M534.352 486.095C534.352 486.095 536.257 486.743 536.257 488.486" stroke="#3F2B3B" stroke-miterlimit="10"/>
<path opacity="0.1" d="M516.977 431.148C516.977 431.148 507.379 430.843 507.075 438.276C506.77 445.709 522.07 442.56 522.07 442.56C522.07 442.56 528.499 441.698 527.378 437.181C526.257 432.664 523.917 431.556 516.977 431.148Z" fill="black"/>
<path opacity="0.1" d="M516.977 430.331C516.977 430.331 507.379 430.027 507.075 437.46C506.77 444.893 522.07 441.743 522.07 441.743C522.07 441.743 528.499 440.881 527.378 436.365C526.257 431.848 523.917 430.74 516.977 430.331Z" fill="black"/>
<path d="M516.977 430.74C516.977 430.74 507.379 430.435 507.075 437.868C506.77 445.301 522.07 442.151 522.07 442.151C522.07 442.151 528.499 441.29 527.378 436.773C526.257 432.256 523.917 431.148 516.977 430.74Z" fill="#3F2B3B"/>
<path opacity="0.1" d="M495.566 468.183C495.566 468.183 498.807 469.337 499.455 471.546L495.566 468.183Z" fill="black"/>
<path opacity="0.1" d="M541.252 466.55C541.252 466.55 538.952 467.516 539.114 471.547L541.252 466.55Z" fill="black"/>
<path d="M498.171 487.189C498.89 486.776 498.918 485.474 498.232 484.281C497.547 483.089 496.408 482.457 495.689 482.871C494.97 483.284 494.942 484.586 495.628 485.778C496.313 486.971 497.452 487.603 498.171 487.189Z" fill="#6E1866"/>
<path d="M543.826 483.554C544.511 482.366 544.487 481.069 543.771 480.656C543.055 480.242 541.919 480.869 541.233 482.057C540.548 483.244 540.573 484.541 541.289 484.955C542.005 485.368 543.141 484.741 543.826 483.554Z" fill="#6E1866"/>
<path opacity="0.5" d="M498.171 487.189C498.89 486.776 498.918 485.474 498.232 484.281C497.547 483.089 496.408 482.457 495.689 482.871C494.97 483.284 494.942 484.586 495.628 485.778C496.313 486.971 497.452 487.603 498.171 487.189Z" fill="white"/>
<path opacity="0.5" d="M543.826 483.554C544.511 482.366 544.487 481.069 543.771 480.656C543.055 480.242 541.919 480.869 541.233 482.057C540.548 483.244 540.573 484.541 541.289 484.955C542.005 485.368 543.141 484.741 543.826 483.554Z" fill="white"/>
<defs>
<linearGradient id="paint0_linear" x1="40377.1" y1="78520.5" x2="40377.1" y2="66240.2" gradientUnits="userSpaceOnUse">
<stop stop-color="#808080" stop-opacity="0.25"/>
<stop offset="0.54" stop-color="#808080" stop-opacity="0.12"/>
<stop offset="1" stop-color="#808080" stop-opacity="0.1"/>
</linearGradient>
<clipPath id="clip0">
<rect width="827.543" height="450" fill="white"/>
</clipPath>
</defs>
</svg>
