<svg width="1440" height="350" viewBox="0 0 1440 350" fill="none" xmlns="http://www.w3.org/2000/svg">
<g clip-path="url(#clip0)">
<path opacity="0.32" d="M1439.97 -447.059H-6.7002V313.095H1439.97V-447.059Z" fill="#68C2FD"/>
<path d="M1329.3 -26.616C1327.08 -6.88434 1323.17 12.6203 1317.62 31.6829C1236.89 36.6336 1155.68 26.8354 1074.69 23.9476C991.283 20.8018 907.721 24.85 824.39 20.6987C816.967 20.3377 808.538 19.3837 804.182 13.3759C799.826 7.36812 801.605 -1.45021 798.28 -8.30891C796.527 -12.0219 793.305 -15.0387 792.48 -19.0353C791.449 -24.0633 794.336 -28.9366 797.068 -33.191C816.159 -62.7229 835.929 -91.8681 856.377 -120.626C861.532 -127.717 866.687 -134.988 874.161 -139.527C881.636 -144.065 891.766 -145.276 898.777 -140.068C899.583 -143.138 901.368 -145.861 903.861 -147.825C906.355 -149.788 909.42 -150.885 912.592 -150.949C914.803 -150.623 917.058 -150.754 919.216 -151.336C921.613 -152.419 922.722 -155.152 924.036 -157.447C927.182 -162.491 932.076 -166.198 937.782 -167.858C943.489 -169.518 949.607 -169.015 954.966 -166.446C959.746 -172.355 965.841 -177.065 972.764 -180.199C979.687 -183.333 987.247 -184.804 994.84 -184.495C1013.53 -183.618 1030.1 -172.015 1048.56 -169.024C1058.09 -167.61 1067.81 -168.278 1077.06 -170.984C1082.13 -172.789 1087.36 -174.084 1092.68 -174.851C1097.69 -175.187 1102.69 -174.087 1107.09 -171.68C1108.93 -170.341 1111.06 -169.458 1113.3 -169.101C1115.88 -169.433 1118.29 -170.591 1120.16 -172.402C1129.75 -179.531 1140.87 -184.35 1152.63 -186.483C1164.39 -188.616 1176.48 -188.007 1187.97 -184.701C1191.54 -183.31 1195.33 -182.585 1199.16 -182.561C1204.47 -182.999 1208.9 -186.558 1213.18 -189.703C1214.37 -190.58 1215.58 -191.431 1216.79 -192.282C1231.91 -177.693 1245.71 -161.79 1258.03 -144.761C1285.07 -107.579 1304.37 -65.0607 1329.3 -26.616Z" fill="url(#paint0_linear)"/>
<path d="M1440 291.075H-9.14746V494H1440V291.075Z" fill="#68C2FD"/>
<path opacity="0.58" d="M1440 291.075H-9.14746V494H1440V291.075Z" fill="url(#paint1_linear)"/>
<path d="M1440 291.075H-9.14746V494H1440V291.075Z" fill="url(#paint2_linear)"/>
<path opacity="0.4" d="M1253.62 -63.8232H1166.42V268.669H1253.62V-63.8232Z" fill="#68C2FD"/>
<g opacity="0.4">
<path opacity="0.4" d="M1023.17 -29.6841H1000.25V297.702H1023.17V-29.6841Z" fill="#68C2FD"/>
<path opacity="0.4" d="M1000.25 0.32959H984.427V297.729H1000.25V0.32959Z" fill="#68C2FD"/>
<path opacity="0.4" d="M984.427 13.2471H965.302V297.702H984.427V13.2471Z" fill="#68C2FD"/>
<path opacity="0.4" d="M1038.99 0.32959H1023.17V297.729H1038.99V0.32959Z" fill="#68C2FD"/>
<path opacity="0.4" d="M1058.68 13.2471H1038.97V297.702H1058.68V13.2471Z" fill="#68C2FD"/>
<path opacity="0.4" d="M1022.88 -5.13721H1000.25V1.95355H1022.88V-5.13721Z" fill="#68C2FD"/>
<path opacity="0.4" d="M1038.71 7.96191H983.886V15.0526H1038.71V7.96191Z" fill="#68C2FD"/>
<path opacity="0.4" d="M1055.88 21.0601H968.06V28.1508H1055.88V21.0601Z" fill="#68C2FD"/>
<path opacity="0.4" d="M1055.88 34.1582H968.06V41.2489H1055.88V34.1582Z" fill="#68C2FD"/>
<path opacity="0.4" d="M1055.88 47.2568H968.06V54.3476H1055.88V47.2568Z" fill="#68C2FD"/>
<path opacity="0.4" d="M1055.88 60.3555H968.06V67.4462H1055.88V60.3555Z" fill="#68C2FD"/>
<path opacity="0.4" d="M1055.88 73.4536H968.06V80.5443H1055.88V73.4536Z" fill="#68C2FD"/>
<path opacity="0.4" d="M1055.88 86.5527H968.06V93.6434H1055.88V86.5527Z" fill="#68C2FD"/>
<path opacity="0.4" d="M1055.88 99.6514H968.06V106.742H1055.88V99.6514Z" fill="#68C2FD"/>
<path opacity="0.4" d="M1055.88 112.724H968.06V119.815H1055.88V112.724Z" fill="#68C2FD"/>
<path opacity="0.4" d="M1055.88 125.823H968.06V132.913H1055.88V125.823Z" fill="#68C2FD"/>
<path opacity="0.4" d="M1055.88 138.921H968.06V146.012H1055.88V138.921Z" fill="#68C2FD"/>
<path opacity="0.4" d="M1055.88 152.02H968.06V159.11H1055.88V152.02Z" fill="#68C2FD"/>
<path opacity="0.4" d="M1055.88 165.118H968.06V172.209H1055.88V165.118Z" fill="#68C2FD"/>
<path opacity="0.4" d="M1055.88 178.217H968.06V185.308H1055.88V178.217Z" fill="#68C2FD"/>
<path opacity="0.4" d="M1055.88 191.315H968.06V198.406H1055.88V191.315Z" fill="#68C2FD"/>
<path opacity="0.4" d="M1055.88 204.414H968.06V211.504H1055.88V204.414Z" fill="#68C2FD"/>
<path opacity="0.4" d="M1055.88 217.486H968.06V224.577H1055.88V217.486Z" fill="#68C2FD"/>
<path opacity="0.4" d="M1055.88 230.585H968.06V237.676H1055.88V230.585Z" fill="#68C2FD"/>
<path opacity="0.4" d="M1055.88 243.684H968.06V250.774H1055.88V243.684Z" fill="#68C2FD"/>
<path opacity="0.4" d="M1055.88 256.782H968.06V263.873H1055.88V256.782Z" fill="#68C2FD"/>
<path opacity="0.4" d="M1055.88 269.881H968.06V276.972H1055.88V269.881Z" fill="#68C2FD"/>
<path opacity="0.4" d="M1055.88 282.979H968.06V290.07H1055.88V282.979Z" fill="#68C2FD"/>
</g>
<g opacity="0.4">
<path opacity="0.4" d="M1407.5 28.0215H1389.66V282.928H1407.5V28.0215Z" fill="#68C2FD"/>
<path opacity="0.4" d="M1389.66 51.3823H1377.34V282.928H1389.66V51.3823Z" fill="#68C2FD"/>
<path opacity="0.4" d="M1377.34 61.4385H1362.44V282.928H1377.34V61.4385Z" fill="#68C2FD"/>
<path opacity="0.4" d="M1419.82 51.3823H1407.5V282.928H1419.82V51.3823Z" fill="#68C2FD"/>
<path opacity="0.4" d="M1434.69 61.4385H1419.82V282.928H1434.69V61.4385Z" fill="#68C2FD"/>
<path opacity="0.4" d="M1407.29 36.9429H1389.66V42.4608H1407.29V36.9429Z" fill="#68C2FD"/>
<path opacity="0.4" d="M1407.29 47.1279H1389.66V52.6459H1407.29V47.1279Z" fill="#68C2FD"/>
<path opacity="0.4" d="M1419.61 57.3389H1376.93V62.8568H1419.61V57.3389Z" fill="#68C2FD"/>
<path opacity="0.4" d="M1434.69 67.5234H1364.61V73.0413H1434.69V67.5234Z" fill="#68C2FD"/>
<path opacity="0.4" d="M1434.69 77.7334H1364.61V83.2513H1434.69V77.7334Z" fill="#68C2FD"/>
<path opacity="0.4" d="M1434.69 87.9189H1364.61V93.4369H1434.69V87.9189Z" fill="#68C2FD"/>
<path opacity="0.4" d="M1434.69 98.1294H1364.61V103.647H1434.69V98.1294Z" fill="#68C2FD"/>
<path opacity="0.4" d="M1434.69 108.315H1364.61V113.833H1434.69V108.315Z" fill="#68C2FD"/>
<path opacity="0.4" d="M1434.69 118.525H1364.61V124.043H1434.69V118.525Z" fill="#68C2FD"/>
<path opacity="0.4" d="M1434.69 128.71H1364.61V134.228H1434.69V128.71Z" fill="#68C2FD"/>
<path opacity="0.4" d="M1434.69 138.921H1364.61V144.439H1434.69V138.921Z" fill="#68C2FD"/>
<path opacity="0.4" d="M1434.69 149.106H1364.61V154.624H1434.69V149.106Z" fill="#68C2FD"/>
<path opacity="0.4" d="M1434.69 159.291H1364.61V164.809H1434.69V159.291Z" fill="#68C2FD"/>
<path opacity="0.4" d="M1434.69 169.501H1364.61V175.019H1434.69V169.501Z" fill="#68C2FD"/>
<path opacity="0.4" d="M1434.69 179.687H1364.61V185.204H1434.69V179.687Z" fill="#68C2FD"/>
<path opacity="0.4" d="M1434.69 189.896H1364.61V195.414H1434.69V189.896Z" fill="#68C2FD"/>
<path opacity="0.4" d="M1434.69 200.082H1364.61V205.599H1434.69V200.082Z" fill="#68C2FD"/>
<path opacity="0.4" d="M1434.69 210.292H1364.61V215.81H1434.69V210.292Z" fill="#68C2FD"/>
<path opacity="0.4" d="M1434.69 220.478H1364.61V225.995H1434.69V220.478Z" fill="#68C2FD"/>
<path opacity="0.4" d="M1434.69 230.688H1364.61V236.206H1434.69V230.688Z" fill="#68C2FD"/>
<path opacity="0.4" d="M1434.69 240.873H1364.61V246.391H1434.69V240.873Z" fill="#68C2FD"/>
<path opacity="0.4" d="M1434.69 251.058H1364.61V256.576H1434.69V251.058Z" fill="#68C2FD"/>
<path opacity="0.4" d="M1434.69 261.269H1364.61V266.787H1434.69V261.269Z" fill="#68C2FD"/>
<path opacity="0.4" d="M1434.69 271.454H1364.61V276.971H1434.69V271.454Z" fill="#68C2FD"/>
</g>
<g opacity="0.3">
<path opacity="0.3" d="M1096.39 340.143H1169.08V181.723L1096.39 145.676V340.143Z" fill="#68C2FD"/>
<path opacity="0.3" d="M888.466 173.42H773.097V340.143H888.466V173.42Z" fill="#68C2FD"/>
<path opacity="0.3" d="M888.493 151.684H816.555V174.941H888.493V151.684Z" fill="#68C2FD"/>
<path opacity="0.3" d="M773.097 138.225H657.728V340.143H773.097V138.225Z" fill="#68C2FD"/>
<path opacity="0.3" d="M751.369 110.067H679.482V138.224H751.369V110.067Z" fill="#68C2FD"/>
<path opacity="0.3" d="M695.36 64.7898V110.068H735.466V64.7898L715.465 44.9873L695.36 64.7898Z" fill="#68C2FD"/>
<path opacity="0.3" d="M1078.97 244.096H1021.34V255.854H1078.97V244.096Z" fill="#68C2FD"/>
<path opacity="0.3" d="M1034.02 232.338V244.095H1066.21V232.338L1050.18 219.471L1034.02 232.338Z" fill="#68C2FD"/>
<path opacity="0.3" d="M420.134 212.432H327.602V340.143H420.134V212.432Z" fill="#68C2FD"/>
<path opacity="0.3" d="M402.71 194.589H345.025V212.406H402.71V194.589Z" fill="#68C2FD"/>
<path opacity="0.3" d="M357.837 176.798V194.589H389.978V176.798L373.921 157.279L357.837 176.798Z" fill="#68C2FD"/>
<path opacity="0.3" d="M617.571 240.048V340.143H657.729V240.048L637.676 130.489L617.571 240.048Z" fill="#68C2FD"/>
<path opacity="0.3" d="M286.878 340.143H402.247V236.593L286.878 213.025V340.143Z" fill="#68C2FD"/>
<path opacity="0.3" d="M595.92 340.143H668.605V236.593L595.92 213.025V340.143Z" fill="#68C2FD"/>
<path opacity="0.3" d="M215.327 169.708H99.9062V340.118H215.327V169.708Z" fill="#68C2FD"/>
<path opacity="0.3" d="M193.597 145.934H121.711V169.707H193.597V145.934Z" fill="#68C2FD"/>
<path opacity="0.3" d="M90.3689 234.993H-25V340.143H90.3689V234.993Z" fill="#68C2FD"/>
<path opacity="0.3" d="M68.6414 220.322H-3.24512V234.994H68.6414V220.322Z" fill="#68C2FD"/>
<path opacity="0.3" d="M12.6309 196.729V220.322H52.7368V196.729L32.6838 170.919L12.6309 196.729Z" fill="#68C2FD"/>
<path opacity="0.3" d="M512.667 255.828H420.16V340.118H512.667V255.828Z" fill="#68C2FD"/>
<path opacity="0.3" d="M495.19 244.07H437.583V255.828H495.19V244.07Z" fill="#68C2FD"/>
<path opacity="0.3" d="M450.317 232.338V244.07H482.536V232.338L466.427 219.471L450.317 232.338Z" fill="#68C2FD"/>
<path opacity="0.3" d="M595.894 169.681H503.413V340.143H595.894V169.681Z" fill="#68C2FD"/>
<path opacity="0.3" d="M578.444 121H520.812V169.682H578.444V121Z" fill="#68C2FD"/>
<path opacity="0.3" d="M533.596 122.108V145.882H565.789V122.108L549.654 96.0918L533.596 122.108Z" fill="#68C2FD"/>
<path opacity="0.3" d="M232.441 259.541V340.144H272.573V259.541L252.494 171.307L232.441 259.541Z" fill="#68C2FD"/>
</g>
<path d="M998.447 63.0107H952.207V74.8716H998.447V63.0107Z" fill="#68C2FD"/>
<path opacity="0.58" d="M998.447 63.0107H952.207V74.8716H998.447V63.0107Z" fill="url(#paint3_linear)"/>
<path d="M1013.45 74.8721H936.898V281.2H1013.45V74.8721Z" fill="#68C2FD"/>
<path opacity="0.58" d="M1013.45 74.8721H936.898V281.2H1013.45V74.8721Z" fill="url(#paint4_linear)"/>
<path d="M952.209 84.4893H939.604V91.3996H952.209V84.4893Z" fill="#68C2FD"/>
<path d="M966.901 84.4893H954.297V91.3996H966.901V84.4893Z" fill="#68C2FD"/>
<path d="M981.618 84.4893H969.014V91.3996H981.618V84.4893Z" fill="#68C2FD"/>
<path d="M996.336 84.4893H983.731V91.3996H996.336V84.4893Z" fill="#68C2FD"/>
<path d="M966.77 65.4863H954.166V72.3966H966.77V65.4863Z" fill="#68C2FD"/>
<path d="M981.462 65.4863H968.858V72.3966H981.462V65.4863Z" fill="#68C2FD"/>
<path d="M996.18 65.4863H983.576V72.3966H996.18V65.4863Z" fill="#68C2FD"/>
<path d="M1011.05 84.4893H998.448V91.3996H1011.05V84.4893Z" fill="#68C2FD"/>
<path d="M952.209 93.2046H939.604V100.115H952.209V93.2046Z" fill="#68C2FD"/>
<path d="M966.901 93.2046H954.297V100.115H966.901V93.2046Z" fill="#68C2FD"/>
<path d="M981.618 93.2046H969.014V100.115H981.618V93.2046Z" fill="#68C2FD"/>
<path d="M996.336 93.2046H983.731V100.115H996.336V93.2046Z" fill="#68C2FD"/>
<path d="M1011.05 93.2046H998.448V100.115H1011.05V93.2046Z" fill="#68C2FD"/>
<path d="M952.209 101.894H939.604V108.804H952.209V101.894Z" fill="#68C2FD"/>
<path d="M966.901 101.894H954.297V108.804H966.901V101.894Z" fill="#68C2FD"/>
<path d="M981.618 101.894H969.014V108.804H981.618V101.894Z" fill="#68C2FD"/>
<path d="M996.336 101.894H983.731V108.804H996.336V101.894Z" fill="#68C2FD"/>
<path d="M1011.05 101.894H998.448V108.804H1011.05V101.894Z" fill="#68C2FD"/>
<path d="M952.209 110.609H939.604V117.519H952.209V110.609Z" fill="#68C2FD"/>
<path d="M966.901 110.609H954.297V117.519H966.901V110.609Z" fill="#68C2FD"/>
<path d="M981.618 110.609H969.014V117.519H981.618V110.609Z" fill="#68C2FD"/>
<path d="M996.336 110.609H983.731V117.519H996.336V110.609Z" fill="#68C2FD"/>
<path d="M1011.05 110.609H998.448V117.519H1011.05V110.609Z" fill="#68C2FD"/>
<path d="M952.209 119.325H939.604V126.235H952.209V119.325Z" fill="#68C2FD"/>
<path d="M966.901 119.325H954.297V126.235H966.901V119.325Z" fill="#68C2FD"/>
<path d="M981.618 119.325H969.014V126.235H981.618V119.325Z" fill="#68C2FD"/>
<path d="M996.336 119.325H983.731V126.235H996.336V119.325Z" fill="#68C2FD"/>
<path d="M1011.05 119.325H998.448V126.235H1011.05V119.325Z" fill="#68C2FD"/>
<path d="M952.209 128.04H939.604V134.95H952.209V128.04Z" fill="#68C2FD"/>
<path d="M966.901 128.04H954.297V134.95H966.901V128.04Z" fill="#68C2FD"/>
<path d="M981.618 128.04H969.014V134.95H981.618V128.04Z" fill="#68C2FD"/>
<path d="M996.336 128.04H983.731V134.95H996.336V128.04Z" fill="#68C2FD"/>
<path d="M1011.05 128.04H998.448V134.95H1011.05V128.04Z" fill="#68C2FD"/>
<path d="M952.209 136.755H939.604V143.665H952.209V136.755Z" fill="#68C2FD"/>
<path d="M966.901 136.755H954.297V143.665H966.901V136.755Z" fill="#68C2FD"/>
<path d="M981.618 136.755H969.014V143.665H981.618V136.755Z" fill="#68C2FD"/>
<path d="M996.336 136.755H983.731V143.665H996.336V136.755Z" fill="#68C2FD"/>
<path d="M1011.05 136.755H998.448V143.665H1011.05V136.755Z" fill="#68C2FD"/>
<path d="M952.209 145.444H939.604V152.354H952.209V145.444Z" fill="#68C2FD"/>
<path d="M966.901 145.444H954.297V152.354H966.901V145.444Z" fill="#68C2FD"/>
<path d="M981.618 145.444H969.014V152.354H981.618V145.444Z" fill="#68C2FD"/>
<path d="M996.336 145.444H983.731V152.354H996.336V145.444Z" fill="#68C2FD"/>
<path d="M1011.05 145.444H998.448V152.354H1011.05V145.444Z" fill="#68C2FD"/>
<path d="M952.209 154.16H939.604V161.07H952.209V154.16Z" fill="#68C2FD"/>
<path d="M966.901 154.16H954.297V161.07H966.901V154.16Z" fill="#68C2FD"/>
<path d="M981.618 154.16H969.014V161.07H981.618V154.16Z" fill="#68C2FD"/>
<path d="M996.336 154.16H983.731V161.07H996.336V154.16Z" fill="#68C2FD"/>
<path d="M1011.05 154.16H998.448V161.07H1011.05V154.16Z" fill="#68C2FD"/>
<path d="M952.209 162.874H939.604V169.784H952.209V162.874Z" fill="#68C2FD"/>
<path d="M966.901 162.874H954.297V169.784H966.901V162.874Z" fill="#68C2FD"/>
<path d="M981.618 162.874H969.014V169.784H981.618V162.874Z" fill="#68C2FD"/>
<path d="M996.336 162.874H983.731V169.784H996.336V162.874Z" fill="#68C2FD"/>
<path d="M1011.05 162.874H998.448V169.784H1011.05V162.874Z" fill="#68C2FD"/>
<path d="M952.209 171.59H939.604V178.5H952.209V171.59Z" fill="#68C2FD"/>
<path d="M966.901 171.59H954.297V178.5H966.901V171.59Z" fill="#68C2FD"/>
<path d="M981.618 171.59H969.014V178.5H981.618V171.59Z" fill="#68C2FD"/>
<path d="M996.336 171.59H983.731V178.5H996.336V171.59Z" fill="#68C2FD"/>
<path d="M1011.05 171.59H998.448V178.5H1011.05V171.59Z" fill="#68C2FD"/>
<path d="M952.209 180.279H939.604V187.19H952.209V180.279Z" fill="#68C2FD"/>
<path d="M966.901 180.279H954.297V187.19H966.901V180.279Z" fill="#68C2FD"/>
<path d="M981.618 180.279H969.014V187.19H981.618V180.279Z" fill="#68C2FD"/>
<path d="M996.336 180.279H983.731V187.19H996.336V180.279Z" fill="#68C2FD"/>
<path d="M1011.05 180.279H998.448V187.19H1011.05V180.279Z" fill="#68C2FD"/>
<path d="M952.209 188.995H939.604V195.905H952.209V188.995Z" fill="#68C2FD"/>
<path d="M966.901 188.995H954.297V195.905H966.901V188.995Z" fill="#68C2FD"/>
<path d="M981.618 188.995H969.014V195.905H981.618V188.995Z" fill="#68C2FD"/>
<path d="M996.336 188.995H983.731V195.905H996.336V188.995Z" fill="#68C2FD"/>
<path d="M1011.05 188.995H998.448V195.905H1011.05V188.995Z" fill="#68C2FD"/>
<path d="M952.209 197.709H939.604V204.62H952.209V197.709Z" fill="#68C2FD"/>
<path d="M966.901 197.709H954.297V204.62H966.901V197.709Z" fill="#68C2FD"/>
<path d="M981.618 197.709H969.014V204.62H981.618V197.709Z" fill="#68C2FD"/>
<path d="M996.336 197.709H983.731V204.62H996.336V197.709Z" fill="#68C2FD"/>
<path d="M1011.05 197.709H998.448V204.62H1011.05V197.709Z" fill="#68C2FD"/>
<path d="M952.209 206.425H939.604V213.335H952.209V206.425Z" fill="#68C2FD"/>
<path d="M966.901 206.425H954.297V213.335H966.901V206.425Z" fill="#68C2FD"/>
<path d="M981.618 206.425H969.014V213.335H981.618V206.425Z" fill="#68C2FD"/>
<path d="M996.336 206.425H983.731V213.335H996.336V206.425Z" fill="#68C2FD"/>
<path d="M1011.05 206.425H998.448V213.335H1011.05V206.425Z" fill="#68C2FD"/>
<path d="M952.209 215.114H939.604V222.025H952.209V215.114Z" fill="#68C2FD"/>
<path d="M966.901 215.114H954.297V222.025H966.901V215.114Z" fill="#68C2FD"/>
<path d="M981.618 215.114H969.014V222.025H981.618V215.114Z" fill="#68C2FD"/>
<path d="M996.336 215.114H983.731V222.025H996.336V215.114Z" fill="#68C2FD"/>
<path d="M1011.05 215.114H998.448V222.025H1011.05V215.114Z" fill="#68C2FD"/>
<path d="M952.209 223.83H939.604V230.74H952.209V223.83Z" fill="#68C2FD"/>
<path d="M966.901 223.83H954.297V230.74H966.901V223.83Z" fill="#68C2FD"/>
<path d="M981.618 223.83H969.014V230.74H981.618V223.83Z" fill="#68C2FD"/>
<path d="M996.336 223.83H983.731V230.74H996.336V223.83Z" fill="#68C2FD"/>
<path d="M1011.05 223.83H998.448V230.74H1011.05V223.83Z" fill="#68C2FD"/>
<path d="M952.209 232.544H939.604V239.454H952.209V232.544Z" fill="#68C2FD"/>
<path d="M966.901 232.544H954.297V239.454H966.901V232.544Z" fill="#68C2FD"/>
<path d="M981.618 232.544H969.014V239.454H981.618V232.544Z" fill="#68C2FD"/>
<path d="M996.336 232.544H983.731V239.454H996.336V232.544Z" fill="#68C2FD"/>
<path d="M1011.05 232.544H998.448V239.454H1011.05V232.544Z" fill="#68C2FD"/>
<path d="M952.209 241.26H939.604V248.171H952.209V241.26Z" fill="#68C2FD"/>
<path d="M966.901 241.26H954.297V248.171H966.901V241.26Z" fill="#68C2FD"/>
<path d="M981.618 241.26H969.014V248.171H981.618V241.26Z" fill="#68C2FD"/>
<path d="M996.336 241.26H983.731V248.171H996.336V241.26Z" fill="#68C2FD"/>
<path d="M1011.05 241.26H998.448V248.171H1011.05V241.26Z" fill="#68C2FD"/>
<path d="M952.209 249.949H939.604V256.859H952.209V249.949Z" fill="#68C2FD"/>
<path d="M966.901 249.949H954.297V256.859H966.901V249.949Z" fill="#68C2FD"/>
<path d="M981.618 249.949H969.014V256.859H981.618V249.949Z" fill="#68C2FD"/>
<path d="M996.336 249.949H983.731V256.859H996.336V249.949Z" fill="#68C2FD"/>
<path d="M1011.05 249.949H998.448V256.859H1011.05V249.949Z" fill="#68C2FD"/>
<path d="M952.209 258.665H939.604V265.575H952.209V258.665Z" fill="#68C2FD"/>
<path d="M966.901 258.665H954.297V265.575H966.901V258.665Z" fill="#68C2FD"/>
<path d="M981.618 258.665H969.014V265.575H981.618V258.665Z" fill="#68C2FD"/>
<path d="M996.336 258.665H983.731V265.575H996.336V258.665Z" fill="#68C2FD"/>
<path d="M1011.05 258.665H998.448V265.575H1011.05V258.665Z" fill="#68C2FD"/>
<path opacity="0.2" d="M936.898 74.8721V281.2H1013.45V200.701L952.209 74.8721H936.898Z" fill="#68C2FD"/>
<path d="M1075.49 -16.8433H1054.64V281.201H1075.49V-16.8433Z" fill="#68C2FD"/>
<path d="M1054.64 10.4624H1039.02V281.2H1054.64V10.4624Z" fill="#68C2FD"/>
<path d="M1040.26 23.999H1022.83V281.2H1040.26V23.999Z" fill="#68C2FD"/>
<path d="M1089.9 10.4624H1075.49V281.2H1089.9V10.4624Z" fill="#68C2FD"/>
<path opacity="0.58" d="M1075.49 -16.8433H1054.64V281.201H1075.49V-16.8433Z" fill="url(#paint5_linear)"/>
<path opacity="0.58" d="M1089.9 10.4624H1075.49V281.2H1089.9V10.4624Z" fill="url(#paint6_linear)"/>
<path opacity="0.3" d="M1089.9 10.6167H1088.56V281.277H1089.9V10.6167Z" fill="#68C2FD"/>
<path opacity="0.3" d="M1054.66 10.4624H1052.94V281.123H1054.66V10.4624Z" fill="#68C2FD"/>
<path opacity="0.3" d="M1038.99 24.1021H1037.34V281.277H1038.99V24.1021Z" fill="#68C2FD"/>
<path opacity="0.3" d="M1075.51 -16.895H1074.25V281.278H1075.51V-16.895Z" fill="#68C2FD"/>
<path opacity="0.3" d="M1065.08 -16.895H1063.99V281.278H1065.08V-16.895Z" fill="#68C2FD"/>
<path d="M1107.84 23.999H1089.9V281.2H1107.84V23.999Z" fill="#68C2FD"/>
<path opacity="0.58" d="M1108.48 23.999H1022.83V219.24H1108.48V23.999Z" fill="url(#paint7_linear)"/>
<path d="M1075.26 2.77783H1054.64V9.22405H1075.26V2.77783Z" fill="#68C2FD"/>
<path d="M1089.64 17.4238H1039.74V23.87H1089.64V17.4238Z" fill="#68C2FD"/>
<path d="M1105.31 29.3623H1025.36V35.8084H1105.31V29.3623Z" fill="#68C2FD"/>
<path d="M1105.31 41.2749H1025.36V47.7211H1105.31V41.2749Z" fill="#68C2FD"/>
<path d="M1105.31 53.187H1025.36V59.6331H1105.31V53.187Z" fill="#68C2FD"/>
<path d="M1105.31 65.1255H1025.36V71.5717H1105.31V65.1255Z" fill="#68C2FD"/>
<path d="M1105.31 77.0376H1025.36V83.4838H1105.31V77.0376Z" fill="#68C2FD"/>
<path d="M1105.31 88.9502H1025.36V95.3964H1105.31V88.9502Z" fill="#68C2FD"/>
<path d="M1105.31 100.888H1025.36V107.334H1105.31V100.888Z" fill="#68C2FD"/>
<path d="M1105.31 112.801H1025.36V119.247H1105.31V112.801Z" fill="#68C2FD"/>
<path d="M1105.31 124.739H1025.36V131.185H1105.31V124.739Z" fill="#68C2FD"/>
<path d="M1105.31 136.652H1025.36V143.098H1105.31V136.652Z" fill="#68C2FD"/>
<path d="M1105.31 148.564H1025.36V155.01H1105.31V148.564Z" fill="#68C2FD"/>
<path d="M1105.31 160.502H1025.36V166.949H1105.31V160.502Z" fill="#68C2FD"/>
<path d="M1105.31 172.415H1025.36V178.861H1105.31V172.415Z" fill="#68C2FD"/>
<path d="M1105.31 184.328H1025.36V190.774H1105.31V184.328Z" fill="#68C2FD"/>
<path d="M1105.31 196.266H1025.36V202.712H1105.31V196.266Z" fill="#68C2FD"/>
<path d="M1105.31 208.178H1025.36V214.624H1105.31V208.178Z" fill="#68C2FD"/>
<path d="M1105.31 220.116H1025.36V226.562H1105.31V220.116Z" fill="#68C2FD"/>
<path d="M1105.31 232.029H1025.36V238.475H1105.31V232.029Z" fill="#68C2FD"/>
<path d="M1105.31 243.942H1025.36V250.388H1105.31V243.942Z" fill="#68C2FD"/>
<path d="M1105.31 255.88H1025.36V262.326H1105.31V255.88Z" fill="#68C2FD"/>
<path d="M1105.31 267.792H1025.36V274.238H1105.31V267.792Z" fill="#68C2FD"/>
<path opacity="0.3" d="M1107.84 23.8188H1106.5V280.788H1107.84V23.8188Z" fill="#68C2FD"/>
<path d="M1060.46 23.8963V-16.8433H1054.64V9.22494H1039.02V23.8963H1022.83V281.201L1107.84 23.819L1089.64 23.8963H1060.46Z" fill="url(#paint8_linear)"/>
<path d="M833.54 -9.70117H744.462V277.59H833.54V-9.70117Z" fill="#68C2FD"/>
<path opacity="0.58" d="M833.54 -9.70117H744.462V277.59H833.54V-9.70117Z" fill="url(#paint9_linear)"/>
<path d="M753.405 0.561035H749.333V273.826H753.405V0.561035Z" fill="#68C2FD"/>
<path d="M760.339 0.561035H756.267V273.826H760.339V0.561035Z" fill="#68C2FD"/>
<path d="M767.246 0.561035H763.174V273.826H767.246V0.561035Z" fill="#68C2FD"/>
<path d="M774.155 0.561035H770.082V273.826H774.155V0.561035Z" fill="#68C2FD"/>
<path d="M781.088 0.561035H777.016V273.826H781.088V0.561035Z" fill="#68C2FD"/>
<path d="M787.995 0.561035H783.922V273.826H787.995V0.561035Z" fill="#68C2FD"/>
<path d="M794.903 0.561035H790.83V273.826H794.903V0.561035Z" fill="#68C2FD"/>
<path d="M801.811 0.561035H797.738V273.826H801.811V0.561035Z" fill="#68C2FD"/>
<path d="M808.743 0.561035H804.671V273.826H808.743V0.561035Z" fill="#68C2FD"/>
<path d="M815.652 0.561035H811.58V273.826H815.652V0.561035Z" fill="#68C2FD"/>
<path d="M822.559 0.561035H818.486V273.826H822.559V0.561035Z" fill="#68C2FD"/>
<path d="M829.493 0.561035H825.421V273.826H829.493V0.561035Z" fill="#68C2FD"/>
<path d="M744.462 277.59L801.811 -9.70117H744.462V277.59Z" fill="url(#paint10_linear)"/>
<path d="M1242.36 -8.30859H1131.27V278.983H1242.36V-8.30859Z" fill="#68C2FD"/>
<path opacity="0.58" d="M1242.36 -8.30859H1131.27V278.983H1242.36V-8.30859Z" fill="url(#paint11_linear)"/>
<path d="M1142.43 1.92773H1137.35V275.192H1142.43V1.92773Z" fill="#68C2FD"/>
<path d="M1151.06 1.92773H1145.98V275.192H1151.06V1.92773Z" fill="#68C2FD"/>
<path d="M1159.67 1.92773H1154.59V275.192H1159.67V1.92773Z" fill="#68C2FD"/>
<path d="M1168.31 1.92773H1163.23V275.192H1168.31V1.92773Z" fill="#68C2FD"/>
<path d="M1176.91 1.92773H1171.84V275.192H1176.91V1.92773Z" fill="#68C2FD"/>
<path d="M1185.55 1.92773H1180.47V275.192H1185.55V1.92773Z" fill="#68C2FD"/>
<path d="M1194.16 1.92773H1189.08V275.192H1194.16V1.92773Z" fill="#68C2FD"/>
<path d="M1202.79 1.92773H1197.71V275.192H1202.79V1.92773Z" fill="#68C2FD"/>
<path d="M1211.43 1.92773H1206.35V275.192H1211.43V1.92773Z" fill="#68C2FD"/>
<path d="M1220.04 1.92773H1214.96V275.192H1220.04V1.92773Z" fill="#68C2FD"/>
<path d="M1228.67 1.92773H1223.59V275.192H1228.67V1.92773Z" fill="#68C2FD"/>
<path d="M1237.28 1.92773H1232.2V275.192H1237.28V1.92773Z" fill="#68C2FD"/>
<path opacity="0.3" d="M1242.36 278.983V-8.30859L1131.27 278.983H1242.36Z" fill="#68C2FD"/>
<path d="M1163.46 203.176H993.604V298.605H1163.46V203.176Z" fill="#68C2FD"/>
<path d="M652.084 202.764H625.2V220.014H652.084V202.764Z" fill="#68C2FD"/>
<path d="M652.084 202.764H625.2V220.014H652.084V202.764Z" fill="url(#paint12_linear)"/>
<path d="M652.084 211.35H625.2V292.88H652.084V211.35Z" fill="#68C2FD"/>
<path opacity="0.58" d="M652.084 211.35H625.2V292.88H652.084V211.35Z" fill="url(#paint13_linear)"/>
<path d="M647.316 182.212H629.995V184.946H647.316V182.212Z" fill="#68C2FD"/>
<path d="M645.794 179.97H631.515V182.239H645.794V179.97Z" fill="#68C2FD"/>
<path d="M647.316 182.212H629.995V184.946H647.316V182.212Z" fill="url(#paint14_linear)"/>
<path d="M645.794 179.97H631.515V182.239H645.794V179.97Z" fill="url(#paint15_linear)"/>
<path d="M644.222 178.217H633.113V179.97H644.222V178.217Z" fill="#68C2FD"/>
<path opacity="0.58" d="M644.222 178.217H633.113V179.97H644.222V178.217Z" fill="url(#paint16_linear)"/>
<path d="M642.831 176.902H634.479V178.32H642.831V176.902Z" fill="#68C2FD"/>
<path d="M640.795 163.958H636.517V167.155H640.795V163.958Z" fill="#68C2FD"/>
<path d="M637.881 164.113H639.427L638.654 152.432L637.881 164.113Z" fill="#68C2FD"/>
<path d="M641.876 167.129H635.406V183.347H641.876V167.129Z" fill="#68C2FD"/>
<path d="M641.876 167.129H635.406V183.347H641.876V167.129Z" fill="url(#paint17_linear)"/>
<path d="M648.502 184.946H628.732V191.547H648.502V184.946Z" fill="#68C2FD"/>
<path opacity="0.58" d="M648.502 184.946H628.732V191.547H648.502V184.946Z" fill="url(#paint18_linear)"/>
<path d="M640.793 163.958H640.046V167.155H640.793V163.958Z" fill="#68C2FD"/>
<path d="M641.902 167.129H640.742V176.876H641.902V167.129Z" fill="#68C2FD"/>
<path d="M637.264 163.958H636.517V167.155H637.264V163.958Z" fill="#68C2FD"/>
<path d="M635.227 176.902H634.479V178.217H635.227V176.902Z" fill="#68C2FD"/>
<path d="M633.861 178.217H633.113V179.944H633.861V178.217Z" fill="#68C2FD"/>
<path d="M632.262 179.944H631.515V182.213H632.262V179.944Z" fill="#68C2FD"/>
<path d="M630.743 182.212H629.995V184.92H630.743V182.212Z" fill="#68C2FD"/>
<path d="M642.831 176.902H642.083V178.217H642.831V176.902Z" fill="#68C2FD"/>
<path d="M644.197 178.217H643.449V179.944H644.197V178.217Z" fill="#68C2FD"/>
<path d="M645.795 179.944H645.048V182.213H645.795V179.944Z" fill="#68C2FD"/>
<path d="M647.315 182.212H646.567V184.92H647.315V182.212Z" fill="#68C2FD"/>
<path d="M636.154 167.129H635.406V176.876H636.154V167.129Z" fill="#68C2FD"/>
<path opacity="0.2" d="M646.801 204.439H645.1V209.88H646.801V204.439Z" fill="#68C2FD"/>
<path opacity="0.2" d="M649.945 204.439H648.244V209.88H649.945V204.439Z" fill="#68C2FD"/>
<path opacity="0.2" d="M646.774 204.439H646.361V209.88H646.774V204.439Z" fill="#68C2FD"/>
<path opacity="0.2" d="M649.919 204.439H649.507V209.88H649.919V204.439Z" fill="#68C2FD"/>
<path opacity="0.2" d="M629.402 204.439H627.701V209.88H629.402V204.439Z" fill="#68C2FD"/>
<path opacity="0.2" d="M632.572 204.439H630.871V209.88H632.572V204.439Z" fill="#68C2FD"/>
<path opacity="0.2" d="M629.402 204.439H628.989V209.88H629.402V204.439Z" fill="#68C2FD"/>
<path opacity="0.2" d="M632.546 204.439H632.082V209.88H632.546V204.439Z" fill="#68C2FD"/>
<path d="M628.191 237.289H626.645V242.807H628.191V237.289Z" fill="#68C2FD"/>
<path d="M631.051 237.289H629.505V242.807H631.051V237.289Z" fill="#68C2FD"/>
<path d="M633.913 237.289H632.366V242.807H633.913V237.289Z" fill="#68C2FD"/>
<path opacity="0.2" d="M628.189 237.289H627.803V242.807H628.189V237.289Z" fill="#68C2FD"/>
<path opacity="0.2" d="M631.051 237.289H630.664V242.807H631.051V237.289Z" fill="#68C2FD"/>
<path opacity="0.2" d="M633.912 237.289H633.474V242.807H633.912V237.289Z" fill="#68C2FD"/>
<path d="M645.227 237.289H643.681V242.807H645.227V237.289Z" fill="#68C2FD"/>
<path d="M648.089 237.289H646.542V242.807H648.089V237.289Z" fill="#68C2FD"/>
<path d="M650.95 237.289H649.403V242.807H650.95V237.289Z" fill="#68C2FD"/>
<path opacity="0.2" d="M645.227 237.289H644.841V242.807H645.227V237.289Z" fill="#68C2FD"/>
<path opacity="0.2" d="M648.089 237.289H647.702V242.807H648.089V237.289Z" fill="#68C2FD"/>
<path opacity="0.2" d="M650.95 237.289H650.512V242.807H650.95V237.289Z" fill="#68C2FD"/>
<path opacity="0.2" d="M636.722 204.465H635.201V209.88H636.722V204.465Z" fill="#68C2FD"/>
<path opacity="0.2" d="M639.557 204.465H638.036V209.88H639.557V204.465Z" fill="#68C2FD"/>
<path opacity="0.2" d="M642.392 204.465H640.871V209.88H642.392V204.465Z" fill="#68C2FD"/>
<path opacity="0.2" d="M636.722 204.465H636.335V209.88H636.722V204.465Z" fill="#68C2FD"/>
<path opacity="0.2" d="M639.557 204.465H639.17V209.88H639.557V204.465Z" fill="#68C2FD"/>
<path opacity="0.2" d="M642.392 204.465H641.979V209.88H642.392V204.465Z" fill="#68C2FD"/>
<path opacity="0.2" d="M631.103 187.757H629.995V191.547H631.103V187.757Z" fill="#68C2FD"/>
<path opacity="0.2" d="M633.81 187.757H632.701V191.547H633.81V187.757Z" fill="#68C2FD"/>
<path opacity="0.2" d="M636.515 187.757H635.406V191.547H636.515V187.757Z" fill="#68C2FD"/>
<path opacity="0.2" d="M639.222 187.757H638.113V191.547H639.222V187.757Z" fill="#68C2FD"/>
<path opacity="0.2" d="M641.954 187.757H640.846V191.547H641.954V187.757Z" fill="#68C2FD"/>
<path opacity="0.2" d="M644.661 187.757H643.553V191.547H644.661V187.757Z" fill="#68C2FD"/>
<path opacity="0.2" d="M647.367 187.757H646.259V191.547H647.367V187.757Z" fill="#68C2FD"/>
<path d="M650.924 191.547H626.645V202.764H650.924V191.547Z" fill="#68C2FD"/>
<path opacity="0.58" d="M650.924 191.547H626.645V202.764H650.924V191.547Z" fill="url(#paint19_linear)"/>
<path d="M636.721 237.289H635.175V242.807H636.721V237.289Z" fill="#68C2FD"/>
<path d="M639.583 237.289H638.036V242.807H639.583V237.289Z" fill="#68C2FD"/>
<path d="M642.418 237.289H640.871V242.807H642.418V237.289Z" fill="#68C2FD"/>
<path opacity="0.2" d="M636.722 237.289H636.335V242.807H636.722V237.289Z" fill="#68C2FD"/>
<path opacity="0.2" d="M639.557 237.289H639.17V242.807H639.557V237.289Z" fill="#68C2FD"/>
<path opacity="0.2" d="M642.418 237.289H641.979V242.807H642.418V237.289Z" fill="#68C2FD"/>
<path d="M638.526 232.055C642.626 232.055 645.949 228.73 645.949 224.629C645.949 220.527 642.626 217.203 638.526 217.203C634.426 217.203 631.103 220.527 631.103 224.629C631.103 228.73 634.426 232.055 638.526 232.055Z" fill="#68C2FD"/>
<path d="M638.526 232.055C642.626 232.055 645.949 228.73 645.949 224.629C645.949 220.527 642.626 217.203 638.526 217.203C634.426 217.203 631.103 220.527 631.103 224.629C631.103 228.73 634.426 232.055 638.526 232.055Z" fill="url(#paint20_linear)"/>
<path d="M814.027 298.45L889.909 -111.447L965.791 298.45H814.027Z" fill="#68C2FD"/>
<path d="M979.917 -4.26025H802.972V0.458299H979.917V-4.26025Z" fill="#68C2FD"/>
<path d="M979.917 6.56885H802.972V11.2875H979.917V6.56885Z" fill="#68C2FD"/>
<path opacity="0.58" d="M814.52 299.997H966.283L890.401 -109.9L814.52 299.997Z" fill="url(#paint21_linear)"/>
<path d="M979.917 17.3984H802.972V22.117H979.917V17.3984Z" fill="#68C2FD"/>
<path d="M979.917 28.2275H802.972V32.9462H979.917V28.2275Z" fill="#68C2FD"/>
<path d="M979.917 39.0576H802.972V43.7763H979.917V39.0576Z" fill="#68C2FD"/>
<path d="M979.917 49.8872H802.972V54.6059H979.917V49.8872Z" fill="#68C2FD"/>
<path d="M979.917 60.7168H802.972V65.4353H979.917V60.7168Z" fill="#68C2FD"/>
<path d="M979.917 71.5459H802.972V76.2646H979.917V71.5459Z" fill="#68C2FD"/>
<path d="M979.917 82.3755H802.972V87.0941H979.917V82.3755Z" fill="#68C2FD"/>
<path d="M979.917 93.2046H802.972V97.9232H979.917V93.2046Z" fill="#68C2FD"/>
<path d="M979.917 104.035H802.972V108.754H979.917V104.035Z" fill="#68C2FD"/>
<path d="M979.917 114.838H802.972V119.557H979.917V114.838Z" fill="#68C2FD"/>
<path d="M979.917 125.668H802.972V130.387H979.917V125.668Z" fill="#68C2FD"/>
<path d="M979.917 136.497H802.972V141.216H979.917V136.497Z" fill="#68C2FD"/>
<path d="M979.917 147.327H802.972V152.045H979.917V147.327Z" fill="#68C2FD"/>
<path d="M979.917 158.156H802.972V162.875H979.917V158.156Z" fill="#68C2FD"/>
<path d="M979.917 168.986H802.972V173.705H979.917V168.986Z" fill="#68C2FD"/>
<path d="M979.917 179.815H802.972V184.534H979.917V179.815Z" fill="#68C2FD"/>
<path d="M979.917 190.645H802.972V195.363H979.917V190.645Z" fill="#68C2FD"/>
<path d="M979.917 201.474H802.972V206.193H979.917V201.474Z" fill="#68C2FD"/>
<path d="M979.917 212.304H802.972V217.023H979.917V212.304Z" fill="#68C2FD"/>
<path d="M979.917 223.134H802.972V227.852H979.917V223.134Z" fill="#68C2FD"/>
<path d="M979.917 233.963H802.972V238.682H979.917V233.963Z" fill="#68C2FD"/>
<path d="M979.917 244.792H802.972V249.511H979.917V244.792Z" fill="#68C2FD"/>
<path d="M979.917 255.622H802.972V260.341H979.917V255.622Z" fill="#68C2FD"/>
<path d="M979.917 266.451H802.972V271.17H979.917V266.451Z" fill="#68C2FD"/>
<path d="M979.917 277.255H802.972V281.974H979.917V277.255Z" fill="#68C2FD"/>
<path d="M979.917 288.085H802.972V292.804H979.917V288.085Z" fill="#68C2FD"/>
<path d="M863.026 298.605L889.497 -111.447L813.615 298.605H863.026Z" fill="url(#paint22_linear)"/>
<path d="M906.561 -38.4253H873.543V94.6231H906.561V-38.4253Z" fill="#68C2FD"/>
<path d="M906.561 -38.4253H873.543V94.6231H906.561V-38.4253Z" fill="url(#paint23_linear)"/>
<path d="M906.561 -38.4253H902.823V94.7262H906.561V-38.4253Z" fill="#68C2FD"/>
<path opacity="0.2" d="M813.615 298.605H891.791L832.38 197.246L813.615 298.605Z" fill="#68C2FD"/>
<path d="M817.739 191.573H681.132V298.631H817.739V191.573Z" fill="#68C2FD"/>
<path opacity="0.58" d="M817.739 191.573H681.132V298.631H817.739V191.573Z" fill="url(#paint24_linear)"/>
<path d="M699.818 196.163H686.519V200.675H699.818V196.163Z" fill="#68C2FD"/>
<path d="M715.953 196.163H702.653V200.675H715.953V196.163Z" fill="#68C2FD"/>
<path d="M732.064 196.163H718.764V200.675H732.064V196.163Z" fill="#68C2FD"/>
<path d="M748.199 196.163H734.899V200.675H748.199V196.163Z" fill="#68C2FD"/>
<path d="M764.308 196.163H751.008V200.675H764.308V196.163Z" fill="#68C2FD"/>
<path d="M780.443 196.163H767.144V200.675H780.443V196.163Z" fill="#68C2FD"/>
<path d="M796.553 196.163H783.253V200.675H796.553V196.163Z" fill="#68C2FD"/>
<path d="M812.688 196.163H799.388V200.675H812.688V196.163Z" fill="#68C2FD"/>
<path d="M699.818 203.717H686.519V208.23H699.818V203.717Z" fill="#68C2FD"/>
<path d="M715.953 203.717H702.653V208.23H715.953V203.717Z" fill="#68C2FD"/>
<path d="M732.064 203.717H718.764V208.23H732.064V203.717Z" fill="#68C2FD"/>
<path d="M748.199 203.717H734.899V208.23H748.199V203.717Z" fill="#68C2FD"/>
<path d="M764.308 203.717H751.008V208.23H764.308V203.717Z" fill="#68C2FD"/>
<path d="M780.443 203.717H767.144V208.23H780.443V203.717Z" fill="#68C2FD"/>
<path d="M796.553 203.717H783.253V208.23H796.553V203.717Z" fill="#68C2FD"/>
<path d="M812.688 203.717H799.388V208.23H812.688V203.717Z" fill="#68C2FD"/>
<path d="M699.818 211.247H686.519V215.759H699.818V211.247Z" fill="#68C2FD"/>
<path d="M715.953 211.247H702.653V215.759H715.953V211.247Z" fill="#68C2FD"/>
<path d="M732.064 211.247H718.764V215.759H732.064V211.247Z" fill="#68C2FD"/>
<path d="M748.199 211.247H734.899V215.759H748.199V211.247Z" fill="#68C2FD"/>
<path d="M764.308 211.247H751.008V215.759H764.308V211.247Z" fill="#68C2FD"/>
<path d="M780.443 211.247H767.144V215.759H780.443V211.247Z" fill="#68C2FD"/>
<path d="M796.553 211.247H783.253V215.759H796.553V211.247Z" fill="#68C2FD"/>
<path d="M812.688 211.247H799.388V215.759H812.688V211.247Z" fill="#68C2FD"/>
<path d="M699.818 218.775H686.519V223.288H699.818V218.775Z" fill="#68C2FD"/>
<path d="M715.953 218.775H702.653V223.288H715.953V218.775Z" fill="#68C2FD"/>
<path d="M732.064 218.775H718.764V223.288H732.064V218.775Z" fill="#68C2FD"/>
<path d="M748.199 218.775H734.899V223.288H748.199V218.775Z" fill="#68C2FD"/>
<path d="M764.308 218.775H751.008V223.288H764.308V218.775Z" fill="#68C2FD"/>
<path d="M780.443 218.775H767.144V223.288H780.443V218.775Z" fill="#68C2FD"/>
<path d="M796.553 218.775H783.253V223.288H796.553V218.775Z" fill="#68C2FD"/>
<path d="M812.688 218.775H799.388V223.288H812.688V218.775Z" fill="#68C2FD"/>
<path d="M699.818 226.305H686.519V230.817H699.818V226.305Z" fill="#68C2FD"/>
<path d="M715.953 226.305H702.653V230.817H715.953V226.305Z" fill="#68C2FD"/>
<path d="M732.064 226.305H718.764V230.817H732.064V226.305Z" fill="#68C2FD"/>
<path d="M748.199 226.305H734.899V230.817H748.199V226.305Z" fill="#68C2FD"/>
<path d="M764.308 226.305H751.008V230.817H764.308V226.305Z" fill="#68C2FD"/>
<path d="M780.443 226.305H767.144V230.817H780.443V226.305Z" fill="#68C2FD"/>
<path d="M796.553 226.305H783.253V230.817H796.553V226.305Z" fill="#68C2FD"/>
<path d="M812.688 226.305H799.388V230.817H812.688V226.305Z" fill="#68C2FD"/>
<path d="M699.818 233.834H686.519V238.346H699.818V233.834Z" fill="#68C2FD"/>
<path d="M715.953 233.834H702.653V238.346H715.953V233.834Z" fill="#68C2FD"/>
<path d="M732.064 233.834H718.764V238.346H732.064V233.834Z" fill="#68C2FD"/>
<path d="M748.199 233.834H734.899V238.346H748.199V233.834Z" fill="#68C2FD"/>
<path d="M764.308 233.834H751.008V238.346H764.308V233.834Z" fill="#68C2FD"/>
<path d="M780.443 233.834H767.144V238.346H780.443V233.834Z" fill="#68C2FD"/>
<path d="M796.553 233.834H783.253V238.346H796.553V233.834Z" fill="#68C2FD"/>
<path d="M812.688 233.834H799.388V238.346H812.688V233.834Z" fill="#68C2FD"/>
<path d="M699.818 241.363H686.519V245.876H699.818V241.363Z" fill="#68C2FD"/>
<path d="M715.953 241.363H702.653V245.876H715.953V241.363Z" fill="#68C2FD"/>
<path d="M732.064 241.363H718.764V245.876H732.064V241.363Z" fill="#68C2FD"/>
<path d="M748.199 241.363H734.899V245.876H748.199V241.363Z" fill="#68C2FD"/>
<path d="M764.308 241.363H751.008V245.876H764.308V241.363Z" fill="#68C2FD"/>
<path d="M780.443 241.363H767.144V245.876H780.443V241.363Z" fill="#68C2FD"/>
<path d="M796.553 241.363H783.253V245.876H796.553V241.363Z" fill="#68C2FD"/>
<path d="M812.688 241.363H799.388V245.876H812.688V241.363Z" fill="#68C2FD"/>
<path d="M699.818 248.892H686.519V253.405H699.818V248.892Z" fill="#68C2FD"/>
<path d="M715.953 248.892H702.653V253.405H715.953V248.892Z" fill="#68C2FD"/>
<path d="M732.064 248.892H718.764V253.405H732.064V248.892Z" fill="#68C2FD"/>
<path d="M748.199 248.892H734.899V253.405H748.199V248.892Z" fill="#68C2FD"/>
<path d="M764.308 248.892H751.008V253.405H764.308V248.892Z" fill="#68C2FD"/>
<path d="M780.443 248.892H767.144V253.405H780.443V248.892Z" fill="#68C2FD"/>
<path d="M796.553 248.892H783.253V253.405H796.553V248.892Z" fill="#68C2FD"/>
<path d="M812.688 248.892H799.388V253.405H812.688V248.892Z" fill="#68C2FD"/>
<path d="M699.818 256.447H686.519V260.959H699.818V256.447Z" fill="#68C2FD"/>
<path d="M715.953 256.447H702.653V260.959H715.953V256.447Z" fill="#68C2FD"/>
<path d="M732.064 256.447H718.764V260.959H732.064V256.447Z" fill="#68C2FD"/>
<path d="M748.199 256.447H734.899V260.959H748.199V256.447Z" fill="#68C2FD"/>
<path d="M764.308 256.447H751.008V260.959H764.308V256.447Z" fill="#68C2FD"/>
<path d="M780.443 256.447H767.144V260.959H780.443V256.447Z" fill="#68C2FD"/>
<path d="M796.553 256.447H783.253V260.959H796.553V256.447Z" fill="#68C2FD"/>
<path d="M812.688 256.447H799.388V260.959H812.688V256.447Z" fill="#68C2FD"/>
<path d="M699.818 263.976H686.519V268.488H699.818V263.976Z" fill="#68C2FD"/>
<path d="M715.953 263.976H702.653V268.488H715.953V263.976Z" fill="#68C2FD"/>
<path d="M732.064 263.976H718.764V268.488H732.064V263.976Z" fill="#68C2FD"/>
<path d="M748.199 263.976H734.899V268.488H748.199V263.976Z" fill="#68C2FD"/>
<path d="M764.308 263.976H751.008V268.488H764.308V263.976Z" fill="#68C2FD"/>
<path d="M780.443 263.976H767.144V268.488H780.443V263.976Z" fill="#68C2FD"/>
<path d="M796.553 263.976H783.253V268.488H796.553V263.976Z" fill="#68C2FD"/>
<path d="M812.688 263.976H799.388V268.488H812.688V263.976Z" fill="#68C2FD"/>
<path d="M699.818 271.505H686.519V276.017H699.818V271.505Z" fill="#68C2FD"/>
<path d="M715.953 271.505H702.653V276.017H715.953V271.505Z" fill="#68C2FD"/>
<path d="M732.064 271.505H718.764V276.017H732.064V271.505Z" fill="#68C2FD"/>
<path d="M748.199 271.505H734.899V276.017H748.199V271.505Z" fill="#68C2FD"/>
<path d="M764.308 271.505H751.008V276.017H764.308V271.505Z" fill="#68C2FD"/>
<path d="M780.443 271.505H767.144V276.017H780.443V271.505Z" fill="#68C2FD"/>
<path d="M796.553 271.505H783.253V276.017H796.553V271.505Z" fill="#68C2FD"/>
<path d="M812.688 271.505H799.388V276.017H812.688V271.505Z" fill="#68C2FD"/>
<path d="M699.818 279.034H686.519V283.547H699.818V279.034Z" fill="#68C2FD"/>
<path d="M715.953 279.034H702.653V283.547H715.953V279.034Z" fill="#68C2FD"/>
<path d="M732.064 279.034H718.764V283.547H732.064V279.034Z" fill="#68C2FD"/>
<path d="M748.199 279.034H734.899V283.547H748.199V279.034Z" fill="#68C2FD"/>
<path d="M764.308 279.034H751.008V283.547H764.308V279.034Z" fill="#68C2FD"/>
<path d="M780.443 279.034H767.144V283.547H780.443V279.034Z" fill="#68C2FD"/>
<path d="M796.553 279.034H783.253V283.547H796.553V279.034Z" fill="#68C2FD"/>
<path d="M812.688 279.034H799.388V283.547H812.688V279.034Z" fill="#68C2FD"/>
<path d="M699.818 286.563H686.519V291.075H699.818V286.563Z" fill="#68C2FD"/>
<path d="M715.953 286.563H702.653V291.075H715.953V286.563Z" fill="#68C2FD"/>
<path d="M732.064 286.563H718.764V291.075H732.064V286.563Z" fill="#68C2FD"/>
<path d="M748.199 286.563H734.899V291.075H748.199V286.563Z" fill="#68C2FD"/>
<path d="M764.308 286.563H751.008V291.075H764.308V286.563Z" fill="#68C2FD"/>
<path d="M780.443 286.563H767.144V291.075H780.443V286.563Z" fill="#68C2FD"/>
<path d="M796.553 286.563H783.253V291.075H796.553V286.563Z" fill="#68C2FD"/>
<path d="M812.688 286.563H799.388V291.075H812.688V286.563Z" fill="#68C2FD"/>
<path d="M719.924 157.176H683.607V191.572H719.924V157.176Z" fill="#68C2FD"/>
<path opacity="0.58" d="M719.924 157.176H683.607V191.572H719.924V157.176Z" fill="url(#paint25_linear)"/>
<path d="M732.245 177.572H672.627V183.425H732.245V177.572Z" fill="#68C2FD"/>
<path d="M732.245 162.488H672.627V172.234H732.245V162.488Z" fill="#68C2FD"/>
<path d="M700.98 149.905H683.607V157.176H700.98V149.905Z" fill="#68C2FD"/>
<path d="M817.714 298.605H824.622V201.732L817.714 191.29V298.605Z" fill="#68C2FD"/>
<path opacity="0.58" d="M817.714 298.605H824.622V201.732L817.714 191.29V298.605Z" fill="url(#paint26_linear)"/>
<path opacity="0.58" d="M1163.46 203.176H993.604V298.605H1163.46V203.176Z" fill="url(#paint27_linear)"/>
<path d="M1016.83 207.275H1000.3V211.298H1016.83V207.275Z" fill="#68C2FD"/>
<path d="M1036.88 207.275H1020.36V211.298H1036.88V207.275Z" fill="#68C2FD"/>
<path d="M1056.93 207.275H1040.41V211.298H1056.93V207.275Z" fill="#68C2FD"/>
<path d="M1076.98 207.275H1060.46V211.298H1076.98V207.275Z" fill="#68C2FD"/>
<path d="M1097.04 207.275H1080.52V211.298H1097.04V207.275Z" fill="#68C2FD"/>
<path d="M1117.09 207.275H1100.57V211.298H1117.09V207.275Z" fill="#68C2FD"/>
<path d="M1137.12 207.275H1120.6V211.298H1137.12V207.275Z" fill="#68C2FD"/>
<path d="M1157.17 207.275H1140.65V211.298H1157.17V207.275Z" fill="#68C2FD"/>
<path d="M1016.83 214.005H1000.3V218.027H1016.83V214.005Z" fill="#68C2FD"/>
<path d="M1036.88 214.005H1020.36V218.027H1036.88V214.005Z" fill="#68C2FD"/>
<path d="M1056.93 214.005H1040.41V218.027H1056.93V214.005Z" fill="#68C2FD"/>
<path d="M1076.98 214.005H1060.46V218.027H1076.98V214.005Z" fill="#68C2FD"/>
<path d="M1097.04 214.005H1080.52V218.027H1097.04V214.005Z" fill="#68C2FD"/>
<path d="M1117.09 214.005H1100.57V218.027H1117.09V214.005Z" fill="#68C2FD"/>
<path d="M1137.12 214.005H1120.6V218.027H1137.12V214.005Z" fill="#68C2FD"/>
<path d="M1157.17 214.005H1140.65V218.027H1157.17V214.005Z" fill="#68C2FD"/>
<path d="M1016.83 220.709H1000.3V224.732H1016.83V220.709Z" fill="#68C2FD"/>
<path d="M1036.88 220.709H1020.36V224.732H1036.88V220.709Z" fill="#68C2FD"/>
<path d="M1056.93 220.709H1040.41V224.732H1056.93V220.709Z" fill="#68C2FD"/>
<path d="M1076.98 220.709H1060.46V224.732H1076.98V220.709Z" fill="#68C2FD"/>
<path d="M1097.04 220.709H1080.52V224.732H1097.04V220.709Z" fill="#68C2FD"/>
<path d="M1117.09 220.709H1100.57V224.732H1117.09V220.709Z" fill="#68C2FD"/>
<path d="M1137.12 220.709H1120.6V224.732H1137.12V220.709Z" fill="#68C2FD"/>
<path d="M1157.17 220.709H1140.65V224.732H1157.17V220.709Z" fill="#68C2FD"/>
<path d="M1016.83 227.439H1000.3V231.461H1016.83V227.439Z" fill="#68C2FD"/>
<path d="M1036.88 227.439H1020.36V231.461H1036.88V227.439Z" fill="#68C2FD"/>
<path d="M1056.93 227.439H1040.41V231.461H1056.93V227.439Z" fill="#68C2FD"/>
<path d="M1076.98 227.439H1060.46V231.461H1076.98V227.439Z" fill="#68C2FD"/>
<path d="M1097.04 227.439H1080.52V231.461H1097.04V227.439Z" fill="#68C2FD"/>
<path d="M1117.09 227.439H1100.57V231.461H1117.09V227.439Z" fill="#68C2FD"/>
<path d="M1137.12 227.439H1120.6V231.461H1137.12V227.439Z" fill="#68C2FD"/>
<path d="M1157.17 227.439H1140.65V231.461H1157.17V227.439Z" fill="#68C2FD"/>
<path d="M1016.83 234.143H1000.3V238.165H1016.83V234.143Z" fill="#68C2FD"/>
<path d="M1036.88 234.143H1020.36V238.165H1036.88V234.143Z" fill="#68C2FD"/>
<path d="M1056.93 234.143H1040.41V238.165H1056.93V234.143Z" fill="#68C2FD"/>
<path d="M1076.98 234.143H1060.46V238.165H1076.98V234.143Z" fill="#68C2FD"/>
<path d="M1097.04 234.143H1080.52V238.165H1097.04V234.143Z" fill="#68C2FD"/>
<path d="M1117.09 234.143H1100.57V238.165H1117.09V234.143Z" fill="#68C2FD"/>
<path d="M1137.12 234.143H1120.6V238.165H1137.12V234.143Z" fill="#68C2FD"/>
<path d="M1157.17 234.143H1140.65V238.165H1157.17V234.143Z" fill="#68C2FD"/>
<path d="M1016.83 240.873H1000.3V244.895H1016.83V240.873Z" fill="#68C2FD"/>
<path d="M1036.88 240.873H1020.36V244.895H1036.88V240.873Z" fill="#68C2FD"/>
<path d="M1056.93 240.873H1040.41V244.895H1056.93V240.873Z" fill="#68C2FD"/>
<path d="M1076.98 240.873H1060.46V244.895H1076.98V240.873Z" fill="#68C2FD"/>
<path d="M1097.04 240.873H1080.52V244.895H1097.04V240.873Z" fill="#68C2FD"/>
<path d="M1117.09 240.873H1100.57V244.895H1117.09V240.873Z" fill="#68C2FD"/>
<path d="M1137.12 240.873H1120.6V244.895H1137.12V240.873Z" fill="#68C2FD"/>
<path d="M1157.17 240.873H1140.65V244.895H1157.17V240.873Z" fill="#68C2FD"/>
<path d="M1016.83 247.577H1000.3V251.6H1016.83V247.577Z" fill="#68C2FD"/>
<path d="M1036.88 247.577H1020.36V251.6H1036.88V247.577Z" fill="#68C2FD"/>
<path d="M1056.93 247.577H1040.41V251.6H1056.93V247.577Z" fill="#68C2FD"/>
<path d="M1076.98 247.577H1060.46V251.6H1076.98V247.577Z" fill="#68C2FD"/>
<path d="M1097.04 247.577H1080.52V251.6H1097.04V247.577Z" fill="#68C2FD"/>
<path d="M1117.09 247.577H1100.57V251.6H1117.09V247.577Z" fill="#68C2FD"/>
<path d="M1137.12 247.577H1120.6V251.6H1137.12V247.577Z" fill="#68C2FD"/>
<path d="M1157.17 247.577H1140.65V251.6H1157.17V247.577Z" fill="#68C2FD"/>
<path d="M1016.83 254.307H1000.3V258.329H1016.83V254.307Z" fill="#68C2FD"/>
<path d="M1036.88 254.307H1020.36V258.329H1036.88V254.307Z" fill="#68C2FD"/>
<path d="M1056.93 254.307H1040.41V258.329H1056.93V254.307Z" fill="#68C2FD"/>
<path d="M1076.98 254.307H1060.46V258.329H1076.98V254.307Z" fill="#68C2FD"/>
<path d="M1097.04 254.307H1080.52V258.329H1097.04V254.307Z" fill="#68C2FD"/>
<path d="M1117.09 254.307H1100.57V258.329H1117.09V254.307Z" fill="#68C2FD"/>
<path d="M1137.12 254.307H1120.6V258.329H1137.12V254.307Z" fill="#68C2FD"/>
<path d="M1157.17 254.307H1140.65V258.329H1157.17V254.307Z" fill="#68C2FD"/>
<path d="M1016.83 261.01H1000.3V265.033H1016.83V261.01Z" fill="#68C2FD"/>
<path d="M1036.88 261.01H1020.36V265.033H1036.88V261.01Z" fill="#68C2FD"/>
<path d="M1056.93 261.01H1040.41V265.033H1056.93V261.01Z" fill="#68C2FD"/>
<path d="M1076.98 261.01H1060.46V265.033H1076.98V261.01Z" fill="#68C2FD"/>
<path d="M1097.04 261.01H1080.52V265.033H1097.04V261.01Z" fill="#68C2FD"/>
<path d="M1117.09 261.01H1100.57V265.033H1117.09V261.01Z" fill="#68C2FD"/>
<path d="M1137.12 261.01H1120.6V265.033H1137.12V261.01Z" fill="#68C2FD"/>
<path d="M1157.17 261.01H1140.65V265.033H1157.17V261.01Z" fill="#68C2FD"/>
<path d="M1016.83 267.715H1000.3V271.737H1016.83V267.715Z" fill="#68C2FD"/>
<path d="M1036.88 267.715H1020.36V271.737H1036.88V267.715Z" fill="#68C2FD"/>
<path d="M1056.93 267.715H1040.41V271.737H1056.93V267.715Z" fill="#68C2FD"/>
<path d="M1076.98 267.715H1060.46V271.737H1076.98V267.715Z" fill="#68C2FD"/>
<path d="M1097.04 267.715H1080.52V271.737H1097.04V267.715Z" fill="#68C2FD"/>
<path d="M1117.09 267.715H1100.57V271.737H1117.09V267.715Z" fill="#68C2FD"/>
<path d="M1137.12 267.715H1120.6V271.737H1137.12V267.715Z" fill="#68C2FD"/>
<path d="M1157.17 267.715H1140.65V271.737H1157.17V267.715Z" fill="#68C2FD"/>
<path d="M1016.83 274.444H1000.3V278.467H1016.83V274.444Z" fill="#68C2FD"/>
<path d="M1036.88 274.444H1020.36V278.467H1036.88V274.444Z" fill="#68C2FD"/>
<path d="M1056.93 274.444H1040.41V278.467H1056.93V274.444Z" fill="#68C2FD"/>
<path d="M1076.98 274.444H1060.46V278.467H1076.98V274.444Z" fill="#68C2FD"/>
<path d="M1097.04 274.444H1080.52V278.467H1097.04V274.444Z" fill="#68C2FD"/>
<path d="M1117.09 274.444H1100.57V278.467H1117.09V274.444Z" fill="#68C2FD"/>
<path d="M1137.12 274.444H1120.6V278.467H1137.12V274.444Z" fill="#68C2FD"/>
<path d="M1157.17 274.444H1140.65V278.467H1157.17V274.444Z" fill="#68C2FD"/>
<path d="M1016.83 281.148H1000.3V285.171H1016.83V281.148Z" fill="#68C2FD"/>
<path d="M1036.88 281.148H1020.36V285.171H1036.88V281.148Z" fill="#68C2FD"/>
<path d="M1056.93 281.148H1040.41V285.171H1056.93V281.148Z" fill="#68C2FD"/>
<path d="M1076.98 281.148H1060.46V285.171H1076.98V281.148Z" fill="#68C2FD"/>
<path d="M1097.04 281.148H1080.52V285.171H1097.04V281.148Z" fill="#68C2FD"/>
<path d="M1117.09 281.148H1100.57V285.171H1117.09V281.148Z" fill="#68C2FD"/>
<path d="M1137.12 281.148H1120.6V285.171H1137.12V281.148Z" fill="#68C2FD"/>
<path d="M1157.17 281.148H1140.65V285.171H1157.17V281.148Z" fill="#68C2FD"/>
<path d="M1016.83 287.878H1000.3V291.9H1016.83V287.878Z" fill="#68C2FD"/>
<path d="M1036.88 287.878H1020.36V291.9H1036.88V287.878Z" fill="#68C2FD"/>
<path d="M1056.93 287.878H1040.41V291.9H1056.93V287.878Z" fill="#68C2FD"/>
<path d="M1076.98 287.878H1060.46V291.9H1076.98V287.878Z" fill="#68C2FD"/>
<path d="M1097.04 287.878H1080.52V291.9H1097.04V287.878Z" fill="#68C2FD"/>
<path d="M1117.09 287.878H1100.57V291.9H1117.09V287.878Z" fill="#68C2FD"/>
<path d="M1137.12 287.878H1120.6V291.9H1137.12V287.878Z" fill="#68C2FD"/>
<path d="M1157.17 287.878H1140.65V291.9H1157.17V287.878Z" fill="#68C2FD"/>
<path d="M993.604 298.605L1163.46 203.176H993.604V298.605Z" fill="url(#paint28_linear)"/>
<path d="M1285.84 96.8667H1228.05V107.825H1285.84V96.8667Z" fill="#68C2FD"/>
<path opacity="0.58" d="M1285.84 96.8667H1228.05V107.825H1285.84V96.8667Z" fill="url(#paint29_linear)"/>
<path d="M1304.58 107.825H1208.9V298.605H1304.58V107.825Z" fill="#68C2FD"/>
<path opacity="0.58" d="M1304.58 107.825H1208.9V298.605H1304.58V107.825Z" fill="url(#paint30_linear)"/>
<path d="M1228.03 116.721H1212.28V123.115H1228.03V116.721Z" fill="#68C2FD"/>
<path d="M1246.43 116.721H1230.68V123.115H1246.43V116.721Z" fill="#68C2FD"/>
<path d="M1264.81 116.721H1249.06V123.115H1264.81V116.721Z" fill="#68C2FD"/>
<path d="M1283.18 116.721H1267.44V123.115H1283.18V116.721Z" fill="#68C2FD"/>
<path d="M1246.22 99.1353H1230.47V105.53H1246.22V99.1353Z" fill="#68C2FD"/>
<path d="M1264.63 99.1353H1248.88V105.53H1264.63V99.1353Z" fill="#68C2FD"/>
<path d="M1283 99.1353H1267.26V105.53H1283V99.1353Z" fill="#68C2FD"/>
<path d="M1301.59 116.721H1285.84V123.115H1301.59V116.721Z" fill="#68C2FD"/>
<path d="M1228.03 124.766H1212.28V131.16H1228.03V124.766Z" fill="#68C2FD"/>
<path d="M1246.43 124.766H1230.68V131.16H1246.43V124.766Z" fill="#68C2FD"/>
<path d="M1264.81 124.766H1249.06V131.16H1264.81V124.766Z" fill="#68C2FD"/>
<path d="M1283.18 124.766H1267.44V131.16H1283.18V124.766Z" fill="#68C2FD"/>
<path d="M1301.59 124.766H1285.84V131.16H1301.59V124.766Z" fill="#68C2FD"/>
<path d="M1228.03 132.81H1212.28V139.204H1228.03V132.81Z" fill="#68C2FD"/>
<path d="M1246.43 132.81H1230.68V139.204H1246.43V132.81Z" fill="#68C2FD"/>
<path d="M1264.81 132.81H1249.06V139.204H1264.81V132.81Z" fill="#68C2FD"/>
<path d="M1283.18 132.81H1267.44V139.204H1283.18V132.81Z" fill="#68C2FD"/>
<path d="M1301.59 132.81H1285.84V139.204H1301.59V132.81Z" fill="#68C2FD"/>
<path d="M1228.03 140.88H1212.28V147.275H1228.03V140.88Z" fill="#68C2FD"/>
<path d="M1246.43 140.88H1230.68V147.275H1246.43V140.88Z" fill="#68C2FD"/>
<path d="M1264.81 140.88H1249.06V147.275H1264.81V140.88Z" fill="#68C2FD"/>
<path d="M1283.18 140.88H1267.44V147.275H1283.18V140.88Z" fill="#68C2FD"/>
<path d="M1301.59 140.88H1285.84V147.275H1301.59V140.88Z" fill="#68C2FD"/>
<path d="M1228.03 148.925H1212.28V155.32H1228.03V148.925Z" fill="#68C2FD"/>
<path d="M1246.43 148.925H1230.68V155.32H1246.43V148.925Z" fill="#68C2FD"/>
<path d="M1264.81 148.925H1249.06V155.32H1264.81V148.925Z" fill="#68C2FD"/>
<path d="M1283.18 148.925H1267.44V155.32H1283.18V148.925Z" fill="#68C2FD"/>
<path d="M1301.59 148.925H1285.84V155.32H1301.59V148.925Z" fill="#68C2FD"/>
<path d="M1228.03 156.97H1212.28V163.364H1228.03V156.97Z" fill="#68C2FD"/>
<path d="M1246.43 156.97H1230.68V163.364H1246.43V156.97Z" fill="#68C2FD"/>
<path d="M1264.81 156.97H1249.06V163.364H1264.81V156.97Z" fill="#68C2FD"/>
<path d="M1283.18 156.97H1267.44V163.364H1283.18V156.97Z" fill="#68C2FD"/>
<path d="M1301.59 156.97H1285.84V163.364H1301.59V156.97Z" fill="#68C2FD"/>
<path d="M1228.03 165.041H1212.28V171.435H1228.03V165.041Z" fill="#68C2FD"/>
<path d="M1246.43 165.041H1230.68V171.435H1246.43V165.041Z" fill="#68C2FD"/>
<path d="M1264.81 165.041H1249.06V171.435H1264.81V165.041Z" fill="#68C2FD"/>
<path d="M1283.18 165.041H1267.44V171.435H1283.18V165.041Z" fill="#68C2FD"/>
<path d="M1301.59 165.041H1285.84V171.435H1301.59V165.041Z" fill="#68C2FD"/>
<path d="M1228.03 173.085H1212.28V179.48H1228.03V173.085Z" fill="#68C2FD"/>
<path d="M1246.43 173.085H1230.68V179.48H1246.43V173.085Z" fill="#68C2FD"/>
<path d="M1264.81 173.085H1249.06V179.48H1264.81V173.085Z" fill="#68C2FD"/>
<path d="M1283.18 173.085H1267.44V179.48H1283.18V173.085Z" fill="#68C2FD"/>
<path d="M1301.59 173.085H1285.84V179.48H1301.59V173.085Z" fill="#68C2FD"/>
<path d="M1228.03 181.156H1212.28V187.551H1228.03V181.156Z" fill="#68C2FD"/>
<path d="M1246.43 181.156H1230.68V187.551H1246.43V181.156Z" fill="#68C2FD"/>
<path d="M1264.81 181.156H1249.06V187.551H1264.81V181.156Z" fill="#68C2FD"/>
<path d="M1283.18 181.156H1267.44V187.551H1283.18V181.156Z" fill="#68C2FD"/>
<path d="M1301.59 181.156H1285.84V187.551H1301.59V181.156Z" fill="#68C2FD"/>
<path d="M1228.03 189.201H1212.28V195.595H1228.03V189.201Z" fill="#68C2FD"/>
<path d="M1246.43 189.201H1230.68V195.595H1246.43V189.201Z" fill="#68C2FD"/>
<path d="M1264.81 189.201H1249.06V195.595H1264.81V189.201Z" fill="#68C2FD"/>
<path d="M1283.18 189.201H1267.44V195.595H1283.18V189.201Z" fill="#68C2FD"/>
<path d="M1301.59 189.201H1285.84V195.595H1301.59V189.201Z" fill="#68C2FD"/>
<path d="M1228.03 197.246H1212.28V203.64H1228.03V197.246Z" fill="#68C2FD"/>
<path d="M1246.43 197.246H1230.68V203.64H1246.43V197.246Z" fill="#68C2FD"/>
<path d="M1264.81 197.246H1249.06V203.64H1264.81V197.246Z" fill="#68C2FD"/>
<path d="M1283.18 197.246H1267.44V203.64H1283.18V197.246Z" fill="#68C2FD"/>
<path d="M1301.59 197.246H1285.84V203.64H1301.59V197.246Z" fill="#68C2FD"/>
<path d="M1228.03 205.316H1212.28V211.711H1228.03V205.316Z" fill="#68C2FD"/>
<path d="M1246.43 205.316H1230.68V211.711H1246.43V205.316Z" fill="#68C2FD"/>
<path d="M1264.81 205.316H1249.06V211.711H1264.81V205.316Z" fill="#68C2FD"/>
<path d="M1283.18 205.316H1267.44V211.711H1283.18V205.316Z" fill="#68C2FD"/>
<path d="M1301.59 205.316H1285.84V211.711H1301.59V205.316Z" fill="#68C2FD"/>
<path d="M1228.03 213.361H1212.28V219.755H1228.03V213.361Z" fill="#68C2FD"/>
<path d="M1246.43 213.361H1230.68V219.755H1246.43V213.361Z" fill="#68C2FD"/>
<path d="M1264.81 213.361H1249.06V219.755H1264.81V213.361Z" fill="#68C2FD"/>
<path d="M1283.18 213.361H1267.44V219.755H1283.18V213.361Z" fill="#68C2FD"/>
<path d="M1301.59 213.361H1285.84V219.755H1301.59V213.361Z" fill="#68C2FD"/>
<path d="M1228.03 221.406H1212.28V227.8H1228.03V221.406Z" fill="#68C2FD"/>
<path d="M1246.43 221.406H1230.68V227.8H1246.43V221.406Z" fill="#68C2FD"/>
<path d="M1264.81 221.406H1249.06V227.8H1264.81V221.406Z" fill="#68C2FD"/>
<path d="M1283.18 221.406H1267.44V227.8H1283.18V221.406Z" fill="#68C2FD"/>
<path d="M1301.59 221.406H1285.84V227.8H1301.59V221.406Z" fill="#68C2FD"/>
<path d="M1228.03 229.476H1212.28V235.871H1228.03V229.476Z" fill="#68C2FD"/>
<path d="M1246.43 229.476H1230.68V235.871H1246.43V229.476Z" fill="#68C2FD"/>
<path d="M1264.81 229.476H1249.06V235.871H1264.81V229.476Z" fill="#68C2FD"/>
<path d="M1283.18 229.476H1267.44V235.871H1283.18V229.476Z" fill="#68C2FD"/>
<path d="M1301.59 229.476H1285.84V235.871H1301.59V229.476Z" fill="#68C2FD"/>
<path d="M1228.03 237.521H1212.28V243.916H1228.03V237.521Z" fill="#68C2FD"/>
<path d="M1246.43 237.521H1230.68V243.916H1246.43V237.521Z" fill="#68C2FD"/>
<path d="M1264.81 237.521H1249.06V243.916H1264.81V237.521Z" fill="#68C2FD"/>
<path d="M1283.18 237.521H1267.44V243.916H1283.18V237.521Z" fill="#68C2FD"/>
<path d="M1301.59 237.521H1285.84V243.916H1301.59V237.521Z" fill="#68C2FD"/>
<path d="M1228.03 245.566H1212.28V251.961H1228.03V245.566Z" fill="#68C2FD"/>
<path d="M1246.43 245.566H1230.68V251.961H1246.43V245.566Z" fill="#68C2FD"/>
<path d="M1264.81 245.566H1249.06V251.961H1264.81V245.566Z" fill="#68C2FD"/>
<path d="M1283.18 245.566H1267.44V251.961H1283.18V245.566Z" fill="#68C2FD"/>
<path d="M1301.59 245.566H1285.84V251.961H1301.59V245.566Z" fill="#68C2FD"/>
<path d="M1228.03 253.637H1212.28V260.031H1228.03V253.637Z" fill="#68C2FD"/>
<path d="M1246.43 253.637H1230.68V260.031H1246.43V253.637Z" fill="#68C2FD"/>
<path d="M1264.81 253.637H1249.06V260.031H1264.81V253.637Z" fill="#68C2FD"/>
<path d="M1283.18 253.637H1267.44V260.031H1283.18V253.637Z" fill="#68C2FD"/>
<path d="M1301.59 253.637H1285.84V260.031H1301.59V253.637Z" fill="#68C2FD"/>
<path d="M1228.03 261.681H1212.28V268.076H1228.03V261.681Z" fill="#68C2FD"/>
<path d="M1246.43 261.681H1230.68V268.076H1246.43V261.681Z" fill="#68C2FD"/>
<path d="M1264.81 261.681H1249.06V268.076H1264.81V261.681Z" fill="#68C2FD"/>
<path d="M1283.18 261.681H1267.44V268.076H1283.18V261.681Z" fill="#68C2FD"/>
<path d="M1301.59 261.681H1285.84V268.076H1301.59V261.681Z" fill="#68C2FD"/>
<path d="M1228.03 269.726H1212.28V276.121H1228.03V269.726Z" fill="#68C2FD"/>
<path d="M1246.43 269.726H1230.68V276.121H1246.43V269.726Z" fill="#68C2FD"/>
<path d="M1264.81 269.726H1249.06V276.121H1264.81V269.726Z" fill="#68C2FD"/>
<path d="M1283.18 269.726H1267.44V276.121H1283.18V269.726Z" fill="#68C2FD"/>
<path d="M1301.59 269.726H1285.84V276.121H1301.59V269.726Z" fill="#68C2FD"/>
<path d="M1228.03 277.796H1212.28V284.191H1228.03V277.796Z" fill="#68C2FD"/>
<path d="M1246.43 277.796H1230.68V284.191H1246.43V277.796Z" fill="#68C2FD"/>
<path d="M1264.81 277.796H1249.06V284.191H1264.81V277.796Z" fill="#68C2FD"/>
<path d="M1283.18 277.796H1267.44V284.191H1283.18V277.796Z" fill="#68C2FD"/>
<path d="M1301.59 277.796H1285.84V284.191H1301.59V277.796Z" fill="#68C2FD"/>
<path opacity="0.3" d="M1208.9 298.605H1304.6V107.825H1285.84L1208.9 298.605Z" fill="#68C2FD"/>
<path d="M797.737 282.824H602.002V298.604H797.737V282.824Z" fill="#68C2FD"/>
<path d="M1434.69 281.02H-9.14746V302.731H1434.69V281.02Z" fill="#68C2FD"/>
<path opacity="0.58" d="M1434.69 281.02H-9.14746V302.731H1434.69V281.02Z" fill="url(#paint31_linear)"/>
<path d="M150.399 -36.6978C175.032 -77.3024 195.745 -120.161 212.259 -164.692C225.971 -118.667 330.669 224.654 406.809 224.654C480.19 224.654 527.951 94.9324 536.792 68.8127C541.638 82.5042 557.412 126.802 573.779 170.61C613.756 277.539 618.318 277.539 620.767 277.539V274.96C620.895 274.938 621.026 274.938 621.154 274.96C613.421 270.835 567.284 146.347 538.21 63.7073L536.663 59.2981L535.271 63.7331C534.782 65.3059 484.34 221.999 406.809 221.999C329.277 221.999 214.836 -165.93 213.754 -169.849L212.388 -174.542L210.816 -169.901C209.913 -167.322 118.515 93.7463 -25 93.7463V96.3248C35.4424 96.2732 96.658 50.2993 150.399 -36.6978Z" fill="#68C2FD"/>
<path d="M219.734 -170.313H204.784V339.112H219.734V-170.313Z" fill="#68C2FD"/>
<path opacity="0.58" d="M219.734 -170.313H204.784V339.112H219.734V-170.313Z" fill="url(#paint32_linear)"/>
<path opacity="0.58" d="M229.271 -21.2524H195.273V338.674H229.271V-21.2524Z" fill="url(#paint33_linear)"/>
<path d="M198.495 -21.2524H195.273V338.674H198.495V-21.2524Z" fill="#68C2FD"/>
<path d="M229.219 -21.2524H220.61V198.406H229.219V-21.2524Z" fill="#68C2FD"/>
<path d="M229.271 192.811H195.273V338.674H229.271V192.811Z" fill="#68C2FD"/>
<path d="M229.271 -21.2524H195.273V338.674H229.271V-21.2524Z" fill="#68C2FD"/>
<path opacity="0.58" d="M223.857 -21.2524H198.494V338.674H223.857V-21.2524Z" fill="url(#paint34_linear)"/>
<path d="M539.164 64.2231H530.658V351.076H539.164V64.2231Z" fill="#68C2FD"/>
<path opacity="0.58" d="M539.164 64.2231H530.658V351.076H539.164V64.2231Z" fill="url(#paint35_linear)"/>
<path d="M544.576 148.152H525.245V350.818H544.576V148.152Z" fill="#68C2FD"/>
<path opacity="0.58" d="M544.576 148.152H525.245V350.818H544.576V148.152Z" fill="url(#paint36_linear)"/>
<path d="M527.075 148.152H525.245V350.844H527.075V148.152Z" fill="#68C2FD"/>
<path d="M544.551 148.152H539.653V271.84H544.551V148.152Z" fill="#68C2FD"/>
<path d="M539.163 64.2231H536.611V104.524H539.163V64.2231Z" fill="#68C2FD"/>
<path d="M532.102 64.2231H530.839V104.524H532.102V64.2231Z" fill="#68C2FD"/>
<path d="M541.483 104.524H528.312V148.151H541.483V104.524Z" fill="#68C2FD"/>
<path opacity="0.58" d="M541.483 104.524H528.312V148.151H541.483V104.524Z" fill="url(#paint37_linear)"/>
<path d="M537.231 59.4272H532.565V65.8219H537.231V59.4272Z" fill="#68C2FD"/>
<path d="M541.482 104.524H538.931V148.177H541.482V104.524Z" fill="#68C2FD"/>
<path d="M529.601 104.524H528.312V148.177H529.601V104.524Z" fill="#68C2FD"/>
<path d="M544.576 268.694H525.245V350.844H544.576V268.694Z" fill="#68C2FD"/>
<path opacity="0.58" d="M544.576 268.694H525.245V350.844H544.576V268.694Z" fill="url(#paint38_linear)"/>
<path d="M665.693 291.359V283.727L-25 95.0098V163.004L626.644 291.359H665.693Z" fill="#68C2FD"/>
<path opacity="0.58" d="M665.693 291.359V283.727L-25 95.0098V163.004L626.644 291.359H665.693Z" fill="url(#paint39_linear)"/>
<path d="M665.693 283.727L-25 95.0098V125.384L665.693 291.359V283.727Z" fill="#68C2FD"/>
<path d="M299.894 309.95H229.271V316.602H299.894V309.95Z" fill="#68C2FD"/>
<path d="M299.533 257.349H228.909V263.073H299.533V257.349Z" fill="#68C2FD"/>
<path d="M299.558 204.104H228.935V210.757H299.558V204.104Z" fill="#68C2FD"/>
<path d="M223.755 308.248L230.895 312.966L304.714 264.388L297.549 259.669L223.755 308.248Z" fill="#68C2FD"/>
<path d="M223.755 264.388L297.549 312.966L304.714 308.248L230.895 259.669L223.755 264.388Z" fill="#68C2FD"/>
<path d="M276.284 278.39H252.185V294.247H276.284V278.39Z" fill="#68C2FD"/>
<path d="M223.779 254.951L230.945 259.67L304.739 211.092L297.573 206.373L223.779 254.951Z" fill="#68C2FD"/>
<path d="M223.779 211.092L297.573 259.67L304.739 254.951L230.945 206.373L223.779 211.092Z" fill="#68C2FD"/>
<path d="M276.31 225.093H252.21V240.95H276.31V225.093Z" fill="#68C2FD"/>
<path d="M291.131 108.572L300.384 114.632H304.276V106.329H291.131V108.572Z" fill="#68C2FD"/>
<path d="M291.131 76.8573V79.1005H304.276V70.7979H300.384L291.131 76.8573Z" fill="#68C2FD"/>
<path d="M304.275 79.1006H224.398V106.329H304.275V79.1006Z" fill="#68C2FD"/>
<path opacity="0.58" d="M304.275 79.1006H224.398V106.329H304.275V79.1006Z" fill="url(#paint40_linear)"/>
<path d="M296.465 85.7021H294.532V99.8836H296.465V85.7021Z" fill="#68C2FD"/>
<path d="M289.198 85.7021H287.265V99.8836H289.198V85.7021Z" fill="#68C2FD"/>
<path d="M281.903 85.7021H279.97V99.8836H281.903V85.7021Z" fill="#68C2FD"/>
<path d="M274.609 85.7021H272.676V99.8836H274.609V85.7021Z" fill="#68C2FD"/>
<path d="M267.314 85.7021H265.381V99.8836H267.314V85.7021Z" fill="#68C2FD"/>
<path d="M260.021 85.7021H258.088V99.8836H260.021V85.7021Z" fill="#68C2FD"/>
<path d="M252.725 85.7021H250.792V99.8836H252.725V85.7021Z" fill="#68C2FD"/>
<path d="M245.457 85.7021H243.523V99.8836H245.457V85.7021Z" fill="#68C2FD"/>
<path d="M238.163 85.7021H236.229V99.8836H238.163V85.7021Z" fill="#68C2FD"/>
<path d="M230.868 85.7021H228.935V99.8836H230.868V85.7021Z" fill="#68C2FD"/>
<path d="M224.398 114.632H228.29L237.544 108.572V106.329H224.398V114.632Z" fill="#68C2FD"/>
<path d="M224.398 70.7979V79.1005H237.544V76.8573L228.29 70.7979H224.398Z" fill="#68C2FD"/>
<path d="M290.719 14.0205L299.92 19.3837H303.787V12.0093H290.719V14.0205Z" fill="#68C2FD"/>
<path d="M303.785 -12.2544H224.295V11.983H303.785V-12.2544Z" fill="#68C2FD"/>
<path opacity="0.58" d="M303.785 -12.2544H224.295V11.983H303.785V-12.2544Z" fill="url(#paint41_linear)"/>
<path d="M296.028 -6.375H294.198V6.2594H296.028V-6.375Z" fill="#68C2FD"/>
<path d="M289.146 -6.375H287.316V6.2594H289.146V-6.375Z" fill="#68C2FD"/>
<path d="M282.264 -6.375H280.434V6.2594H282.264V-6.375Z" fill="#68C2FD"/>
<path d="M275.382 -6.375H273.552V6.2594H275.382V-6.375Z" fill="#68C2FD"/>
<path d="M268.475 -6.375H266.645V6.2594H268.475V-6.375Z" fill="#68C2FD"/>
<path d="M261.593 -6.375H259.763V6.2594H261.593V-6.375Z" fill="#68C2FD"/>
<path d="M254.71 -6.375H252.88V6.2594H254.71V-6.375Z" fill="#68C2FD"/>
<path d="M247.828 -6.375H245.998V6.2594H247.828V-6.375Z" fill="#68C2FD"/>
<path d="M240.946 -6.375H239.116V6.2594H240.946V-6.375Z" fill="#68C2FD"/>
<path d="M234.039 -6.375H232.209V6.2594H234.039V-6.375Z" fill="#68C2FD"/>
<path d="M224.295 19.3837H228.161L237.363 14.0205V12.0093H224.295V19.3837Z" fill="#68C2FD"/>
<path d="M584.759 334.651H544.576V338.416H584.759V334.651Z" fill="#68C2FD"/>
<path d="M584.553 305.051H544.37V308.274H584.553V305.051Z" fill="#68C2FD"/>
<path d="M584.579 275.063H544.396V278.827H584.579V275.063Z" fill="#68C2FD"/>
<path d="M541.432 333.697L545.504 336.353L587.492 308.996L583.445 306.34L541.432 333.697Z" fill="#68C2FD"/>
<path d="M541.432 308.996L583.445 336.353L587.492 333.697L545.504 306.34L541.432 308.996Z" fill="#68C2FD"/>
<path d="M571.331 316.886H557.618V325.833H571.331V316.886Z" fill="#68C2FD"/>
<path d="M541.457 303.71L545.529 306.34L587.517 278.983L583.445 276.353L541.457 303.71Z" fill="#68C2FD"/>
<path d="M541.457 278.983L583.445 306.34L587.517 303.71L545.529 276.353L541.457 278.983Z" fill="#68C2FD"/>
<path d="M571.331 286.873H557.618V295.82H571.331V286.873Z" fill="#68C2FD"/>
<path d="M589.811 67.0078H537.9V79.2297H589.811V67.0078Z" fill="#68C2FD"/>
<path opacity="0.58" d="M589.811 67.0078H537.9V79.2297H589.811V67.0078Z" fill="url(#paint42_linear)"/>
<path d="M584.759 69.9731H583.496V76.3419H584.759V69.9731Z" fill="#68C2FD"/>
<path d="M580.017 69.9731H578.754V76.3419H580.017V69.9731Z" fill="#68C2FD"/>
<path d="M575.274 69.9731H574.011V76.3419H575.274V69.9731Z" fill="#68C2FD"/>
<path d="M570.531 69.9731H569.268V76.3419H570.531V69.9731Z" fill="#68C2FD"/>
<path d="M565.789 69.9731H564.526V76.3419H565.789V69.9731Z" fill="#68C2FD"/>
<path d="M561.046 69.9731H559.783V76.3419H561.046V69.9731Z" fill="#68C2FD"/>
<path d="M556.329 69.9731H555.066V76.3419H556.329V69.9731Z" fill="#68C2FD"/>
<path d="M551.586 69.9731H550.323V76.3419H551.586V69.9731Z" fill="#68C2FD"/>
<path d="M546.845 69.9731H545.582V76.3419H546.845V69.9731Z" fill="#68C2FD"/>
<path d="M542.102 69.9731H540.839V76.3419H542.102V69.9731Z" fill="#68C2FD"/>
<path d="M581.279 80.2351L587.285 82.9683H589.811V79.2295H581.279V80.2351Z" fill="#68C2FD"/>
<path d="M537.9 82.9683H540.426L546.432 80.2351V79.2295H537.9V82.9683Z" fill="#68C2FD"/>
<path d="M562.799 61.3613C560.222 61.3613 558.263 62.831 558.263 64.6617C558.263 66.4925 560.299 67.9364 562.799 67.9364C565.299 67.9364 567.335 66.4667 567.335 64.6617C567.335 62.8568 565.17 61.3613 562.799 61.3613Z" fill="#68C2FD"/>
<path d="M581.666 122.676L587.388 125.384H589.811V121.671H581.666V122.676Z" fill="#68C2FD"/>
<path d="M581.666 108.444V109.449H589.811V105.736H587.388L581.666 108.444Z" fill="#68C2FD"/>
<path d="M589.812 109.449H540.221V121.671H589.812V109.449Z" fill="#68C2FD"/>
<path opacity="0.58" d="M589.812 109.449H540.221V121.671H589.812V109.449Z" fill="url(#paint43_linear)"/>
<path d="M584.992 112.414H583.78V118.783H584.992V112.414Z" fill="#68C2FD"/>
<path d="M580.455 112.414H579.243V118.783H580.455V112.414Z" fill="#68C2FD"/>
<path d="M575.919 112.414H574.708V118.783H575.919V112.414Z" fill="#68C2FD"/>
<path d="M571.408 112.414H570.196V118.783H571.408V112.414Z" fill="#68C2FD"/>
<path d="M566.871 112.414H565.659V118.783H566.871V112.414Z" fill="#68C2FD"/>
<path d="M562.362 112.414H561.15V118.783H562.362V112.414Z" fill="#68C2FD"/>
<path d="M557.825 112.414H556.613V118.783H557.825V112.414Z" fill="#68C2FD"/>
<path d="M553.288 112.414H552.076V118.783H553.288V112.414Z" fill="#68C2FD"/>
<path d="M548.777 112.414H547.565V118.783H548.777V112.414Z" fill="#68C2FD"/>
<path d="M544.241 112.414H543.029V118.783H544.241V112.414Z" fill="#68C2FD"/>
<path d="M540.221 125.384H542.618L548.366 122.676V121.671H540.221V125.384Z" fill="#68C2FD"/>
<path d="M540.221 105.736V109.449H548.366V108.444L542.618 105.736H540.221Z" fill="#68C2FD"/>
<path d="M579.784 221.277L585.042 224.681H587.259V220.014H579.784V221.277Z" fill="#68C2FD"/>
<path d="M579.784 203.408V204.672H587.259V200.005H585.042L579.784 203.408Z" fill="#68C2FD"/>
<path d="M587.26 204.671H541.818V220.013H587.26V204.671Z" fill="#68C2FD"/>
<path opacity="0.58" d="M587.26 204.671H541.818V220.013H587.26V204.671Z" fill="url(#paint44_linear)"/>
<path d="M582.826 208.385H581.718V216.378H582.826V208.385Z" fill="#68C2FD"/>
<path d="M578.678 208.385H577.569V216.378H578.678V208.385Z" fill="#68C2FD"/>
<path d="M574.526 208.385H573.418V216.378H574.526V208.385Z" fill="#68C2FD"/>
<path d="M570.376 208.385H569.268V216.378H570.376V208.385Z" fill="#68C2FD"/>
<path d="M566.228 208.385H565.119V216.378H566.228V208.385Z" fill="#68C2FD"/>
<path d="M562.077 208.385H560.969V216.378H562.077V208.385Z" fill="#68C2FD"/>
<path d="M557.928 208.385H556.819V216.378H557.928V208.385Z" fill="#68C2FD"/>
<path d="M553.804 208.385H552.695V216.378H553.804V208.385Z" fill="#68C2FD"/>
<path d="M549.653 208.385H548.545V216.378H549.653V208.385Z" fill="#68C2FD"/>
<path d="M545.504 208.385H544.396V216.378H545.504V208.385Z" fill="#68C2FD"/>
<path d="M541.818 224.681H544.009L549.267 221.277V220.014H541.818V224.681Z" fill="#68C2FD"/>
<path d="M541.818 200.005V204.672H549.267V203.408L544.009 200.005H541.818Z" fill="#68C2FD"/>
<path d="M579.553 168.006L584.785 171.048H586.976V166.897H579.553V168.006Z" fill="#68C2FD"/>
<path d="M579.553 152.097V153.231H586.976V149.08H584.785L579.553 152.097Z" fill="#68C2FD"/>
<path d="M586.975 153.231H541.74V166.897H586.975V153.231Z" fill="#68C2FD"/>
<path opacity="0.58" d="M586.975 153.231H541.74V166.897H586.975V153.231Z" fill="url(#paint45_linear)"/>
<path d="M582.567 156.532H581.511V163.648H582.567V156.532Z" fill="#68C2FD"/>
<path d="M578.65 156.532H577.594V163.648H578.65V156.532Z" fill="#68C2FD"/>
<path d="M574.732 156.532H573.676V163.648H574.732V156.532Z" fill="#68C2FD"/>
<path d="M570.816 156.532H569.759V163.648H570.816V156.532Z" fill="#68C2FD"/>
<path d="M566.898 156.532H565.841V163.648H566.898V156.532Z" fill="#68C2FD"/>
<path d="M562.98 156.532H561.923V163.648H562.98V156.532Z" fill="#68C2FD"/>
<path d="M559.063 156.532H558.006V163.648H559.063V156.532Z" fill="#68C2FD"/>
<path d="M555.144 156.532H554.087V163.648H555.144V156.532Z" fill="#68C2FD"/>
<path d="M551.227 156.532H550.17V163.648H551.227V156.532Z" fill="#68C2FD"/>
<path d="M547.308 156.532H546.251V163.648H547.308V156.532Z" fill="#68C2FD"/>
<path d="M541.74 171.048H543.957L549.189 168.006V166.897H541.74V171.048Z" fill="#68C2FD"/>
<path d="M541.74 149.08V153.231H549.189V152.097L543.957 149.08H541.74Z" fill="#68C2FD"/>
<path d="M598.318 64.2231H589.812V349.813H598.318V64.2231Z" fill="#68C2FD"/>
<path opacity="0.58" d="M598.318 64.2231H589.812V349.813H598.318V64.2231Z" fill="url(#paint46_linear)"/>
<path d="M600.662 104.524H587.491V148.151H600.662V104.524Z" fill="#68C2FD"/>
<path opacity="0.58" d="M600.662 104.524H587.491V148.151H600.662V104.524Z" fill="url(#paint47_linear)"/>
<path d="M596.848 59.4272H592.183V65.8219H596.848V59.4272Z" fill="#68C2FD"/>
<path d="M603.73 148.152H584.398V350.818H603.73V148.152Z" fill="#68C2FD"/>
<path opacity="0.58" d="M603.73 148.152H584.398V350.818H603.73V148.152Z" fill="url(#paint48_linear)"/>
<path d="M598.317 64.2231H595.766V104.524H598.317V64.2231Z" fill="#68C2FD"/>
<path d="M600.663 104.524H598.111V148.177H600.663V104.524Z" fill="#68C2FD"/>
<path d="M603.756 148.152H599.245V350.844H603.756V148.152Z" fill="#68C2FD"/>
<path d="M586.228 148.152H584.398V350.844H586.228V148.152Z" fill="#68C2FD"/>
<path d="M588.78 104.524H587.491V148.177H588.78V104.524Z" fill="#68C2FD"/>
<path d="M591.076 64.2231H589.812V104.524H591.076V64.2231Z" fill="#68C2FD"/>
<path d="M323.71 -170.313H308.761V336.869H323.71V-170.313Z" fill="#68C2FD"/>
<path opacity="0.58" d="M323.71 -170.313H308.761V336.869H323.71V-170.313Z" fill="url(#paint49_linear)"/>
<path d="M333.246 -21.2524H299.249V338.674H333.246V-21.2524Z" fill="#68C2FD"/>
<path opacity="0.58" d="M333.246 -21.2524H299.249V338.674H333.246V-21.2524Z" fill="url(#paint50_linear)"/>
<path d="M333.247 -21.2524H325.334V338.674H333.247V-21.2524Z" fill="#68C2FD"/>
<path d="M302.471 -21.2524H299.249V338.674H302.471V-21.2524Z" fill="#68C2FD"/>
<path d="M595.585 68.916L594.451 62.5214L592.595 68.7871C592.105 70.4373 542.823 233.989 488.516 233.989C445.059 233.989 358.3 -28.8075 318.4 -167.786L317.163 -172.092L315.462 -167.889C314.431 -165.156 200.918 110.274 20.4414 110.274V112.853C116.041 112.853 192 36.6595 238.91 -27.2862C269.572 -69.6323 295.656 -115.113 316.725 -162.965C329.845 -117.738 434.285 236.567 488.516 236.567C539.653 236.567 583.883 105.994 593.677 75.5168C600.946 115.251 633.835 285.042 665.693 285.042V282.464C639.145 282.464 606.075 128.298 595.585 68.916Z" fill="#68C2FD"/>
<path d="M344.743 338.184H185.634V366.521H344.743V338.184Z" fill="#68C2FD"/>
<path opacity="0.58" d="M344.743 338.184H185.634V366.521H344.743V338.184Z" fill="url(#paint51_linear)"/>
<path opacity="0.3" d="M290.254 338.184H283.99V366.521H290.254V338.184Z" fill="#68C2FD"/>
<path opacity="0.3" d="M273.861 338.184H267.598V366.521H273.861V338.184Z" fill="#68C2FD"/>
<path opacity="0.3" d="M257.469 338.184H251.206V366.521H257.469V338.184Z" fill="#68C2FD"/>
<path opacity="0.3" d="M241.075 338.184H234.812V366.521H241.075V338.184Z" fill="#68C2FD"/>
<path opacity="0.3" d="M224.683 338.184H218.42V366.521H224.683V338.184Z" fill="#68C2FD"/>
<path d="M344.742 338.184H319.663V366.521H344.742V338.184Z" fill="#68C2FD"/>
<path opacity="0.58" d="M768.639 381.038C508.801 286.512 1253.21 319.774 1276.41 303.684C1246.79 292.081 703.944 303.246 672.189 301.467C666.966 300.837 661.668 301.447 656.724 303.246C650.641 305.979 646.955 314.797 642.47 319.722C618.654 345.842 578.522 346.487 543.211 345.507C393.716 340.917 244.221 339.679 94.7256 341.794C95.37 341.794 120.501 372.993 125.656 376.216C139.006 385.053 154.351 390.415 170.298 391.816C203.677 393.698 616.515 443.359 650.435 443.359C738.843 443.153 450.91 387.536 539.061 379.491C588.781 375.004 815.395 398.082 768.639 381.038Z" fill="url(#paint52_linear)"/>
</g>
<defs>
<linearGradient id="paint0_linear" x1="228692" y1="45481.7" x2="229132" y2="30977.4" gradientUnits="userSpaceOnUse">
<stop offset="0.02" stop-color="white" stop-opacity="0"/>
<stop offset="0.49" stop-color="white" stop-opacity="0.68"/>
<stop offset="1" stop-color="white"/>
</linearGradient>
<linearGradient id="paint1_linear" x1="707.681" y1="78.7394" x2="718.644" y2="522.775" gradientUnits="userSpaceOnUse">
<stop offset="0.01"/>
<stop offset="0.13" stop-opacity="0.69"/>
<stop offset="1" stop-opacity="0"/>
</linearGradient>
<linearGradient id="paint2_linear" x1="419737" y1="56420" x2="419476" y2="94630.2" gradientUnits="userSpaceOnUse">
<stop offset="0.02" stop-color="white" stop-opacity="0"/>
<stop offset="0.49" stop-color="white" stop-opacity="0.68"/>
<stop offset="1" stop-color="white"/>
</linearGradient>
<linearGradient id="paint3_linear" x1="18816.7" y1="2491.52" x2="18834.5" y2="2309.3" gradientUnits="userSpaceOnUse">
<stop offset="0.01"/>
<stop offset="0.13" stop-opacity="0.69"/>
<stop offset="1" stop-opacity="0"/>
</linearGradient>
<linearGradient id="paint4_linear" x1="28763.5" y1="59612.9" x2="50387.7" y2="44528.6" gradientUnits="userSpaceOnUse">
<stop offset="0.01"/>
<stop offset="0.13" stop-opacity="0.69"/>
<stop offset="1" stop-opacity="0"/>
</linearGradient>
<linearGradient id="paint5_linear" x1="9517.81" y1="66965.5" x2="10379.9" y2="66965.2" gradientUnits="userSpaceOnUse">
<stop offset="0.01"/>
<stop offset="0.13" stop-opacity="0.69"/>
<stop offset="1" stop-opacity="0"/>
</linearGradient>
<linearGradient id="paint6_linear" x1="6923.89" y1="62301.8" x2="7519.56" y2="62301.6" gradientUnits="userSpaceOnUse">
<stop offset="0.01"/>
<stop offset="0.13" stop-opacity="0.69"/>
<stop offset="1" stop-opacity="0"/>
</linearGradient>
<linearGradient id="paint7_linear" x1="37163" y1="54308.7" x2="38264.7" y2="31035.2" gradientUnits="userSpaceOnUse">
<stop offset="0.01"/>
<stop offset="0.13" stop-opacity="0.69"/>
<stop offset="1" stop-opacity="0"/>
</linearGradient>
<linearGradient id="paint8_linear" x1="36995.7" y1="67561.6" x2="32774.5" y2="67292.1" gradientUnits="userSpaceOnUse">
<stop offset="0.02" stop-color="white" stop-opacity="0"/>
<stop offset="0.49" stop-color="white" stop-opacity="0.68"/>
<stop offset="1" stop-color="white"/>
</linearGradient>
<linearGradient id="paint9_linear" x1="30573.3" y1="71347.8" x2="19359.1" y2="67141.1" gradientUnits="userSpaceOnUse">
<stop offset="0.01"/>
<stop offset="0.13" stop-opacity="0.69"/>
<stop offset="1" stop-opacity="0"/>
</linearGradient>
<linearGradient id="paint10_linear" x1="19375" y1="64125.3" x2="16288.2" y2="64174.2" gradientUnits="userSpaceOnUse">
<stop offset="0.02" stop-color="white" stop-opacity="0"/>
<stop offset="0.49" stop-color="white" stop-opacity="0.68"/>
<stop offset="1" stop-color="white"/>
</linearGradient>
<linearGradient id="paint11_linear" x1="55650" y1="81168.8" x2="31606.5" y2="55602.4" gradientUnits="userSpaceOnUse">
<stop offset="0.01"/>
<stop offset="0.13" stop-opacity="0.69"/>
<stop offset="1" stop-opacity="0"/>
</linearGradient>
<linearGradient id="paint12_linear" x1="7540.7" y1="4526.8" x2="7545.24" y2="4664.5" gradientUnits="userSpaceOnUse">
<stop offset="0.02" stop-color="white" stop-opacity="0"/>
<stop offset="0.49" stop-color="white" stop-opacity="0.68"/>
<stop offset="1" stop-color="white"/>
</linearGradient>
<linearGradient id="paint13_linear" x1="7415.96" y1="23428" x2="9998.86" y2="21052.6" gradientUnits="userSpaceOnUse">
<stop offset="0.01"/>
<stop offset="0.13" stop-opacity="0.69"/>
<stop offset="1" stop-opacity="0"/>
</linearGradient>
<linearGradient id="paint14_linear" x1="5093.04" y1="840.167" x2="5092.71" y2="882.715" gradientUnits="userSpaceOnUse">
<stop offset="0.02" stop-color="white" stop-opacity="0"/>
<stop offset="0.49" stop-color="white" stop-opacity="0.68"/>
<stop offset="1" stop-color="white"/>
</linearGradient>
<linearGradient id="paint15_linear" x1="4310.15" y1="726.203" x2="4309.88" y2="761.524" gradientUnits="userSpaceOnUse">
<stop offset="0.02" stop-color="white" stop-opacity="0"/>
<stop offset="0.49" stop-color="white" stop-opacity="0.68"/>
<stop offset="1" stop-color="white"/>
</linearGradient>
<linearGradient id="paint16_linear" x1="3493.68" y1="602.36" x2="3493.67" y2="608.568" gradientUnits="userSpaceOnUse">
<stop offset="0.01"/>
<stop offset="0.13" stop-opacity="0.69"/>
<stop offset="1" stop-opacity="0"/>
</linearGradient>
<linearGradient id="paint17_linear" x1="2296.07" y1="4146.67" x2="2354.2" y2="4028.57" gradientUnits="userSpaceOnUse">
<stop offset="0.02" stop-color="white" stop-opacity="0"/>
<stop offset="0.49" stop-color="white" stop-opacity="0.68"/>
<stop offset="1" stop-color="white"/>
</linearGradient>
<linearGradient id="paint18_linear" x1="5716.58" y1="1824.98" x2="5717.11" y2="1793.36" gradientUnits="userSpaceOnUse">
<stop offset="0.01"/>
<stop offset="0.13" stop-opacity="0.69"/>
<stop offset="1" stop-opacity="0"/>
</linearGradient>
<linearGradient id="paint19_linear" x1="6869.74" y1="3040.36" x2="6875.64" y2="2908.84" gradientUnits="userSpaceOnUse">
<stop offset="0.01"/>
<stop offset="0.13" stop-opacity="0.69"/>
<stop offset="1" stop-opacity="0"/>
</linearGradient>
<linearGradient id="paint20_linear" x1="4451.85" y1="4030.74" x2="4455.71" y2="4218.77" gradientUnits="userSpaceOnUse">
<stop offset="0.02" stop-color="white" stop-opacity="0"/>
<stop offset="0.49" stop-color="white" stop-opacity="0.68"/>
<stop offset="1" stop-color="white"/>
</linearGradient>
<linearGradient id="paint21_linear" x1="60035.5" y1="84755.2" x2="46083.8" y2="85569" gradientUnits="userSpaceOnUse">
<stop offset="0.01"/>
<stop offset="0.13" stop-opacity="0.69"/>
<stop offset="1" stop-opacity="0"/>
</linearGradient>
<linearGradient id="paint22_linear" x1="28361" y1="86737.5" x2="22776.8" y2="86642.1" gradientUnits="userSpaceOnUse">
<stop offset="0.02" stop-color="white" stop-opacity="0"/>
<stop offset="0.49" stop-color="white" stop-opacity="0.68"/>
<stop offset="1" stop-color="white"/>
</linearGradient>
<linearGradient id="paint23_linear" x1="12456.6" y1="29807" x2="16855.3" y2="19419.1" gradientUnits="userSpaceOnUse">
<stop offset="0.02" stop-color="white" stop-opacity="0"/>
<stop offset="0.49" stop-color="white" stop-opacity="0.68"/>
<stop offset="1" stop-color="white"/>
</linearGradient>
<linearGradient id="paint24_linear" x1="41690.7" y1="26033.1" x2="41740.2" y2="32646.3" gradientUnits="userSpaceOnUse">
<stop offset="0.01"/>
<stop offset="0.13" stop-opacity="0.69"/>
<stop offset="1" stop-opacity="0"/>
</linearGradient>
<linearGradient id="paint25_linear" x1="10699.8" y1="8514.17" x2="11454.2" y2="8262.2" gradientUnits="userSpaceOnUse">
<stop offset="0.01"/>
<stop offset="0.13" stop-opacity="0.69"/>
<stop offset="1" stop-opacity="0"/>
</linearGradient>
<linearGradient id="paint26_linear" x1="3028.38" y1="28803.7" x2="3321.91" y2="28808.5" gradientUnits="userSpaceOnUse">
<stop offset="0.01"/>
<stop offset="0.13" stop-opacity="0.69"/>
<stop offset="1" stop-opacity="0"/>
</linearGradient>
<linearGradient id="paint27_linear" x1="73891.2" y1="24042.2" x2="73707" y2="30669.3" gradientUnits="userSpaceOnUse">
<stop offset="0.01"/>
<stop offset="0.13" stop-opacity="0.69"/>
<stop offset="1" stop-opacity="0"/>
</linearGradient>
<linearGradient id="paint28_linear" x1="74268.3" y1="27584.5" x2="72928.5" y2="15683.2" gradientUnits="userSpaceOnUse">
<stop offset="0.02" stop-color="white" stop-opacity="0"/>
<stop offset="0.49" stop-color="white" stop-opacity="0.68"/>
<stop offset="1" stop-color="white"/>
</linearGradient>
<linearGradient id="paint29_linear" x1="29998.8" y1="2530.94" x2="29995.9" y2="2258.22" gradientUnits="userSpaceOnUse">
<stop offset="0.01"/>
<stop offset="0.13" stop-opacity="0.69"/>
<stop offset="1" stop-opacity="0"/>
</linearGradient>
<linearGradient id="paint30_linear" x1="50211.7" y1="57656.6" x2="35407.7" y2="32996.3" gradientUnits="userSpaceOnUse">
<stop offset="0.01"/>
<stop offset="0.13" stop-opacity="0.69"/>
<stop offset="1" stop-opacity="0"/>
</linearGradient>
<linearGradient id="paint31_linear" x1="413261" y1="6881.47" x2="413261" y2="6019.99" gradientUnits="userSpaceOnUse">
<stop offset="0.01"/>
<stop offset="0.13" stop-opacity="0.69"/>
<stop offset="1" stop-opacity="0"/>
</linearGradient>
<linearGradient id="paint32_linear" x1="1833.83" y1="80349.5" x2="5748.57" y2="80023" gradientUnits="userSpaceOnUse">
<stop offset="0.01"/>
<stop offset="0.13" stop-opacity="0.69"/>
<stop offset="1" stop-opacity="0"/>
</linearGradient>
<linearGradient id="paint33_linear" x1="3296.16" y1="104617" x2="10317.6" y2="61016.2" gradientUnits="userSpaceOnUse">
<stop offset="0.01"/>
<stop offset="0.13" stop-opacity="0.69"/>
<stop offset="1" stop-opacity="0"/>
</linearGradient>
<linearGradient id="paint34_linear" x1="2522.47" y1="100740" x2="2522.47" y2="30173" gradientUnits="userSpaceOnUse">
<stop offset="0.01"/>
<stop offset="0.13" stop-opacity="0.69"/>
<stop offset="1" stop-opacity="0"/>
</linearGradient>
<linearGradient id="paint35_linear" x1="2394.1" y1="62268.4" x2="5301.54" y2="60541.9" gradientUnits="userSpaceOnUse">
<stop offset="0.01"/>
<stop offset="0.13" stop-opacity="0.69"/>
<stop offset="1" stop-opacity="0"/>
</linearGradient>
<linearGradient id="paint36_linear" x1="4724.57" y1="56736.7" x2="4724.57" y2="42134.6" gradientUnits="userSpaceOnUse">
<stop offset="0.01"/>
<stop offset="0.13" stop-opacity="0.69"/>
<stop offset="1" stop-opacity="0"/>
</linearGradient>
<linearGradient id="paint37_linear" x1="3383.91" y1="10442.9" x2="3537.29" y2="8824.9" gradientUnits="userSpaceOnUse">
<stop offset="0.01"/>
<stop offset="0.13" stop-opacity="0.69"/>
<stop offset="1" stop-opacity="0"/>
</linearGradient>
<linearGradient id="paint38_linear" x1="4614.19" y1="25947" x2="6740.72" y2="24276.7" gradientUnits="userSpaceOnUse">
<stop offset="0.01"/>
<stop offset="0.13" stop-opacity="0.69"/>
<stop offset="1" stop-opacity="0"/>
</linearGradient>
<linearGradient id="paint39_linear" x1="84564.2" y1="51071.2" x2="93229.8" y2="21108.2" gradientUnits="userSpaceOnUse">
<stop offset="0.01"/>
<stop offset="0.13" stop-opacity="0.69"/>
<stop offset="1" stop-opacity="0"/>
</linearGradient>
<linearGradient id="paint40_linear" x1="9289.61" y1="6241.16" x2="9258.74" y2="5000.27" gradientUnits="userSpaceOnUse">
<stop offset="0.01"/>
<stop offset="0.13" stop-opacity="0.69"/>
<stop offset="1" stop-opacity="0"/>
</linearGradient>
<linearGradient id="paint41_linear" x1="9177.27" y1="4606.43" x2="9169.43" y2="3695.41" gradientUnits="userSpaceOnUse">
<stop offset="0.01"/>
<stop offset="0.13" stop-opacity="0.69"/>
<stop offset="1" stop-opacity="0"/>
</linearGradient>
<linearGradient id="paint42_linear" x1="12408.9" y1="2631.52" x2="12407.3" y2="2395.35" gradientUnits="userSpaceOnUse">
<stop offset="0.01"/>
<stop offset="0.13" stop-opacity="0.69"/>
<stop offset="1" stop-opacity="0"/>
</linearGradient>
<linearGradient id="paint43_linear" x1="11900.1" y1="2819.89" x2="11898.5" y2="2673.82" gradientUnits="userSpaceOnUse">
<stop offset="0.01"/>
<stop offset="0.13" stop-opacity="0.69"/>
<stop offset="1" stop-opacity="0"/>
</linearGradient>
<linearGradient id="paint44_linear" x1="10955.6" y1="4273.49" x2="10948.8" y2="3852.29" gradientUnits="userSpaceOnUse">
<stop offset="0.01"/>
<stop offset="0.13" stop-opacity="0.69"/>
<stop offset="1" stop-opacity="0"/>
</linearGradient>
<linearGradient id="paint45_linear" x1="10867.1" y1="3487.28" x2="10870.8" y2="3230.13" gradientUnits="userSpaceOnUse">
<stop offset="0.01"/>
<stop offset="0.13" stop-opacity="0.69"/>
<stop offset="1" stop-opacity="0"/>
</linearGradient>
<linearGradient id="paint46_linear" x1="2628.33" y1="62454.2" x2="-765.397" y2="55576.3" gradientUnits="userSpaceOnUse">
<stop offset="0.01"/>
<stop offset="0.13" stop-opacity="0.69"/>
<stop offset="1" stop-opacity="0"/>
</linearGradient>
<linearGradient id="paint47_linear" x1="3743.8" y1="10477.4" x2="3946.51" y2="8736.27" gradientUnits="userSpaceOnUse">
<stop offset="0.01"/>
<stop offset="0.13" stop-opacity="0.69"/>
<stop offset="1" stop-opacity="0"/>
</linearGradient>
<linearGradient id="paint48_linear" x1="5342.8" y1="63157.2" x2="-5032.24" y2="56403" gradientUnits="userSpaceOnUse">
<stop offset="0.01"/>
<stop offset="0.13" stop-opacity="0.69"/>
<stop offset="1" stop-opacity="0"/>
</linearGradient>
<linearGradient id="paint49_linear" x1="2352.8" y1="74060.9" x2="10954.2" y2="70583.8" gradientUnits="userSpaceOnUse">
<stop offset="0.01"/>
<stop offset="0.13" stop-opacity="0.69"/>
<stop offset="1" stop-opacity="0"/>
</linearGradient>
<linearGradient id="paint50_linear" x1="4771.24" y1="104840" x2="11792.7" y2="61235.6" gradientUnits="userSpaceOnUse">
<stop offset="0.01"/>
<stop offset="0.13" stop-opacity="0.69"/>
<stop offset="1" stop-opacity="0"/>
</linearGradient>
<linearGradient id="paint51_linear" x1="18207.9" y1="8610.91" x2="18198.9" y2="9940.08" gradientUnits="userSpaceOnUse">
<stop offset="0.01"/>
<stop offset="0.13" stop-opacity="0.69"/>
<stop offset="1" stop-opacity="0"/>
</linearGradient>
<linearGradient id="paint52_linear" x1="305571" y1="36346.5" x2="306360" y2="71531" gradientUnits="userSpaceOnUse">
<stop offset="0.01"/>
<stop offset="0.13" stop-opacity="0.69"/>
<stop offset="1" stop-opacity="0"/>
</linearGradient>
<clipPath id="clip0">
<rect width="1440" height="350" fill="white"/>
</clipPath>
</defs>
</svg>
