<svg width="314" height="224" viewBox="0 0 314 224" fill="none" xmlns="http://www.w3.org/2000/svg">
    <path d="M314 192.804C314 200.353 243.709 223.07 157 223.07C70.2913 223.07 0 200.353 0 192.804C0 185.255 70.2913 195.733 157 195.733C243.709 195.733 314 185.255 314 192.804Z" fill="#3F3D56"/>
    <path opacity="0.1" d="M314 192.804C314 200.353 243.709 223.07 157 223.07C70.2913 223.07 0 200.353 0 192.804C0 185.255 70.2913 195.733 157 195.733C243.709 195.733 314 185.255 314 192.804Z" fill="black"/>
    <path d="M157 206.07C243.709 206.07 314 200.026 314 192.57C314 185.114 243.709 179.07 157 179.07C70.2913 179.07 0 185.114 0 192.57C0 200.026 70.2913 206.07 157 206.07Z" fill="#3F3D56"/>
    <path d="M113 81.496C113 81.496 119.321 91.5548 117.064 94.2782C114.806 97.0017 134 97.0698 134 97.0698C134 97.0698 131.117 82.4373 131.965 79.0698L113 81.496Z" fill="#FFB8B8"/>
    <path opacity="0.1" d="M113 81.496C113 81.496 119.321 91.5548 117.064 94.2782C114.806 97.0017 134 97.0698 134 97.0698C134 97.0698 131.117 82.4373 131.965 79.0698L113 81.496Z" fill="black"/>
    <path d="M123 85.0698C134.046 85.0698 143 76.1155 143 65.0698C143 54.0241 134.046 45.0698 123 45.0698C111.954 45.0698 103 54.0241 103 65.0698C103 76.1155 111.954 85.0698 123 85.0698Z" fill="#FF6584"/>
    <path d="M170 172.07V184.07L181 181.57L180.083 173.07L170 172.07Z" fill="#FFB8B8"/>
    <path d="M211.216 174.07L244 179.57L235.682 192.07C235.682 192.07 212.684 184.07 206.812 184.07C200.941 184.07 211.216 174.07 211.216 174.07Z" fill="#FFB8B8"/>
    <path d="M136.891 150.774C136.891 150.774 161.436 122.671 169.291 124.124C177.145 125.578 180.582 134.3 180.582 134.3L185 177.424C185 177.424 169.291 178.877 169.291 177.424C169.291 175.97 166.345 144.96 166.345 144.96C166.345 144.96 143.273 195.352 131 161.918L136.891 150.774Z" fill="#2F2E41"/>
    <path d="M97 170.327C97 170.327 97.4909 194.49 112.219 195.939C126.947 197.389 143.148 186.274 143.148 186.274L169.659 173.772C169.659 173.772 201.079 190.14 210.407 185.791C210.407 185.791 220.226 175.642 213.844 172.743C207.462 169.843 213.353 172.743 213.353 172.743L175.55 153.413C175.55 153.413 168.186 151.479 155.422 156.795C142.657 162.111 125.475 164.528 125.475 164.528L97 170.327Z" fill="#2F2E41"/>
    <path d="M121.5 86.0698C129.508 86.0698 136 79.578 136 71.5698C136 63.5617 129.508 57.0698 121.5 57.0698C113.492 57.0698 107 63.5617 107 71.5698C107 79.578 113.492 86.0698 121.5 86.0698Z" fill="#FFB8B8"/>
    <path d="M142.587 112.637L141.612 133.275C141.612 133.275 142.1 160.301 137.712 162.267C135.494 163.259 131.038 165.254 126.919 167.436C123.828 169.068 120.928 170.797 119.309 172.286C118.88 172.654 118.51 173.087 118.212 173.569C116.262 177.008 103.587 176.517 100.662 174.06C97.737 171.603 99.687 177.008 97.2495 177.991C94.89 178.944 91.6188 171.151 93.6224 159.515C93.6858 159.127 93.7589 158.734 93.8369 158.336C96.0746 147.058 92.5597 120.047 93.1008 109.61C93.1323 108.813 93.2154 108.018 93.3494 107.232C94.812 99.3694 113.474 83.3699 116.964 90.1854C121.264 98.5979 131.141 90.9127 132.837 87.0848C142.587 86.5934 146 98.3866 146 98.3866L142.587 112.637Z" fill="#3F3D56"/>
    <path d="M182.097 180.07C182.097 180.07 174.283 182.988 171.841 182.501C169.399 182.015 166.957 183.96 166.957 186.878C166.957 189.796 164.026 196.604 168.422 197.09C172.818 197.577 190.889 196.604 194.796 198.063C194.796 198.063 212.378 198.549 210.913 191.255C209.448 183.96 202.122 184.447 202.122 184.447C202.122 184.447 182.097 183.474 182.097 180.07Z" fill="#2F2E41"/>
    <path d="M239.934 181.07C239.934 181.07 240.911 178.07 242.376 178.07C243.842 178.07 255.565 180.07 257.031 179.57C258.496 179.07 275.594 178.07 272.663 186.57C269.732 195.07 259.962 196.07 259.962 196.07C259.962 196.07 242.376 194.07 239.934 194.57C237.491 195.07 228.698 194.57 230.164 192.07C231.629 189.57 240.911 185.07 239.934 181.07Z" fill="#2F2E41"/>
    <path d="M195.34 111.593L197.981 122.555C198.01 122.677 198.006 122.805 197.968 122.925L185.986 160.594C185.939 160.743 185.842 160.871 185.712 160.957C185.582 161.043 185.426 161.082 185.271 161.067C185.116 161.051 184.971 160.983 184.86 160.873C184.75 160.763 184.679 160.618 184.662 160.462L183.004 145.788C182.993 145.691 183.003 145.592 183.033 145.499L194.031 111.542C194.077 111.401 194.168 111.278 194.289 111.193C194.411 111.108 194.556 111.065 194.704 111.07C194.852 111.076 194.995 111.13 195.109 111.225C195.224 111.319 195.305 111.448 195.34 111.593Z" fill="#D0CDE1"/>
    <path d="M194.375 112.07L197 121.528L185.625 156.07L183 145.378L194.375 112.07Z" fill="#F2F2F2"/>
    <path d="M140.077 163.628C140.489 164.838 182.939 163.224 183.351 162.821C183.711 162.315 184.015 161.775 184.258 161.207C184.646 160.4 185 159.593 185 159.593L183.351 146.53L141.314 145.07C141.314 145.07 140.263 156.14 140.048 161.207C139.975 162.013 139.985 162.824 140.077 163.628Z" fill="#D0CDE1"/>
    <path opacity="0.1" d="M178.156 148.07L179 159.07H160V148.07H178.156Z" fill="black"/>
    <path opacity="0.1" d="M153.887 152.092L154 152.07L153.469 157.07H143V152.092H153.887Z" fill="black"/>
    <path opacity="0.1" d="M140.077 163.606C140.487 164.875 182.689 163.184 183.099 162.761C183.456 162.231 183.758 161.665 184 161.07H140.048C139.975 161.914 139.985 162.764 140.077 163.606Z" fill="black"/>
    <path d="M133.975 30.0698C132.337 32.2023 129.908 33.7237 127.136 34.3541C122.353 35.521 127.097 42.0698 127.097 42.0698C127.097 42.0698 125.372 39.6884 127.86 37.1665C130.348 34.6445 134.352 32.9204 133.975 30.0698Z" fill="#FF6584"/>
    <path d="M126.5 49.0698C129.538 49.0698 132 46.6074 132 43.5698C132 40.5323 129.538 38.0698 126.5 38.0698C123.462 38.0698 121 40.5323 121 43.5698C121 46.6074 123.462 49.0698 126.5 49.0698Z" fill="#FF6584"/>
    <path d="M133.483 48.0698C129.087 46.3198 121.766 45.4325 118 46.039L118.517 42.0698C122.137 44.0392 129.424 44.9646 134 44.1006L133.483 48.0698Z" fill="#3F3D56"/>
    <path d="M124.931 50.0698C124.931 50.0698 119.218 59.4217 105.933 62.9226C92.6476 66.4234 105.824 86.0698 105.824 86.0698C105.824 86.0698 101.033 78.9257 107.944 71.3598C114.855 63.794 125.977 58.6214 124.931 50.0698Z" fill="#FF6584"/>
    <path d="M125.144 49.0698C125.144 49.0698 130.761 62.0433 136.927 63.2699C143.094 64.4964 142.626 84.9958 132.983 88.0698C132.983 88.0698 140.014 76.0522 134.004 67.9925C127.994 59.9328 124.197 53.5615 125.144 49.0698Z" fill="#FF6584"/>
    <path opacity="0.1" d="M127.2 167.123C125.984 169.412 124.557 171.788 124.316 172.748C124.154 173.4 122.352 173.023 119.517 171.96C113.833 169.818 103.979 164.913 94.7856 160.009C94.3618 159.785 93.9598 159.522 93.5847 159.225C93.6486 158.838 93.7225 158.446 93.8012 158.049C96.0603 146.803 92.5117 119.869 93.058 109.461L97.2464 108.07L105.613 115.91V149.229C105.613 149.229 127.269 160.989 128.746 161.969C129.499 162.468 128.46 164.747 127.2 167.123Z" fill="black"/>
    <path d="M145.387 140.261L158.537 147.421C158.537 147.421 166.331 138.727 171.201 145.375C176.072 152.024 157.076 154.07 157.076 154.07C157.076 154.07 140.516 149.978 140.029 144.352C139.542 138.727 145.387 140.261 145.387 140.261Z" fill="#FFB8B8"/>
    <path d="M123.164 158.995L131.14 161.012C131.14 161.012 140.113 149.919 149.584 153.953C159.056 157.987 137.62 166.055 137.62 166.055C137.62 166.055 126.155 172.106 121.669 167.063C117.182 162.021 123.164 158.995 123.164 158.995Z" fill="#FFB8B8"/>
    <path d="M140.5 94.0698C141 94.5565 146.5 98.4496 146.5 98.4496C146.5 98.4496 148 116.942 146 120.835C144 124.729 142.5 124.729 144 126.675C145.5 128.622 147.5 127.162 145.5 130.568C143.5 133.975 141.5 133.488 143 134.948C144.5 136.408 144 136.895 144 136.895L150 141.761C150 141.761 146.319 147.468 141.659 147.048C137 146.628 133 124.729 133 124.729L140.5 94.0698Z" fill="#3F3D56"/>
    <path d="M97.1649 106.07L92.7239 107.54C92.7239 107.54 80.8813 150.659 94.6977 158.009C108.514 165.359 123.811 172.709 124.304 170.749C124.798 168.789 130.225 160.949 128.745 159.969C127.265 158.989 105.553 147.229 105.553 147.229V113.91L97.1649 106.07Z" fill="#3F3D56"/>
    <path opacity="0.1" d="M103.981 124.07L103 147.084L129 159.07L104.962 147.084L103.981 124.07Z" fill="black"/>
</svg>