<svg width="251" height="190" viewBox="0 0 251 190" fill="none" xmlns="http://www.w3.org/2000/svg">
    <path d="M0.991699 183.355L30.2996 151.589L146.707 147.842L167.028 189.076H0.991699V183.355Z" fill="#514E7F"/>
    <path opacity="0.2" d="M0.991699 183.355L30.2996 151.589L146.707 147.842L167.028 189.076H0.991699V183.355Z" fill="black"/>
    <path d="M152.627 180.705V181.803C152.627 182.372 152.401 182.917 151.999 183.319C151.597 183.72 151.052 183.946 150.484 183.946H87.9126C86.7279 183.946 87.9126 181.58 87.9126 181.58L87.2052 166.083C87.1786 165.494 87.3562 164.915 87.7078 164.442C88.0594 163.969 88.5636 163.631 89.1351 163.487C92.617 162.608 95.0138 164.02 95.0138 164.02L133.775 163.034C134.578 162.994 135.383 163.032 136.179 163.147C137.586 163.334 138.94 163.803 140.161 164.527C141.382 165.25 142.444 166.213 143.283 167.357L152.191 179.434C152.469 179.8 152.621 180.245 152.627 180.705Z" fill="#514E7F"/>
    <path opacity="0.1" d="M152.627 181.803C152.627 182.371 152.401 182.916 151.999 183.318C151.597 183.72 151.052 183.946 150.484 183.946H87.9126C86.728 183.946 87.9126 181.58 87.9126 181.58C87.9126 181.58 91.3671 179.904 96.4972 180.206L142.167 179.217C142.167 179.217 147.562 179.341 150.718 179.684C151.241 179.741 151.725 179.988 152.077 180.379C152.429 180.77 152.625 181.277 152.627 181.803Z" fill="black"/>
    <path d="M134.867 165.695H95.6044L96.6895 177.634L142.167 176.845L134.867 165.695Z" fill="#9A5E94"/>
    <path d="M68.2813 174.08V178.225L27.1473 179.894C27.1473 179.894 17.742 179.251 16.5883 173.472C16.4965 172.868 16.5081 172.253 16.6226 171.652C17.0381 169.218 19.1259 164.967 28.3286 163.002L39.6603 161.838H64.9265C64.9265 161.838 68.1886 165.104 68.2813 174.08Z" fill="#514E7F"/>
    <path opacity="0.1" d="M68.2813 174.211V178.225L27.1473 179.894C27.1473 179.894 17.742 179.252 16.5883 173.473C16.4965 172.869 16.5081 172.253 16.6226 171.653C16.6226 171.653 22.309 177.03 30.0146 176.24L66.221 174.664C66.9152 174.549 67.6029 174.398 68.2813 174.211Z" fill="black"/>
    <path opacity="0.1" d="M36.814 170.038C43.7894 169.679 49.3941 168.417 49.3324 167.22C49.2707 166.023 43.5661 165.344 36.5907 165.704C29.6153 166.063 24.0106 167.325 24.0723 168.522C24.1339 169.719 29.8386 170.398 36.814 170.038Z" fill="black"/>
    <path d="M40.7178 166.846L34.063 170.135L26.9824 168.46L26.9481 156.918C27.3979 148.495 23.5143 131.635 21.5947 123.995C20.8553 121.042 20.2086 118.066 19.6546 115.067L17.4776 103.34L13.9338 72.8682H22.3674L27.3258 79.9694L40.7178 166.846Z" fill="#514E7F"/>
    <path d="M40.718 166.846L34.0632 170.135L29.819 145.487C29.9014 141.287 24.6373 121.351 24.294 120.53C20.0978 110.513 16.5026 72.8818 16.5026 72.8818H22.371L27.326 79.9693L40.718 166.846Z" fill="#514E7F"/>
    <path opacity="0.15" d="M40.718 166.846L34.0632 170.135L29.819 145.487C29.9014 141.287 24.6373 121.351 24.294 120.53C20.0978 110.513 16.5026 72.8818 16.5026 72.8818H22.371L27.326 79.9693L40.718 166.846Z" fill="black"/>
    <path d="M80.389 143.983L57.7256 167.865L55.0679 168.054L51.8297 168.288C51.0805 168.342 50.333 168.163 49.6889 167.777C49.0449 167.39 48.5358 166.814 48.2311 166.128C41.3634 150.676 19.4074 75.9586 14.7854 60.132C14.673 59.748 14.6384 59.3454 14.6838 58.9479C14.7292 58.5504 14.8536 58.166 15.0497 57.8173C15.2458 57.4686 15.5097 57.1626 15.8258 56.9173C16.1419 56.672 16.5039 56.4924 16.8904 56.3891L19.9808 55.5581L20.2109 55.5856L53.2273 60.0152C54.1706 60.1422 55.0585 60.5342 55.7879 61.1457C56.5173 61.7572 57.0582 62.563 57.3479 63.4697L81.5153 138.99C81.7919 139.847 81.8333 140.762 81.6351 141.641C81.437 142.519 81.0067 143.328 80.389 143.983Z" fill="#514E7F"/>
    <path opacity="0.1" d="M80.389 143.983L57.7256 167.865L55.0679 168.054L51.8297 168.288C51.0805 168.342 50.333 168.163 49.6889 167.777C49.0449 167.39 48.5358 166.814 48.2311 166.128C41.3634 150.676 19.4074 75.9586 14.7854 60.132C14.673 59.748 14.6384 59.3454 14.6838 58.9479C14.7292 58.5504 14.8536 58.166 15.0497 57.8173C15.2458 57.4686 15.5097 57.1626 15.8258 56.9173C16.1419 56.672 16.5039 56.4924 16.8904 56.3891L19.9808 55.5581L20.2109 55.5856L53.2273 60.0152C54.1706 60.1422 55.0585 60.5342 55.7879 61.1457C56.5173 61.7572 57.0582 62.563 57.3479 63.4697L81.5153 138.99C81.7919 139.847 81.8333 140.762 81.6351 141.641C81.437 142.519 81.0067 143.328 80.389 143.983Z" fill="black"/>
    <path d="M80.3101 144.065L57.7257 167.876L55.0679 168.064L21.1759 59.555C20.599 58.3091 20.2757 56.9609 20.2247 55.5889L53.794 60.0941C54.5723 60.1986 55.305 60.522 55.9067 61.0265C56.5085 61.531 56.9548 62.196 57.1935 62.9442L81.4948 138.884C81.7796 139.774 81.8199 140.725 81.6115 141.637C81.4031 142.548 80.9536 143.387 80.3101 144.065Z" fill="#514E7F"/>
    <path d="M78.655 140.061C78.407 140.481 78.0993 140.862 77.7416 141.194L55.5074 161.866L25.1729 61.3262L54.3022 64.2106C55.3103 64.3097 56.2662 64.7064 57.0483 65.3502C57.8304 65.9941 58.4032 66.8561 58.694 67.8264L79.1563 135.964C79.3612 136.645 79.4224 137.36 79.3361 138.065C79.2498 138.77 79.0178 139.45 78.655 140.061Z" fill="#9A5E94"/>
    <path opacity="0.1" d="M78.655 140.062L54.3021 64.2114C55.3103 64.3105 56.2662 64.7072 57.0483 65.3511C57.8303 65.9949 58.4032 66.8569 58.694 67.8273L79.1563 135.965C79.3611 136.645 79.4224 137.361 79.3361 138.066C79.2497 138.771 79.0178 139.451 78.655 140.062Z" fill="black"/>
    <path d="M209.234 27.7057C216.355 27.7057 222.128 21.9328 222.128 14.8116C222.128 7.69035 216.355 1.91748 209.234 1.91748C202.113 1.91748 196.34 7.69035 196.34 14.8116C196.34 21.9328 202.113 27.7057 209.234 27.7057Z" fill="#945B79"/>
    <path d="M196.206 12.8992C196.205 9.61226 197.46 6.44915 199.713 4.05637C201.967 1.6636 205.049 0.221837 208.331 0.0257565C208.077 0.0257565 207.822 0.00171705 207.565 0.00171705C205.854 -0.0262073 204.154 0.286718 202.565 0.922257C200.976 1.5578 199.529 2.50324 198.309 3.7035C197.089 4.90375 196.12 6.33481 195.459 7.91329C194.798 9.49176 194.457 11.1861 194.457 12.8975C194.457 14.609 194.798 16.3033 195.459 17.8818C196.12 19.4602 197.089 20.8913 198.309 22.0915C199.529 23.2918 200.976 24.2372 202.565 24.8728C204.154 25.5083 205.854 25.8213 207.565 25.7933C207.822 25.7933 208.077 25.7933 208.331 25.7693C205.05 25.5732 201.968 24.132 199.715 21.7399C197.461 19.3479 196.206 16.1856 196.206 12.8992Z" fill="#945B79"/>
    <path opacity="0.1" d="M197.875 14.8116C197.875 11.5241 199.131 8.36085 201.386 5.96864C203.641 3.57642 206.725 2.13587 210.006 1.94151C209.752 1.94151 209.495 1.91748 209.237 1.91748C205.854 1.9727 202.627 3.35564 200.254 5.76806C197.88 8.18049 196.55 11.4291 196.55 14.8133C196.55 18.1975 197.88 21.4461 200.254 23.8585C202.627 26.2709 205.854 27.6539 209.237 27.7091C209.495 27.7091 209.752 27.7091 210.006 27.6816C206.724 27.4881 203.64 26.0478 201.385 23.6554C199.13 21.263 197.874 18.0993 197.875 14.8116Z" fill="black"/>
    <path d="M142.868 159.387C141.663 160.023 140.423 160.589 139.152 161.08C135.835 162.385 130.781 163.882 126.073 163.309C118.158 162.347 113.423 164.936 113.423 164.936L111.647 151.768C111.647 151.768 117.485 150.051 119.858 149.621C121.636 149.278 128.054 146.321 131.134 144.869C132.164 144.388 132.807 144.072 132.807 144.072H138.727L142.868 159.387Z" fill="#FFC1C7"/>
    <path opacity="0.1" d="M142.868 159.387C141.663 160.023 140.423 160.589 139.152 161.08C138.751 149.354 134.252 145.872 131.134 144.869C132.165 144.388 132.807 144.072 132.807 144.072H138.727L142.868 159.387Z" fill="black"/>
    <path d="M164.769 120.029V148.873L163.22 150.707L158.258 156.578C158.258 156.578 157.149 159.669 155.298 161.015C153.448 162.361 149.227 160.572 149.227 160.572L148.043 162.495C148.043 162.495 145.381 163.014 144.125 162.495C142.868 161.977 139.757 163.975 139.757 163.975C140.203 142.816 128.734 144.519 128.734 144.519C136.649 136.01 141.532 138.747 141.532 138.747L144.938 135.491L149.155 131.22C148.194 127.913 151.669 127.205 152.483 126.835C153.296 126.464 155.443 122.913 155.37 122.47C155.298 122.027 156.033 119.139 157.218 119.253C157.877 119.314 158.78 118.157 159.46 117.117C160.003 116.279 160.401 115.517 160.401 115.517L164.769 120.029Z" fill="#FF6584"/>
    <path d="M175.012 91.1945L183.734 86.7305L183.24 91.9602L184.956 97.214C184.956 97.214 183.38 101.283 183.185 101.726C182.989 102.169 179.239 111.444 179.239 111.444L176.231 107.646L175.012 91.1945Z" fill="#FF6584"/>
    <path opacity="0.1" d="M176.234 107.646L175.012 91.1945L183.734 86.7339" fill="black"/>
    <path d="M212.489 86.2907C212.489 86.2907 209.591 90.4594 205.621 95.7715C196.384 108.133 181.358 126.676 183.645 113.222C183.72 112.783 183.779 112.343 183.83 111.9C183.267 112.278 181.976 111.948 180.568 111.279L180.472 111.234C179.778 110.894 179.108 110.506 178.467 110.073C178.394 110.029 178.326 109.981 178.257 109.933C176.695 108.844 175.445 107.57 175.51 106.691C176.619 87.3792 181.114 96.5888 182.378 98.7315C182.449 98.8816 182.547 99.0176 182.666 99.1333C182.611 98.9822 182.549 98.8242 182.481 98.6594C181.595 96.4858 179.902 93.2374 177.969 89.7658V89.7314L177.711 89.2713C176.104 86.404 174.363 83.4063 172.797 80.7759L172.375 80.0686C169.903 75.9205 167.98 72.8266 167.98 72.8266C167.98 72.8266 179.212 62.5525 188.679 56.3098C196.577 51.0938 203.266 48.6867 201.127 57.4361C199.753 63.0607 200.155 67.8716 201.422 71.8583C201.466 72.0059 201.515 72.1536 201.566 72.2978C201.82 73.0575 202.114 73.8037 202.445 74.5332C202.894 75.5385 203.408 76.5134 203.983 77.452C206.138 80.9848 209.042 84.0019 212.489 86.2907Z" fill="#FFC1C7"/>
    <path opacity="0.15" d="M195.028 70.6976C189.702 76.4837 188.569 82.0293 180.084 82.0293C177.615 82.031 175.157 81.7194 172.766 81.1022C170.091 76.6038 167.959 73.1528 167.959 73.1528C167.959 73.1528 205.807 38.5431 201.106 57.7623C199.671 63.569 193.651 66.6114 195.028 70.6976Z" fill="black"/>
    <path d="M200.695 72.5772C196.618 76.6544 191.423 79.4311 185.767 80.5559C180.112 81.6807 174.25 81.1033 168.923 78.8965C163.596 76.6897 159.043 72.9528 155.84 68.1583C152.636 63.3638 150.927 57.7271 150.927 51.9609C150.927 46.1948 152.638 40.5583 155.841 35.7641C159.045 30.97 163.599 27.2336 168.926 25.0275C174.254 22.8214 180.116 22.2446 185.771 23.3701C191.426 24.4956 196.621 27.2728 200.697 31.3505C203.42 34.049 205.58 37.26 207.055 40.7981C208.529 44.3362 209.288 48.1313 209.288 51.9644C209.288 55.7974 208.528 59.5924 207.054 63.1304C205.579 66.6683 203.417 69.879 200.695 72.5772Z" fill="#FFC1C7"/>
    <path opacity="0.1" d="M179.418 102.42C179.418 102.42 179.936 110.706 185.19 110.04C190.444 109.373 186.447 127.648 186.447 127.648L180.609 132.974L174.311 134.911C174.311 134.911 168.762 133.283 168.838 132.985C168.913 132.686 171.056 115.379 171.056 115.379L174.311 106.128L179.418 102.42Z" fill="black"/>
    <path d="M179.418 103.01C179.418 103.01 179.936 111.296 185.19 110.633C190.444 109.971 186.447 128.242 186.447 128.242L180.609 133.568L174.319 135.491C174.319 135.491 168.769 133.863 168.845 133.568C168.921 133.273 171.063 115.959 171.063 115.959L174.319 106.712L179.418 103.01Z" fill="#514E7F"/>
    <path opacity="0.1" d="M164.769 120.028V148.872L163.22 150.706C161.623 146.469 160.408 140.724 161.16 135.559C162.139 128.712 160.188 119.949 159.481 117.109C160.023 116.272 160.422 115.509 160.422 115.509L164.769 120.028Z" fill="black"/>
    <path opacity="0.1" d="M180.084 103.9C179.896 105.525 179.474 107.114 178.83 108.618C178.638 109.075 178.442 109.518 178.247 109.933C176.684 108.845 175.434 107.571 175.5 106.692C176.609 87.3798 181.104 96.5893 182.367 98.7321C181.749 99.1991 180.369 100.573 180.084 103.9Z" fill="black"/>
    <path opacity="0.1" d="M182.463 98.6592C181.536 96.3826 179.716 92.9247 177.68 89.2711L177.938 89.1406L182.649 98.5425C182.583 98.5745 182.521 98.6137 182.463 98.6592Z" fill="black"/>
    <path opacity="0.1" d="M212.489 86.2903C212.489 86.2903 180.379 132.458 183.645 113.222C183.72 112.782 183.779 112.343 183.83 111.9C183.253 112.284 181.918 111.934 180.472 111.234C180.692 109.949 180.815 109.07 180.815 109.07L184.369 99.0161C184.369 99.0161 186.43 91.0255 186.145 89.4013L186.241 89.3361L203.911 77.4722H203.929C206.101 81.0033 209.024 84.0137 212.489 86.2903Z" fill="black"/>
    <path d="M245.784 121.213L243.267 134.224L235.712 189.121H170.174C170.174 189.121 171.355 179.506 171.355 178.022C171.355 176.539 170.026 174.324 170.174 172.697C170.321 171.069 170.888 172.25 170.174 169.441C169.46 166.632 169.144 158.934 166.785 156.272C164.426 153.611 160.559 143.838 161.737 135.566C162.915 127.294 159.81 116.182 159.81 116.182C159.81 116.182 157.149 112.333 159.81 112.185C162.472 112.038 163.512 112.319 163.364 109.665C163.217 107.01 164.546 101.976 166.173 100.939C167.801 99.9024 170.17 96.0565 170.613 94.5765C170.761 94.2042 170.997 93.8731 171.3 93.6116C172.632 92.3342 175.342 91.026 175.342 91.026L177.931 89.7314V89.7657L182.628 99.1333C182.628 99.1333 180.431 100.201 180.063 104.49C179.876 106.115 179.454 107.704 178.81 109.208C178.686 109.503 178.563 109.795 178.436 110.073C178.058 110.911 177.673 111.653 177.347 112.244C176.863 113.119 176.516 113.658 176.516 113.658C176.516 113.658 176.389 114.661 176.197 116.062C175.802 118.94 175.136 123.5 174.741 124.592C174.397 125.56 173.711 127.226 173.329 128.712C173.089 129.643 172.952 130.505 173.079 131.068C173.079 131.113 173.099 131.157 173.113 131.198C173.556 132.572 175.774 126.666 175.774 126.666C175.774 126.666 177.402 121.635 178.144 121.635C178.71 121.635 179.984 114.534 180.547 111.258C180.712 110.28 180.812 109.644 180.812 109.644L184.366 99.5865C184.366 99.5865 184.857 97.6876 185.327 95.5518C185.822 93.306 186.292 90.8027 186.141 89.9683L186.237 89.9031L203.908 78.0392H203.925L204.196 77.8571H204.169C204.045 77.8571 203.688 77.6374 203.005 76.0304C202.83 75.6217 202.634 75.1272 202.418 74.516C202.418 74.516 208.07 72.2462 210.085 73.9082C210.216 74.0129 210.332 74.1355 210.429 74.2722C210.486 74.3484 210.535 74.4301 210.576 74.516C211.909 77.2631 212.499 79.3234 213.832 81.1021C213.976 81.2914 214.132 81.4714 214.299 81.6412C215.909 83.3273 219.106 85.3017 218.567 85.8374C217.976 86.428 223.007 88.9279 223.007 88.9279C223.007 88.9279 225.95 90.6105 226.873 92.0183C227.035 92.2362 227.131 92.4961 227.148 92.7669C227.148 94.2469 231.44 95.1328 232.773 95.1328C234.105 95.1328 240.468 108.896 243.572 110.523C246.676 112.151 245.784 121.213 245.784 121.213Z" fill="#FF6584"/>
    <g opacity="0.1">
        <path opacity="0.1" d="M179.394 99.1333C179.394 99.1333 177.196 100.201 176.829 104.49C176.642 106.116 176.219 107.705 175.572 109.208C175.142 110.246 174.655 111.26 174.112 112.244C173.628 113.119 173.281 113.658 173.281 113.658C173.281 113.658 173.154 114.661 172.962 116.062C172.578 118.964 171.891 123.524 171.503 124.609C171.159 125.577 170.473 127.243 170.091 128.73C169.851 129.66 169.714 130.522 169.841 131.085C169.841 131.13 169.861 131.174 169.875 131.216C170.318 132.589 172.536 126.683 172.536 126.683C172.536 126.683 174.164 121.652 174.906 121.652C175.115 121.652 175.424 120.67 175.757 119.269C175.926 118.146 176.101 117.024 176.214 116.083C176.406 114.675 176.533 113.679 176.533 113.679C176.533 113.679 176.729 113.377 177.031 112.855C177.347 111.045 177.567 109.679 177.567 109.679L181.121 99.6209C181.121 99.6209 181.379 98.6182 181.701 97.255L177.924 89.7451L175.335 91.0397L179.394 99.1333Z" fill="black"/>
        <path opacity="0.1" d="M243.562 110.557C240.472 108.93 234.095 95.1668 232.763 95.1668C231.43 95.1668 227.138 94.2809 227.138 92.8009C227.138 91.3209 222.997 88.9515 222.997 88.9515C222.997 88.9515 217.966 86.438 218.557 85.8611C219.089 85.3254 215.899 83.351 214.289 81.6649C214.123 81.4944 213.967 81.3144 213.822 81.1258C212.489 79.3471 211.899 77.2765 210.566 74.5397C210.524 74.4531 210.475 74.3703 210.419 74.2925C210.32 74.1572 210.204 74.0349 210.075 73.9285C209.169 73.1833 207.534 73.2417 206.003 73.5096C206.299 73.5966 206.576 73.7387 206.82 73.9285C206.949 74.0349 207.065 74.1572 207.163 74.2925C207.22 74.3703 207.269 74.4531 207.311 74.5397C208.643 77.2868 209.234 79.3471 210.566 81.1258C210.713 81.3098 210.87 81.4852 211.037 81.6512C212.647 83.3372 215.844 85.3117 215.305 85.8474C214.714 86.438 219.745 88.9378 219.745 88.9378C219.745 88.9378 223.886 91.3072 223.886 92.7872C223.886 94.2671 228.178 95.1531 229.511 95.1531C230.843 95.1531 237.206 108.916 240.31 110.544C243.414 112.171 242.532 121.188 242.532 121.188L240.011 134.223L232.457 189.12H235.712L243.267 134.223L245.784 121.202C245.784 121.202 246.67 112.185 243.562 110.557Z" fill="black"/>
    </g>
    <path d="M114.339 152.034C114.339 152.034 95.5184 146.588 94.1861 154.95C92.8538 163.311 101.881 168.119 107.65 167.971C113.419 167.823 115.936 162.346 115.936 162.346L114.339 152.034Z" fill="#FFC1C7"/>
    <path d="M208.715 177.738C208.715 177.738 204.499 180.77 195.547 180.77C186.594 180.77 176.162 182.693 176.162 182.693C176.162 182.693 162.846 151.325 136.138 178.178C136.138 178.178 131.33 184.393 156.26 185.045C156.26 185.045 165.064 184.75 166.987 189.115H216.778L223.587 184.015L208.715 177.738Z" fill="#FFC1C7"/>
    <path d="M108.54 138.523C108.54 138.523 107.283 135.566 105.793 138.523L104.986 161.461L106.758 166.862L108.53 162.055L108.54 138.523Z" fill="#514E7F"/>
    <path opacity="0.1" d="M210.418 74.2821C207.836 75.1612 205.003 77.2215 204.169 77.867C204.014 77.867 203.482 77.5237 202.418 74.5259C202.414 74.5259 208.805 71.9608 210.418 74.2821Z" fill="black"/>
    <path d="M182.649 99.1333C182.649 99.1333 180.451 100.201 180.084 104.49C179.897 106.115 179.474 107.705 178.83 109.208L177.385 112.247L176.234 116.072L176.355 123.86L173.346 128.73L173.096 131.085L172.316 138.372L168.319 136.449C168.319 136.449 169.968 124.698 171.204 122.319C172.44 119.939 174.092 107.337 174.092 107.337C174.092 107.337 174.016 102.711 174.61 101.898C175.204 101.084 173.58 101.231 173.425 99.5316C173.336 98.5221 172.21 95.7201 171.307 93.6083C172.639 92.3309 175.348 91.0226 175.348 91.0226L177.938 89.728L182.649 99.1333Z" fill="#FF6584"/>
    <path opacity="0.1" d="M182.649 99.1333C182.649 99.1333 180.451 100.201 180.084 104.49C179.897 106.115 179.474 107.705 178.83 109.208L177.385 112.247L176.234 116.072L176.355 123.86L173.346 128.73L173.096 131.085L172.316 138.372L168.319 136.449C168.319 136.449 169.968 124.698 171.204 122.319C172.44 119.939 174.092 107.337 174.092 107.337C174.092 107.337 174.016 102.711 174.61 101.898C175.204 101.084 173.58 101.231 173.425 99.5316C173.336 98.5221 172.21 95.7201 171.307 93.6083C172.639 92.3309 175.348 91.0226 175.348 91.0226L177.938 89.728L182.649 99.1333Z" fill="black"/>
    <path opacity="0.1" d="M214.288 82.2462C210.989 84.9452 202.115 92.6026 201.096 97.8084C199.839 104.226 196.065 103.605 196.065 103.605C191.35 93.3787 188.105 90.872 186.248 90.5183L203.918 78.6509C203.918 78.6509 203.918 78.6509 203.935 78.6509L204.207 78.4689H204.169C204.045 78.4689 203.688 78.2526 203.005 76.6456L210.085 74.52C210.216 74.6247 210.332 74.7472 210.429 74.884C210.485 74.9607 210.535 75.0423 210.576 75.1278C211.909 77.8749 212.499 79.9352 213.832 81.7139C213.974 81.8998 214.126 82.0775 214.288 82.2462Z" fill="black"/>
    <path d="M214.288 81.6514C210.989 84.3504 202.115 92.0113 201.096 97.217C199.839 103.631 196.065 103.01 196.065 103.01C191.35 92.7874 188.105 90.2704 186.248 89.927L203.918 78.0631H203.935L204.207 77.881H204.169C204.045 77.881 203.688 77.6613 203.005 76.0542L210.085 73.9321C210.216 74.0368 210.332 74.1594 210.429 74.2961C210.486 74.3723 210.535 74.454 210.576 74.5399C211.909 77.287 212.499 79.3473 213.832 81.126C213.973 81.3103 214.126 81.4857 214.288 81.6514Z" fill="#FF6584"/>
    <path opacity="0.1" d="M194.29 133.492C194.509 133.42 206.04 126.892 204.715 131.858C203.389 136.823 194.29 133.492 194.29 133.492Z" fill="black"/>
    <path opacity="0.1" d="M144.42 139.745C144.42 139.745 150.484 149.178 152.63 148.883C154.776 148.587 144.42 139.745 144.42 139.745Z" fill="black"/>
    <path opacity="0.1" d="M151.974 136.233C151.974 136.233 152.345 143.557 155.528 144.072C158.712 144.587 151.974 136.233 151.974 136.233Z" fill="black"/>
    <path opacity="0.1" d="M185.626 159.758C185.626 159.758 193.16 172.291 191.694 176.628L185.626 159.758Z" fill="black"/>
    <path opacity="0.1" d="M194.362 161.238C194.362 161.238 204.553 174.63 202.788 175.739C201.023 176.848 194.362 161.238 194.362 161.238Z" fill="black"/>
    <path opacity="0.1" d="M171.448 139.745C171.448 139.745 170.4 149.267 174.332 152.035L171.448 139.745Z" fill="black"/>
    <path opacity="0.1" d="M217.152 97.3886C217.152 97.3886 199.705 110.928 202.5 124.986C205.295 139.045 207.994 140.078 207.994 140.078C207.994 140.078 209.024 145.699 210.954 148.069C212.884 150.438 212.582 151.99 212.582 151.99C212.582 151.99 214.357 151.176 214.948 155.245C215.538 159.314 218.646 162.199 218.646 162.199C218.646 162.199 219.676 165.454 217.018 167.23C214.36 169.005 214.958 170.931 214.958 170.931L204.155 177.219L216.187 189.131H247.263C247.263 189.131 246.374 187.578 248.294 185.353C250.213 183.128 249.259 174.331 249.259 174.331C249.259 174.331 248.184 172.923 249.499 169.815C250.814 166.708 248.369 157.831 248.369 157.831L245.622 149.174C245.622 149.174 243.328 143.035 243.699 139.742C244.07 136.449 242.944 132.85 242.944 132.85L236.979 114.032C236.979 114.032 237.274 95.2424 217.152 97.3886Z" fill="black"/>
    <path d="M217.743 97.3886C217.743 97.3886 200.282 110.928 203.094 124.986C205.906 139.045 208.568 140.078 208.568 140.078C208.568 140.078 209.598 145.699 211.528 148.069C213.457 150.438 213.155 151.99 213.155 151.99C213.155 151.99 214.931 151.176 215.525 155.245C216.119 159.314 219.223 162.199 219.223 162.199C219.223 162.199 220.253 165.454 217.595 167.23C214.937 169.005 215.535 170.931 215.535 170.931L204.732 177.219L216.792 189.131H247.865C247.865 189.131 246.979 187.578 248.895 185.353C250.811 183.128 249.856 174.331 249.856 174.331C249.856 174.331 248.781 172.923 250.097 169.815C251.412 166.708 248.967 157.831 248.967 157.831L246.22 149.174C246.22 149.174 243.926 143.035 244.297 139.742C244.668 136.449 243.534 132.85 243.534 132.85L237.57 114.032C237.57 114.032 237.865 95.2424 217.743 97.3886Z" fill="#FF6584"/>
    <path opacity="0.1" d="M223.587 106.932C223.587 106.932 236.018 111.149 239.345 113.223C242.673 115.297 234.462 105.009 223.587 106.932Z" fill="black"/>
    <path opacity="0.1" d="M230.098 170.932C230.098 170.932 247.779 173.15 246.748 176.628C245.718 180.107 230.098 170.932 230.098 170.932Z" fill="black"/>
    <path opacity="0.1" d="M226.633 174.702C226.633 174.702 239.568 178.847 237.278 182.257C234.987 185.666 226.633 174.702 226.633 174.702Z" fill="black"/>
    <path opacity="0.1" d="M226.863 92.0534C219.807 93.4269 212.716 94.6013 205.621 95.7723L203.774 96.0779C199.873 96.72 195.948 97.3656 191.992 97.345C190.066 97.345 188.081 97.1458 186.371 96.253C186.006 96.0591 185.661 95.829 185.341 95.5662C184.143 94.6048 183.281 93.2072 183.301 91.6894C183.322 88.9217 185.949 87.0022 188.208 85.4021C191.515 83.0567 194.781 80.0796 196.058 76.3401C196.301 75.639 196.468 74.9137 196.556 74.1768C196.934 71.0005 195.776 67.8654 194.544 64.9054C193.198 61.6948 191.35 58.2438 188.651 56.2934C187.559 55.4903 186.283 54.9743 184.939 54.7928C180.791 54.2433 176.866 57.1965 172.687 57.0316C169.291 56.884 166.407 54.7035 164.364 52.1384C162.877 50.2704 161.936 47.7706 159.697 46.6614C157.273 45.4561 154.515 45.1711 151.82 44.7694C152.916 40.4617 154.983 36.4616 157.862 33.0751C160.741 29.6886 164.356 27.0053 168.431 25.2303C172.507 23.4554 176.934 22.6358 181.374 22.8342C185.815 23.0327 190.151 24.2439 194.052 26.3753C197.953 28.5067 201.314 31.5018 203.88 35.1316C206.445 38.7615 208.147 42.9299 208.855 47.3182C209.562 51.7065 209.257 56.1985 207.962 60.4508C206.667 64.703 204.417 68.6028 201.384 71.8521C201.429 71.9998 201.477 72.1474 201.528 72.2916C201.783 73.0514 202.076 73.7976 202.407 74.5271C202.407 74.5271 208.059 72.2573 210.075 73.9193C210.206 74.024 210.321 74.1465 210.418 74.2833C210.476 74.3594 210.525 74.4411 210.566 74.5271C211.898 77.2742 212.489 79.3345 213.821 81.1132C213.966 81.3024 214.122 81.4825 214.288 81.6523C215.899 83.3383 219.096 85.3128 218.557 85.8484C217.966 86.4391 222.997 88.9389 222.997 88.9389C222.997 88.9389 225.939 90.6387 226.863 92.0534Z" fill="black"/>
    <path d="M143.441 39.5149C140.811 36.1223 141.096 31.3287 142.068 27.1531C142.679 24.5193 143.548 21.8719 145.251 19.7738C146.954 17.6757 149.636 16.206 152.318 16.57C153.887 16.7829 155.305 17.583 156.782 18.1667C163.409 20.7902 171.63 18.6097 176.087 13.0434C177.096 11.7832 177.931 10.3685 179.126 9.26621C180.464 8.11208 182.065 7.30435 183.789 6.91403C191.247 5.03228 198.939 8.7374 205.319 13.0331C210.765 16.7005 215.944 20.9825 219.518 26.4869C222.767 31.5163 224.55 37.3509 224.669 43.3368C224.851 52.8142 220.854 62.374 223.141 71.5699C225.397 80.6524 234.267 87.6437 243.624 87.7089C230.774 90.8612 217.705 93.0211 204.653 95.1741C200.749 95.8197 196.827 96.4652 192.872 96.4412C190.945 96.4412 188.957 96.242 187.25 95.3492C185.544 94.4564 184.16 92.7224 184.16 90.796C184.18 88.0249 186.811 86.1088 189.067 84.5086C192.988 81.7272 196.851 78.0564 197.418 73.2834C197.796 70.1071 196.638 66.9685 195.402 64.012C193.517 59.5137 190.643 54.5311 185.808 53.8856C181.664 53.3327 177.735 56.2893 173.556 56.121C170.164 55.9734 167.276 53.7929 165.233 51.2278C163.746 49.3598 162.805 46.8599 160.569 45.7508C155.044 43.0175 147.754 45.0743 143.441 39.5149Z" fill="#945B79"/>
    <path d="M219.013 22.2294C221.713 20.3555 223.596 17.5212 224.276 14.3058C224.957 11.0905 224.383 7.73665 222.674 4.92969C222.832 5.12885 222.983 5.33488 223.131 5.54435C224.127 6.93443 224.837 8.50887 225.22 10.176C225.602 11.8432 225.649 13.5697 225.358 15.2552C225.067 16.9407 224.443 18.5514 223.523 19.9936C222.604 21.4358 221.407 22.6806 220.001 23.6557C218.596 24.6309 217.011 25.3167 215.338 25.6734C213.665 26.03 211.938 26.0504 210.257 25.7333C208.577 25.4162 206.976 24.7679 205.548 23.8262C204.12 22.8845 202.894 21.6682 201.94 20.2481C201.796 20.0352 201.655 19.8188 201.525 19.6025C203.556 22.187 206.497 23.8983 209.748 24.3866C212.998 24.8748 216.313 24.1032 219.013 22.2294Z" fill="#945B79"/>
    <g opacity="0.1">
        <path opacity="0.1" d="M178.154 11.7971C179.164 10.5335 179.998 9.11874 181.193 8.01991C181.389 7.84122 181.594 7.67274 181.808 7.51514C180.824 7.92271 179.917 8.49266 179.122 9.20116C177.927 10.2931 177.093 11.7079 176.083 12.9784C175.058 14.2492 173.843 15.3541 172.481 16.2543C174.681 15.211 176.62 13.688 178.154 11.7971Z" fill="black"/>
        <path opacity="0.1" d="M206.734 93.9483C202.833 94.5904 198.908 95.236 194.952 95.2119C193.026 95.2119 191.041 95.0162 189.331 94.1234C187.621 93.2306 186.241 91.4965 186.258 89.5667C186.278 86.799 188.905 84.8829 191.165 83.2793C195.086 80.4979 198.946 76.8271 199.512 72.0541C199.89 68.8812 198.733 65.7392 197.497 62.7827C195.612 58.2844 192.741 53.2984 187.903 52.6563C183.758 52.1034 179.833 55.06 175.654 54.8883C172.261 54.7441 169.374 52.5636 167.33 49.9985C165.84 48.1305 164.899 45.6306 162.664 44.5215C157.115 41.7744 149.825 43.8347 145.495 38.265C142.864 34.8724 143.153 30.0753 144.121 25.9032C144.732 23.2694 145.601 20.6219 147.301 18.5204C147.778 17.9356 148.322 17.4088 148.922 16.9512C147.479 17.54 146.209 18.4852 145.23 19.6982C143.513 21.7963 142.658 24.4473 142.047 27.0776C141.075 31.26 140.79 36.0571 143.421 39.4394C147.734 44.9988 155.024 42.9419 160.59 45.6959C162.825 46.8084 163.766 49.3083 165.253 51.19C167.313 53.7517 170.184 55.9356 173.577 56.0798C177.756 56.2584 181.684 53.2915 185.829 53.8444C190.663 54.49 193.538 59.4725 195.423 63.9742C196.659 66.9205 197.826 70.059 197.438 73.2456C196.872 78.0187 193.009 81.6894 189.087 84.4708C186.831 86.071 184.201 87.9905 184.18 90.7582C184.18 92.6846 185.554 94.4221 187.271 95.3149C188.988 96.2077 190.966 96.3932 192.892 96.4035C196.848 96.4275 200.79 95.7819 204.674 95.1364C217.722 92.9833 230.795 90.8269 243.644 87.6712C242.884 87.6634 242.125 87.6106 241.371 87.5132C229.923 90.1195 218.32 92.0356 206.734 93.9483Z" fill="black"/>
    </g>
    <path d="M109.807 159.133C112.917 159.133 115.438 157.755 115.438 156.056C115.438 154.357 112.917 152.979 109.807 152.979C106.697 152.979 104.175 154.357 104.175 156.056C104.175 157.755 106.697 159.133 109.807 159.133Z" fill="#FFC1C7"/>
</svg>