<svg width="305" height="189" viewBox="0 0 305 189" fill="none" xmlns="http://www.w3.org/2000/svg">
    <path d="M50.9181 73.2471H43.2908V96.3941H50.9181V73.2471Z" fill="#3F3D56"/>
    <path d="M256.186 72.0425H248.558V96.5303H256.186V72.0425Z" fill="#3F3D56"/>
    <path d="M304.828 180.76V185.979L243.842 186.541L243.191 186.553L220.012 186.765L219.458 186.773L212.413 186.834H212.204L169.258 187.231L98.7616 187.885H98.7014L80.7772 188.054L80.5845 188.058L0.938965 188.789V182.767L19.6661 171.527L57.2408 171.214L58.0437 171.21L58.3086 171.206L59.1115 171.194L77.1522 171.045L77.9591 171.041L78.216 171.037L79.0189 171.033L84.8036 170.985L84.9562 170.981L99.2273 170.86H99.3437L210.703 169.921L213.429 169.901H213.702L215.781 169.881L230.895 169.756L231.698 169.744L232.441 169.736H232.826L237.527 169.7L238.458 169.688L239.707 169.68L243.621 169.644L249.831 169.592L250.634 169.584L252.031 169.576H252.292L282.284 169.319L304.828 180.76Z" fill="#65617D"/>
    <path opacity="0.2" d="M304.828 180.76V185.979L243.842 186.541L243.191 186.553L220.012 186.765L219.458 186.773L212.413 186.834H212.204L169.258 187.231L98.7616 187.885H98.7014L80.7772 188.054L80.5845 188.058L0.938965 188.789V182.767L19.6661 171.527L57.2408 171.214L58.0437 171.21L58.3086 171.206L59.1115 171.194L77.1522 171.045L77.9591 171.041L78.216 171.037L79.0189 171.033L84.8036 170.985L84.9562 170.981L99.2273 170.86H99.3437L210.703 169.921L213.429 169.901H213.702L215.781 169.881L230.895 169.756L231.698 169.744L232.441 169.736H232.826L237.527 169.7L238.458 169.688L239.707 169.68L243.621 169.644L249.831 169.592L250.634 169.584L252.031 169.576H252.292L282.284 169.319L304.828 180.76Z" fill="black"/>
    <path d="M77.2125 160.692V170.524C77.2127 170.989 77.0808 171.445 76.8321 171.839C76.5834 172.233 76.2281 172.548 75.8075 172.748C75.4943 172.899 75.1519 172.982 74.8039 172.988L60.7936 173.286C60.4195 173.295 60.0484 173.216 59.7098 173.057C59.2817 172.861 58.9191 172.545 58.665 172.149C58.4109 171.753 58.2761 171.292 58.2766 170.821V160.692H77.2125Z" fill="#3F3D56"/>
    <path opacity="0.1" d="M77.2125 160.692V170.524C77.2127 170.989 77.0808 171.445 76.8321 171.839C76.5834 172.233 76.2281 172.548 75.8075 172.748C75.4943 172.899 75.1519 172.982 74.8039 172.988L60.7936 173.286C60.4195 173.295 60.0484 173.216 59.7098 173.057C59.2817 172.861 58.9191 172.545 58.665 172.149C58.4109 171.753 58.2761 171.292 58.2766 170.821V160.692H77.2125Z" fill="black"/>
    <path d="M78.0154 160.692V170.524C78.0156 170.989 77.8837 171.445 77.635 171.839C77.3862 172.233 77.0309 172.548 76.6103 172.748C76.2971 172.899 75.9547 172.982 75.6067 172.988L61.5965 173.286C61.2223 173.295 60.8512 173.216 60.5126 173.057C60.0846 172.861 59.7219 172.545 59.4679 172.149C59.2138 171.753 59.079 171.292 59.0795 170.821V160.692H78.0154Z" fill="#3F3D56"/>
    <path d="M250.634 160.692H231.698V173.338H250.634V160.692Z" fill="#3F3D56"/>
    <path opacity="0.1" d="M250.634 160.692H231.698V173.338H250.634V160.692Z" fill="black"/>
    <path d="M249.831 160.692H230.895V173.338H249.831V160.692Z" fill="#3F3D56"/>
    <path opacity="0.1" d="M50.9181 73.2432V75.5434L43.2908 75.3467V73.2432H50.9181Z" fill="black"/>
    <path d="M101.122 8.4425L91.9572 74.2785C91.8991 74.699 91.6881 75.0834 91.3644 75.3582C91.0408 75.6329 90.6273 75.7788 90.2029 75.7679L16.8199 73.865L15.4269 73.8289C15.1843 73.8232 14.9457 73.7663 14.7266 73.6622C14.5075 73.558 14.3128 73.4088 14.1552 73.2244C13.9977 73.0399 13.8808 72.8243 13.8121 72.5916C13.7435 72.3589 13.7246 72.1144 13.7569 71.8739L24.0458 2.95484C24.1121 2.52794 24.3361 2.14141 24.6735 1.87162C25.0109 1.60183 25.4373 1.46838 25.8683 1.49761L99.5163 6.48348C99.7539 6.49725 99.9861 6.56012 100.198 6.66814C100.41 6.77615 100.598 6.92696 100.749 7.11103C100.899 7.29511 101.011 7.50847 101.075 7.73763C101.139 7.9668 101.155 8.20681 101.122 8.4425Z" fill="#65617D"/>
    <path d="M28.9714 6.33887L21.2115 67.0886L88.6533 69.2283L96.9471 10.6182L28.9714 6.33887Z" fill="#9A5E94"/>
    <path d="M192.763 5.39941H114.88C113.698 5.39941 112.74 6.35738 112.74 7.53909V72.8412C112.74 74.0229 113.698 74.9809 114.88 74.9809H192.763C193.944 74.9809 194.902 74.0229 194.902 72.8412V7.53909C194.902 6.35738 193.944 5.39941 192.763 5.39941Z" fill="#65617D"/>
    <path d="M191.285 10.0845H116.618V68.0242H191.285V10.0845Z" fill="#9A5E94"/>
    <path opacity="0.1" d="M256.186 72.0386V73.56L248.558 73.7166V72.0386H256.186Z" fill="black"/>
    <path d="M290.601 70.754C290.612 70.9203 290.589 71.0871 290.534 71.2444C290.479 71.4017 290.392 71.5461 290.28 71.6691C290.167 71.7921 290.031 71.8911 289.879 71.9601C289.728 72.0291 289.564 72.0668 289.397 72.0707L214.248 73.6243C213.935 73.6308 213.632 73.5189 213.399 73.3111C213.166 73.1034 213.02 72.8151 212.991 72.5043L206.532 5.35155C206.516 5.18495 206.534 5.01685 206.585 4.85742C206.636 4.698 206.719 4.55057 206.828 4.42408C206.938 4.29759 207.072 4.19466 207.223 4.12155C207.373 4.04843 207.537 4.00664 207.704 3.99871L282.283 0.289413L283.086 0.249267C283.405 0.232452 283.719 0.340279 283.96 0.549991C284.201 0.759703 284.351 1.05491 284.379 1.3733L290.601 70.754Z" fill="#65617D"/>
    <path d="M210.823 7.94468L278.935 4.59668L284.688 65.6154L217.114 67.2212L210.823 7.94468Z" fill="#9A5E94"/>
    <path opacity="0.1" d="M290.601 70.754C290.612 70.9203 290.589 71.0872 290.534 71.2444C290.479 71.4017 290.392 71.5461 290.28 71.6691C290.167 71.7921 290.031 71.8911 289.879 71.9601C289.728 72.0291 289.564 72.0668 289.397 72.0707L282.283 0.289413L283.086 0.249267C283.405 0.232452 283.719 0.340279 283.96 0.549991C284.201 0.759704 284.351 1.05491 284.379 1.3733L290.601 70.754Z" fill="black"/>
    <path opacity="0.1" d="M25.8803 1.49353L16.8199 73.865L15.4269 73.8288C15.1843 73.8231 14.9457 73.7663 14.7266 73.6621C14.5075 73.558 14.3128 73.4088 14.1552 73.2243C13.9977 73.0398 13.8808 72.8242 13.8121 72.5915C13.7435 72.3588 13.7246 72.1143 13.7569 71.8738L24.0458 2.95478C24.1113 2.52492 24.3367 2.13564 24.6768 1.86474C25.0169 1.59383 25.4467 1.46126 25.8803 1.49353Z" fill="black"/>
    <path opacity="0.1" d="M50.9181 89.5371H43.2908V96.3937H50.9181V89.5371Z" fill="black"/>
    <path opacity="0.1" d="M78.0154 160.688V162.684L59.0795 163.189V160.688H78.0154Z" fill="black"/>
    <path d="M111.435 91.9255V159.448C111.43 159.86 111.267 160.254 110.979 160.549C110.692 160.845 110.301 161.018 109.889 161.033L32.9537 163.081H32.9336C32.5147 163.075 32.1143 162.907 31.8181 162.61C31.5218 162.314 31.3531 161.914 31.3479 161.495V91.9255C31.3531 91.5066 31.5218 91.1063 31.8181 90.81C32.1143 90.5138 32.5147 90.345 32.9336 90.3398H109.849C110.268 90.345 110.669 90.5138 110.965 90.81C111.261 91.1063 111.43 91.5066 111.435 91.9255Z" fill="#65617D"/>
    <path opacity="0.1" d="M32.9537 90.3398V163.081H32.9336C32.5147 163.075 32.1143 162.907 31.8181 162.61C31.5218 162.314 31.3531 161.914 31.3479 161.495V91.9255C31.3531 91.5066 31.5218 91.1063 31.8181 90.81C32.1143 90.5138 32.5147 90.345 32.9336 90.3398H32.9537Z" fill="black"/>
    <path d="M36.4663 94.6519H107.722V154.165L36.4663 155.771V94.6519Z" fill="#D4DFEC"/>
    <path opacity="0.1" d="M256.186 89.5371H248.558V96.5302H256.186V89.5371Z" fill="black"/>
    <path opacity="0.1" d="M249.831 160.688V163.262L230.895 162.756V160.688H249.831Z" fill="black"/>
    <path d="M274.821 91.9255V161.495C274.815 161.917 274.644 162.321 274.343 162.617C274.043 162.914 273.637 163.081 273.215 163.081L196.263 161.033C195.851 161.018 195.461 160.845 195.173 160.549C194.886 160.254 194.722 159.86 194.717 159.448V91.9255C194.723 91.5066 194.891 91.1063 195.188 90.81C195.484 90.5138 195.884 90.345 196.303 90.3398H273.219C273.641 90.3409 274.045 90.5078 274.345 90.8044C274.644 91.1011 274.815 91.5038 274.821 91.9255Z" fill="#65617D"/>
    <path opacity="0.1" d="M274.821 91.9255V161.495C274.815 161.917 274.644 162.321 274.343 162.617C274.043 162.914 273.637 163.081 273.215 163.081V90.3398C273.637 90.3398 274.043 90.5062 274.343 90.803C274.644 91.0999 274.815 91.5031 274.821 91.9255Z" fill="black"/>
    <path d="M269.702 94.6519H198.447V154.165L269.702 155.771V94.6519Z" fill="#D4DFEC"/>
    <path d="M192.727 91.9255V159.448C192.722 159.86 192.558 160.254 192.271 160.549C191.983 160.845 191.593 161.018 191.181 161.033L114.245 163.081C113.823 163.081 113.417 162.914 113.117 162.617C112.816 162.321 112.645 161.917 112.639 161.495V91.9255C112.645 91.5066 112.813 91.1063 113.11 90.81C113.406 90.5138 113.806 90.345 114.225 90.3398H191.141C191.56 90.345 191.96 90.5138 192.256 90.81C192.553 91.1063 192.721 91.5066 192.727 91.9255Z" fill="#65617D"/>
    <path d="M117.758 94.6519H189.013V154.165L117.758 155.771V94.6519Z" fill="#D4DFEC"/>
    <path opacity="0.1" d="M304.828 180.76V185.979L243.842 186.541L243.191 186.553L220.012 186.766L219.458 186.774L212.413 186.834H212.204L169.258 187.231L98.7616 187.886H98.7014L80.7772 188.054L80.5845 188.058L0.938965 188.789V182.767L82.2344 182.234H82.4271L98.8821 182.121H98.9583L212.598 181.37H212.714L212.782 181.366H212.971L214.894 181.354H215.48L245.383 181.154L247.15 181.146L247.543 181.142L304.828 180.76Z" fill="black"/>
    <path d="M153.952 96.3939C165.332 96.3939 174.557 87.1683 174.557 75.788C174.557 64.4077 165.332 55.1821 153.952 55.1821C142.571 55.1821 133.346 64.4077 133.346 75.788C133.346 87.1683 142.571 96.3939 153.952 96.3939Z" fill="#FBBEBE"/>
    <path d="M174.562 117.939C174.562 117.939 134.618 122.756 138.432 117.939C139.813 116.196 140.194 111.034 140.118 105.153C140.094 103.366 140.03 101.516 139.937 99.6732C139.496 90.8415 138.432 82.2106 138.432 82.2106C138.432 82.2106 173.357 65.7516 169.343 78.7983C167.737 84.0692 168.263 91.4718 169.483 98.4207C169.841 100.448 170.254 102.435 170.688 104.322C171.746 108.924 173.039 113.469 174.562 117.939Z" fill="#FBBEBE"/>
    <path opacity="0.1" d="M174.562 117.939C174.562 117.939 134.618 122.756 138.432 117.939C139.813 116.197 140.194 111.034 140.118 105.153C146.208 102.552 153.956 104.491 153.956 104.491C162.113 102.865 167.344 103.182 170.688 104.322C171.746 108.924 173.039 113.469 174.562 117.939Z" fill="black"/>
    <path d="M98.7458 188.339V188.002L169.247 187.235L212.201 186.834H212.321L212.277 187.428L212.337 186.834H212.413V186.765L212.963 181.366L213.172 179.323L213.236 178.684L213.292 178.15L215.773 169.877L218.254 161.615L220.342 154.658L223.529 144.028C223.529 144.028 221.723 139.813 220.719 138.609C219.715 137.404 218.712 129.175 218.712 129.175C218.712 129.175 210.145 121.014 206.4 120.074C204.83 119.673 201.731 119.139 198.439 118.469C197.207 118.22 195.942 117.955 194.726 117.666C194.039 117.509 193.365 117.345 192.719 117.18C191.461 116.866 190.221 116.482 189.005 116.032C188.368 115.8 187.761 115.492 187.199 115.113C184.248 112.949 176.854 112.704 176.569 112.704C176.568 112.695 176.568 112.685 176.569 112.676V112.64C176.579 112.471 176.579 112.302 176.569 112.134C176.569 111.973 176.569 111.785 176.533 111.572C176.533 111.508 176.533 111.439 176.505 111.371C176.484 111.227 176.46 111.074 176.424 110.913C176.412 110.842 176.396 110.771 176.376 110.701C176.26 110.217 176.092 109.747 175.874 109.3C175.846 109.235 175.81 109.167 175.778 109.103C175.581 108.732 175.353 108.379 175.095 108.047C175.043 107.979 174.987 107.907 174.927 107.838C174.598 107.451 174.232 107.096 173.835 106.779C173.727 106.694 173.614 106.606 173.498 106.526C173.433 106.473 173.364 106.425 173.293 106.381L172.936 106.148L172.603 105.956C172.31 105.795 172 105.639 171.663 105.49C171.559 105.442 171.446 105.398 171.334 105.354C171.222 105.309 171.045 105.241 170.896 105.185H170.872L170.571 105.064C170.342 104.988 170.11 104.92 169.865 104.852L169.491 104.755L169.09 104.663L168.689 104.579C168.287 104.498 167.858 104.426 167.408 104.37L166.95 104.314L166.481 104.266L165.995 104.225L165.304 104.185L164.502 104.157C160.961 104.157 157.43 104.532 153.968 105.277C151.563 104.742 149.1 104.515 146.637 104.603H146.288L145.887 104.627H145.63L145.112 104.675C144.939 104.675 144.763 104.711 144.59 104.735C144.418 104.759 144.237 104.779 144.064 104.808L143.799 104.852C143.538 104.896 143.273 104.944 142.996 105C142.908 105.016 142.82 105.036 142.731 105.06C142.382 105.137 142.033 105.229 141.688 105.333C141.515 105.382 141.342 105.438 141.17 105.498C141.082 105.522 140.997 105.554 140.913 105.586L140.656 105.679L140.403 105.779L140.102 105.899C139.949 105.964 139.801 106.032 139.652 106.104C139.568 106.14 139.484 106.18 139.404 106.225C139.323 106.269 139.239 106.305 139.163 106.349C138.255 106.818 137.416 107.41 136.67 108.107L136.465 108.304L136.264 108.509C136.196 108.577 136.132 108.649 136.068 108.722C135.806 109.008 135.562 109.309 135.337 109.625C135.273 109.709 135.213 109.793 135.152 109.882C134.898 110.257 134.667 110.649 134.462 111.054C134.41 111.15 134.361 111.251 134.313 111.347C133.986 112.025 133.717 112.73 133.51 113.455C133.435 113.722 133.367 113.99 133.306 114.257C133.306 114.257 124.807 118.007 117.758 120.721C115.883 121.443 114.117 122.098 112.64 122.591C112.21 122.736 111.809 122.868 111.435 122.993C110.625 123.286 109.783 123.48 108.926 123.571C108.523 123.577 108.12 123.615 107.722 123.683C104.482 124.209 98.9304 126.493 98.3243 128.786C98.2751 128.969 98.2614 129.159 98.2841 129.348C98.2841 129.348 98.2841 129.376 98.2841 129.392C98.6856 132.202 95.8755 131.8 95.8755 131.8C95.8755 131.8 94.8719 139.227 93.4669 141.234C92.4512 142.679 91.7567 145.903 91.6684 148.336C91.6179 149.094 91.6774 149.855 91.8451 150.596C91.8451 150.616 91.8451 150.636 91.8451 150.652C92.0056 151.19 91.6202 152.659 90.9659 154.542C90.2554 156.609 89.2196 159.178 88.2241 161.603C86.7227 165.264 85.3096 168.588 85.2213 169.319C85.1852 169.644 85.0808 170.226 84.9363 170.977C84.3502 174.036 83.0495 179.861 82.4072 182.217C81.9295 183.975 81.235 186.384 80.7573 188.038C80.7573 188.086 80.7292 188.134 80.7172 188.178L98.7137 188.002V188.339H98.7699H98.7458Z" fill="#9A5E94"/>
    <path opacity="0.1" d="M105.313 141.022C105.313 141.022 128.195 152.864 136.425 151.459L105.313 141.022Z" fill="black"/>
    <path opacity="0.1" d="M151.88 136.205C151.88 136.205 174.16 143.43 181.587 144.434C189.013 145.438 151.88 136.205 151.88 136.205Z" fill="black"/>
    <path opacity="0.1" d="M176.593 112.953C164.951 115.096 143.032 114.635 133.558 114.31C137.031 101.865 153.964 106.096 153.964 106.096C174.923 101.913 176.529 110.592 176.593 112.953Z" fill="black"/>
    <path d="M176.593 112.15C164.951 114.294 143.032 113.832 133.558 113.507C137.031 101.062 153.964 105.293 153.964 105.293C174.923 101.11 176.529 109.789 176.593 112.15Z" fill="#9A5E94"/>
    <path d="M238.39 167.015C238.39 167.015 252.103 164.907 252.372 170.929C252.641 176.951 245.379 181.158 245.379 181.158L238.39 167.015Z" fill="#FBBEBE"/>
    <path opacity="0.1" d="M169.483 98.4207C168.893 98.6843 168.29 98.9174 167.677 99.1192C163.349 100.613 158.986 102.118 154.429 102.664C149.873 103.21 145.092 102.728 141.118 100.456C140.7 100.22 140.298 99.9588 139.913 99.6732C139.472 90.8415 138.408 82.2106 138.408 82.2106C138.408 82.2106 173.333 65.7516 169.319 78.7983C167.721 84.0692 168.263 91.4718 169.483 98.4207Z" fill="black"/>
    <path d="M148.299 43.5802C147.726 43.7315 147.126 43.7468 146.546 43.6249C145.966 43.5029 145.423 43.247 144.959 42.8777L145.794 44.0379C145.302 44.0947 144.804 44.0432 144.334 43.8872C143.863 43.7312 143.433 43.4744 143.073 43.1346C142.997 44.1732 143.04 45.217 143.201 46.2458C141.819 46.3124 140.459 45.8856 139.363 45.0415C139.342 45.4036 139.432 45.7636 139.621 46.073C139.811 46.3824 140.091 46.6262 140.423 46.7717C139.035 46.6059 137.634 46.9507 136.482 47.7418C135.33 48.5329 134.505 49.7163 134.161 51.0711L136.256 51.2638C134.609 51.6155 133.131 52.5174 132.065 53.8209C131.423 54.6238 130.933 55.6515 131.214 56.631C131.495 57.6105 132.852 58.2368 133.591 57.5383C132.54 58.7923 131.776 60.2611 131.353 61.8415C130.93 63.422 130.858 65.0758 131.142 66.6871C131.332 67.3736 131.395 68.0894 131.326 68.7986C131.194 69.461 130.776 70.0351 130.568 70.6814C130.166 71.8536 130.548 73.1261 130.905 74.2943L132.788 80.4845C133.47 82.7205 134.149 84.9606 135.04 87.1243C135.671 88.4923 136.207 89.902 136.646 91.3435C137.151 93.2864 137.171 95.414 138.251 97.1121C138.991 98.1807 139.981 99.0529 141.134 99.6532C145.104 101.925 149.901 102.407 154.445 101.861C158.99 101.315 163.349 99.8098 167.673 98.3165C168.633 98.0271 169.555 97.6228 170.419 97.1121C173.409 95.1531 174.076 91.1468 174.634 87.6181C175.256 83.684 176.087 79.7579 177.56 76.0566C178.435 73.8527 179.567 71.6167 179.375 69.2563C179.13 66.121 176.649 63.5799 176.035 60.4969C175.829 59.4663 175.839 58.4044 176.063 57.3777C176.253 56.766 176.36 56.1313 176.38 55.4909C176.312 54.1983 175.252 53.2027 174.256 52.3717C172.097 50.5679 169.867 48.8632 167.568 47.2574C167.452 46.4545 168.544 46.1093 169.038 45.475C169.736 44.5798 169.014 43.1587 167.954 42.7412C166.894 42.3237 165.706 42.5967 164.602 42.8737C164.674 42.3086 164.561 41.7354 164.281 41.2394C164.001 40.7433 163.569 40.3508 163.048 40.1204C162.527 39.8899 161.945 39.8337 161.39 39.9602C160.835 40.0867 160.335 40.3891 159.965 40.8223C159.672 40.1501 159.204 39.5689 158.609 39.1396C158.014 38.7102 157.315 38.4484 156.585 38.3816C153.923 38.1728 153.871 40.2081 152.169 41.3282C150.467 42.4482 149.062 40.9709 147.753 39.895C147.513 40.5032 147.437 41.1639 147.533 41.8108C147.628 42.4577 147.893 43.0679 148.299 43.5802Z" fill="#3F3D56"/>
    <path d="M248.558 179.058C248.558 179.058 248.201 179.909 247.543 181.141C246.547 183.037 245.334 184.811 243.93 186.428L243.821 186.545H243.171L219.992 186.757H219.438L219.37 186.677L214.874 181.342L213.18 179.331L213.111 179.246L212.967 179.078L212.887 178.981L212.782 178.857L209.486 174.947L210.691 169.929L212.742 161.475L212.794 161.27L213.196 159.664L213.481 158.46L214.436 154.534L217.712 141.025L223.533 144.036L229.671 154.875L232.966 160.696H234.773C235.114 160.696 235.897 161.354 236.684 162.113C236.965 162.382 237.246 162.667 237.487 162.916C238.201 163.655 238.767 164.289 238.767 164.289C238.767 164.289 241.694 164.353 242.481 166.657C242.521 166.769 242.555 166.883 242.581 166.999C242.842 167.904 243.182 168.785 243.597 169.632C244.114 170.76 244.765 172.041 245.423 173.321C246.648 175.67 247.892 177.906 248.35 178.716L248.406 178.817L248.558 179.058Z" fill="#9A5E94"/>
    <path opacity="0.1" d="M214.075 160.933L214.035 161.507V161.547L213.967 162.471L213.433 169.901L212.787 178.853L212.602 181.375L212.2 186.77V186.838L169.246 187.24L98.7577 188.002V188.339H98.7015V188.002V187.89L98.8822 182.125L99.2274 170.861L99.5245 161.311L99.5526 160.359C99.5702 159.785 99.7046 159.22 99.9477 158.7C100.191 158.179 100.537 157.714 100.966 157.332C101.396 156.949 101.898 156.659 102.443 156.477C102.988 156.296 103.565 156.228 104.137 156.277C106.032 156.437 108.493 156.634 111.435 156.843L112.64 156.931C129.632 158.111 161.037 159.637 192.727 157.734C193.393 157.698 194.063 157.657 194.734 157.609C199.647 157.3 204.557 156.903 209.418 156.405C210.033 156.341 210.654 156.412 211.238 156.613C211.822 156.815 212.355 157.142 212.799 157.572C213.243 158.002 213.587 158.524 213.808 159.101C214.028 159.678 214.12 160.297 214.075 160.913V160.933Z" fill="black"/>
    <path d="M98.7456 188.339V188.002L169.246 187.235L212.2 186.834H212.321V186.765L212.722 181.37L212.895 178.961L213.553 169.885L214.071 162.699V162.523C214.095 162.191 214.08 161.859 214.027 161.531C214.029 161.518 214.029 161.504 214.027 161.491C213.917 160.813 213.641 160.173 213.224 159.628C212.782 159.061 212.203 158.616 211.541 158.335C210.88 158.055 210.157 157.947 209.442 158.022C204.581 158.52 199.671 158.918 194.758 159.227C194.087 159.275 193.417 159.315 192.751 159.351C161.061 161.234 129.656 159.708 112.664 158.548L111.459 158.46C108.517 158.251 106.056 158.058 104.161 157.894C103.119 157.806 102.081 158.107 101.247 158.74C100.414 159.372 99.8446 160.291 99.6488 161.318C99.6083 161.536 99.5842 161.756 99.5766 161.977L99.3036 170.872L98.9303 182.141L98.7536 187.905V188.018V188.355L98.7456 188.339Z" fill="#3F3D56"/>
    <path opacity="0.1" d="M214.196 163.747L213.702 169.901L212.967 179.074L212.782 181.37L212.381 186.513L212.357 186.77V186.838L212.297 187.432L212.341 186.838H212.224L169.27 187.239L98.7577 188.002V187.89L98.9544 182.125L99.3558 170.861L99.6128 163.374C99.6254 162.948 99.7444 162.532 99.959 162.164C100.174 161.796 100.477 161.487 100.841 161.266C101.296 160.988 101.827 160.861 102.359 160.905C103.202 160.973 104.237 161.054 105.446 161.142C107.409 161.286 109.829 161.455 112.647 161.632C117.866 161.961 124.414 162.314 131.917 162.603C152.791 163.406 180.972 163.675 207.74 161.331C208.945 161.226 210.189 161.11 211.406 160.993C211.887 160.945 212.372 161.037 212.803 161.258C212.924 161.319 213.04 161.392 213.148 161.475C213.497 161.728 213.774 162.069 213.951 162.463C213.992 162.541 214.025 162.623 214.051 162.707C214.172 163.04 214.221 163.394 214.196 163.747Z" fill="black"/>
    <path opacity="0.1" d="M78.0154 169.243V170.523C78.0156 170.989 77.8837 171.445 77.635 171.839C77.3862 172.232 77.0309 172.547 76.6103 172.747L60.5126 173.056C60.0846 172.86 59.7219 172.545 59.4679 172.149C59.2138 171.752 59.079 171.291 59.0795 170.82V169.616L78.0154 169.243Z" fill="black"/>
    <path d="M78.2159 173.502L57.2407 173.903V170.423L78.2159 170.021V173.502Z" fill="#3F3D56"/>
    <path opacity="0.1" d="M78.2159 173.502L57.2407 173.903V170.423L78.2159 170.021V173.502Z" fill="black"/>
    <path d="M79.0189 173.502L58.0437 173.903V170.423L79.0189 170.021V173.502Z" fill="#3F3D56"/>
    <g opacity="0.1">
        <path opacity="0.1" d="M148.464 42.2637C148.072 41.7541 147.811 41.1557 147.705 40.5215C147.608 41.1415 147.666 41.7758 147.874 42.3681C148.073 42.3497 148.27 42.3148 148.464 42.2637Z" fill="black"/>
        <path opacity="0.1" d="M143.366 44.9292C143.29 44.437 143.24 43.9412 143.217 43.4438C143.217 43.9376 143.217 44.4354 143.217 44.9332L143.366 44.9292Z" fill="black"/>
        <path opacity="0.1" d="M176.083 58.3257C176.105 57.9681 176.153 57.6125 176.227 57.2619C176.417 56.6513 176.525 56.0182 176.549 55.3791C176.54 55.2357 176.518 55.0933 176.484 54.9536C176.416 55.3229 176.308 55.6923 176.227 56.0576C176.067 56.8023 176.018 57.5667 176.083 58.3257Z" fill="black"/>
        <path opacity="0.1" d="M167.733 45.9206L168.171 46.2377C168.539 45.9709 168.885 45.6727 169.202 45.3465C169.353 45.1376 169.447 44.8927 169.474 44.6362C169.5 44.3798 169.459 44.1209 169.355 43.8853C169.315 43.9769 169.264 44.0632 169.202 44.1422C168.709 44.7764 167.617 45.1257 167.733 45.9206Z" fill="black"/>
        <path opacity="0.1" d="M134.747 49.7827C134.6 50.0755 134.483 50.3821 134.398 50.698C135.026 50.3475 135.702 50.0918 136.405 49.9393L134.747 49.7827Z" fill="black"/>
        <path opacity="0.1" d="M140.283 45.4152C140.019 45.2699 139.767 45.1048 139.528 44.9214C139.518 45.0802 139.53 45.2396 139.564 45.3951C139.804 45.3837 140.044 45.3904 140.283 45.4152Z" fill="black"/>
        <path opacity="0.1" d="M179.531 69.0679C179.367 71.0149 178.459 72.8896 177.725 74.7362C176.252 78.4375 175.421 82.3635 174.798 86.3017C174.24 89.8303 173.594 93.8367 170.583 95.7917C169.723 96.3056 168.802 96.7102 167.841 96.996C163.514 98.4934 159.15 99.9947 154.594 100.541C150.038 101.087 145.256 100.609 141.282 98.3368C140.13 97.7355 139.141 96.8635 138.4 95.7957C137.328 94.0976 137.308 91.97 136.794 90.027C136.356 88.5843 135.819 87.1732 135.188 85.8039C134.301 83.6441 133.619 81.388 132.94 79.1681C132.311 77.1047 131.684 75.04 131.058 72.9739C130.851 72.3524 130.698 71.7145 130.6 71.067C130.443 72.0947 130.748 73.1706 131.058 74.1782C131.684 76.2469 132.311 78.3117 132.94 80.3724C133.619 82.6084 134.301 84.8484 135.188 87.0082C135.819 88.3776 136.356 89.7886 136.794 91.2313C137.3 93.1743 137.32 95.3019 138.4 97C139.141 98.0679 140.13 98.9399 141.282 99.5411C145.256 101.813 150.05 102.291 154.594 101.745C159.138 101.199 163.498 99.6977 167.841 98.2003C168.802 97.9145 169.723 97.5099 170.583 96.996C173.574 95.041 174.24 91.0346 174.798 87.506C175.421 83.5679 176.252 79.6418 177.725 75.9405C178.6 73.7406 179.732 71.5046 179.539 69.1401C179.539 69.1161 179.531 69.092 179.531 69.0679Z" fill="black"/>
        <path opacity="0.1" d="M131.483 67.5143C131.483 67.5143 131.483 67.4862 131.483 67.4701C131.555 66.7622 131.493 66.0471 131.298 65.3626C131.218 64.922 131.166 64.4769 131.142 64.0298C131.096 64.8787 131.148 65.7301 131.298 66.5669C131.363 66.88 131.435 67.1971 131.483 67.5143Z" fill="black"/>
        <path opacity="0.1" d="M132.707 57.6948C133.016 57.1761 133.367 56.6834 133.755 56.2215C133.021 56.924 131.664 56.2978 131.379 55.3223C131.274 55.7168 131.274 56.132 131.379 56.5266C131.478 56.8212 131.653 57.0844 131.886 57.2895C132.119 57.4947 132.403 57.6345 132.707 57.6948Z" fill="black"/>
    </g>
    <path opacity="0.1" d="M232.971 160.692C232.971 160.692 234.243 165.309 232.971 169.323C231.698 173.338 232.971 160.692 232.971 160.692Z" fill="black"/>
    <path opacity="0.1" d="M238.39 165.401C238.39 165.401 238.924 171.262 237.72 172.302C236.515 173.341 238.39 165.401 238.39 165.401Z" fill="black"/>
    <path d="M38.2286 104.17L79.0189 103.768" stroke="#9A5E94" stroke-width="2" stroke-miterlimit="10"/>
    <path d="M38.2286 109.176L79.0189 108.778" stroke="#9A5E94" stroke-width="2" stroke-miterlimit="10"/>
    <path d="M38.2286 114.185L79.0189 113.784" stroke="#9A5E94" stroke-width="2" stroke-miterlimit="10"/>
</svg>