<svg width="312" height="246" viewBox="0 0 312 246" fill="none" xmlns="http://www.w3.org/2000/svg">
<path opacity="0.1" d="M150.5 243.036C221.469 243.036 279 239.719 279 235.626C279 231.534 221.469 228.217 150.5 228.217C79.5314 228.217 22 231.534 22 235.626C22 239.719 79.5314 243.036 150.5 243.036Z" fill="#4C4981"/>
<path d="M123.847 91.7034L123.518 92.3741L121.387 96.7028L99.0392 142.079L61.1168 233.959L55.6963 234.001L93.6396 142.079L119.496 89.573L121.387 90.4978L123.518 91.5409L123.847 91.7034Z" fill="#535461"/>
<path d="M190.38 234.001L185.918 233.959L147.993 142.079L126.233 97.8936L123.517 92.3741L123.186 91.7034L123.517 91.5409L126.233 90.2112L127.539 89.573L153.007 142.079L190.38 234.001Z" fill="#535461"/>
<path d="M126.236 77.2312H121.387V234.001H126.236V77.2312Z" fill="#535461"/>
<path d="M123.258 51.4036C121.622 51.4051 120.053 52.0485 118.896 53.1924C117.74 54.3363 117.089 55.8874 117.087 57.5051V59.6857C117.069 60.4985 117.216 61.3066 117.518 62.0627C117.82 62.8188 118.271 63.5077 118.846 64.0888C119.421 64.6699 120.108 65.1317 120.866 65.4469C121.623 65.7621 122.437 65.9245 123.259 65.9245C124.082 65.9245 124.895 65.7621 125.653 65.4469C126.411 65.1317 127.098 64.6699 127.672 64.0888C128.247 63.5077 128.699 62.8188 129.001 62.0627C129.303 61.3066 129.449 60.4985 129.431 59.6857V57.5051C129.429 55.8871 128.778 54.336 127.62 53.1922C126.463 52.0484 124.894 51.4051 123.258 51.4036V51.4036ZM127.887 59.6768C127.887 60.8915 127.399 62.0564 126.53 62.9153C125.661 63.7742 124.483 64.2567 123.255 64.2567C122.027 64.2567 120.848 63.7742 119.98 62.9153C119.111 62.0564 118.623 60.8915 118.623 59.6768V57.4962C118.623 56.2816 119.111 55.1167 119.98 54.2578C120.848 53.3989 122.027 52.9164 123.255 52.9164C124.483 52.9164 125.661 53.3989 126.53 54.2578C127.399 55.1167 127.887 56.2816 127.887 57.4962V59.6768Z" fill="#535461"/>
<path opacity="0.1" d="M153.007 142.079H147.993L126.233 97.8937V142.079H121.386V96.7029L99.0382 142.079H93.6387L119.495 89.5732L121.386 90.498V77.2312H126.233V90.2114L127.539 89.5732L153.007 142.079Z" fill="black"/>
<path opacity="0.1" d="M129.431 57.7239V59.6858C129.449 60.4986 129.303 61.3067 129.001 62.0628C128.699 62.8189 128.247 63.5078 127.672 64.0889C127.098 64.67 126.411 65.1318 125.653 65.447C124.895 65.7622 124.082 65.9246 123.259 65.9246C122.437 65.9246 121.623 65.7622 120.866 65.447C120.108 65.1318 119.421 64.67 118.846 64.0889C118.271 63.5078 117.82 62.8189 117.518 62.0628C117.216 61.3067 117.069 60.4986 117.087 59.6858V57.7239H118.629V59.6858C118.629 60.9005 119.117 62.0654 119.986 62.9243C120.854 63.7832 122.033 64.2657 123.261 64.2657C124.489 64.2657 125.667 63.7832 126.536 62.9243C127.405 62.0654 127.893 60.9005 127.893 59.6858V57.7239H129.431Z" fill="black"/>
<path d="M216.502 58.1611H30.0156V141.426H216.502V58.1611Z" fill="#535461"/>
<path d="M212.756 60.7761H33.3242V136.63H212.756V60.7761Z" fill="white"/>
<g opacity="0.2">
<path opacity="0.2" d="M59.5263 69.0227H51.043V72.8432H59.5263V69.0227Z" fill="#4C4981"/>
</g>
<g opacity="0.2">
<path opacity="0.2" d="M59.5263 76.4126H51.043V80.2331H59.5263V76.4126Z" fill="#4C4981"/>
</g>
<g opacity="0.2">
<path opacity="0.2" d="M59.5263 83.7996H51.043V87.62H59.5263V83.7996Z" fill="#4C4981"/>
</g>
<g opacity="0.2">
<path opacity="0.2" d="M59.5263 91.1863H51.043V95.0068H59.5263V91.1863Z" fill="#4C4981"/>
</g>
<g opacity="0.2">
<path opacity="0.2" d="M59.5263 98.5759H51.043V102.396H59.5263V98.5759Z" fill="#4C4981"/>
</g>
<g opacity="0.2">
<path opacity="0.2" d="M59.5263 105.963H51.043V109.783H59.5263V105.963Z" fill="#4C4981"/>
</g>
<g opacity="0.2">
<path opacity="0.2" d="M59.5263 113.35H51.043V117.17H59.5263V113.35Z" fill="#4C4981"/>
</g>
<g opacity="0.2">
<path opacity="0.2" d="M59.5263 120.737H51.043V124.557H59.5263V120.737Z" fill="#4C4981"/>
</g>
<g opacity="0.2">
<path opacity="0.2" d="M75.4989 124.56H67.0156V128.381H75.4989V124.56Z" fill="#4C4981"/>
</g>
<g opacity="0.2">
<path opacity="0.2" d="M90.4413 124.56H81.958V128.381H90.4413V124.56Z" fill="#4C4981"/>
</g>
<g opacity="0.2">
<path opacity="0.2" d="M105.383 124.56H96.8994V128.381H105.383V124.56Z" fill="#4C4981"/>
</g>
<g opacity="0.2">
<path opacity="0.2" d="M120.326 124.56H111.843V128.381H120.326V124.56Z" fill="#4C4981"/>
</g>
<g opacity="0.2">
<path opacity="0.2" d="M135.267 124.56H126.783V128.381H135.267V124.56Z" fill="#4C4981"/>
</g>
<g opacity="0.2">
<path opacity="0.2" d="M150.211 124.56H141.728V128.381H150.211V124.56Z" fill="#4C4981"/>
</g>
<g opacity="0.2">
<path opacity="0.2" d="M165.151 124.56H156.668V128.381H165.151V124.56Z" fill="#4C4981"/>
</g>
<g opacity="0.2">
<path opacity="0.2" d="M180.095 124.56H171.611V128.381H180.095V124.56Z" fill="#4C4981"/>
</g>
<g opacity="0.2">
<path opacity="0.2" d="M195.036 124.56H186.553V128.381H195.036V124.56Z" fill="#4C4981"/>
</g>
<path d="M75.4989 96.7915H67.0156V120.737H75.4989V96.7915Z" fill="#4C4981"/>
<path d="M90.4413 85.7112H81.958V120.74H90.4413V85.7112Z" fill="#4C4981"/>
<path d="M105.383 76.4126H96.8994V120.74H105.383V76.4126Z" fill="#4C4981"/>
<path d="M120.326 81.2319H111.843V120.737H120.326V81.2319Z" fill="#4C4981"/>
<path d="M135.267 72.8462H126.783V120.74H135.267V72.8462Z" fill="#4C4981"/>
<g opacity="0.2">
<path opacity="0.2" d="M150.211 91.1863H141.728V120.737H150.211V91.1863Z" fill="#4C4981"/>
</g>
<g opacity="0.2">
<path opacity="0.2" d="M165.151 91.1863H156.668V120.737H165.151V91.1863Z" fill="#4C4981"/>
</g>
<g opacity="0.2">
<path opacity="0.2" d="M180.095 91.1863H171.611V120.737H180.095V91.1863Z" fill="#4C4981"/>
</g>
<g opacity="0.2">
<path opacity="0.2" d="M195.036 91.1863H186.553V120.737H195.036V91.1863Z" fill="#4C4981"/>
</g>
<path d="M185.578 91.1211L112.937 95.5414V96.9419L187.126 94.0315L185.578 91.1211Z" fill="#535461"/>
<path d="M271.582 120.302C271.582 120.302 275.383 114.121 274.373 104.424C273.363 94.7262 269.709 79.0306 269.709 79.0306C269.709 79.0306 271.296 70.2373 262.69 69.0022C262.69 69.0022 257.341 68.0182 253.516 65.6397C252.094 64.7533 250.884 63.6807 250.229 62.3895C250.229 62.3895 250.178 62.5342 250.08 62.8002C249.995 62.6672 249.917 62.5301 249.847 62.3895C249.847 62.3895 249.826 62.4426 249.793 62.5372L248.332 60.2857C248.332 60.2857 248.132 60.4955 247.794 60.8412C247.206 60.007 246.706 59.116 246.3 58.1819C246.663 58.0952 247.02 57.9826 247.367 57.8451C247.698 57.7366 247.997 57.5476 248.236 57.2955C248.446 57.008 248.581 56.6743 248.631 56.3234C248.863 55.2003 248.93 54.0497 248.828 52.9077C248.747 52.0213 248.565 51.1348 248.628 50.2337C248.693 49.2734 249.037 48.3456 249.085 47.3823C249.168 45.6863 248.317 44.073 247.265 42.7286C246.637 41.9279 245.932 41.1833 245.388 40.3264C244.916 39.5818 244.573 38.7604 244.065 38.0365C242.869 36.3523 240.876 35.3595 238.832 35.0079C236.789 34.6563 234.685 34.8749 232.638 35.2088C230.845 35.5043 229.052 35.9327 227.259 36.0361C225.694 36.1248 224.418 35.6018 222.983 36.6271C222.508 36.9734 222.114 37.4163 221.826 37.9259C221.539 38.4356 221.365 39.0002 221.316 39.5818C221.293 39.7798 221.308 39.9804 221.361 40.1728C221.445 40.3721 221.545 40.5647 221.66 40.7489C222.296 41.9899 221.328 43.4643 221.453 44.8501C221.53 45.4629 221.814 46.0321 222.258 46.4655C222.703 46.8989 223.283 47.1709 223.904 47.2375C223.847 47.3557 223.784 47.471 223.73 47.5921C222.937 49.365 222.58 51.2988 222.689 53.2347C222.798 55.1705 223.37 57.0531 224.358 58.7279C225.346 60.4027 226.721 61.8218 228.372 62.8687C230.022 63.9157 231.9 64.5605 233.851 64.7503L234.407 65.1728C235.662 66.1331 237.072 67.2825 238.432 68.5324L238.405 68.5531L238.184 68.429C237.77 68.7527 237.335 69.0488 236.881 69.3154C235.623 70.0777 233.594 71.0675 231.311 71.1798C231.311 71.1798 227.224 73.322 225.816 80.3868C223.796 82.1774 219.472 85.4099 213.759 86.252C205.73 87.4339 195.83 87.8209 195.83 87.8209C195.83 87.8209 195.75 87.9628 195.636 88.2228L194.722 88.0573C194.722 88.0573 194.722 88.1666 194.683 88.3528L194.324 88.1932C191.488 86.967 185.823 85.1794 185.106 90.105C184.144 96.7118 190.514 95.9524 190.514 95.9524C191.774 95.4791 193.065 95.0911 194.378 94.7912L194.734 94.7232C194.794 94.8955 194.878 95.0586 194.985 95.2078H195.851C196.152 95.8237 196.516 96.4077 196.936 96.9511L217.13 96.5138C217.13 96.5138 220.581 95.7692 223.766 96.2419C222.377 106.513 220.736 117.776 220.736 117.776C220.736 117.776 217.3 135.614 219.705 137.478C221.102 137.018 222.524 136.641 223.966 136.35C223.988 137.452 224.106 138.55 224.319 139.632L225.858 149.593C225.858 149.593 226.456 159.769 228.455 165.844L230.218 174.147L231.694 180.423L232.525 191.074C233.665 195.587 234.49 200.172 234.993 204.796C235.773 211.953 240.007 223.517 240.572 225.039C239.125 227.063 236.155 230.497 232.429 230.851C227.11 231.359 226.982 234.53 230.699 235.67C234.416 236.811 242.239 235.67 242.239 235.67L253.271 232.973C252.939 234.985 252.766 236.574 253.008 236.746C253.713 237.254 264.42 239.996 264.805 235.605C264.835 235.243 264.862 234.891 264.886 234.55C265.045 231.738 264.665 228.921 263.765 226.248C263.679 225.985 263.601 225.719 263.532 225.453C263.691 225.277 263.837 225.091 263.969 224.894C263.969 224.894 264.74 213.04 265.316 208.791C265.361 208.451 265.391 208.038 265.406 207.571C265.672 202.477 263.792 189.077 263.792 189.077C263.792 189.077 261.471 180.361 261.557 176.354C261.571 176.021 261.628 175.691 261.728 175.373C261.728 175.373 261.728 175.293 261.698 175.16C261.698 175.104 261.725 175.045 261.742 174.992C261.742 174.992 260.565 167.014 260.73 162.269C260.752 161.561 260.853 160.857 261.028 160.171C261.215 159.269 261.31 158.352 261.312 157.432C261.462 154.182 261.288 148.567 261.049 143.302C261.076 143.213 261.103 143.125 261.124 143.021C261.172 142.602 261.122 142.177 260.978 141.78C260.96 141.441 260.945 141.104 260.927 140.77C261.025 140.436 261.106 140.081 261.178 139.715H261.333V139.736C261.333 139.736 271.379 139.26 273.689 136.598C273.689 136.598 271.355 129.427 270.061 123.597L271.582 120.302ZM228.29 97.9971L228.132 97.9409C228.386 97.0545 228.688 96.0233 229.028 94.9419C228.739 96.1119 228.488 97.1756 228.29 97.9971ZM238.486 68.6003L238.531 68.6417L238.483 68.6151L238.486 68.6003ZM251.036 222.401C250.495 220.56 248.347 213.055 248.415 209.477C248.43 209.166 248.486 208.858 248.58 208.561C248.779 207.912 248.88 207.238 248.879 206.56C249.094 202.825 247.647 196.133 247.647 196.133C247.647 196.133 244.411 187.106 244.659 179.938C244.659 179.758 244.68 179.578 244.692 179.397C244.746 178.718 244.788 177.982 244.818 177.205V177.19C244.94 174.421 244.913 171.089 244.833 167.98L244.815 167.865C244.704 163.749 244.498 160.044 244.411 158.578C244.71 160.697 246.623 173.884 247.447 176.041C247.447 176.041 247.898 182.124 249.948 187.269L252.195 200.642C252.195 200.642 252.772 216.556 253.731 221.056C254.162 223.059 254.526 224.41 254.798 225.29C254.41 227.084 253.782 230.089 253.361 232.577C253.113 230.955 252.24 224.773 251.039 222.401H251.036Z" fill="url(#paint0_linear)"/>
<path d="M241.429 222.811C241.429 222.811 237.679 229.533 232.405 230.035C227.131 230.538 227.005 233.679 230.69 234.81C234.374 235.942 242.128 234.81 242.128 234.81L253.184 232.11C253.184 232.11 251.849 221.301 250.071 220.737C248.293 220.173 241.429 222.811 241.429 222.811Z" fill="#4C4C78"/>
<path d="M254.906 222.935C254.906 222.935 252.109 235.375 252.814 235.88C253.519 236.385 264.124 239.083 264.507 234.748C264.537 234.384 264.564 234.035 264.587 233.702C264.744 230.915 264.367 228.123 263.476 225.474C263.177 224.587 262.968 223.639 263.046 222.935C263.222 221.177 254.906 222.935 254.906 222.935Z" fill="#4C4C78"/>
<path d="M251.436 65.4448C251.436 65.4448 242.857 86.2816 244.384 79.5891C245.394 75.157 238.865 69.2682 234.35 65.8082C232.052 64.0353 230.277 62.9096 230.277 62.9096C230.277 62.9096 246.383 44.342 245.242 52.3523C244.929 54.5462 245.233 56.7829 246.12 58.8173C247.898 62.9953 251.436 65.4448 251.436 65.4448Z" fill="#FFB9B9"/>
<path d="M196.637 95.0453C196.183 94.93 195.442 95.0039 194.674 95.1664C193.373 95.4634 192.095 95.8475 190.846 96.3158C190.846 96.3158 184.532 97.0692 185.486 90.5215C186.194 85.6403 191.809 87.4132 194.62 88.6246C195.577 89.0412 196.21 89.3899 196.21 89.3899L196.637 95.0453Z" fill="#FFB9B9"/>
<path opacity="0.1" d="M196.638 95.0452C196.183 94.9299 195.442 95.0038 194.674 95.1663C193.987 93.4526 194.51 89.3898 194.621 88.6245C195.577 89.0411 196.21 89.3898 196.21 89.3898L196.638 95.0452Z" fill="black"/>
<path d="M196.664 88.793L195.011 88.4976C195.011 88.4976 194.166 94.1116 195.271 95.5889H197.172L196.664 88.793Z" fill="#CBCDDA"/>
<path d="M229.805 99.0372C229.805 99.0372 224.755 96.0499 224.152 99.8202C223.548 103.59 222.753 110.032 222.753 110.032L221.355 118.231L219.544 134.66L219.798 137.455C219.798 137.455 225.177 135.664 226.438 136.294C227.699 136.923 228.726 129.382 228.726 129.382L230.818 121.591L231.135 105.068L229.805 99.0372Z" fill="#4C4C78"/>
<path opacity="0.1" d="M229.805 99.0372C229.805 99.0372 224.755 96.0499 224.152 99.8202C223.548 103.59 222.753 110.032 222.753 110.032L221.355 118.231L219.544 134.66L219.798 137.455C219.798 137.455 225.177 135.664 226.438 136.294C227.699 136.923 228.726 129.382 228.726 129.382L230.818 121.591L231.135 105.068L229.805 99.0372Z" fill="black"/>
<path d="M227.083 79.6836C227.083 79.6836 221.842 85.5281 213.885 86.7041C205.927 87.8801 196.108 88.2612 196.108 88.2612C196.108 88.2612 193.631 92.6431 197.205 97.3086L217.226 96.8713C217.226 96.8713 221.657 95.9199 225.09 96.8713L227.083 79.6836Z" fill="#4C4C78"/>
<path opacity="0.05" d="M227.083 79.6836C227.083 79.6836 221.842 85.5281 213.885 86.7041C205.927 87.8801 196.108 88.2612 196.108 88.2612C196.108 88.2612 193.631 92.6431 197.205 97.3086L217.226 96.8713C217.226 96.8713 221.657 95.9199 225.09 96.8713L227.083 79.6836Z" fill="black"/>
<path opacity="0.1" d="M245.272 58.637C243.318 62.7737 239.92 65.8229 234.993 65.8229C234.774 65.8229 234.562 65.8229 234.35 65.8082C232.052 64.0353 230.277 62.9096 230.277 62.9096C230.277 62.9096 246.383 44.342 245.242 52.3523C244.889 54.8047 244.486 56.7962 245.272 58.637Z" fill="black"/>
<path d="M247.267 53.3035C247.266 55.7045 246.544 58.0511 245.194 60.0466C243.843 62.0421 241.925 63.5968 239.681 64.5143C237.437 65.4318 234.968 65.6708 232.587 65.2011C230.206 64.7314 228.019 63.5741 226.303 61.8755C224.587 60.1769 223.419 58.0132 222.946 55.6582C222.473 53.3031 222.717 50.8623 223.647 48.6444C224.577 46.4264 226.152 44.531 228.171 43.1977C230.19 41.8643 232.564 41.153 234.992 41.1536C236.606 41.1505 238.205 41.4627 239.696 42.0723C241.188 42.6819 242.543 43.577 243.683 44.706C244.824 45.835 245.728 47.1757 246.343 48.6511C246.958 50.1266 247.272 51.7076 247.267 53.3035Z" fill="#FFB9B9"/>
<path d="M254.771 127.497C254.771 127.497 227.388 129.887 226.384 126.43C225.38 122.973 229.178 113.613 229.178 113.613L227.941 100.544L227.896 100.045C227.896 100.045 231.326 85.9062 231.201 84.7775C231.081 83.761 236.723 71.8977 237.882 69.4719C238.02 69.1912 238.091 69.0375 238.091 69.0375L238.309 69.1616L238.405 69.2178L239.747 69.9919L245.045 68.7509L251.43 65.4446L252.028 101.614L254.771 127.497Z" fill="#CBCDDA"/>
<path opacity="0.1" d="M240.539 69.4747C240.539 69.4747 238.665 68.9724 237.933 70.825C237.647 71.6214 237.307 72.3982 236.917 73.1504L236.188 77.4525L234.852 84.2484L233.866 114.313L234.311 119.652L236.759 115.35L237.204 87.2475V83.752C237.347 80.7299 238.037 77.7576 239.242 74.9764L239.582 74.1875L241.71 71.4839L240.539 69.4747Z" fill="black"/>
<path d="M240.16 69.0965C240.16 69.0965 238.283 68.5942 237.554 70.4468C237.267 71.2435 236.927 72.0203 236.535 72.7722L235.806 77.0773L234.47 83.8732L233.487 113.938L233.933 119.28L236.38 114.963L236.825 86.8782V83.3738C236.971 80.3521 237.661 77.3803 238.863 74.5982L239.207 73.8093L241.334 71.1087L240.16 69.0965Z" fill="#4C4C78"/>
<path opacity="0.1" d="M248.165 61.3374C248.165 61.3374 241.683 68.1333 239.395 68.94C239.395 68.94 240.539 74.093 241.683 75.0976C241.683 75.0976 248.484 68.2397 249.689 67.6842L250.699 65.2406L248.165 61.3374Z" fill="black"/>
<path d="M248.165 60.9504C248.165 60.9504 241.683 67.7463 239.395 68.553C239.395 68.553 240.539 73.7061 241.683 74.7107C241.683 74.7107 248.484 67.8527 249.689 67.2972L250.699 64.8566L248.165 60.9504Z" fill="#CBCDDA"/>
<path opacity="0.1" d="M238.472 69.0376L238.406 69.2149L236.329 74.7196L232.615 85.1055C232.615 85.1055 232.582 85.2119 232.516 85.401C231.901 87.292 228.593 97.5538 227.941 100.535L227.896 100.036C227.896 100.036 231.327 85.8973 231.201 84.7686C231.082 83.7522 236.723 71.8889 237.883 69.4631C238.068 69.339 238.212 69.2326 238.31 69.1528L238.472 69.0376Z" fill="black"/>
<path d="M238.092 69.0347L235.946 74.7196L232.232 85.1055C232.232 85.1055 232.199 85.2119 232.133 85.401C231.482 87.4161 227.768 98.9189 227.469 101.023C227.131 103.333 222.461 115.823 222.461 115.823L219.792 137.449C217.402 135.614 220.796 117.947 220.796 117.947C220.796 117.947 224.609 91.7478 225.511 83.0313C226.414 74.3148 231.282 71.7678 231.282 71.7678C233.529 71.6555 235.555 70.6745 236.801 69.9211C237.251 69.6547 237.682 69.3585 238.092 69.0347V69.0347Z" fill="#4C4C78"/>
<path opacity="0.1" d="M265 208.17C264.429 212.381 263.667 224.126 263.667 224.126C260.998 228.082 255.088 225.946 255.088 225.946C255.088 225.946 254.454 224.764 253.501 220.291C252.548 215.817 251.977 200.06 251.977 200.06L249.751 186.822C247.719 181.731 247.274 175.701 247.274 175.701C246.378 173.375 244.223 158.108 244.223 158.108C244.223 158.108 245.12 171.803 244.543 179.031C243.966 186.258 247.462 195.982 247.462 195.982C247.462 195.982 249.434 205.095 248.415 207.922C247.397 210.75 250.958 222.433 250.958 222.433C250.66 225.828 240.542 224.445 240.542 224.445C240.542 224.445 235.782 211.814 234.948 204.211C234.448 199.63 233.631 195.089 232.501 190.619L231.676 180.062L230.212 173.822L228.467 165.593C226.495 159.562 225.894 149.477 225.894 149.477L224.367 139.582C223.369 134.689 224.666 128.945 225.526 125.94C225.9 124.637 226.199 123.842 226.199 123.842C227.074 124.457 232.088 125.178 234.682 125.763C236.102 126.086 237.561 126.202 239.015 126.105C245.572 125.591 252.059 124.414 258.375 122.595C258.802 122.468 259.029 122.394 259.029 122.394L259.164 123.526L259.481 126.221L260.045 131.004C260.045 131.004 261.76 156.513 260.744 159.961C259.729 163.409 261.444 175.03 261.444 175.03C260.491 177.787 263.476 188.991 263.476 188.991C263.476 188.991 265.573 203.96 265 208.17Z" fill="black"/>
<path d="M265 207.801C264.429 212.011 263.667 223.757 263.667 223.757C260.998 227.716 255.088 225.577 255.088 225.577C255.088 225.577 254.454 224.395 253.501 219.924C252.548 215.454 251.977 199.69 251.977 199.69L249.751 186.435C247.734 181.344 247.274 175.299 247.274 175.299C246.378 172.973 244.223 157.706 244.223 157.706C244.223 157.706 245.12 171.401 244.543 178.629C243.966 185.856 247.462 195.592 247.462 195.592C247.462 195.592 249.434 204.704 248.415 207.532C247.397 210.36 250.958 222.046 250.958 222.046C250.66 225.438 240.542 224.055 240.542 224.055C240.542 224.055 235.782 211.438 234.948 203.833C234.448 199.252 233.631 194.711 232.501 190.241L231.676 179.687L230.212 173.467L228.467 165.238C226.495 159.204 225.894 149.12 225.894 149.12L224.367 139.224C223.369 134.331 224.666 128.587 225.526 125.582C225.9 124.282 226.199 123.487 226.199 123.487C227.074 124.102 232.088 124.82 234.682 125.405C236.101 125.73 237.561 125.845 239.015 125.748C245.572 125.233 252.059 124.057 258.375 122.238L259.029 122.04L259.164 123.168L259.481 125.866L260.045 130.65C260.045 130.65 261.76 156.155 260.744 159.606C259.729 163.057 261.444 174.675 261.444 174.675C260.491 177.429 263.476 188.634 263.476 188.634C263.476 188.634 265.573 203.585 265 207.801Z" fill="#474463"/>
<path opacity="0.1" d="M247.268 53.3037C247.272 55.4268 246.711 57.5136 245.642 59.355C243.73 59.6889 241.695 59.3195 240.264 58.0697C239.284 57.2157 238.65 56.0486 237.808 55.0588C237.262 54.4505 236.676 53.8789 236.054 53.348C235.647 52.9475 235.18 52.6117 234.67 52.3522C234.413 52.224 234.13 52.1558 233.843 52.1527C233.555 52.1496 233.271 52.2118 233.012 52.3345C232.336 52.7068 232.115 53.5371 231.724 54.1989C231.429 54.7671 230.926 55.2019 230.316 55.4133C230.012 55.5097 229.684 55.5069 229.381 55.4053C229.078 55.3037 228.816 55.1087 228.634 54.849C228.219 54.1428 228.523 53.0407 227.827 52.6093C227.644 52.5196 227.454 52.4426 227.259 52.3788C226.363 51.977 226.258 50.7862 226.181 49.8112C226.142 49.3325 226.037 48.7918 225.631 48.5347C225.225 48.2776 224.69 48.4077 224.206 48.4165C224.062 48.4221 223.919 48.4112 223.778 48.384C224.919 45.8404 226.91 43.7615 229.416 42.4955C231.922 41.2295 234.792 40.8532 237.545 41.4295C240.298 42.0058 242.767 43.4998 244.539 45.6614C246.312 47.823 247.279 50.521 247.28 53.3037H247.268Z" fill="black"/>
<path d="M223.026 37.5134C222.554 37.8577 222.162 38.298 221.877 38.8046C221.592 39.3113 221.42 39.8725 221.373 40.4504C221.351 40.6436 221.366 40.8392 221.418 41.0266C221.502 41.2255 221.602 41.4173 221.717 41.5998C222.345 42.832 221.385 44.2916 221.508 45.6656C221.591 46.3146 221.909 46.9119 222.404 47.3465C222.898 47.7812 223.536 48.0238 224.197 48.0293C224.681 48.0293 225.213 47.8875 225.623 48.1475C226.032 48.4076 226.134 48.9453 226.172 49.424C226.25 50.3991 226.349 51.5898 227.248 51.9917C227.442 52.057 227.632 52.1339 227.816 52.2221C228.515 52.6535 228.21 53.7586 228.626 54.4618C228.808 54.7215 229.07 54.9165 229.373 55.0181C229.676 55.1197 230.003 55.1225 230.308 55.0262C230.916 54.8155 231.419 54.3818 231.712 53.8147C232.098 53.1499 232.328 52.3374 233.003 51.9503C233.262 51.8265 233.547 51.7634 233.834 51.766C234.122 51.7686 234.405 51.8367 234.662 51.9651C235.172 52.2256 235.639 52.5624 236.045 52.9638C236.669 53.494 237.255 54.0655 237.799 54.6746C238.642 55.6614 239.275 56.8286 240.255 57.6825C242.102 59.2869 244.929 59.4553 247.206 58.5305C247.535 58.4221 247.831 58.2354 248.069 57.9868C248.277 57.701 248.412 57.3693 248.461 57.0206C248.692 55.9083 248.759 54.7687 248.658 53.6374C248.577 52.751 248.395 51.8646 248.458 50.9782C248.521 50.0268 248.864 49.1078 248.912 48.1564C248.996 46.4722 248.15 44.8737 247.119 43.5411C246.498 42.7463 245.798 42.0105 245.261 41.1596C244.791 40.4209 244.451 39.6083 243.949 38.8933C242.771 37.2239 240.787 36.234 238.761 35.8883C236.735 35.5426 234.653 35.7553 232.624 36.0892C230.855 36.3847 229.074 36.8043 227.281 36.9077C225.712 37.017 224.448 36.494 223.026 37.5134Z" fill="#472727"/>
<path opacity="0.1" d="M238.092 69.0347L235.947 74.7196L232.232 85.1055C232.232 85.1055 232.2 85.2119 232.134 85.401V85.4158L236.807 69.9152C237.255 69.6504 237.684 69.3563 238.092 69.0347V69.0347Z" fill="black"/>
<path d="M261.285 134.095C261.285 134.095 261.506 140.974 259.633 142.702L254.646 133.404L258.829 131.392L261.285 134.095Z" fill="#FFB9B9"/>
<path opacity="0.1" d="M272.927 136.607C270.638 139.245 260.675 139.718 260.675 139.718L250.814 124.353C250.814 124.353 248.481 122.752 244.097 115.539C239.713 108.327 239.857 102.772 240.102 98.6234C240.347 94.4749 243.09 82.5526 243.09 82.5526C243.517 79.8697 249.664 63.0513 249.664 63.0513C250.309 64.3248 251.511 65.3885 252.915 66.266C256.71 68.6298 262.008 69.599 262.008 69.599C270.542 70.8252 268.967 79.5417 268.967 79.5417C268.967 79.5417 269.063 113.424 268.537 117.478C268.011 121.532 272.927 136.607 272.927 136.607Z" fill="black"/>
<path d="M261.414 135.413L261.127 137.927L257.664 136.672L255.124 132.869L257.03 131.392L261.414 135.413Z" fill="#CBCDDA"/>
<path opacity="0.1" d="M261.291 125.674L259.481 125.857L242.021 127.583C239.217 127.861 236.387 127.724 233.624 127.175L225.526 125.574C225.9 124.273 226.199 123.479 226.199 123.479C227.074 124.093 232.088 124.811 234.682 125.396C236.101 125.721 237.561 125.837 239.015 125.739C245.572 125.224 252.059 124.048 258.375 122.229L259.164 123.16L261.291 125.674Z" fill="black"/>
<g opacity="0.1">
<path opacity="0.1" d="M226.381 123.573C226.323 123.545 226.267 123.513 226.213 123.479C226.213 123.479 226.213 123.496 226.195 123.523L226.381 123.573Z" fill="black"/>
<path opacity="0.1" d="M263.49 188.631C263.49 188.631 260.502 177.426 261.458 174.672C261.458 174.672 259.743 163.06 260.762 159.603C261.781 156.146 260.06 130.647 260.06 130.647L259.495 125.863L259.178 123.165L259.047 122.037L258.389 122.235L257.983 122.353L258.034 122.79L258.35 125.485L258.915 130.269C258.915 130.269 260.63 155.777 259.617 159.225C258.604 162.673 260.314 174.294 260.314 174.294C259.36 177.051 262.345 188.252 262.345 188.252C262.345 188.252 264.437 203.209 263.872 207.417C263.308 211.624 262.537 223.372 262.537 223.372C260.588 226.265 256.91 225.905 255.066 225.5L255.099 225.571C255.099 225.571 261.01 227.71 263.678 223.751C263.678 223.751 264.44 212 265.014 207.795C265.588 203.59 263.49 188.631 263.49 188.631Z" fill="black"/>
<path opacity="0.1" d="M248.433 207.544C249.449 204.716 247.48 195.604 247.48 195.604C247.48 195.604 243.987 185.853 244.558 178.641C244.797 175.63 244.782 171.499 244.68 167.708C243.871 162.818 243.094 157.366 243.094 157.366C243.094 157.366 243.99 171.062 243.416 178.286C242.843 185.51 246.336 195.252 246.336 195.252C246.336 195.252 248.308 204.362 247.289 207.189C246.27 210.017 249.826 221.688 249.826 221.688C249.572 224.407 243.043 224.052 240.452 223.816L240.551 224.076C240.551 224.076 250.654 225.458 250.97 222.066C250.976 222.058 247.417 210.372 248.433 207.544Z" fill="black"/>
</g>
<path d="M273.307 136.607C271.021 139.245 261.055 139.718 261.055 139.718L251.194 124.353C251.194 124.353 248.861 122.752 244.474 115.539C240.088 108.327 240.237 102.772 240.479 98.6234C240.721 94.4749 243.467 82.5526 243.467 82.5526C243.894 79.8697 250.041 63.0513 250.041 63.0513C250.683 64.3248 251.885 65.3885 253.292 66.266C257.087 68.6298 262.385 69.599 262.385 69.599C270.916 70.8252 269.341 79.5417 269.341 79.5417C269.341 79.5417 269.437 113.424 268.911 117.478C268.385 121.532 273.307 136.607 273.307 136.607Z" fill="#4C4C78"/>
<path opacity="0.1" d="M251.866 71.3894L249.721 72.1783L251.149 73.1681L240.481 98.6144C240.729 94.4777 243.47 82.5435 243.47 82.5435C243.897 79.8606 250.044 63.0422 250.044 63.0422C250.686 64.3157 251.887 65.3794 253.295 66.257L251.866 71.3894Z" fill="black"/>
<path opacity="0.1" d="M254.439 116.721L265.352 113.941L266.783 118.323L255.632 121.011L254.439 116.721Z" fill="black"/>
<path opacity="0.1" d="M260.682 73.1801C260.682 73.1801 255.724 77.7924 257.595 88.072C259.466 98.3515 262.457 109.512 262.457 109.512L254.389 131.613C254.389 131.613 260.012 137.41 262.776 138.113L270.829 120.441C270.829 120.441 274.594 114.316 273.593 104.704C272.592 95.0924 268.971 79.5387 268.971 79.5387C268.971 79.5387 268.974 70.0717 260.682 73.1801Z" fill="black"/>
<path d="M261.062 73.1801C261.062 73.1801 256.101 77.7924 257.966 88.072C259.831 98.3515 262.825 109.512 262.825 109.512L254.757 131.613C254.757 131.613 260.381 137.41 263.145 138.113L271.213 120.441C271.213 120.441 274.978 114.316 273.977 104.704C272.976 95.0924 269.354 79.5387 269.354 79.5387C269.354 79.5387 269.354 70.0717 261.062 73.1801Z" fill="#4C4C78"/>
<path opacity="0.1" d="M255.026 132.083C255.026 132.083 261.316 140.693 260.84 142.986C260.365 145.279 258.522 144.052 258.522 144.052L256.045 140.693L253.818 134.408C253.818 134.408 254.037 131.696 255.026 132.083Z" fill="black"/>
<path opacity="0.1" d="M254.263 132.083C254.263 132.083 260.538 140.693 260.078 142.986C259.618 145.279 257.759 144.052 257.759 144.052L255.279 140.693L253.056 134.408C253.056 134.408 253.274 131.696 254.263 132.083Z" fill="black"/>
<path d="M254.646 132.083C254.646 132.083 260.921 140.693 260.458 142.986C259.994 145.279 258.139 144.052 258.139 144.052L255.662 140.693L253.438 134.408C253.438 134.408 253.654 131.696 254.646 132.083Z" fill="#474463"/>
<defs>
<linearGradient id="paint0_linear" x1="229.766" y1="238.073" x2="229.766" y2="34.8247" gradientUnits="userSpaceOnUse">
<stop stop-color="#808080" stop-opacity="0.25"/>
<stop offset="0.54" stop-color="#808080" stop-opacity="0.12"/>
<stop offset="1" stop-color="#808080" stop-opacity="0.1"/>
</linearGradient>
</defs>
</svg>
