<svg width="26" height="80" fill="none" xmlns="http://www.w3.org/2000/svg"><path fill-rule="evenodd" clip-rule="evenodd" d="M5.274 5.702a6.762 6.762 0 003.835 3.35c.186.104.34.258.442.445.575 1.397 1.174 2.883 1.748 4.278.209.559.391 1.054.6 1.702a53.149 53.149 0 00-1.905-2.464 6.572 6.572 0 00-4.12-2.68 11.631 11.631 0 00-5.321.331.3.3 0 01-.156.114c.416.699.807 1.422 1.25 2.07a7.737 7.737 0 003.47 2.845c2.045.702 4.236.869 6.364.482.208-.063.391-.089.6-.14a67.723 67.723 0 012.45 9.966c-.39-.635-.754-1.359-1.12-2.006a7.378 7.378 0 00-3.812-3.605 11.82 11.82 0 00-4.12-.699c-.47 0-.914.051-1.46.051.286.648.469 1.232.677 1.79a8.192 8.192 0 002.869 3.772 11.257 11.257 0 005.346 1.905c.6.05 1.253.113 1.878.163.555 3.41.86 6.855.914 10.309a1.714 1.714 0 01-.157-.445 46.622 46.622 0 00-.705-2.006 7.49 7.49 0 00-3.81-4.481 15.366 15.366 0 00-4.017-1.194 3.936 3.936 0 01-.73-.114v.33c.078.317.126.698.208 1.092a8.71 8.71 0 002.793 5.232 13.62 13.62 0 005.817 2.908c.234.05.445.05.704.114a59.211 59.211 0 01-.782 10.524c-.235-1.142-.417-2.235-.652-3.327a7.362 7.362 0 00-2.14-3.936 15.063 15.063 0 00-4.771-2.742 4.986 4.986 0 01-.678-.165c.05 1.003.078 1.867.182 2.743a7.986 7.986 0 001.565 4.241 13.678 13.678 0 005.998 4.417.563.563 0 01.26.114 60.287 60.287 0 01-2.503 9.448c-.051-.572 0-1.092-.026-1.651a8.546 8.546 0 00-1.381-5.067 12.43 12.43 0 00-3.105-2.933c-.63-.432-1.283-.83-1.956-1.194-.078.305-.127.584-.181.8a10.222 10.222 0 00.73 6.603 14.156 14.156 0 003.624 4.33c.535.43 1.092.832 1.67 1.206a66.571 66.571 0 01-3.73 8.519 2.04 2.04 0 010-.394c.078-.787.182-1.6.234-2.349a7.449 7.449 0 00-.755-4.05 13.152 13.152 0 00-2.974-3.822c-.444-.393-.89-.762-1.355-1.206a14.171 14.171 0 00-1.044 4.863 8.133 8.133 0 00.364 2.73 16.157 16.157 0 004.122 6.296c.208.127.183.242.076.47a73.721 73.721 0 01-3.988 6.286s.235.559 2.007-.648c.392-.66.808-1.282 1.2-1.98a94.679 94.679 0 002.374-4.128.508.508 0 01.703-.343 13.51 13.51 0 006.86-.114 8.099 8.099 0 004.016-2.844c.47-.584.89-1.32 1.331-1.904.05-.114.05-.165.104-.28a.31.31 0 00-.156-.113 13.205 13.205 0 00-5.607-.8 6.974 6.974 0 00-4.8 2.514c-.286.33-.601.635-.938.914.031-.114.074-.225.127-.33a67.6 67.6 0 003.156-7.962.4.4 0 01.47-.343 13.14 13.14 0 006.571-1.23 8.253 8.253 0 003.6-3.657c.418-.724.705-1.537 1.121-2.399-.755 0-1.435-.114-2.113-.114-1.319-.07-2.64.081-3.91.444a7.73 7.73 0 00-4.017 3.213 15.54 15.54 0 00-.653.978c.626-3.01 1.304-6.007 1.956-8.99 1.045-.28 2.14-.509 3.209-.864a10.38 10.38 0 004.33-2.792 11.775 11.775 0 002.242-5.46h-.052c-2.257-.02-4.473.6-6.391 1.791a7.792 7.792 0 00-2.556 3.327c-.156.28-.287.559-.469.863.287-2.97.339-5.96.157-8.94a14.666 14.666 0 003.885-1.84 8.971 8.971 0 003.812-4.8c.347-1.153.54-2.348.572-3.553.014-.17.014-.34 0-.508-1.016.393-1.93.647-2.868.977a9.37 9.37 0 00-3.365 2.35 8.662 8.662 0 00-1.642 3.275c-.14.56-.313 1.112-.523 1.65-.025-.177-.025-.228-.05-.393a67.606 67.606 0 00-1.097-8.558.46.46 0 01.26-.61 12.714 12.714 0 005.165-4.81 8.531 8.531 0 001.096-4.826c-.027-.673-.104-1.257-.157-2.043-.808.444-1.54.787-2.218 1.206a9.126 9.126 0 00-3.546 3.543 10.18 10.18 0 00-.938 3.948 6.532 6.532 0 01-.127 1.257 1.667 1.667 0 00-.105-.343 65.364 65.364 0 00-2.53-8.571.398.398 0 01.157-.597 13.245 13.245 0 004.146-5.24 8.318 8.318 0 00.445-5.207c-.105-.635-.289-1.257-.445-1.892l-.025-.025a13.355 13.355 0 00-3.13 2.705 7.39 7.39 0 00-1.981 5.726c.025.838.104 1.702.181 2.68a.61.61 0 01-.127-.28c-.574-1.257-1.121-2.514-1.695-3.822a1.124 1.124 0 01-.052-.508c.069-1.15-.02-2.303-.262-3.428a5.627 5.627 0 00-1.142-2.375A14.626 14.626 0 004.316 0c-.078 0-.126.05-.209.05.027.42.104.813.104 1.233a11.56 11.56 0 001.063 4.419z" fill="#6E1867"/></svg>