<svg width="26" height="80" fill="none" xmlns="http://www.w3.org/2000/svg"><path fill-rule="evenodd" clip-rule="evenodd" d="M20.52 5.702a6.762 6.762 0 01-3.836 3.35c-.186.104-.34.258-.442.445-.575 1.397-1.174 2.883-1.748 4.278a36.686 36.686 0 00-.6 1.702 53.141 53.141 0 011.905-2.464 6.571 6.571 0 014.12-2.68 11.63 11.63 0 015.321.331.3.3 0 00.157.114c-.417.699-.808 1.422-1.251 2.07a7.737 7.737 0 01-3.47 2.845 12.637 12.637 0 01-6.364.482c-.208-.063-.39-.089-.6-.14a67.723 67.723 0 00-2.45 9.966c.39-.635.754-1.359 1.12-2.006a7.378 7.378 0 013.812-3.605 11.82 11.82 0 014.12-.699c.47 0 .914.051 1.461.051-.287.648-.47 1.232-.678 1.79a8.193 8.193 0 01-2.869 3.772 11.258 11.258 0 01-5.346 1.905c-.6.05-1.253.113-1.878.163a71.002 71.002 0 00-.914 10.309c.072-.14.126-.29.158-.445.209-.647.443-1.307.704-2.006a7.49 7.49 0 013.811-4.481c1.278-.58 2.63-.981 4.016-1.194.247-.015.491-.053.73-.114v.33c-.078.317-.126.698-.208 1.092a8.71 8.71 0 01-2.793 5.232 13.619 13.619 0 01-5.817 2.908c-.234.05-.445.05-.704.114a59.208 59.208 0 00.782 10.524c.235-1.142.417-2.235.652-3.327a7.362 7.362 0 012.14-3.936 15.063 15.063 0 014.771-2.742c.23-.039.458-.094.679-.165-.051 1.003-.08 1.867-.183 2.743a7.985 7.985 0 01-1.565 4.241 13.678 13.678 0 01-5.998 4.417.563.563 0 00-.26.114 60.287 60.287 0 002.503 9.448c.051-.572 0-1.092.026-1.651a8.546 8.546 0 011.381-5.067 12.43 12.43 0 013.105-2.933c.63-.432 1.283-.83 1.956-1.194.078.305.127.584.181.8a10.222 10.222 0 01-.73 6.603 14.157 14.157 0 01-3.624 4.33c-.535.43-1.092.832-1.67 1.206a66.575 66.575 0 003.73 8.519 2.039 2.039 0 000-.394c-.078-.787-.182-1.6-.234-2.349a7.449 7.449 0 01.755-4.05 13.15 13.15 0 012.974-3.822c.444-.393.89-.762 1.355-1.206a14.173 14.173 0 011.044 4.863 8.131 8.131 0 01-.364 2.73 16.156 16.156 0 01-4.122 6.296c-.208.127-.183.242-.076.47a73.728 73.728 0 003.988 6.286s-.235.559-2.007-.648c-.391-.66-.808-1.282-1.2-1.98a94.68 94.68 0 01-2.374-4.128.507.507 0 00-.703-.343 13.51 13.51 0 01-6.86-.114 8.099 8.099 0 01-4.016-2.844c-.47-.584-.89-1.32-1.331-1.904-.05-.114-.05-.165-.104-.28a.31.31 0 01.156-.113c1.79-.67 3.703-.942 5.608-.8a6.974 6.974 0 014.8 2.514c.285.33.6.635.937.914a1.692 1.692 0 00-.127-.33 67.587 67.587 0 01-3.156-7.962.4.4 0 00-.47-.343 13.155 13.155 0 01-6.571-1.23 8.254 8.254 0 01-3.6-3.657c-.418-.724-.705-1.537-1.121-2.399.755 0 1.435-.114 2.113-.114 1.32-.07 2.64.081 3.91.444a7.73 7.73 0 014.017 3.213c.235.317.445.648.653.978-.626-3.01-1.304-6.007-1.956-8.99-1.045-.28-2.14-.509-3.208-.864a10.38 10.38 0 01-4.33-2.792A11.766 11.766 0 010 40.639h.052c2.257-.02 4.474.6 6.391 1.791A7.792 7.792 0 019 45.757c.156.28.287.559.469.863a56.896 56.896 0 01-.156-8.94 14.666 14.666 0 01-3.886-1.84 8.971 8.971 0 01-3.812-4.8 13.602 13.602 0 01-.571-3.553 3.039 3.039 0 010-.508c1.015.393 1.928.647 2.867.977a9.37 9.37 0 013.365 2.35 8.663 8.663 0 011.642 3.275c.14.56.313 1.112.523 1.65.025-.177.025-.228.05-.393.184-2.873.55-5.731 1.096-8.558a.458.458 0 00-.26-.61 12.715 12.715 0 01-5.164-4.81 8.532 8.532 0 01-1.096-4.826c.027-.673.104-1.257.157-2.043.808.444 1.54.787 2.218 1.206a9.125 9.125 0 013.546 3.543c.574 1.24.894 2.582.939 3.948 0 .422.044.843.127 1.257.022-.118.057-.233.104-.343a65.364 65.364 0 012.53-8.571.398.398 0 00-.157-.597 13.244 13.244 0 01-4.146-5.24 8.319 8.319 0 01-.444-5.207c.104-.635.288-1.257.444-1.892l.025-.025a13.355 13.355 0 013.13 2.705 7.39 7.39 0 011.98 5.725c-.026.838-.105 1.702-.182 2.68a.61.61 0 00.127-.28c.574-1.257 1.121-2.514 1.695-3.822.056-.163.074-.337.052-.508-.069-1.15.02-2.303.262-3.428a5.616 5.616 0 011.143-2.375A14.625 14.625 0 0121.477 0c.078 0 .127.05.21.05-.028.42-.105.813-.105 1.233a11.56 11.56 0 01-1.063 4.419z" fill="#6E1867"/></svg>