<svg width="186" height="262" viewBox="0 0 186 262" fill="none" xmlns="http://www.w3.org/2000/svg">
    <path opacity="0.1" d="M88.2676 262C137.016 262 176.535 253.865 176.535 243.83C176.535 233.795 137.016 225.661 88.2676 225.661C39.5187 225.661 0 233.795 0 243.83C0 253.865 39.5187 262 88.2676 262Z" fill="#9A5E94"/>
    <path d="M184.927 95.038C183.985 86.764 180.258 78.8692 180.258 78.8692L180.541 76.0793C180.541 76.0793 180.602 74.6843 180.511 72.5918C180.521 71.2854 180.692 69.9852 181.021 68.7207C181.784 66.3013 180.066 63.3283 179.874 63.0536C179.683 62.779 179.97 57.4737 178.253 54.8712C176.535 52.2687 165.096 47.4298 165.096 47.4298C165.096 47.4298 164.482 46.1438 163.614 44.6398L163.693 44.4873C162.983 43.1997 162.103 42.0135 161.077 40.9606C160.375 40.2108 159.7 39.7836 159.155 39.9928C158.933 39.2692 158.764 38.5306 158.649 37.7826C158.762 37.8131 158.88 37.8437 158.993 37.8654C159.465 37.975 159.955 37.9868 160.432 37.9003C161.496 37.6606 162.202 36.7059 162.795 35.8078C165.75 31.3177 168.296 26.3917 168.815 21.0777C168.954 19.9931 168.903 18.8924 168.662 17.8256C168.417 16.9963 168.075 16.1988 167.642 15.4498C166.878 13.9131 165.91 12.4863 164.765 11.2082C162.729 9.06341 159.922 7.75125 157.036 6.97529C153.785 6.10101 150.398 5.8481 147.053 6.22985C146.181 6.33011 145.309 6.47397 144.438 6.53064C143.332 6.57936 142.224 6.56043 141.12 6.47397L135.414 6.14266L135.388 6.05548L134.437 5.9988C134.062 6.74425 134.437 7.62919 134.904 8.32668C135.37 9.02417 135.906 9.75218 135.867 10.5761C135.828 11.4 135.231 12.0626 134.764 12.7558C134.298 13.4489 133.945 14.3556 134.411 15.0357C134.477 15.1297 134.554 15.2147 134.642 15.2885C135.135 15.7986 135.994 15.8552 136.739 15.8465H136.87C134.992 18.319 133.977 21.3387 133.98 24.4431C133.992 27.096 134.735 29.6943 136.126 31.9534C137.517 34.2124 139.502 36.0451 141.866 37.2508C141.948 37.5341 142.031 37.8262 142.11 38.1226C142.974 41.1847 143.284 44.3764 143.025 47.5475L142.925 47.7655L142.864 47.5344C142.864 47.5344 136.142 52.0943 134.145 53.3018C132.149 54.5093 130.143 58.6027 130.047 59.7187C129.952 60.8347 126.804 77.6661 126.804 77.6661C126.164 79.3616 125.637 81.0975 125.226 82.8624L121.211 86.3891C121.211 86.3891 112.928 87.1345 110.531 86.5765L110.6 87.0386C108.486 86.5559 106.333 86.2641 104.166 86.1667C102.983 86.0146 101.78 86.1755 100.679 86.6332L100.596 86.6724L100.53 86.7029C99.2682 86.8754 98.0359 87.2216 96.8686 87.7317C96.7291 87.7884 96.6027 87.8451 96.4806 87.9017L96.5068 87.3307L87.544 86.8686L82.9667 85.9401C82.9667 85.9401 81.3451 84.6323 80.3904 84.8241C79.4357 85.0159 77.4348 83.7081 77.4348 83.7081C76.9783 83.3504 76.4842 83.0434 75.9613 82.7926C75.8087 81.7377 75.7128 81.0968 75.7128 81.0968C75.7128 81.0968 72.1513 66.9639 69.4833 58.6551C67.696 53.1056 65.124 50.3723 63.607 49.1822C62.9313 48.0052 62.4866 47.2467 62.4866 47.2467C62.1946 46.2266 60.5903 43.9293 60.1806 43.8726C60.1152 43.768 60.0672 43.7157 60.0411 43.7157C59.9534 43.7063 59.8648 43.7198 59.7839 43.7549C59.034 40.0233 58.5981 35.3458 59.7446 31.2698C61.3141 29.98 62.5789 28.3591 63.4486 26.5232C64.3183 24.6874 64.7714 22.6819 64.7753 20.6505C64.7753 20.5895 64.7753 20.5284 64.7753 20.4674C64.7753 20.4064 64.7753 20.341 64.7753 20.2799C64.7744 17.0402 63.627 13.9053 61.5363 11.4305L61.3881 11.2649C61.4278 11.2368 61.4656 11.2062 61.5014 11.1733C61.829 10.9076 62.0785 10.5583 62.2236 10.1622C62.3686 9.76621 62.4038 9.3383 62.3253 8.92391C62.1292 8.08692 61.4753 7.42866 61.1396 6.63527C60.938 6.02449 60.7764 5.40125 60.6557 4.76948C60.3989 3.87216 59.9276 3.05079 59.2825 2.37621L59.3479 2.55058C57.6391 0.628116 54.7009 -0.326574 52.0548 0.10064C50.0887 0.414511 48.2578 1.32997 46.283 1.61332C44.8663 1.81385 43.4233 1.68308 41.9978 1.82693C40.6752 1.96293 39.3877 2.335 38.1965 2.92548C37.8853 3.05786 37.6092 3.26084 37.39 3.51835C37.1873 3.86334 37.0512 4.2434 36.989 4.6387C36.5051 6.40422 34.9706 7.66406 33.859 9.13751C32.5892 10.8209 31.8541 12.8469 31.7491 14.9529C31.7056 15.4881 31.7573 16.0268 31.9016 16.544C31.9975 16.8535 32.1458 17.1456 32.2155 17.4595C32.4335 18.4185 31.9322 19.3732 31.688 20.3235C31.3805 21.5358 31.4895 22.8163 31.9975 23.9592C33.7195 27.8129 39.3735 29.0988 40.5505 33.1443C41.4511 33.5583 42.4024 33.8514 43.3797 34.0162C43.4582 34.4172 43.5279 34.8226 43.5846 35.2324C43.5581 35.2436 43.5332 35.2583 43.5105 35.276C41.9847 36.7625 41.6055 39.6353 41.6055 39.6353L41.4224 39.7835C40.799 40.2979 38.6673 42.0242 36.7405 43.3538C34.4518 44.9363 30.6374 50.2372 27.9695 51.8196C25.3016 53.4021 23.1045 63.1539 23.6799 66.698C24.2554 70.2421 26.6356 80.1814 25.6809 83.8083C24.7262 87.4353 27.1107 103.988 27.1107 103.988C28.7109 104.292 30.2764 104.757 31.7839 105.374L31.736 106.098L31.5921 108.277C31.5921 108.277 27.272 123.901 28.9242 135.928C30.5764 147.956 28.1613 149.194 28.1613 149.194C28.1613 149.194 28.667 154.525 27.3984 156.387C26.1299 158.248 25.8727 162.337 25.8727 162.337C25.8727 162.337 25.7463 171.514 25.9991 174.107C26.2519 176.701 26.3784 181.427 25.4891 182.543C24.5998 183.659 22.9476 190.969 23.074 193.201C23.2004 195.433 19.8961 200.52 21.6747 207.09C23.4533 213.659 16.4435 213.786 16.4435 213.786C16.4435 213.786 17.3371 223.812 19.2422 226.681L19.5212 227.091C19.4732 227.256 19.4253 227.431 19.3729 227.618C18.6537 230.234 17.6684 234.362 18.3529 235.36C19.3686 236.851 19.8786 236.598 19.8786 236.598L20.2579 243.294C20.2579 243.294 27.8867 249.742 33.7369 249.497C39.5871 249.253 38.4406 243.294 38.4406 243.294L33.4579 230.373L33.2879 229.937L38.8242 219.475C38.8242 219.475 40.35 214.889 40.7293 213.276C41.1085 211.663 43.1792 205.948 43.1792 205.948C43.1792 205.948 48.4104 193.55 48.5194 192.059C48.6284 190.568 49.0294 182.516 50.0451 180.899C51.0609 179.282 53.8595 170.001 53.8595 170.001L53.9293 170.062C54.404 170.528 54.7432 171.115 54.9106 171.759C55.078 172.403 55.0673 173.081 54.8796 173.719C54.2388 176.073 54.6224 180.908 54.6224 180.908C54.6224 180.908 54.3696 185.001 53.8595 187.111C53.3495 189.221 53.2274 206.454 54.1167 210.543C54.8273 213.816 54.8055 219.946 54.7706 222.265C54.1734 224.728 53.6503 227.788 54.6224 228.15C56.279 228.773 64.6707 228.647 64.6707 228.647C64.6707 228.647 68.2279 227.404 73.0623 231.746C77.8968 236.088 92.7665 230.508 92.7665 230.508C92.7665 230.508 97.3438 229.266 88.3156 225.674C82.0164 223.167 77.9491 221.498 75.29 219.71C75.351 219.593 75.4164 219.475 75.4731 219.348C75.4731 219.348 71.7851 215.861 74.8366 209.679C77.8881 203.498 77.7617 198.271 77.7617 198.271L78.2717 177.438L76.746 149.782L75.5646 120.758L75.7739 120.688C75.9744 126.024 77.0163 138.727 82.4698 136.264C89.3357 133.165 83.4855 125.104 83.4855 125.104L80.4035 119.097L81.3233 118.783L77.8751 107.641C77.5441 105.466 77.5002 103.257 77.7443 101.071C77.8125 99.7923 77.7863 98.5101 77.6658 97.2351C82.182 96.446 86.5065 95.609 87.2825 95.8008C88.1979 96.0232 93.3201 96.0668 95.3341 96.0755C94.6759 96.5899 94.1484 97.0999 94.1484 97.0999L102.348 102.619C102.348 102.619 105.13 101.097 105.709 99.4845C106.28 99.3401 106.807 99.0588 107.244 98.6649C107.331 100.57 107.837 102.632 109.598 102.68C110.038 102.689 110.476 102.603 110.879 102.427L124.289 99.7722L123.138 106.961L123.94 108.386C123.535 114.45 123.068 120.889 122.658 126.552L122.471 127.79L122.567 127.811C121.93 136.53 121.42 143.134 121.42 143.134C122.171 141.703 123.337 140.532 124.764 139.773L124.851 152.712C124.851 152.712 125.522 173.17 125.522 175.96C125.522 178.75 125.614 184.979 125.614 184.979C125.614 184.979 127.048 192.604 127.903 195.115C128.757 197.626 129.428 209.065 129.428 209.065C129.428 209.065 131.434 212.225 130.575 213.424C129.716 214.623 133.914 217.234 133.914 217.234C133.914 217.234 131.242 220.861 131.05 223.281C131.028 223.559 131.303 223.856 131.8 224.152C131.643 224.279 131.482 224.405 131.303 224.527C130.065 225.356 128.251 225.931 125.522 225.696C118.081 225.042 112.837 231.925 117.414 233.32C121.991 234.715 135.723 234.994 135.723 234.994C135.723 234.994 139.882 232.4 143.134 233.568C143.086 236.297 143.221 238.8 143.243 239.131L143.204 239.161C141.26 240.905 137.537 243.904 133.901 245.129C128.67 246.895 127.51 254.057 134.28 254.986C141.05 255.914 150.968 253.87 150.968 253.87C150.968 253.87 156.116 250.06 160.026 249.223C163.937 248.386 167.276 246.524 166.609 244.292C166.173 242.867 165.053 239.131 164.294 236.62C164.251 236.469 164.207 236.324 164.163 236.184C164.281 235.923 164.399 235.652 164.508 235.373C164.508 235.373 162.507 224.959 164.129 222.356C165.75 219.754 164.891 193.711 164.891 193.711C164.891 193.711 162.123 187.111 163.558 183.114C164.992 179.116 161.269 173.44 161.269 173.44C161.269 173.44 161.674 162.067 162.764 155.728C162.814 155.458 162.861 155.197 162.908 154.944C164.733 154.402 166.511 153.716 168.226 152.891C168.226 152.891 169.181 138.566 169.752 135.314C169.809 135.009 169.887 134.516 169.983 133.875L170.419 131.578L170.933 128.962L172.677 120.047L175.825 115.976L183.933 107.693C183.933 107.693 185.882 103.316 184.927 95.038ZM59.8841 43.89L59.8231 43.9336C59.8138 43.9022 59.8065 43.8701 59.8013 43.8377C59.8266 43.8586 59.8544 43.8761 59.8841 43.89ZM139.995 54.0429L139.682 54.7273L140.828 53.5852L139.272 55.3289L139.795 54.2303L139.995 54.0429ZM132.253 70.0416C131.952 70.8394 131.63 71.7025 131.294 72.6005L131.909 70.7653L132.253 70.0416Z" fill="url(#paint0_linear)"/>
    <path d="M107.235 96.1234C107.235 96.1234 106.167 103.233 109.371 103.325C112.575 103.417 114.716 97.8409 114.716 97.8409L113.408 93.3813L107.235 96.1234Z" fill="#585B8A"/>
    <path opacity="0.2" d="M107.235 96.1234C107.235 96.1234 106.167 103.233 109.371 103.325C112.575 103.417 114.716 97.8409 114.716 97.8409L113.408 93.3813L107.235 96.1234Z" fill="black"/>
    <path d="M35.4675 250.025C29.7655 250.273 22.3285 243.83 22.3285 243.83L21.9579 237.138C21.9579 237.138 21.4653 237.387 20.4714 235.9C19.8044 234.902 20.7635 230.765 21.4653 228.163C21.8053 226.89 22.0843 225.983 22.0843 225.983L34.5956 229.331L35.1928 230.913L40.0491 243.826C40.0491 243.826 41.1651 249.776 35.4675 250.025Z" fill="#636992"/>
    <path d="M92.9538 231.071C92.9538 231.071 78.459 236.646 73.7728 232.309C69.0865 227.971 65.5947 229.209 65.5947 229.209C65.5947 229.209 57.4166 229.336 55.8036 228.712C54.8533 228.351 55.3677 225.251 55.9606 222.784C56.3616 221.079 56.7976 219.671 56.7976 219.671C56.7976 219.671 71.0438 214.837 73.2758 217.81C73.9462 218.683 74.7476 219.448 75.6516 220.077C78.2323 221.942 82.2647 223.634 88.6424 226.236C97.4134 229.828 92.9538 231.071 92.9538 231.071Z" fill="#636992"/>
    <path d="M79.9457 117.82L83.9083 125.749C83.9083 125.749 89.6103 133.805 82.9187 136.901C76.2271 139.996 76.3536 119.062 76.3536 119.062L79.9457 117.82Z" fill="#FFD6D6"/>
    <path d="M63.3411 49.0557C63.3411 49.0557 67.6786 51.0392 70.2811 59.3393C72.8836 67.6395 76.3536 81.768 76.3536 81.768C76.3536 81.768 78.7077 97.7493 78.3328 101.716C78.0943 103.901 78.1367 106.107 78.4592 108.281L81.8028 119.433L75.1112 121.787L64.8276 82.3871L63.3411 49.0557Z" fill="#DCE6F2"/>
    <path opacity="0.05" d="M63.3411 49.0557C63.3411 49.0557 67.6786 51.0392 70.2811 59.3393C72.8836 67.6395 76.3536 81.768 76.3536 81.768C76.3536 81.768 78.7077 97.7493 78.3328 101.716C78.0943 103.901 78.1367 106.107 78.4592 108.281L81.8028 119.433L75.1112 121.787L64.8276 82.3871L63.3411 49.0557Z" fill="black"/>
    <path opacity="0.1" d="M34.5956 229.336L35.1928 230.918L34.4605 232.318C31.6095 233.556 24.5474 232.566 24.5474 232.566C24.5474 232.566 23.2396 230.905 21.4523 228.172C21.7923 226.899 22.0713 225.992 22.0713 225.992L34.5956 229.336Z" fill="black"/>
    <path opacity="0.1" d="M76.1051 220.661C72.4912 228.848 60.2066 225.809 56.7933 224.785C56.2309 224.615 55.9214 224.501 55.9214 224.501C55.9214 224.501 55.9432 223.834 55.9519 222.784C56.3529 221.079 56.7889 219.671 56.7889 219.671C56.7889 219.671 71.0352 214.837 73.2671 217.81C73.9375 218.683 74.7389 219.448 75.6429 220.077C75.7794 220.285 75.934 220.48 76.1051 220.661Z" fill="black"/>
    <path d="M75.4816 210.255C72.5086 216.445 76.105 219.919 76.105 219.919C72.4912 228.102 60.2066 225.068 56.7932 224.039C56.2309 223.873 55.9214 223.76 55.9214 223.76C55.9214 223.76 56.1698 215.207 55.3023 211.118C54.4348 207.029 54.5569 189.81 55.0538 187.704C55.5508 185.598 55.7949 181.505 55.7949 181.505C55.7949 181.505 55.4244 176.675 56.0434 174.321C56.2297 173.685 56.2422 173.011 56.0797 172.368C55.9172 171.726 55.5855 171.139 55.1192 170.668L55.0538 170.602C55.0538 170.602 52.3293 179.896 51.3353 181.501C50.3414 183.105 49.9752 191.165 49.8488 192.652C49.7224 194.138 44.6438 206.532 44.6438 206.532C44.6438 206.532 42.6647 212.23 42.2941 213.838C41.9236 215.447 40.4327 220.037 40.4327 220.037L34.4604 231.563C31.6094 232.801 24.5473 231.812 24.5473 231.812C24.5473 231.812 23.1872 230.068 21.3258 227.226C19.4643 224.383 18.6012 214.344 18.6012 214.344C18.6012 214.344 25.4148 214.217 23.6798 207.652C21.9448 201.087 25.1663 196.004 25.0443 193.772C24.9222 191.54 26.5308 184.234 27.3983 183.118C28.2658 182.002 28.1394 177.294 27.8909 174.691C27.6424 172.089 27.7689 162.921 27.7689 162.921C27.7689 162.921 28.0173 158.832 29.2554 156.975C30.4934 155.118 30.0008 149.787 30.0008 149.787C30.0008 149.787 32.3505 148.549 30.7419 136.53C29.1333 124.511 33.3575 108.901 33.3575 108.901L33.5014 106.721L33.728 103.19C33.728 103.19 69.165 100.958 72.016 103.682C72.7612 104.439 73.3729 105.316 73.8251 106.276C74.8005 108.373 75.4896 110.591 75.874 112.872L77.3605 150.414L78.847 178.044L78.3501 198.859C78.3501 198.859 78.459 204.056 75.4816 210.255Z" fill="#565988"/>
    <path opacity="0.1" d="M64.9756 136.159L61.2571 216.693L56.7932 224.034C56.2308 223.869 55.9213 223.755 55.9213 223.755C55.9213 223.755 56.1698 215.202 55.3023 211.113C54.4348 207.024 54.5569 189.805 55.0538 187.699C55.5508 185.594 55.7949 181.5 55.7949 181.5C55.7949 181.5 55.4244 176.67 56.0434 174.316C56.2297 173.68 56.2422 173.006 56.0797 172.364C55.9171 171.721 55.5855 171.134 55.1192 170.663L55.1802 170.227L64.9756 136.159Z" fill="black"/>
    <path opacity="0.1" d="M24.931 222.644C24.931 222.644 34.5956 218.803 36.0822 220.028C37.5687 221.253 24.6869 223.123 24.6869 223.123L24.931 222.644Z" fill="black"/>
    <path opacity="0.1" d="M72.635 212.482C72.2645 212.609 62.8483 215.97 63.7159 219.545C64.5834 223.119 72.635 212.482 72.635 212.482Z" fill="black"/>
    <path d="M43.2096 29.1731C43.2096 29.1731 46.3657 36.7932 44.6961 40.6992C43.0265 44.6051 62.7219 51.2923 62.7219 51.2923C62.7219 51.2923 56.9633 36.4227 62.5388 28.0571C68.1144 19.6916 43.2096 29.1731 43.2096 29.1731Z" fill="#FFD6D6"/>
    <path d="M158.531 249.776C154.721 250.613 149.703 254.423 149.703 254.423C149.703 254.423 140.039 256.468 133.439 255.539C126.839 254.611 127.959 247.453 133.068 245.687C136.612 244.467 140.244 241.454 142.14 239.728C142.977 238.956 143.474 238.42 143.474 238.42L161.971 234.702C161.971 234.702 162.271 235.735 162.69 237.16C163.431 239.676 164.525 243.407 164.944 244.828C165.593 247.082 162.341 248.939 158.531 249.776Z" fill="#505484"/>
    <path d="M153.793 235.465C153.793 235.465 145.985 236.302 142.733 234.445C139.481 232.588 134.834 235.561 134.834 235.561C134.834 235.561 121.451 235.282 116.991 233.887C112.532 232.492 117.641 225.604 124.89 226.267C127.532 226.507 129.319 225.927 130.527 225.099C131.788 224.234 132.667 222.916 132.981 221.419L148.675 222.348L150.854 227.91L153.793 235.465Z" fill="#505484"/>
    <path opacity="0.1" d="M151.094 230.448C151.094 230.448 132.855 227.466 130.527 225.099C131.788 224.234 132.667 222.916 132.981 221.419L148.675 222.348L150.854 227.91L151.094 230.448Z" fill="black"/>
    <path d="M124.053 126.094L124.241 153.318C124.241 153.318 124.89 173.763 124.89 176.553C124.89 179.343 124.982 185.564 124.982 185.564C124.982 185.564 126.377 193.184 127.214 195.695C128.051 198.206 128.7 209.645 128.7 209.645C128.7 209.645 130.653 212.805 129.816 214.004C128.979 215.203 133.068 217.814 133.068 217.814C133.068 217.814 130.453 221.441 130.283 223.856C130.113 226.271 151.094 229.702 151.094 229.702L142.92 145.885L136.412 124.886L124.053 126.094Z" fill="#575988"/>
    <path opacity="0.1" d="M124.053 126.094L124.241 153.318C124.241 153.318 124.89 173.763 124.89 176.553C124.89 179.343 124.982 185.564 124.982 185.564C124.982 185.564 126.377 193.184 127.214 195.695C128.051 198.206 128.7 209.645 128.7 209.645C128.7 209.645 130.653 212.805 129.816 214.004C128.979 215.203 133.068 217.814 133.068 217.814C133.068 217.814 130.453 221.441 130.283 223.856C130.113 226.271 151.094 229.702 151.094 229.702L142.92 145.885L136.412 124.886L124.053 126.094Z" fill="black"/>
    <path opacity="0.1" d="M162.69 237.182C156.617 251.659 142.175 240.486 142.175 240.486C142.175 240.486 142.175 240.207 142.14 239.728C142.977 238.956 143.474 238.42 143.474 238.42L161.971 234.702C161.971 234.702 162.271 235.757 162.69 237.182Z" fill="black"/>
    <path d="M162.899 235.931C156.949 251.189 142.175 239.742 142.175 239.742C142.175 239.742 141.709 231.842 142.641 228.22C143.574 224.597 141.617 213.721 141.617 213.721C141.617 213.721 140.501 204.056 139.481 201.829C138.461 199.601 138.552 195.137 138.552 194.766C138.552 194.396 138.923 191.418 138.086 189.374C137.249 187.329 136.778 182.312 136.778 182.312C136.778 182.312 136.778 175.25 135.941 171.069L133.06 156.683L127.855 127.223L129.481 126.944L158.614 121.835C158.614 121.835 164.098 149.735 162.237 152.594C161.836 153.222 161.482 154.595 161.19 156.365C160.127 162.695 159.73 174.06 159.73 174.06C159.73 174.06 163.353 179.727 161.962 183.724C160.571 187.722 163.27 194.317 163.27 194.317C163.27 194.317 164.107 220.338 162.524 222.941C160.942 225.543 162.899 235.931 162.899 235.931Z" fill="#575988"/>
    <path d="M160.109 45.7121C160.109 45.7121 133.718 64.2959 139.664 55.0018C142.868 49.9973 142.28 43.624 141.024 38.8113C140.389 36.3635 139.513 33.9847 138.409 31.71C138.409 31.71 160.833 22.1718 157.86 30.7204C157.163 32.712 156.867 34.8216 156.988 36.9281C157.166 40.0945 158.249 43.1433 160.109 45.7121Z" fill="#D28690"/>
    <path d="M112.593 88.2723C112.593 88.2723 101.441 85.0508 99.5844 88.2113C97.7273 91.3718 100.142 98.3075 103.508 99.4235C106.873 100.539 114.598 95.6439 114.598 95.6439L112.593 88.2723Z" fill="#D28690"/>
    <path d="M125.357 82.7925L120.71 87.069C120.71 87.069 112.623 87.8101 110.299 87.2521C110.299 87.2521 112.44 101.564 109.371 103.329L128.142 99.5192L125.357 82.7925Z" fill="#585B8A"/>
    <path opacity="0.1" d="M125.357 82.7925L120.71 87.069C120.71 87.069 112.623 87.8101 110.299 87.2521C110.299 87.2521 112.44 101.564 109.371 103.329L128.142 99.5192L125.357 82.7925Z" fill="black"/>
    <path opacity="0.1" d="M65.695 21.3654C65.695 25.0651 64.2253 28.6133 61.6092 31.2294C58.9931 33.8455 55.4449 35.3152 51.7452 35.3152C44.5871 31.8757 37.7953 29.077 37.7953 21.3654C37.7211 19.4885 38.0267 17.616 38.6937 15.8601C39.3608 14.1042 40.3755 12.5011 41.6772 11.147C42.9789 9.79278 44.5406 8.71543 46.2688 7.97951C47.9969 7.24359 49.8559 6.86426 51.7343 6.86426C53.6126 6.86426 55.4716 7.24359 57.1997 7.97951C58.9279 8.71543 60.4896 9.79278 61.7913 11.147C63.093 12.5011 64.1078 14.1042 64.7748 15.8601C65.4418 17.616 65.7474 19.4885 65.6732 21.3654H65.695Z" fill="black"/>
    <path d="M65.695 20.9906C65.6971 24.2712 64.5407 27.4473 62.4297 29.9586C60.3187 32.4699 57.3888 34.1552 54.1566 34.7172C50.9244 35.2792 47.5975 34.6819 44.7628 33.0305C41.928 31.3792 39.7674 28.7799 38.6619 25.691C37.5565 22.6022 37.5772 19.2222 38.7205 16.1472C39.8637 13.0722 42.0561 10.4996 44.911 8.88312C47.7658 7.26668 51.0997 6.71021 54.3248 7.31185C57.5498 7.91349 60.4589 9.6346 62.5389 12.1716C64.5759 14.6597 65.6908 17.775 65.695 20.9906Z" fill="#FFD6D6"/>
    <path opacity="0.1" d="M73.8251 106.289C72.445 107.146 71.0007 107.896 69.5051 108.53C69.5051 108.53 62.443 107.506 61.4229 108.713C60.4028 109.921 51.3964 110.387 51.3964 110.387C51.3964 110.387 37.6428 109.738 35.5982 107.972C34.9661 107.46 34.2626 107.043 33.5101 106.734L33.7368 103.203C33.7368 103.203 69.1737 100.971 72.0247 103.696C72.7668 104.452 73.3756 105.329 73.8251 106.289Z" fill="black"/>
    <path d="M75.5471 103.791C75.2681 105.369 69.5051 107.785 69.5051 107.785C69.5051 107.785 62.443 106.764 61.4229 107.972C60.4028 109.18 51.3964 109.646 51.3964 109.646C51.3964 109.646 37.6428 108.992 35.5982 107.227C33.5537 105.461 28.9982 104.611 28.9982 104.611C28.9982 104.611 26.6747 88.0717 27.6076 84.4491C28.5405 80.8265 26.2126 70.8785 25.6546 67.3475C25.0966 63.8164 27.2327 54.0602 29.8352 52.4822C32.4378 50.9041 36.1562 45.6032 38.3839 44.0251C40.2627 42.6955 42.3378 40.9736 42.9437 40.4548L43.1224 40.3066C43.1224 40.3066 43.4974 37.4251 44.9839 35.9473C46.4704 34.4694 60.1282 45.3329 60.1282 45.3329C60.1282 45.3329 60.2241 46.1699 61.1526 44.5918C61.3619 44.2387 63.1622 46.8368 63.4761 47.9354C63.4761 47.9354 70.9088 60.948 71.3752 63.629C71.8417 66.3099 73.7903 75.0591 74.1608 77.1952C74.2567 77.7444 74.4137 79.6713 74.5968 82.252C74.6316 82.7577 74.6621 83.2938 74.7014 83.8518C74.976 88.1327 75.2725 93.5993 75.4512 97.7319C75.4512 98.2027 75.4904 98.6561 75.5035 99.092C75.5976 100.657 75.6122 102.225 75.5471 103.791Z" fill="#DCE6F2"/>
    <path opacity="0.1" d="M28.3574 70.2422C28.3574 70.2422 33.4665 76.4673 35.1405 76.4673C36.8145 76.4673 28.3574 70.2422 28.3574 70.2422Z" fill="black"/>
    <path opacity="0.1" d="M39.1205 83.6255C39.1205 83.6255 30.7549 92.7321 31.8709 94.4061C32.9869 96.0801 39.1205 83.6255 39.1205 83.6255Z" fill="black"/>
    <path opacity="0.1" d="M32.9871 101.747C32.9871 101.747 42.5776 91.2452 43.0135 87.6226L32.9871 101.747Z" fill="black"/>
    <path opacity="0.1" d="M45.0667 102.488C45.0667 102.488 56.1263 96.6335 57.0548 91.9865C57.9833 87.3394 45.0667 102.488 45.0667 102.488Z" fill="black"/>
    <path opacity="0.1" d="M59.0994 45.9912L57.5649 49.7053L60.1195 50.9129L62.6305 57.9314C62.6305 57.9314 69.5531 71.7766 69.2741 78.9782C68.9951 86.1798 70.5296 97.004 70.5296 97.004L74.5227 96.2629L72.6395 75.0809C72.3462 71.8014 71.5248 68.5907 70.207 65.5733C67.016 58.267 61.0786 44.7793 60.7037 44.7793C60.1936 44.7793 60.5511 44.9668 60.5511 44.9668L59.0994 45.9912Z" fill="black"/>
    <path d="M59.4699 45.6167L57.9354 49.3352L60.4943 50.5427L63.001 57.5612C63.001 57.5612 69.9236 71.4065 69.6446 78.6081C69.3656 85.8097 70.9001 96.6339 70.9001 96.6339L74.8975 95.8928L73.01 74.7108C72.7201 71.4311 71.9001 68.2202 70.5818 65.2031C67.3908 57.8926 61.4534 44.4092 61.0829 44.4092C60.5685 44.4092 60.9259 44.5966 60.9259 44.5966L59.4699 45.6167Z" fill="#575989"/>
    <path d="M104.724 100.23C102.78 100.082 98.1153 97.7234 96.2626 96.7426L95.4779 96.3066L95.5738 89.1094C96.0319 88.84 96.5066 88.5998 96.995 88.3901C99.4711 87.309 104.55 85.8399 107.096 90.5698C110.531 96.9126 107.187 100.396 104.724 100.23Z" fill="#FFD6D6"/>
    <path opacity="0.1" d="M62.5388 12.1717C62.3391 12.2968 62.1194 12.3868 61.8892 12.4376C60.2719 12.7908 58.4323 11.4001 57.046 12.2938C56.2003 12.8431 56.0042 13.9809 55.8908 14.9835C55.6932 16.7272 55.4956 18.4593 55.2979 20.1798C55.2565 20.7923 55.1273 21.3957 54.9143 21.9715C54.2299 23.5365 52.351 24.2732 50.6378 24.2471C49.9667 24.2948 49.3039 24.0755 48.7938 23.6367C48.493 23.3316 48.3317 22.9044 48.0004 22.6254C45.8208 20.7988 45.1582 25.2759 45.7336 26.5488C46.6578 28.6282 49.9403 30.6335 48.5628 33.2752C48.3311 33.7046 47.9798 34.0574 47.5514 34.2909C45.4755 33.6408 43.5804 32.5142 42.0175 31.0011C40.4546 29.4881 39.2672 27.6304 38.5502 25.5767C37.8332 23.5229 37.6064 21.3299 37.888 19.1729C38.1696 17.0158 38.9517 14.9546 40.172 13.1537C41.3922 11.3528 43.0166 9.86228 44.9156 8.80114C46.8146 7.73999 48.9354 7.13765 51.1086 7.04223C53.2818 6.94682 55.4473 7.36099 57.4319 8.25163C59.4166 9.14228 61.1654 10.4847 62.5388 12.1717Z" fill="black"/>
    <path d="M47.63 22.6078C47.9569 22.8824 48.1226 23.3096 48.4234 23.6148C48.9337 24.0531 49.5963 24.2724 50.2673 24.2251C51.9806 24.2513 53.8594 23.5189 54.5395 21.9452C54.7563 21.3718 54.8871 20.7695 54.9275 20.1579L55.5203 14.9615C55.6337 13.9589 55.8255 12.8211 56.6755 12.2718C58.0618 11.4 59.9014 12.7688 61.5188 12.4157C62.1017 12.2675 62.6064 11.903 62.9303 11.3961C63.2542 10.8892 63.373 10.2781 63.2625 9.68677C63.075 8.85414 62.4386 8.19588 62.1116 7.40248C61.9134 6.79285 61.7547 6.17109 61.6365 5.54105C60.7341 2.15822 56.7627 0.257555 53.3101 0.824266C51.392 1.1425 49.6091 2.05796 47.6866 2.33695C46.3091 2.53748 44.901 2.4067 43.5104 2.55492C42.2184 2.68824 40.9622 3.0592 39.805 3.64911C39.5012 3.78356 39.2326 3.98647 39.0203 4.24197C38.8228 4.58706 38.6899 4.96523 38.628 5.35796C38.1615 7.10169 36.6619 8.38769 35.5764 9.85678C34.3349 11.5471 33.6165 13.5645 33.5101 15.659C33.4674 16.194 33.5175 16.7323 33.6583 17.2502C33.7499 17.5553 33.8937 17.8518 33.9635 18.1656C34.1771 19.1203 33.6888 20.075 33.4491 21.0254C33.1512 22.2381 33.2583 23.515 33.7542 24.661C35.4282 28.5103 40.9428 29.7963 42.0893 33.8374C43.1074 34.3256 44.207 34.6212 45.3326 34.7093C46.4573 34.7311 47.6692 34.2472 48.1923 33.2489C49.5655 30.6333 46.2873 28.6019 45.3631 26.5268C44.7833 25.2495 45.4329 20.7769 47.63 22.6078Z" fill="#353045"/>
    <path opacity="0.1" d="M157.882 30.7204C157.185 32.712 156.889 34.8216 157.01 36.9281C156.338 37.4992 155.606 35.7903 154.83 36.2306C152.703 37.4599 150.244 40.385 147.611 40.385C145.328 40.3865 143.076 39.8472 141.042 38.8113C140.407 36.3635 139.531 33.9847 138.426 31.71C138.426 31.71 160.855 22.1718 157.882 30.7204Z" fill="black"/>
    <path d="M162.093 25.1446C162.093 28.0123 161.242 30.8155 159.649 33.1999C158.056 35.5842 155.792 37.4426 153.142 38.54C150.493 39.6374 147.578 39.9246 144.765 39.3651C141.952 38.8057 139.369 37.4248 137.341 35.397C135.313 33.3693 133.933 30.7858 133.373 27.9733C132.814 25.1607 133.101 22.2454 134.198 19.596C135.296 16.9467 137.154 14.6822 139.538 13.089C141.923 11.4959 144.726 10.6455 147.594 10.6455C149.498 10.6449 151.383 11.0196 153.143 11.748C154.902 12.4765 156.501 13.5444 157.847 14.8909C159.194 16.2374 160.262 17.836 160.99 19.5954C161.719 21.3547 162.093 23.2404 162.093 25.1446Z" fill="#D28690"/>
    <path d="M161.474 48.9339C161.474 48.9339 158.745 51.907 158.374 52.1511C158.004 52.3952 150.091 85.7179 149.952 86.1059C149.812 86.4939 140.532 116.582 140.532 116.582L125.662 123.892L126.904 87.0911L137.803 56.7415C137.803 56.7415 141.399 52.6525 142.511 51.1659C143.622 49.6794 157.502 40.7559 157.502 40.7559L159.874 45.6427L161.474 48.9339Z" fill="#F0F3F7"/>
    <path opacity="0.1" d="M159.508 46.3878L142.41 58.6288L142.136 51.9067C143.252 50.4201 157.127 41.501 157.127 41.501L159.508 46.3878Z" fill="black"/>
    <path d="M159.878 45.6427L142.781 57.8836L142.515 51.1659C143.631 49.675 157.507 40.7559 157.507 40.7559L159.878 45.6427Z" fill="#F0F3F7"/>
    <path d="M141.944 48.1753L142.515 51.1658L138.692 55.0499L141.743 48.2189C141.743 48.2189 135.204 52.7744 133.243 53.9819C131.281 55.1894 129.319 59.2785 129.245 60.3945C129.171 61.5105 126.085 78.3287 126.085 78.3287C126.085 78.3287 123.761 84.5538 124.415 86.3194C125.069 88.0849 120.884 143.749 120.884 143.749C121.443 142.668 122.234 141.724 123.2 140.983C124.166 140.242 125.284 139.724 126.473 139.464L124.982 106.568C124.982 106.568 126.795 84.6846 126.887 84.4056C126.978 84.1266 131.115 71.441 131.115 71.441L141.944 48.1753Z" fill="#585B8A"/>
    <path opacity="0.1" d="M142.89 51.5361L142.593 57.6392C142.593 57.6392 138.456 70.6954 137.066 72.8314C135.675 74.9675 131.442 87.7011 131.442 87.7011L129.058 109.82L124.969 111.682L122.955 107.972L126.303 86.6113C126.303 86.6113 132.619 68.5855 133.552 66.724L138.212 56.9068L142.89 51.5361Z" fill="black"/>
    <path d="M142.515 51.1655L142.223 57.2686C142.223 57.2686 138.086 70.3247 136.691 72.4608C135.296 74.5969 131.072 87.3305 131.072 87.3305L128.7 109.445L124.611 111.302L122.567 107.588L125.915 86.2276C125.915 86.2276 132.231 68.1974 133.16 66.3403L137.855 56.5362L142.515 51.1655Z" fill="#663D5C"/>
    <path d="M94.3182 97.7497L102.309 103.282C102.309 103.282 107.945 100.121 104.663 98.0767C101.38 96.0322 98.4683 95.7227 97.4133 95.7227C96.3584 95.7227 94.3182 97.7497 94.3182 97.7497Z" fill="#D28690"/>
    <path d="M100.286 87.5223C100.108 87.6333 99.961 87.7881 99.8595 87.972C99.758 88.156 99.7053 88.3628 99.7064 88.5729C99.7064 90.2687 99.8983 94.7587 101.319 92.7317C103.063 90.2512 102.745 88.0236 105.408 89.6322C107.064 90.6632 108.513 91.9937 109.681 93.5556L108.939 88.2285C108.939 88.2285 103.464 85.5257 100.286 87.5223Z" fill="#D28690"/>
    <path opacity="0.1" d="M162.245 152.577C161.844 153.205 161.491 154.578 161.199 156.348C144.904 161.234 132.981 150.903 132.981 150.903C131.539 146.015 130.36 141.052 129.45 136.038C129.158 134.32 129.223 130.989 129.494 126.927L158.627 121.817C158.627 121.817 164.107 149.695 162.245 152.577Z" fill="black"/>
    <path d="M178.972 69.4052C178.231 71.8246 178.51 76.7463 178.51 76.7463L171.818 108.343C171.818 108.343 168.566 132.689 168.008 135.942C167.45 139.194 166.522 153.505 166.522 153.505C147.563 162.799 132.955 150.162 132.955 150.162C131.513 145.272 130.334 140.308 129.424 135.292C128.491 129.773 131.237 107.663 132.536 97.8411C132.924 94.9334 133.186 93.1025 133.186 93.1025L138.064 74.9808C138.064 74.9808 144.058 59.6926 146.29 55.2331C148.522 50.7735 157.485 40.7558 157.485 40.7558C158.597 40.0495 160.375 42.5431 161.696 44.8143C162.694 46.5319 163.44 48.1274 163.44 48.1274C163.44 48.1274 174.591 52.9575 176.26 55.5382C177.93 58.1189 177.655 63.4373 177.843 63.7163C178.03 63.9953 179.717 66.9902 178.972 69.4052Z" fill="#585B8A"/>
    <path opacity="0.1" d="M152.677 58.1621C152.677 58.1621 153.514 63.0881 151.369 64.5747C149.298 66.0132 133.884 96.3236 132.924 98.2155C133.312 95.3035 133.574 93.4726 133.574 93.4726L138.452 75.3553C138.452 75.3553 144.451 60.0671 146.678 55.6032C148.906 51.1392 157.877 41.1259 157.877 41.1259C158.989 40.4197 160.763 42.9132 162.084 45.1844C160.092 49.3214 155.937 57.142 152.677 58.1621Z" fill="black"/>
    <path d="M152.306 57.792C152.306 57.792 153.139 62.718 150.998 64.2045C148.858 65.6911 133.517 95.9491 132.545 97.8411C132.933 94.9334 133.195 93.1025 133.195 93.1025L138.073 74.9808C138.073 74.9808 144.067 59.6926 146.299 55.2331C148.531 50.7735 157.494 40.7558 157.494 40.7558C158.605 40.0495 160.384 42.5431 161.705 44.8143C159.721 48.9469 155.562 56.7719 152.306 57.792Z" fill="#585B8A"/>
    <path d="M174.421 102.305L169.177 129.59V129.594L168.675 132.205V132.21L167.546 138.082L162.729 137.062L160.484 136.586L129.415 130.004L127.131 129.52L121.917 128.417L122.937 121.643L123.36 118.827L127.122 93.8477L174.421 102.305Z" fill="#9A5E94"/>
    <path d="M145.427 124.607C145.427 124.607 133.068 129.067 135.762 134.364C138.456 139.66 155.741 130.275 155.741 130.275L145.427 124.607Z" fill="#D28690"/>
    <path opacity="0.1" d="M154.255 162.612C154.255 162.982 154.721 167.725 156.578 169.395C158.435 171.065 154.255 162.612 154.255 162.612Z" fill="black"/>
    <path opacity="0.1" d="M141.804 179.43C141.804 179.43 144.032 185.564 152.86 188.075C161.687 190.586 141.804 179.43 141.804 179.43Z" fill="black"/>
    <path opacity="0.1" d="M162.093 25.145C162.093 27.6939 161.422 30.1978 160.146 32.4043C158.87 34.6109 157.035 36.442 154.826 37.7129C153.993 37.247 153.254 36.6306 152.646 35.8951C152.014 35.1279 151.521 34.0816 151.901 33.1662C152.206 32.4294 153.012 31.963 153.208 31.2001C153.301 30.7336 153.277 30.2515 153.139 29.7964C152.977 29.0771 152.825 28.3578 152.668 27.6429C152.533 27.0326 152.293 26.3133 151.687 26.1651C151.081 26.0169 150.575 26.5226 150.1 26.8975C148.936 27.8173 146.704 28.4407 145.305 27.6865C143.906 26.9323 144.298 24.4083 144.071 23.0438C144.068 22.9253 144.04 22.8088 143.987 22.7026C143.934 22.5964 143.859 22.5031 143.766 22.4291C143.562 22.3616 143.345 22.3466 143.134 22.3856C142.38 22.3856 141.774 21.7099 141.556 20.9862C141.401 20.2474 141.317 19.4958 141.303 18.7412C141.22 17.987 140.946 17.1892 140.3 16.8013C139.785 16.5613 139.213 16.4678 138.648 16.531L135.915 16.5615C137.728 14.1101 140.268 12.2927 143.174 11.3677C146.079 10.4428 149.202 10.4574 152.099 11.4095C154.996 12.3615 157.518 14.2026 159.309 16.6708C161.099 19.1391 162.065 22.1089 162.071 25.1581L162.093 25.145Z" fill="black"/>
    <path d="M150.488 26.8973C150.963 26.5224 151.486 26.0254 152.075 26.1693C152.663 26.3131 152.916 27.0412 153.051 27.6427L153.522 29.7919C153.662 30.2482 153.687 30.7316 153.596 31.1999C153.374 31.9672 152.572 32.4293 152.262 33.166C151.883 34.0815 152.38 35.1277 153.008 35.8906C154.153 37.2705 155.736 38.2167 157.494 38.5716C157.952 38.6818 158.43 38.6922 158.893 38.6021C159.93 38.3623 160.637 37.4076 161.195 36.514C164.076 32.0239 166.557 27.1022 167.062 21.7925C167.201 20.7095 167.151 19.6107 166.914 18.5448C166.678 17.7164 166.344 16.9189 165.92 16.169C165.178 14.637 164.236 13.2106 163.117 11.9274C161.134 9.79132 158.396 8.47916 155.584 7.7032C152.422 6.82564 149.119 6.56661 145.859 6.94032C144.987 7.04059 144.15 7.18444 143.291 7.24112C142.213 7.29125 141.132 7.27378 140.056 7.18881L133.639 6.80518C133.273 7.55063 133.639 8.43557 134.075 9.13306C134.511 9.83055 135.052 10.5542 135.017 11.3825C134.982 12.2107 134.394 12.8646 133.94 13.5621C133.487 14.2596 133.142 15.162 133.596 15.8421C134.049 16.5221 134.973 16.5657 135.775 16.557L139.01 16.5221C139.574 16.4642 140.142 16.5622 140.654 16.8055C141.299 17.1934 141.573 17.9956 141.656 18.7454C141.674 19.4997 141.759 20.251 141.909 20.9904C142.131 21.7141 142.733 22.3985 143.487 22.3898C143.698 22.3476 143.917 22.3642 144.119 22.4377C144.212 22.5107 144.287 22.6033 144.34 22.7088C144.393 22.8143 144.421 22.9301 144.424 23.048C144.651 24.4125 144.233 26.9322 145.658 27.6907C147.084 28.4492 149.324 27.8171 150.488 26.8973Z" fill="#663D5C"/>
    <path opacity="0.1" d="M168.915 55.5339C167.312 55.3637 165.699 55.7434 164.341 56.6108C162.982 57.4782 161.959 58.7817 161.439 60.3074C159.695 65.2726 156.787 74.231 157.515 77.7708C158.54 82.7884 159.747 91.1539 159.747 91.1539C159.747 91.1539 165.044 94.2054 162.363 97.2831C159.682 100.361 158.923 104.72 158.923 104.72C158.923 104.72 155.484 106.207 154.743 109.367C154.002 112.528 148.98 116.891 148.98 116.891L141.456 124.42C141.456 124.42 153.906 137.062 156.417 137.707L164.128 128.692L173.235 116.612L181.134 108.33C181.134 108.33 182.991 103.97 182.063 95.6876C181.134 87.4049 177.507 79.5189 177.507 79.5189L177.786 76.7289C177.786 76.7289 178.641 56.7414 168.915 55.5339Z" fill="black"/>
    <path d="M169.656 55.534C168.055 55.3658 166.444 55.7466 165.087 56.6138C163.73 57.4811 162.708 58.7834 162.189 60.3074C160.445 65.2727 157.537 74.2311 158.265 77.7709C159.285 82.7885 160.493 91.154 160.493 91.154C160.493 91.154 165.789 94.2055 163.108 97.2832C160.427 100.361 159.673 104.72 159.673 104.72C159.673 104.72 156.234 106.207 155.488 109.367C154.743 112.528 149.73 116.891 149.73 116.891L142.201 124.42C142.201 124.42 154.651 137.062 157.162 137.707L164.874 128.692L173.959 116.612L181.858 108.33C181.858 108.33 183.719 103.97 182.786 95.6877C181.853 87.405 178.235 79.519 178.235 79.519L178.514 76.729C178.514 76.729 179.382 56.7415 169.656 55.534Z" fill="#585B8A"/>
    <path opacity="0.1" d="M161.875 83.8125C161.875 83.8125 169.774 93.4728 173.122 91.3367C176.47 89.2006 161.875 83.8125 161.875 83.8125Z" fill="black"/>
    <path opacity="0.1" d="M164.848 76.376C165.685 76.655 172.564 86.228 176.095 85.0946C179.626 83.9612 164.848 76.376 164.848 76.376Z" fill="black"/>
    <path opacity="0.1" d="M166.801 92.8193C166.801 92.8193 167.267 98.3034 172.934 97.5579C178.601 96.8125 166.801 92.8193 166.801 92.8193Z" fill="black"/>
    <path opacity="0.1" d="M141.757 48.5894L138.692 55.4204L142.519 51.5363L141.757 48.5894Z" fill="black"/>
    <path d="M141.757 48.2188L138.692 55.0498L142.519 51.1656L141.757 48.2188Z" fill="#F0F3F7"/>
    <path opacity="0.3" d="M129.415 130.004L127.131 129.52L122.937 121.643L123.36 118.827L129.415 130.004Z" fill="black"/>
    <path opacity="0.3" d="M169.177 129.594L168.675 132.205V132.21L162.729 137.062L160.484 136.587L169.177 129.594Z" fill="black"/>
    <path opacity="0.1" d="M75.4904 99.1094C74.3396 99.3012 73.2236 99.4756 72.2035 99.6063C66.5364 100.352 53.0573 93.6602 53.0573 93.6602C53.0573 93.6602 36.6096 79.9066 31.871 66.8983C27.1324 53.8901 37.5381 51.9371 37.5381 51.9371C41.4615 49.7052 49.9927 55.9303 51.2003 56.9547C52.4078 57.9792 53.4322 60.5773 53.3363 62.2513C53.2404 63.9253 56.1263 66.0613 56.1263 66.0613C56.1263 66.0613 61.0523 74.61 62.2599 75.5385C63.4674 76.467 63.7464 77.304 64.1169 78.8865C64.4875 80.4689 67.7395 81.768 69.1345 81.6721C70.5295 81.5762 72.186 82.1385 72.186 82.8796C72.186 83.4769 73.5505 83.7733 74.6709 83.8692C75.0022 88.6339 75.3291 94.8765 75.4904 99.1094Z" fill="black"/>
    <path opacity="0.1" d="M75.4381 97.7495C74.5663 97.889 73.7293 98.0154 72.9446 98.12C67.2775 98.8655 53.8028 92.1739 53.8028 92.1739C53.8028 92.1739 37.3551 78.4202 32.6165 65.412C27.8779 52.4038 38.2836 50.4508 38.2836 50.4508C42.207 48.2188 50.7339 54.444 51.9414 55.4684C53.1489 56.4928 54.1734 59.091 54.0818 60.765C53.9903 62.439 56.8674 64.575 56.8674 64.575C56.8674 64.575 61.7935 73.1237 63.001 74.0522C64.2085 74.9807 64.4875 75.8177 64.8624 77.4002C65.2373 78.9826 68.485 80.2773 69.88 80.1858C71.275 80.0942 72.9315 80.6522 72.9315 81.3933C72.9315 81.8292 73.7075 82.1213 74.5706 82.2652C74.6055 82.7708 74.636 83.307 74.6753 83.865C74.963 88.1502 75.2594 93.6168 75.4381 97.7495Z" fill="black"/>
    <path opacity="0.1" d="M96.995 88.3901L96.6419 96.7426H96.2626L95.4779 96.3067L95.5738 89.1094C96.0319 88.84 96.5066 88.5998 96.995 88.3901Z" fill="black"/>
    <path d="M37.5382 51.1921C37.5382 51.1921 27.1324 53.145 31.871 66.1533C36.6096 79.1615 53.0573 92.9195 53.0573 92.9195C53.0573 92.9195 66.532 99.6067 72.2035 98.8656C77.875 98.1245 86.5108 96.1716 87.6268 96.4506C88.7428 96.7295 96.2713 96.7296 96.2713 96.7296L96.6419 88.0109L87.9232 87.5445L83.4636 86.6159C83.4636 86.6159 81.8812 85.3081 80.9527 85.4999C80.0241 85.6917 78.0755 84.384 78.0755 84.384C78.0755 84.384 76.5846 83.1764 75.4599 83.1764C74.3352 83.1764 72.2079 82.8974 72.2079 82.1563C72.2079 81.4153 70.5339 80.8485 69.1563 80.9488C67.7788 81.0491 64.4875 79.7413 64.1039 78.1414C63.7202 76.5415 63.4543 75.7263 62.2468 74.7978C61.0393 73.8693 56.1132 65.3163 56.1132 65.3163C56.1132 65.3163 53.2317 63.1802 53.3233 61.5106C53.4148 59.841 52.3947 57.2341 51.1872 56.2097C49.9797 55.1852 41.4354 48.9645 37.5382 51.1921Z" fill="#DCE6F2"/>
    <path opacity="0.1" d="M64.3043 81.1143C64.3043 81.1143 60.3068 85.1118 61.3269 85.8528L64.3043 81.1143Z" fill="black"/>
    <path opacity="0.1" d="M68.5765 84.2749C68.5765 84.2749 63.3715 88.2724 64.7665 88.5514C66.1614 88.8304 68.5765 84.2749 68.5765 84.2749Z" fill="black"/>
    <path opacity="0.1" d="M59.7445 90.2036C60.49 90.5785 71.5452 97.1785 75.7301 97.0826L59.7445 90.2036Z" fill="black"/>
    <path opacity="0.1" d="M60.4944 46.0831C60.4944 46.0831 58.5414 52.4956 57.796 52.4956C57.2118 52.4956 47.4033 44.5529 43.3099 41.2137L43.4887 41.0655C43.4887 41.0655 43.8592 38.184 45.3457 36.7061C46.8323 35.2283 60.4944 46.0831 60.4944 46.0831Z" fill="black"/>
    <path d="M60.1194 45.3374C60.1194 45.3374 58.1708 51.75 57.4253 51.75C56.8368 51.75 47.0283 43.8073 42.9349 40.4681L43.1137 40.3199C43.1137 40.3199 43.4886 37.4384 44.9751 35.9605C46.4616 34.4827 60.1194 45.3374 60.1194 45.3374Z" fill="#DCE6F2"/>
    <g opacity="0.15">
        <path opacity="0.15" d="M33.8022 24.6133C35.11 27.5994 38.7109 29.0467 40.799 31.4269C39.5566 28.5018 35.9252 27.0676 33.8022 24.6133Z" fill="black"/>
        <path opacity="0.15" d="M47.1288 31.4923C46.61 32.4906 45.385 32.9745 44.2691 32.9527C43.2769 32.8815 42.3055 32.6335 41.4006 32.2203C41.7289 32.7043 41.979 33.2368 42.1417 33.7984C43.1595 34.2875 44.2593 34.5832 45.385 34.6703C46.5141 34.6964 47.726 34.2126 48.2448 33.2099C49.0774 31.6188 48.2099 30.2587 47.1942 28.9727C47.3835 29.3678 47.4763 29.8023 47.4649 30.2404C47.4535 30.6784 47.3383 31.1075 47.1288 31.4923Z" fill="black"/>
        <path opacity="0.15" d="M63.3062 9.64344C63.1188 8.80645 62.4823 8.14819 62.1553 7.35916C61.9551 6.74864 61.7964 6.12528 61.6802 5.49336C61.4325 4.59981 60.9735 3.77897 60.3419 3.1001C60.4296 3.31467 60.5039 3.53452 60.5642 3.75835C60.6864 4.39306 60.8494 5.01921 61.0524 5.63286C61.3794 6.4219 62.0158 7.08016 62.2033 7.91715C62.3138 8.50843 62.195 9.11959 61.8711 9.62647C61.5472 10.1333 61.0425 10.4979 60.4596 10.6461C58.8466 10.9992 57.007 9.6042 55.6207 10.5022C54.7706 11.0471 54.5745 12.1849 54.4611 13.1876C54.2664 14.9313 54.0688 16.6649 53.8683 18.3882C53.8289 18.9996 53.6997 19.6019 53.4847 20.1756C52.8002 21.7449 50.9214 22.4816 49.2081 22.4555C48.5388 22.5002 47.8784 22.2811 47.3685 21.8452C47.1207 21.4942 46.8544 21.1566 46.5708 20.8338C44.3911 19.0029 43.7285 23.4799 44.3039 24.7572C44.5921 25.3318 44.9493 25.8691 45.3676 26.3571C44.8881 24.9185 45.5594 20.7771 47.6867 22.5514C47.9703 22.8731 48.2352 23.2108 48.4801 23.5628C48.9921 23.9982 49.6535 24.2171 50.3241 24.1731C52.0374 24.1992 53.9162 23.4625 54.6006 21.8931C54.8161 21.3181 54.9453 20.7143 54.9842 20.1015C55.1819 18.3577 55.3795 16.6256 55.5771 14.9051C55.6905 13.9025 55.8866 12.7647 56.7323 12.2198C58.123 11.3218 59.9626 12.7168 61.5756 12.3593C62.154 12.2094 62.6541 11.8458 62.9752 11.3419C63.2964 10.838 63.4146 10.2311 63.3062 9.64344Z" fill="black"/>
    </g>
    <path opacity="0.1" d="M159.822 37.4906C159.358 37.5771 158.881 37.5652 158.422 37.4558C156.667 37.1011 155.085 36.1566 153.941 34.7791C153.309 34.0119 152.812 32.9657 153.195 32.0502C153.501 31.3135 154.303 30.8514 154.503 30.0842C154.594 29.6158 154.568 29.1323 154.429 28.6761L153.958 26.5269C153.823 25.9166 153.588 25.1974 152.982 25.0535C152.376 24.9096 151.87 25.4066 151.395 25.7815C150.231 26.7013 147.995 27.3291 146.6 26.5705C145.205 25.812 145.593 23.2923 145.366 21.9279C145.362 21.8101 145.333 21.6946 145.28 21.5893C145.228 21.4839 145.153 21.3912 145.061 21.3176C144.857 21.2464 144.637 21.2299 144.424 21.2696C143.67 21.2696 143.069 20.5939 142.846 19.8703C142.695 19.1311 142.612 18.3796 142.598 17.6252C142.511 16.8754 142.24 16.0733 141.591 15.6853C141.079 15.4442 140.511 15.3463 139.947 15.402L136.713 15.4368C135.915 15.4368 134.969 15.3845 134.533 14.7219C134.097 14.0593 134.42 13.1177 134.877 12.442C135.335 11.7663 135.915 11.0949 135.954 10.2623C135.993 9.42969 135.453 8.7104 135.013 8.01291C134.76 7.63149 134.574 7.20988 134.463 6.76615L133.535 6.70947C133.173 7.45056 133.535 8.3355 133.971 9.03735C134.407 9.7392 134.952 10.4585 134.912 11.2824C134.873 12.1063 134.293 12.7689 133.836 13.4621C133.378 14.1552 133.042 15.0619 133.496 15.742C133.949 16.422 134.869 16.47 135.675 16.4613L138.91 16.422C139.474 16.3675 140.042 16.4669 140.553 16.7098C141.203 17.0977 141.477 17.8998 141.56 18.6496C141.574 19.4043 141.659 20.1559 141.813 20.8947C142.031 21.614 142.637 22.3028 143.391 22.2897C143.603 22.2523 143.82 22.2688 144.023 22.3376C144.116 22.412 144.191 22.5054 144.243 22.6115C144.296 22.7176 144.325 22.8339 144.329 22.9523C144.555 24.3124 144.137 26.8365 145.562 27.595C146.988 28.3535 149.211 27.7258 150.357 26.806C150.833 26.431 151.36 25.9341 151.949 26.0736C152.537 26.2131 152.79 26.9454 152.921 27.547L153.396 29.7005C153.534 30.1571 153.558 30.6406 153.466 31.1086C153.248 31.8715 152.441 32.3379 152.136 33.0703C151.757 33.9858 152.249 35.0364 152.881 35.7992C154.034 37.1827 155.627 38.1277 157.393 38.4759C157.852 38.5853 158.329 38.5972 158.793 38.5107C159.542 38.2823 160.185 37.7938 160.606 37.1332C160.368 37.2983 160.102 37.4193 159.822 37.4906Z" fill="black"/>
    <defs>
        <linearGradient id="paint0_linear" x1="100.827" y1="255.23" x2="100.827" y2="-0.00833694" gradientUnits="userSpaceOnUse">
            <stop stop-color="#808080" stop-opacity="0.25"/>
            <stop offset="0.54" stop-color="#808080" stop-opacity="0.12"/>
            <stop offset="1" stop-color="#808080" stop-opacity="0.1"/>
        </linearGradient>
    </defs>
</svg>