<svg width="314" height="250" viewBox="0 0 314 250" fill="none" xmlns="http://www.w3.org/2000/svg">
    <path opacity="0.1" d="M150.926 250C222.356 250 280.261 245.983 280.261 241.028C280.261 236.073 222.356 232.056 150.926 232.056C79.4957 232.056 21.5902 236.073 21.5902 241.028C21.5902 245.983 79.4957 250 150.926 250Z" fill="#9A5E94"/>
    <path opacity="0.1" d="M10.2129 28.5685C2.15365 38.003 0.114817 49.9628 0.00371694 61.4302C-0.0743534 69.5164 1.03064 78.2873 7.78073 84.2507C16.6657 92.0968 33.7241 93.6432 38.1261 103.669C42.0296 112.578 32.9464 121.541 24.2205 127.829C15.4947 134.117 5.47465 141.816 7.10512 151.178C8.13805 157.156 13.8042 161.85 19.4552 165.789C30.1989 173.296 42.2758 179.863 55.8901 183.058C80.5903 188.847 107.269 182.854 130.414 173.779C144.662 168.194 161.204 161.339 175.353 167.083C179.088 168.6 182.259 170.891 185.703 172.789C195.717 178.274 207.947 180.295 219.85 182.01C237.296 184.532 255.63 186.637 272.439 182.088C289.248 177.539 303.775 164.234 301.202 150.043C298.776 136.675 283.33 127.961 271.022 118.83C266.68 115.608 262.26 111.338 263.341 106.651C264.2 102.934 268.241 100.345 271.845 97.9431C290.81 85.2296 304.748 67.6788 311.156 48.4344C314.183 39.3543 315.276 28.8928 308.523 21.2359C303.076 15.0594 293.74 12.0927 284.861 9.65149C268.386 5.12041 251.498 1.29196 234.17 0.259027C216.841 -0.773904 198.939 1.19587 183.556 7.73276C176.178 10.8706 169.491 15.0023 162.042 18.023C140.891 26.5988 115.968 25.4457 92.379 24.0915C83.9504 23.6081 75.1404 22.7493 67.8228 19.068C61.5172 15.8911 57.9139 13.6151 50.1069 13.2607C34.8051 12.5671 18.9748 18.2933 10.2129 28.5685Z" fill="#9A5E94"/>
    <path d="M124.436 93.1986L124.106 93.8803L121.965 98.2792L99.5074 144.392L61.4 237.764L55.9531 237.806L94.0815 144.392L120.064 91.0337L121.965 91.9735L124.106 93.0335L124.436 93.1986Z" fill="#535461"/>
    <path d="M191.294 237.806L186.811 237.764L148.701 144.392L126.835 99.4893L124.106 93.8803L123.772 93.1986L124.106 93.0335L126.835 91.6823L128.147 91.0337L153.739 144.392L191.294 237.806Z" fill="#535461"/>
    <path d="M126.838 78.4912H121.965V237.806H126.838V78.4912Z" fill="#535461"/>
    <path d="M123.844 52.2451C122.2 52.2467 120.624 52.9005 119.462 54.063C118.299 55.2255 117.645 56.8017 117.644 58.4457V60.6617C117.626 61.4877 117.773 62.3089 118.076 63.0773C118.38 63.8457 118.833 64.5457 119.411 65.1363C119.989 65.7268 120.679 66.1961 121.44 66.5164C122.202 66.8368 123.02 67.0018 123.846 67.0018C124.672 67.0018 125.49 66.8368 126.251 66.5164C127.013 66.1961 127.703 65.7268 128.28 65.1363C128.858 64.5457 129.312 63.8457 129.616 63.0773C129.919 62.3089 130.066 61.4877 130.048 60.6617V58.4457C130.046 56.8014 129.391 55.2252 128.228 54.0628C127.065 52.9004 125.489 52.2467 123.844 52.2451ZM128.495 60.6527C128.495 61.8871 128.005 63.0709 127.132 63.9437C126.259 64.8165 125.076 65.3069 123.841 65.3069C122.607 65.3069 121.423 64.8165 120.55 63.9437C119.677 63.0709 119.187 61.8871 119.187 60.6527V58.4367C119.187 57.2023 119.677 56.0185 120.55 55.1457C121.423 54.2729 122.607 53.7825 123.841 53.7825C125.076 53.7825 126.259 54.2729 127.132 55.1457C128.005 56.0185 128.495 57.2023 128.495 58.4367V60.6527Z" fill="#535461"/>
    <path opacity="0.1" d="M153.739 144.392H148.701L126.835 99.4891V144.392H121.965V98.279L99.5074 144.392H94.0815L120.064 91.0335L121.965 91.9734V78.4912H126.835V91.6821L128.147 91.0335L153.739 144.392Z" fill="black"/>
    <path opacity="0.1" d="M130.048 58.6675V60.6613C130.066 61.4872 129.919 62.3085 129.616 63.0769C129.312 63.8452 128.858 64.5453 128.28 65.1358C127.703 65.7264 127.013 66.1956 126.251 66.516C125.49 66.8363 124.672 67.0013 123.846 67.0013C123.02 67.0013 122.202 66.8363 121.44 66.516C120.679 66.1956 119.989 65.7264 119.411 65.1358C118.833 64.5453 118.38 63.8452 118.076 63.0769C117.773 62.3085 117.626 61.4872 117.644 60.6613V58.6675H119.193V60.6613C119.193 61.8956 119.683 63.0795 120.556 63.9523C121.429 64.8251 122.613 65.3155 123.847 65.3155C125.082 65.3155 126.265 64.8251 127.138 63.9523C128.011 63.0795 128.502 61.8956 128.502 60.6613V58.6675H130.048Z" fill="black"/>
    <path d="M217.544 59.1118H30.1478V143.728H217.544V59.1118Z" fill="#535461"/>
    <path d="M213.778 61.7695H33.4719V138.855H213.778V61.7695Z" fill="white"/>
    <g opacity="0.2">
        <path opacity="0.2" d="M59.8026 70.1499H51.278V74.0324H59.8026V70.1499Z" fill="#9A5E94"/>
    </g>
    <g opacity="0.2">
        <path opacity="0.2" d="M59.8026 77.6597H51.278V81.5422H59.8026V77.6597Z" fill="#9A5E94"/>
    </g>
    <g opacity="0.2">
        <path opacity="0.2" d="M59.8026 85.1665H51.278V89.049H59.8026V85.1665Z" fill="#9A5E94"/>
    </g>
    <g opacity="0.2">
        <path opacity="0.2" d="M59.8026 92.6733H51.278V96.5558H59.8026V92.6733Z" fill="#9A5E94"/>
    </g>
    <g opacity="0.2">
        <path opacity="0.2" d="M59.8026 100.183H51.278V104.066H59.8026V100.183Z" fill="#9A5E94"/>
    </g>
    <g opacity="0.2">
        <path opacity="0.2" d="M59.8026 107.69H51.278V111.572H59.8026V107.69Z" fill="#9A5E94"/>
    </g>
    <g opacity="0.2">
        <path opacity="0.2" d="M59.8026 115.196H51.278V119.079H59.8026V115.196Z" fill="#9A5E94"/>
    </g>
    <g opacity="0.2">
        <path opacity="0.2" d="M59.8026 122.704H51.278V126.586H59.8026V122.704Z" fill="#9A5E94"/>
    </g>
    <g opacity="0.2">
        <path opacity="0.2" d="M75.8521 126.589H67.3274V130.471H75.8521V126.589Z" fill="#9A5E94"/>
    </g>
    <g opacity="0.2">
        <path opacity="0.2" d="M90.8687 126.589H82.344V130.471H90.8687V126.589Z" fill="#9A5E94"/>
    </g>
    <g opacity="0.2">
        <path opacity="0.2" d="M105.882 126.589H97.3575V130.471H105.882V126.589Z" fill="#9A5E94"/>
    </g>
    <g opacity="0.2">
        <path opacity="0.2" d="M120.899 126.589H112.374V130.471H120.899V126.589Z" fill="#9A5E94"/>
    </g>
    <g opacity="0.2">
        <path opacity="0.2" d="M135.912 126.589H127.388V130.471H135.912V126.589Z" fill="#9A5E94"/>
    </g>
    <g opacity="0.2">
        <path opacity="0.2" d="M150.929 126.589H142.404V130.471H150.929V126.589Z" fill="#9A5E94"/>
    </g>
    <g opacity="0.2">
        <path opacity="0.2" d="M165.942 126.589H157.418V130.471H165.942V126.589Z" fill="#9A5E94"/>
    </g>
    <g opacity="0.2">
        <path opacity="0.2" d="M180.959 126.589H172.434V130.471H180.959V126.589Z" fill="#9A5E94"/>
    </g>
    <g opacity="0.2">
        <path opacity="0.2" d="M195.972 126.589H187.448V130.471H195.972V126.589Z" fill="#9A5E94"/>
    </g>
    <path d="M75.8521 98.3696H67.3274V122.704H75.8521V98.3696Z" fill="#9A5E94"/>
    <path d="M90.8687 87.1094H82.344V122.706H90.8687V87.1094Z" fill="#9A5E94"/>
    <path d="M105.882 77.6597H97.3575V122.706H105.882V77.6597Z" fill="#9A5E94"/>
    <path d="M120.899 82.5571H112.374V122.703H120.899V82.5571Z" fill="#9A5E94"/>
    <path d="M135.912 74.0356H127.388V122.707H135.912V74.0356Z" fill="#9A5E94"/>
    <g opacity="0.2">
        <path opacity="0.2" d="M150.929 92.6733H142.404V122.703H150.929V92.6733Z" fill="#9A5E94"/>
    </g>
    <g opacity="0.2">
        <path opacity="0.2" d="M165.942 92.6733H157.418V122.703H165.942V92.6733Z" fill="#9A5E94"/>
    </g>
    <g opacity="0.2">
        <path opacity="0.2" d="M180.959 92.6733H172.434V122.703H180.959V92.6733Z" fill="#9A5E94"/>
    </g>
    <g opacity="0.2">
        <path opacity="0.2" d="M195.972 92.6733H187.448V122.703H195.972V92.6733Z" fill="#9A5E94"/>
    </g>
    <path d="M186.469 92.6074L113.473 97.0995V98.5227L188.024 95.5651L186.469 92.6074Z" fill="#535461"/>
    <path d="M272.893 122.262C272.893 122.262 276.712 115.98 275.697 106.125C274.682 96.2702 271.01 80.3199 271.01 80.3199C271.01 80.3199 272.604 71.3838 263.957 70.1287C263.957 70.1287 258.582 69.1288 254.738 66.7116C253.309 65.8108 252.093 64.7208 251.435 63.4086C251.435 63.4086 251.384 63.5558 251.285 63.826C251.2 63.6909 251.122 63.5516 251.051 63.4086C251.051 63.4086 251.03 63.4627 250.997 63.5588L249.529 61.2707C249.529 61.2707 249.327 61.4839 248.988 61.8352C248.398 60.9875 247.895 60.082 247.487 59.1328C247.852 59.0446 248.21 58.9302 248.559 58.7905C248.892 58.6802 249.192 58.4882 249.433 58.232C249.643 57.9398 249.779 57.6007 249.829 57.2441C250.063 56.1028 250.13 54.9335 250.027 53.7729C249.946 52.8721 249.763 51.9713 249.826 51.0555C249.892 50.0796 250.237 49.1368 250.285 48.1579C250.369 46.4343 249.514 44.7949 248.457 43.4286C247.826 42.6149 247.117 41.8582 246.571 40.9874C246.097 40.2307 245.751 39.396 245.241 38.6603C244.04 36.9488 242.037 35.9399 239.983 35.5826C237.929 35.2252 235.815 35.4474 233.758 35.7867C231.957 36.087 230.155 36.5224 228.354 36.6275C226.78 36.7176 225.498 36.1861 224.057 37.228C223.579 37.58 223.183 38.0301 222.894 38.548C222.605 39.0659 222.43 39.6397 222.381 40.2307C222.358 40.432 222.373 40.6358 222.426 40.8313C222.511 41.0338 222.612 41.2296 222.726 41.4168C223.366 42.678 222.393 44.1763 222.519 45.5846C222.596 46.2073 222.881 46.7858 223.328 47.2262C223.775 47.6666 224.358 47.9431 224.981 48.0108C224.924 48.1309 224.861 48.248 224.807 48.3711C224.01 50.1728 223.651 52.138 223.761 54.1052C223.87 56.0725 224.445 57.9857 225.438 59.6876C226.431 61.3896 227.813 62.8318 229.471 63.8957C231.13 64.9596 233.017 65.6149 234.977 65.8078L235.536 66.2372C236.797 67.2131 238.214 68.3811 239.581 69.6513L239.554 69.6723L239.331 69.5462C238.915 69.8751 238.478 70.1761 238.022 70.447C236.758 71.2217 234.719 72.2276 232.425 72.3417C232.425 72.3417 228.318 74.5186 226.903 81.6981C224.873 83.5178 220.528 86.8027 214.787 87.6585C206.719 88.8596 196.771 89.2529 196.771 89.2529C196.771 89.2529 196.69 89.397 196.576 89.6613L195.657 89.4931C195.657 89.4931 195.657 89.6042 195.618 89.7934L195.258 89.6313C192.408 88.3851 186.715 86.5685 185.994 91.574C185.027 98.2881 191.429 97.5164 191.429 97.5164C192.695 97.0354 193.992 96.6411 195.312 96.3363L195.669 96.2672C195.73 96.4423 195.815 96.6081 195.921 96.7597H196.792C197.095 97.3856 197.46 97.9791 197.882 98.5313L218.174 98.0869C218.174 98.0869 221.642 97.3302 224.843 97.8106C223.447 108.248 221.799 119.694 221.799 119.694C221.799 119.694 218.346 137.822 220.763 139.716C222.166 139.248 223.596 138.865 225.045 138.569C225.067 139.689 225.185 140.806 225.399 141.905L226.945 152.028C226.945 152.028 227.546 162.369 229.555 168.542L231.326 176.98L232.81 183.358L233.644 194.182C234.791 198.768 235.619 203.427 236.125 208.127C236.908 215.4 241.163 227.152 241.731 228.699C240.277 230.755 237.293 234.245 233.548 234.605C228.203 235.121 228.074 238.343 231.81 239.502C235.545 240.661 243.406 239.502 243.406 239.502L254.492 236.761C254.159 238.806 253.985 240.421 254.228 240.595C254.936 241.112 265.695 243.898 266.083 239.436C266.113 239.068 266.14 238.711 266.164 238.364C266.324 235.506 265.942 232.643 265.038 229.927C264.951 229.659 264.872 229.389 264.803 229.119C264.963 228.941 265.109 228.751 265.242 228.551C265.242 228.551 266.016 216.505 266.596 212.187C266.641 211.841 266.671 211.421 266.686 210.947C266.953 205.77 265.065 192.153 265.065 192.153C265.065 192.153 262.732 183.295 262.819 179.223C262.832 178.885 262.89 178.55 262.99 178.226C262.99 178.226 262.99 178.145 262.96 178.01C262.96 177.953 262.987 177.893 263.005 177.839C263.005 177.839 261.822 169.731 261.987 164.909C262.01 164.19 262.111 163.475 262.287 162.777C262.475 161.861 262.57 160.929 262.572 159.994C262.723 156.691 262.548 150.986 262.308 145.635C262.335 145.545 262.362 145.455 262.383 145.349C262.432 144.923 262.381 144.492 262.236 144.088C262.218 143.743 262.203 143.401 262.185 143.061C262.284 142.722 262.365 142.362 262.437 141.989H262.593V142.01C262.593 142.01 272.688 141.527 275.01 138.822C275.01 138.822 272.664 131.534 271.364 125.61L272.893 122.262ZM229.389 99.5942L229.23 99.5372C229.486 98.6364 229.789 97.5884 230.131 96.4894C229.84 97.6785 229.588 98.7595 229.389 99.5942ZM239.635 69.7203L239.68 69.7624L239.632 69.7353L239.635 69.7203ZM252.246 226.017C251.703 224.146 249.544 216.52 249.613 212.883C249.628 212.567 249.683 212.254 249.778 211.953C249.978 211.294 250.079 210.608 250.078 209.92C250.294 206.124 248.841 199.323 248.841 199.323C248.841 199.323 245.589 190.15 245.838 182.865C245.838 182.682 245.859 182.499 245.871 182.316C245.925 181.625 245.967 180.878 245.997 180.088V180.073C246.121 177.259 246.094 173.872 246.012 170.713L245.994 170.596C245.883 166.413 245.676 162.648 245.589 161.159C245.889 163.312 247.811 176.713 248.64 178.905C248.64 178.905 249.093 185.087 251.153 190.315L253.411 203.905C253.411 203.905 253.991 220.078 254.955 224.651C255.387 226.687 255.753 228.059 256.026 228.954C255.636 230.776 255.006 233.83 254.582 236.359C254.333 234.71 253.456 228.428 252.249 226.017H252.246Z" fill="url(#paint0_linear)"/>
    <path d="M242.592 226.435C242.592 226.435 238.824 233.266 233.524 233.777C228.224 234.287 228.098 237.479 231.801 238.629C235.503 239.779 243.295 238.629 243.295 238.629L254.405 235.884C254.405 235.884 253.063 224.901 251.276 224.327C249.49 223.754 242.592 226.435 242.592 226.435Z" fill="#4C4C78"/>
    <path d="M256.135 226.561C256.135 226.561 253.324 239.202 254.033 239.716C254.741 240.229 265.398 242.97 265.782 238.565C265.812 238.195 265.839 237.841 265.863 237.503C266.021 234.67 265.642 231.832 264.746 229.14C264.446 228.239 264.236 227.275 264.314 226.561C264.491 224.774 256.135 226.561 256.135 226.561Z" fill="#4C4C78"/>
    <path d="M252.648 66.5138C252.648 66.5138 244.028 87.6889 245.562 80.8878C246.577 76.3837 240.016 70.3993 235.479 66.8831C233.17 65.0815 231.386 63.9375 231.386 63.9375C231.386 63.9375 247.571 45.0685 246.424 53.2088C246.109 55.4383 246.415 57.7114 247.307 59.7787C249.093 64.0246 252.648 66.5138 252.648 66.5138Z" fill="#FFB9B9"/>
    <path d="M197.582 96.5945C197.125 96.4774 196.381 96.5525 195.609 96.7176C194.302 97.0195 193.017 97.4097 191.763 97.8857C191.763 97.8857 185.418 98.6514 186.376 91.9974C187.087 87.0369 192.729 88.8385 195.555 90.0696C196.516 90.493 197.152 90.8473 197.152 90.8473L197.582 96.5945Z" fill="#FFB9B9"/>
    <path opacity="0.1" d="M197.582 96.5947C197.125 96.4776 196.381 96.5527 195.609 96.7178C194.918 94.9762 195.444 90.8475 195.555 90.0698C196.516 90.4932 197.152 90.8475 197.152 90.8475L197.582 96.5947Z" fill="black"/>
    <path d="M197.609 90.2412L195.948 89.9409C195.948 89.9409 195.099 95.6461 196.21 97.1474H198.119L197.609 90.2412Z" fill="#CBCDDA"/>
    <path d="M230.912 100.651C230.912 100.651 225.837 97.6156 225.231 101.447C224.624 105.279 223.826 111.824 223.826 111.824L222.42 120.157L220.601 136.852L220.856 139.693C220.856 139.693 226.261 137.873 227.528 138.512C228.795 139.152 229.828 131.489 229.828 131.489L231.93 123.571L232.248 106.78L230.912 100.651Z" fill="#4C4C78"/>
    <path opacity="0.1" d="M230.912 100.651C230.912 100.651 225.837 97.6156 225.231 101.447C224.624 105.279 223.826 111.824 223.826 111.824L222.42 120.157L220.601 136.852L220.856 139.693C220.856 139.693 226.261 137.873 227.528 138.512C228.795 139.152 229.828 131.489 229.828 131.489L231.93 123.571L232.248 106.78L230.912 100.651Z" fill="black"/>
    <path d="M228.176 80.9839C228.176 80.9839 222.91 86.9232 214.913 88.1183C206.917 89.3134 197.05 89.7007 197.05 89.7007C197.05 89.7007 194.561 94.1538 198.152 98.895L218.27 98.4506C218.27 98.4506 222.723 97.4838 226.174 98.4506L228.176 80.9839Z" fill="#4C4C78"/>
    <path opacity="0.05" d="M228.176 80.9839C228.176 80.9839 222.91 86.9232 214.913 88.1183C206.917 89.3134 197.05 89.7007 197.05 89.7007C197.05 89.7007 194.561 94.1538 198.152 98.895L218.27 98.4506C218.27 98.4506 222.723 97.4838 226.174 98.4506L228.176 80.9839Z" fill="black"/>
    <path opacity="0.1" d="M246.454 59.5956C244.49 63.7994 241.076 66.8982 236.124 66.8982C235.905 66.8982 235.692 66.8982 235.479 66.8831C233.17 65.0815 231.386 63.9375 231.386 63.9375C231.386 63.9375 247.571 45.0685 246.424 53.2088C246.069 55.7011 245.664 57.7249 246.454 59.5956Z" fill="black"/>
    <path d="M248.46 54.1753C248.458 56.6153 247.733 59 246.376 61.0278C245.019 63.0557 243.091 64.6357 240.836 65.5681C238.581 66.5004 236.101 66.7433 233.708 66.266C231.315 65.7887 229.117 64.6126 227.393 62.8864C225.668 61.1602 224.495 58.9615 224.02 56.5682C223.545 54.1748 223.79 51.6944 224.724 49.4405C225.659 47.1866 227.241 45.2604 229.27 43.9054C231.299 42.5504 233.685 41.8276 236.125 41.8281C237.746 41.825 239.353 42.1423 240.852 42.7618C242.35 43.3813 243.712 44.2909 244.858 45.4382C246.004 46.5855 246.913 47.948 247.531 49.4474C248.149 50.9468 248.464 52.5535 248.46 54.1753Z" fill="#FFB9B9"/>
    <path d="M255.999 129.574C255.999 129.574 228.483 132.003 227.474 128.49C226.465 124.976 230.281 115.464 230.281 115.464L229.038 102.183L228.993 101.675C228.993 101.675 232.44 87.3074 232.314 86.1604C232.194 85.1274 237.863 73.0716 239.028 70.6064C239.166 70.3211 239.238 70.165 239.238 70.165L239.458 70.2911L239.554 70.3481L240.902 71.1348L246.226 69.8737L252.642 66.5137L253.243 103.27L255.999 129.574Z" fill="#CBCDDA"/>
    <path opacity="0.1" d="M241.698 70.6095C241.698 70.6095 239.815 70.099 239.079 71.9817C238.791 72.791 238.45 73.5805 238.058 74.3449L237.326 78.7168L235.983 85.623L234.993 116.176L235.44 121.601L237.899 117.229L238.347 88.6708V85.1186C238.491 82.0474 239.184 79.0269 240.394 76.2005L240.737 75.3988L242.875 72.6513L241.698 70.6095Z" fill="black"/>
    <path d="M241.316 70.2252C241.316 70.2252 239.431 69.7148 238.698 71.5975C238.409 72.407 238.067 73.1965 237.674 73.9606L236.941 78.3355L235.599 85.2417L234.611 115.794L235.059 121.223L237.518 116.836L237.965 88.2955V84.7343C238.112 81.6635 238.806 78.6435 240.013 75.8163L240.358 75.0145L242.496 72.2701L241.316 70.2252Z" fill="#4C4C78"/>
    <path opacity="0.1" d="M249.36 62.3398C249.36 62.3398 242.848 69.2461 240.547 70.0658C240.547 70.0658 241.698 75.3025 242.848 76.3234C242.848 76.3234 249.682 69.3542 250.892 68.7897L251.907 66.3064L249.36 62.3398Z" fill="black"/>
    <path d="M249.36 61.9468C249.36 61.9468 242.848 68.853 240.547 69.6727C240.547 69.6727 241.698 74.9095 242.848 75.9304C242.848 75.9304 249.682 68.9611 250.892 68.3966L251.907 65.9164L249.36 61.9468Z" fill="#CBCDDA"/>
    <path opacity="0.1" d="M239.62 70.165L239.554 70.3452L237.467 75.9392L233.734 86.4938C233.734 86.4938 233.701 86.6019 233.635 86.794C233.017 88.7158 229.693 99.1442 229.038 102.174L228.993 101.666C228.993 101.666 232.44 87.2985 232.314 86.1514C232.194 85.1185 237.863 73.0627 239.028 70.5974C239.214 70.4713 239.358 70.3632 239.457 70.2821L239.62 70.165Z" fill="black"/>
    <path d="M239.238 70.1621L237.082 75.9393L233.35 86.4938C233.35 86.4938 233.317 86.6019 233.251 86.7941C232.596 88.842 228.864 100.531 228.564 102.669C228.224 105.018 223.531 117.71 223.531 117.71L220.85 139.687C218.448 137.822 221.859 119.869 221.859 119.869C221.859 119.869 225.69 93.2439 226.597 84.3859C227.504 75.528 232.395 72.9396 232.395 72.9396C234.653 72.8255 236.689 71.8286 237.941 71.0629C238.393 70.7922 238.827 70.4912 239.238 70.1621Z" fill="#4C4C78"/>
    <path opacity="0.1" d="M266.278 211.556C265.704 215.835 264.938 227.771 264.938 227.771C262.257 231.791 256.318 229.621 256.318 229.621C256.318 229.621 255.681 228.419 254.723 223.873C253.765 219.327 253.192 203.314 253.192 203.314L250.955 189.862C248.913 184.688 248.466 178.56 248.466 178.56C247.565 176.196 245.4 160.681 245.4 160.681C245.4 160.681 246.301 174.599 245.721 181.944C245.142 189.288 248.655 199.17 248.655 199.17C248.655 199.17 250.637 208.43 249.613 211.304C248.589 214.178 252.168 226.05 252.168 226.05C251.868 229.5 241.701 228.095 241.701 228.095C241.701 228.095 236.917 215.259 236.079 207.533C235.577 202.878 234.756 198.262 233.62 193.72L232.791 182.992L231.32 176.65L229.567 168.287C227.585 162.159 226.981 151.91 226.981 151.91L225.447 141.854C224.444 136.882 225.747 131.045 226.612 127.991C226.987 126.667 227.288 125.859 227.288 125.859C228.167 126.484 233.206 127.216 235.812 127.811C237.239 128.14 238.706 128.257 240.166 128.159C246.756 127.636 253.274 126.441 259.621 124.592C260.05 124.463 260.278 124.388 260.278 124.388L260.413 125.538L260.732 128.276L261.299 133.138C261.299 133.138 263.023 159.06 262.002 162.564C260.981 166.068 262.704 177.878 262.704 177.878C261.747 180.679 264.746 192.066 264.746 192.066C264.746 192.066 266.854 207.277 266.278 211.556Z" fill="black"/>
    <path d="M266.278 211.181C265.704 215.46 264.938 227.396 264.938 227.396C262.257 231.419 256.318 229.245 256.318 229.245C256.318 229.245 255.681 228.044 254.723 223.501C253.765 218.958 253.192 202.938 253.192 202.938L250.955 189.468C248.928 184.295 248.466 178.151 248.466 178.151C247.565 175.788 245.4 160.273 245.4 160.273C245.4 160.273 246.301 174.191 245.721 181.535C245.142 188.88 248.655 198.774 248.655 198.774C248.655 198.774 250.637 208.034 249.613 210.908C248.589 213.781 252.168 225.657 252.168 225.657C251.868 229.104 241.701 227.699 241.701 227.699C241.701 227.699 236.917 214.877 236.079 207.148C235.577 202.493 234.756 197.878 233.62 193.336L232.791 182.61L231.32 176.289L229.567 167.927C227.585 161.795 226.981 151.547 226.981 151.547L225.447 141.491C224.444 136.519 225.747 130.681 226.612 127.628C226.987 126.306 227.288 125.499 227.288 125.499C228.167 126.123 233.206 126.853 235.812 127.447C237.238 127.778 238.706 127.895 240.166 127.796C246.756 127.273 253.274 126.077 259.621 124.229L260.278 124.027L260.413 125.174L260.732 127.916L261.299 132.777C261.299 132.777 263.023 158.697 262.002 162.204C260.981 165.711 262.704 177.518 262.704 177.518C261.747 180.316 264.746 191.702 264.746 191.702C264.746 191.702 266.854 206.896 266.278 211.181Z" fill="#474463"/>
    <path opacity="0.1" d="M248.46 54.1757C248.463 56.3333 247.9 58.454 246.826 60.3253C244.904 60.6646 242.86 60.2892 241.421 59.0191C240.436 58.1513 239.8 56.9652 238.953 55.9593C238.405 55.3412 237.816 54.7604 237.19 54.2208C236.782 53.8138 236.313 53.4725 235.8 53.2089C235.542 53.0786 235.258 53.0092 234.969 53.0061C234.68 53.003 234.394 53.0662 234.134 53.1908C233.455 53.5692 233.233 54.4129 232.84 55.0855C232.544 55.663 232.037 56.1047 231.425 56.3197C231.119 56.4176 230.79 56.4147 230.485 56.3115C230.181 56.2082 229.918 56.0101 229.735 55.7461C229.317 55.0285 229.624 53.9085 228.924 53.4701C228.739 53.379 228.549 53.3007 228.353 53.2359C227.453 52.8275 227.348 51.6174 227.27 50.6265C227.23 50.1401 227.125 49.5906 226.717 49.3294C226.309 49.0681 225.771 49.2002 225.285 49.2093C225.141 49.2149 224.997 49.2038 224.855 49.1762C226.002 46.5913 228.002 44.4787 230.52 43.1922C233.038 41.9056 235.922 41.5232 238.689 42.1088C241.455 42.6945 243.937 44.2128 245.718 46.4094C247.499 48.6061 248.471 51.3479 248.472 54.1757H248.46Z" fill="black"/>
    <path d="M224.099 38.1293C223.625 38.4792 223.231 38.9266 222.945 39.4415C222.658 39.9564 222.485 40.5267 222.438 41.114C222.415 41.3103 222.431 41.5091 222.483 41.6996C222.567 41.9017 222.667 42.0965 222.784 42.2821C223.414 43.5342 222.45 45.0175 222.573 46.4138C222.657 47.0734 222.977 47.6804 223.474 48.1221C223.971 48.5638 224.611 48.8103 225.276 48.816C225.762 48.816 226.297 48.6718 226.708 48.9361C227.119 49.2003 227.222 49.7468 227.261 50.2332C227.339 51.2241 227.438 52.4342 228.342 52.8426C228.536 52.909 228.727 52.9872 228.912 53.0768C229.615 53.5152 229.308 54.6382 229.726 55.3529C229.909 55.6168 230.172 55.8149 230.477 55.9182C230.781 56.0214 231.11 56.0243 231.416 55.9264C232.027 55.7123 232.533 55.2715 232.828 54.6953C233.215 54.0197 233.446 53.1939 234.125 52.8006C234.385 52.6748 234.671 52.6107 234.96 52.6133C235.249 52.6159 235.533 52.6851 235.791 52.8156C236.304 53.0803 236.773 53.4226 237.181 53.8305C237.808 54.3693 238.397 54.9501 238.944 55.5691C239.791 56.572 240.427 57.758 241.412 58.6258C243.268 60.2563 246.109 60.4274 248.397 59.4876C248.727 59.3775 249.025 59.1877 249.264 58.9351C249.473 58.6446 249.608 58.3076 249.658 57.9532C249.89 56.8228 249.957 55.6647 249.856 54.5151C249.775 53.6143 249.592 52.7135 249.655 51.8127C249.718 50.8458 250.063 49.912 250.111 48.9451C250.195 47.2335 249.345 45.6091 248.31 44.2549C247.685 43.4471 246.982 42.6995 246.442 41.8347C245.97 41.084 245.628 40.2583 245.124 39.5316C243.941 37.8351 241.947 36.8292 239.911 36.4778C237.875 36.1265 235.782 36.3427 233.743 36.682C231.966 36.9823 230.176 37.4087 228.375 37.5138C226.798 37.6249 225.528 37.0934 224.099 38.1293Z" fill="#472727"/>
    <path opacity="0.1" d="M239.238 70.1621L237.082 75.9393L233.35 86.4938C233.35 86.4938 233.317 86.6019 233.251 86.7941V86.8091L237.947 71.0569C238.397 70.7879 238.828 70.4889 239.238 70.1621Z" fill="black"/>
    <path d="M262.545 136.279C262.545 136.279 262.768 143.269 260.885 145.026L255.873 135.576L260.077 133.531L262.545 136.279Z" fill="#FFB9B9"/>
    <path opacity="0.1" d="M274.244 138.831C271.944 141.512 261.933 141.993 261.933 141.993L252.024 126.379C252.024 126.379 249.679 124.751 245.274 117.422C240.869 110.092 241.013 104.447 241.259 100.231C241.505 96.0153 244.262 83.8994 244.262 83.8994C244.691 81.1729 250.868 64.0815 250.868 64.0815C251.516 65.3757 252.723 66.4567 254.135 67.3485C257.948 69.7506 263.272 70.7355 263.272 70.7355C271.848 71.9817 270.265 80.8396 270.265 80.8396C270.265 80.8396 270.361 115.272 269.833 119.391C269.304 123.511 274.244 138.831 274.244 138.831Z" fill="black"/>
    <path d="M262.674 137.618L262.386 140.173L258.906 138.897L256.354 135.033L258.269 133.531L262.674 137.618Z" fill="#CBCDDA"/>
    <path opacity="0.1" d="M262.551 127.721L260.732 127.907L243.187 129.661C240.369 129.944 237.525 129.804 234.749 129.246L226.612 127.619C226.987 126.298 227.288 125.49 227.288 125.49C228.167 126.114 233.206 126.844 235.812 127.439C237.238 127.769 238.706 127.886 240.166 127.787C246.756 127.264 253.274 126.068 259.621 124.22L260.413 125.166L262.551 127.721Z" fill="black"/>
    <g opacity="0.1">
        <path opacity="0.1" d="M227.471 125.586C227.413 125.557 227.357 125.525 227.303 125.49C227.303 125.49 227.303 125.508 227.285 125.535L227.471 125.586Z" fill="black"/>
        <path opacity="0.1" d="M264.761 191.699C264.761 191.699 261.759 180.313 262.719 177.515C262.719 177.515 260.996 165.714 262.02 162.201C263.044 158.688 261.314 132.774 261.314 132.774L260.747 127.913L260.428 125.171L260.296 124.024L259.636 124.226L259.227 124.346L259.278 124.79L259.597 127.529L260.164 132.39C260.164 132.39 261.888 158.312 260.87 161.816C259.852 165.321 261.569 177.13 261.569 177.13C260.612 179.932 263.611 191.315 263.611 191.315C263.611 191.315 265.713 206.515 265.146 210.791C264.578 215.066 263.803 227.005 263.803 227.005C261.846 229.945 258.149 229.579 256.297 229.167L256.33 229.239C256.33 229.239 262.269 231.413 264.95 227.39C264.95 227.39 265.716 215.448 266.293 211.175C266.869 206.902 264.761 191.699 264.761 191.699Z" fill="black"/>
        <path opacity="0.1" d="M249.631 210.92C250.652 208.046 248.673 198.786 248.673 198.786C248.673 198.786 245.163 188.877 245.736 181.547C245.976 178.487 245.961 174.29 245.859 170.437C245.046 165.468 244.265 159.928 244.265 159.928C244.265 159.928 245.166 173.845 244.589 181.187C244.013 188.529 247.523 198.428 247.523 198.428C247.523 198.428 249.505 207.686 248.481 210.559C247.457 213.433 251.03 225.294 251.03 225.294C250.775 228.056 244.214 227.696 241.61 227.456L241.71 227.72C241.71 227.72 251.862 229.125 252.18 225.678C252.186 225.669 248.61 213.793 249.631 210.92Z" fill="black"/>
    </g>
    <path d="M274.625 138.831C272.328 141.512 262.314 141.993 262.314 141.993L252.405 126.379C252.405 126.379 250.06 124.751 245.652 117.422C241.244 110.092 241.394 104.447 241.638 100.231C241.881 96.0153 244.64 83.8994 244.64 83.8994C245.07 81.1729 251.246 64.0815 251.246 64.0815C251.892 65.3757 253.099 66.4567 254.513 67.3485C258.327 69.7506 263.65 70.7355 263.65 70.7355C272.223 71.9817 270.641 80.8396 270.641 80.8396C270.641 80.8396 270.737 115.272 270.208 119.391C269.68 123.511 274.625 138.831 274.625 138.831Z" fill="#4C4C78"/>
    <path opacity="0.1" d="M253.081 72.5549L250.925 73.3566L252.36 74.3625L241.641 100.222C241.89 96.0181 244.643 83.8901 244.643 83.8901C245.073 81.1637 251.249 64.0723 251.249 64.0723C251.895 65.3664 253.102 66.4474 254.516 67.3392L253.081 72.5549Z" fill="black"/>
    <path opacity="0.1" d="M255.666 118.623L266.632 115.797L268.07 120.25L256.864 122.983L255.666 118.623Z" fill="black"/>
    <path opacity="0.1" d="M261.939 74.3751C261.939 74.3751 256.957 79.0623 258.837 89.5087C260.717 99.9551 263.722 111.296 263.722 111.296L255.615 133.757C255.615 133.757 261.266 139.648 264.044 140.363L272.136 122.403C272.136 122.403 275.919 116.179 274.913 106.411C273.908 96.6431 270.268 80.8369 270.268 80.8369C270.268 80.8369 270.271 71.2162 261.939 74.3751Z" fill="black"/>
    <path d="M262.32 74.3751C262.32 74.3751 257.336 79.0623 259.209 89.5087C261.083 99.9551 264.092 111.296 264.092 111.296L255.984 133.757C255.984 133.757 261.635 139.648 264.413 140.363L272.52 122.403C272.52 122.403 276.304 116.179 275.298 106.411C274.292 96.6431 270.653 80.8369 270.653 80.8369C270.653 80.8369 270.653 71.2162 262.32 74.3751Z" fill="#4C4C78"/>
    <path opacity="0.1" d="M256.255 134.234C256.255 134.234 262.575 142.984 262.098 145.314C261.621 147.644 259.768 146.398 259.768 146.398L257.279 142.984L255.042 136.597C255.042 136.597 255.261 133.84 256.255 134.234Z" fill="black"/>
    <path opacity="0.1" d="M255.489 134.234C255.489 134.234 261.795 142.984 261.332 145.314C260.87 147.644 259.002 146.398 259.002 146.398L256.51 142.984L254.276 136.597C254.276 136.597 254.495 133.84 255.489 134.234Z" fill="black"/>
    <path d="M255.873 134.234C255.873 134.234 262.179 142.984 261.714 145.314C261.248 147.644 259.384 146.398 259.384 146.398L256.894 142.984L254.66 136.597C254.66 136.597 254.876 133.84 255.873 134.234Z" fill="#474463"/>
    <defs>
        <linearGradient id="paint0_linear" x1="230.873" y1="241.944" x2="230.873" y2="35.3964" gradientUnits="userSpaceOnUse">
            <stop stop-color="#808080" stop-opacity="0.25"/>
            <stop offset="0.54" stop-color="#808080" stop-opacity="0.12"/>
            <stop offset="1" stop-color="#808080" stop-opacity="0.1"/>
        </linearGradient>
    </defs>
</svg>